<?xml version="1.0" encoding="UTF-8"?>
<svg id="logo" xmlns="http://www.w3.org/2000/svg" viewBox="0 0 283.46 283.46">
  <defs>
    <style>
      .cls-1 {
        fill: #f9f0e1;
      }

      .cls-2 {
        fill: #f15623;
      }

      .cls-3 {
        fill: #4c2539;
      }

      .cls-4 {
        fill: #74a4d7;
      }
    </style>
  </defs>
  <rect class="cls-1" x=".49" y="-.24" width="283.46" height="283.46"/>
  <g>
    <path class="cls-3" d="m22,115.21c-2.25,6.3-2.05,11.31-1.87,18.44,0,0,.55,21.02.27,48.85-.12,12.57-1.27,56.04,3.12,61.01,3.48,3.95,7.72,4.98,7.72,4.98s4.87,1.19,10.83-1.42c20.14-8.82,36.25-93.09,36.25-93.09,13.38-70.03,22.4-93.6,14.03-96.74-6.63-2.49-20.16,9.07-27.45,20.19-12.53,19.11-3.4,32.06-6.98,71.69-1.83,20.24-6.47,44.63-10.04,44.51-3.15-.11-6.05-18.67-6.11-35.36-.14-41.44,16.37-63.76,9.8-68.18-5.4-3.63-23.62,8.46-29.57,25.11Z"/>
    <path class="cls-2" d="m197.02,143.43c2.11,14.68,5.63,29.21,6.75,43.99,2.29,30.37-1.32,47.29,10.44,55.13,5.43,3.61,13.73,5.03,17.44,2.02,5.28-4.3-1.62-15.31-5.95-41.55-1.81-10.95-2.99-23.56-1.88-23.88,1.32-.39,7.38,16.38,10.94,35.69,3,16.25,2.2,23.31,7.53,28.74,4.98,5.07,13.55,6.97,17.84,2.74,7.14-7.03,1.23-29.84-3.55-42.34-11.88-31.08-34.28-38.35-30.57-53.25.21-.83,5.7-8.11,16.62-22.69,4.31-5.75,6.74-8.93,7.19-13.98.77-8.65-4.96-15.23-6.39-16.78-2.67-2.88-9.37-8.68-13.05-6.7-3.66,1.97-.22,9.63-2.73,21.81-2.19,10.65-7.65,22.15-10.58,21.64-3.73-.65-5.17-21.09-2.54-38.82,1.22-8.26,2.57-10.22,1.56-14.85-2.96-13.64-19.75-25.87-26.74-22.8-5.35,2.35-2.85,12.72,7.68,85.89Z"/>
    <path class="cls-4" d="m196.44,248.06c-5.71,3.37-14.08,1.78-18.82-1.02-11.17-6.62-8.38-23.73-8.02-46.75.66-41.55-6.95-77.39-10.13-77.4-2.06,0-4.51,15.13-5.43,23.09-1.5,13.17-.1,18.09-3.68,21.81-2.32,2.41-6,3.56-9.66,3.39-3.67.17-7.34-.98-9.66-3.39-3.59-3.72-2.18-8.64-3.68-21.81-.91-7.96-3.37-23.09-5.43-23.09-3.18.02-10.79,35.85-10.13,77.4.37,23.03,3.15,40.13-8.02,46.75-4.74,2.8-13.11,4.39-18.82,1.02-14.05-8.28,2.54-37.88,10.33-107.44,1.7-15.2,4.27-30.34,5.14-45.6,1.33-23.22.09-35.93,8.37-48.27,5.1-7.6,14-15.33,19.15-12.74,4.39,2.21,3.57,10.7,5.39,28.83,1.57,15.73,4.75,35.08,7.36,40.31,2.61-5.24,5.79-24.58,7.36-40.31,1.81-18.13.99-26.62,5.38-28.83,5.14-2.59,14.04,5.14,19.15,12.74,8.29,12.34,7.04,25.05,8.37,48.27.88,15.26,3.44,30.4,5.15,45.6,7.79,69.56,24.37,99.16,10.32,107.44Z"/>
  </g>
</svg>