<?xml version="1.0" encoding="UTF-8"?>
<svg id="logo" xmlns="http://www.w3.org/2000/svg" viewBox="0 0 233 218">
  <defs>
    <style>
      .cls-1 {
        fill: #f9f0e1;
      }
    </style>
  </defs>
  <path class="cls-1" d="m155.75,23.96h-78.5c-12.14.01-23.78,4.84-32.36,13.43-8.58,8.58-13.41,20.22-13.43,32.36v78.5c.01,12.14,4.84,23.78,13.43,32.36,8.58,8.58,20.22,13.41,32.36,13.43h78.5c12.14-.01,23.78-4.84,32.36-13.43,8.58-8.58,13.41-20.22,13.43-32.36v-78.5c-.01-12.14-4.84-23.78-13.43-32.36-8.58-8.58-20.22-13.41-32.36-13.43Zm-39.25,124.29c-7.76,0-15.35-2.3-21.81-6.61-6.45-4.31-11.49-10.44-14.46-17.61-2.97-7.17-3.75-15.06-2.23-22.68,1.51-7.61,5.25-14.61,10.74-20.1,5.49-5.49,12.48-9.23,20.1-10.74,7.61-1.51,15.51-.74,22.68,2.23,7.17,2.97,13.3,8,17.61,14.46,4.31,6.45,6.61,14.04,6.61,21.81-.01,10.41-4.15,20.38-11.51,27.74-7.36,7.36-17.33,11.5-27.74,11.51Zm49.06-78.5c-1.94,0-3.84-.58-5.45-1.65-1.61-1.08-2.87-2.61-3.61-4.4s-.94-3.77-.56-5.67c.38-1.9,1.31-3.65,2.69-5.02,1.37-1.37,3.12-2.31,5.02-2.69,1.9-.38,3.88-.18,5.67.56,1.79.74,3.33,2,4.4,3.61,1.08,1.61,1.65,3.51,1.65,5.45,0,2.6-1.03,5.1-2.87,6.94-1.84,1.84-4.34,2.87-6.94,2.87Zm-22.9,39.25c0,5.18-1.53,10.23-4.41,14.54-2.88,4.3-6.96,7.66-11.74,9.64-4.78,1.98-10.04,2.5-15.12,1.49-5.08-1.01-9.74-3.5-13.4-7.16-3.66-3.66-6.15-8.32-7.16-13.4-1.01-5.08-.49-10.34,1.49-15.12,1.98-4.78,5.33-8.87,9.64-11.74,4.3-2.88,9.36-4.41,14.54-4.41,6.94,0,13.59,2.76,18.5,7.66,4.91,4.91,7.66,11.56,7.66,18.5Z"/>
</svg>