<?xml version="1.0" encoding="UTF-8"?>
<svg id="logo" xmlns="http://www.w3.org/2000/svg" viewBox="0 0 383 240">
  <defs>
    <style>
      .cls-1 {
        fill: #4c2539;
      }
    </style>
  </defs>
  <path class="cls-1" d="m360.57,32.26c-8.53-8.17-22.32-8.23-30.92-.17h0s-.18.17-.19.17c-38.19,36.59-76.38,73.19-114.57,109.78-1.6,1.61-9.7,9.45-22.64,9.7-12.75.24-21.07-7.06-22.78-8.63-38.58-36.96-77.16-73.92-115.74-110.88h0s-.11-.11-.12-.11h0C34.45,12.96,2.11,42.19,22.5,61.92h0s.11.11.12.12h0s151.39,145.03,151.39,145.03c16.56,16.39,36.94.94,48.74-12.92l-.02-.02L360.57,62.06s.18-.17.19-.18h0c8.41-8.25,8.35-21.46-.18-29.63Z"/>
</svg>