<?xml version="1.0" encoding="UTF-8"?>
<svg id="logo" xmlns="http://www.w3.org/2000/svg" viewBox="0 0 278.4 469.74">
  <defs>
    <style>
      .cls-1 {
        fill: #231f20;
      }
    </style>
  </defs>
  <path class="cls-1" d="m231.12,57.76c8.56,8.94,8.62,23.38.18,32.4h0s-.18.19-.19.2c-38.33,40.01-76.67,80.01-115,120.02-1.69,1.67-9.9,10.16-10.16,23.71-.26,13.36,7.4,22.07,9.04,23.86,38.72,40.42,77.44,80.83,116.15,121.25h0s.11.12.12.12h0c20.07,20.07-10.55,53.95-31.22,32.59h0s-.11-.12-.12-.12h0S47.99,253.2,47.99,253.2c-17.17-17.35-.98-38.7,13.54-51.06l.03.03L199.89,57.76s.18-.19.19-.19h0c8.64-8.8,22.47-8.74,31.03.19Z"/>
</svg>