<?xml version="1.0" encoding="UTF-8"?>
<svg id="logo" xmlns="http://www.w3.org/2000/svg" viewBox="0 0 262.16 274.46">
  <defs>
    <style>
      .cls-1 {
        fill: #f9f0e1;
      }

      .cls-2 {
        fill: #73A4D7;
      }
    </style>
  </defs>
  <circle class="cls-2" cx="128.08" cy="132.73" r="122.95"/>
  <path class="cls-1" d="m75.82,137.88c2.64,2.53,6.9,2.54,9.56.05h0s.06-.05.06-.05c0,0,0,0,0,0h0s35.86-34.35,35.86-34.35v74.25h.01c.1,3.34,3.1,6.02,6.8,6.02s6.7-2.68,6.8-6.02h0v-.17s0,0,0,0,0,0,0,0v-74l35.79,34.29h0s0,0,0,0l.03.03h0c2.66,2.51,6.94,2.5,9.58-.04,2.64-2.53,2.66-6.63.04-9.18h0s-.03-.03-.03-.03c0,0,0,0,0,0h0s-46.82-44.85-46.82-44.85c-3.01-2.88-7.89-2.88-10.9,0l-4.17,4h0s-42.63,40.84-42.63,40.84h0s0,0,0,0l-.06.05h0c-2.6,2.55-2.58,6.64.06,9.16Z"/>
</svg>