<?xml version="1.0" encoding="UTF-8"?>
<svg id="logo" xmlns="http://www.w3.org/2000/svg" viewBox="0 0 546.2 546.86">
  <defs>
    <style>
      .cls-1 {
        fill: #66a4d9;
      }

      .cls-2 {
        fill: #fdf1e0;
      }
    </style>
  </defs>
  <circle class="cls-1" cx="275.43" cy="274.77" r="257.18"/>
  <path class="cls-2" d="m456.6,270.73c-2.62,17.8-2.75,21.51-5.94,27.4-1.95,3.56-4.64,8.4-8.83,8.73-.79.05-2.75.05-5.66-2.29-4.27,37.25-17.85,85.07-56.55,123.19-14.01,13.77-49.52,48.75-102.34,49.26-55.41.54-92.92-37.18-107.01-51.34-40.66-40.88-53.03-92.16-56.32-130.25-2.85,2.46-4.8,2.46-5.56,2.41-4.03-.33-6.63-5.16-8.48-8.73-3.07-5.91-3.18-9.6-5.71-27.4-1.3-9.19-1.68-11.13-.87-14.62.2-.89,2.77-11.48,9.12-13.2,3.71-1.01,7.9,1.25,11.68,4.98.69-10.56,1.42-18.26,1.91-21.41,1.73-10.84,7.54-49.97,32.2-81.7,6.35-8.17,51.52-64.3,126.99-63.21,68.92.99,111.73,48.96,126.39,68.42,29.54,39.24,33.17,80.1,35.17,106.09,3.66-3.23,7.65-5.06,11.2-4.14,6.61,1.72,9.29,12.32,9.5,13.2.84,3.48.43,5.43-.91,14.62Z"/>
</svg>