<?xml version="1.0" encoding="UTF-8"?>
<svg id="logo" xmlns="http://www.w3.org/2000/svg" viewBox="0 0 85.04 85.04">
  <defs>
    <style>
      .cls-1 {
        fill: #f9f0e1;
      }
    </style>
  </defs>
  <path class="cls-1" d="m55.6,14.17h-26.17c-4.05,0-7.93,1.61-10.79,4.48s-4.47,6.74-4.48,10.79v26.17c0,4.05,1.61,7.93,4.48,10.79,2.86,2.86,6.74,4.47,10.79,4.48h26.17c4.05,0,7.93-1.61,10.79-4.48,2.86-2.86,4.47-6.74,4.48-10.79v-26.17c0-4.05-1.61-7.93-4.48-10.79-2.86-2.86-6.74-4.47-10.79-4.48Zm-13.08,41.43c-2.59,0-5.12-.77-7.27-2.2-2.15-1.44-3.83-3.48-4.82-5.87-.99-2.39-1.25-5.02-.74-7.56.5-2.54,1.75-4.87,3.58-6.7,1.83-1.83,4.16-3.08,6.7-3.58,2.54-.5,5.17-.25,7.56.74,2.39.99,4.43,2.67,5.87,4.82,1.44,2.15,2.2,4.68,2.2,7.27,0,3.47-1.38,6.79-3.84,9.25-2.45,2.45-5.78,3.83-9.25,3.84Zm16.35-26.17c-.65,0-1.28-.19-1.82-.55-.54-.36-.96-.87-1.2-1.47s-.31-1.26-.19-1.89c.13-.63.44-1.22.9-1.67.46-.46,1.04-.77,1.67-.9.63-.13,1.29-.06,1.89.19.6.25,1.11.67,1.47,1.2.36.54.55,1.17.55,1.82,0,.87-.34,1.7-.96,2.31-.61.61-1.45.96-2.31.96Zm-7.63,13.08c0,1.73-.51,3.41-1.47,4.85-.96,1.43-2.32,2.55-3.91,3.21-1.59.66-3.35.83-5.04.5-1.69-.34-3.25-1.17-4.47-2.39-1.22-1.22-2.05-2.77-2.39-4.47-.34-1.69-.16-3.45.5-5.04.66-1.59,1.78-2.96,3.21-3.91,1.43-.96,3.12-1.47,4.85-1.47,2.31,0,4.53.92,6.17,2.55,1.64,1.64,2.55,3.85,2.55,6.17Z"/>
</svg>