<?xml version="1.0" encoding="UTF-8"?>
<svg id="logo" xmlns="http://www.w3.org/2000/svg" viewBox="0 0 395 243">
  <defs>
    <style>
      .cls-1 {
        fill: #f9f0e1;
      }
    </style>
  </defs>
  <path class="cls-1" d="m356.92,38.77c-8.04-7.7-21.04-7.76-29.16-.16h0s-.17.16-.18.16c-36.01,34.5-72.02,69.01-108.03,103.51-1.51,1.52-9.14,8.91-21.34,9.15-12.02.23-19.87-6.66-21.48-8.14-36.38-34.85-72.76-69.7-109.14-104.55h0s-.11-.1-.11-.11h0c-18.06-18.06-48.56,9.5-29.33,28.1h0s.11.1.11.11h0s142.75,136.75,142.75,136.75c15.62,15.45,34.84.89,45.96-12.19l-.02-.02,129.98-124.52s.17-.16.17-.17h0c7.93-7.78,7.87-20.23-.17-27.94Z"/>
</svg>