<svg width="323" height="101" viewBox="0 0 323 101" fill="none" xmlns="http://www.w3.org/2000/svg">
<path d="M157.557 2.27063C158.963 1.46092 159.666 1.05607 160.411 0.889849C161.128 0.72995 161.872 0.72995 162.589 0.889849C163.334 1.05607 164.037 1.46092 165.443 2.27064L310.4 85.7541C317.819 90.0268 321.528 92.1632 322.097 94.0763C322.632 95.8794 322.111 97.8306 320.747 99.1258C319.299 100.5 315.019 100.5 306.457 100.5H16.5426C7.98131 100.5 3.70064 100.5 2.25344 99.1258C0.889406 97.8306 0.367715 95.8794 0.903326 94.0763C1.4716 92.1632 5.18105 90.0268 12.6 85.7542L157.557 2.27063Z" fill="#FD5200"/>
</svg>
