<?xml version="1.0" encoding="UTF-8"?>
<svg id="logo" xmlns="http://www.w3.org/2000/svg" viewBox="0 0 514 468">
  <defs>
    <style>
      .cls-1 {
        fill: #fdf2e1;
      }
    </style>
  </defs>
  <path class="cls-1" d="m71.2,104.7c-1.3,2.83-1.19,5.08-1.08,8.27,0,0,.32,9.43.16,21.92-.07,5.64-.73,25.14,1.8,27.38,2.01,1.77,4.46,2.23,4.46,2.23,0,0,2.82.53,6.27-.64,11.65-3.96,20.95-41.77,20.95-41.77,7.74-31.42,12.95-42,8.11-43.4-3.83-1.11-11.66,4.07-15.87,9.06-7.24,8.57-1.96,14.39-4.03,32.16-1.06,9.08-3.74,20.02-5.8,19.97-1.82-.05-3.5-8.38-3.53-15.86-.08-18.59,9.46-28.61,5.67-30.59-3.13-1.63-13.65,3.8-17.1,11.27h0Z"/>
  <path class="cls-1" d="m80.01,331.91c1.24,6.6,3.3,13.13,3.95,19.77,1.35,13.65-.78,21.25,6.11,24.78,3.17,1.62,8.04,2.26,10.2.9,3.09-1.93-.95-6.88-3.48-18.67-1.06-4.92-1.75-10.58-1.1-10.74.78-.17,4.31,7.36,6.4,16.04,1.76,7.3,1.28,10.48,4.41,12.92,2.91,2.28,7.93,3.13,10.44,1.23,4.18-3.16.72-13.41-2.08-19.03-6.95-13.96-20.06-17.23-17.89-23.93.12-.38,3.34-3.65,9.73-10.2,2.52-2.58,3.95-4.02,4.21-6.28.45-3.89-2.9-6.84-3.74-7.54-1.56-1.29-5.48-3.9-7.64-3.01-2.15.88-.13,4.33-1.6,9.8-1.28,4.78-4.48,9.96-6.19,9.72-2.18-.29-3.02-9.48-1.49-17.45.71-3.71,1.51-4.59.91-6.67-1.74-6.13-11.56-11.63-15.65-10.24-3.13,1.05-1.67,5.72,4.49,38.6h0Z"/>
  <path class="cls-1" d="m127.81,271.83c-2.76,1.26-6.8.67-9.08-.38-5.39-2.48-4.05-8.87-3.88-17.49.32-15.53-3.36-28.94-4.89-28.95-1,0-2.18,5.66-2.62,8.64-.72,4.93-.04,6.77-1.78,8.16-1.12.9-2.9,1.33-4.67,1.27-1.77.06-3.54-.37-4.66-1.27-1.74-1.39-1.05-3.23-1.78-8.16-.44-2.97-1.63-8.64-2.62-8.64-1.53,0-5.21,13.41-4.89,28.95.18,8.61,1.52,15.01-3.87,17.49-2.29,1.05-6.34,1.64-9.09.38-6.78-3.1,1.22-14.16,4.99-40.18.82-5.68,2.06-11.35,2.48-17.05.64-8.68.04-13.43,4.04-18.05,2.47-2.84,6.77-5.73,9.24-4.76,2.12.82,1.73,4,2.6,10.78.76,5.88,2.29,13.12,3.55,15.08,1.26-1.96,2.79-9.2,3.56-15.08.87-6.78.48-9.95,2.6-10.78,2.48-.97,6.78,1.92,9.24,4.76,4,4.61,3.4,9.37,4.04,18.05.42,5.7,1.67,11.37,2.48,17.05,3.76,26.01,11.77,37.08,4.99,40.18Z"/>
  <path class="cls-1" d="m122.57,345.47c-.16-4.44-.62-6.64,1.24-7.75,2.41-1.45,7.47-.4,9.32,1.94,1.04,1.31.5,2.6.44,4.83-.09,3.48-.39,12.41-.26,15.29.18,4.1-.06,6.25,1.66,7.05,1.01.46,2.42.38,3.4-.08,2.72-1.26,2.41-5.37,2.09-8.88-.48-5.35-1.88-6.7-2.49-12.39-.46-4.31-.67-6.66,1.2-7.75,2.3-1.36,6.97-.27,9.33,1.94,2.05,1.94,1.76,4.19,1.4,9.59-.8,12.06.07,10.17-.69,14.14-1.23,6.42-2.43,12.65-7.72,14.89-2.61,1.1-5.6,1.13-5.6,1.13-10.4,0-12.84-7.46-13.05-19.56-.13-8.13-.17-11.98-.26-14.37h-.02Z"/>
  <path class="cls-1" d="m153.43,371.44c.25-8.14.39-23.6.39-25.99,0-1.71-.3-3.48-.09-5.44.18-1.61,1.11-2.13,1.3-2.29,1.83-1.5,5.55-1.63,7.62-.25,1.41.93,1.72,2.34,2.03,3.7.37,1.64.15,2.96.09,3.3-1.02,5.67-6.08,25.81-3.51,26.62,1.28.4,4.68-3.89,8.9-4.24.33-.03.8-.04,1.33.1,2.46.66,3,3.82,3.08,4.36,1.08,3.1.2,5.91-2.01,6.98-.47.22-1.25.5-2.45.48-1.64.24-3.85.49-6.5.6-4.33.17-6.52.24-8.04-.87-1.38-1.01-1.89-2.54-2.03-3.76-.13-1.1-.13-2.26-.13-3.3h.02Z"/>
  <path class="cls-1" d="m175.01,347.05c-.44-.38-.49-.66-.99-4.1-.45-3.1-.66-4.66.16-5.26.4-.29,1.11-.58,2.45-.48,6.09-.35,10.56-.63,14.45-.89,2.1-.14,4.33-.29,5.68.82,1.14.95,1.04,2.33.84,4.92-.25,3.15-.4,5.17-2.22,5.96-.36.16-1.8.72-4.43-.22-1.79,10.96-1.23,18.07-.22,22.72.25,1.13,1.46,6.52-1.2,7.75-.22.1-.61.25-4.54.33-2.78.06-4.18.09-4.43,0-3.53-1.23-2.68-10.94-.41-18.99,1.63-5.78,3.8-10.03,1.54-11.46-1.78-1.13-4.82.43-6.64-1.1h-.03Z"/>
  <path class="cls-1" d="m202.34,337.71c.82-.39,1.64-.48,2.15-.5h3.94c1.82,0,2.76,1.02,3.24,2.45.65,1.94.71,3.63.44,4.83-.09.41-.37,3.48-.93,9.61-.26,2.78-1.08,11.77,2.34,12.72.78.22,1.53-.06,1.6-.09,2.19-.85,1.79-4.8,1.57-6.96-1.37-13.63-2-20.48,1.02-22.06.37-.19,1.04-.47,2.15-.5,2.04.1,5.27.53,7.18,2.45,1.81,1.81,1.5,3.99,1.06,8.59-.26,2.58-.62,6.53-.96,11.52,1.25,8.56-1.31,15.94-7.11,18.49-2.71,1.19-5.6,1.13-5.6,1.13-6.35-.14-10.32-5.06-10.87-5.75-2.67-3.32-1.82-5.55-2.18-13.82-.58-13.19-3.31-20.09.98-22.12h0Z"/>
  <path class="cls-1" d="m232.35,345.47c-.4-2.11-1.27-6.22,1.2-7.75.52-.32,1.21-.5,2.15-.5.65-.1,11.19-1.64,17.78,4.13.56.49,5.15,4.64,4.42,10-.12.91-.33,2.5-1.66,4.08-2.66,3.19-6.44,2.33-7.48,4.3-1.27,2.38,3.39,5.18,8.59,14.02.8,1.36,2.08,3.67.97,4.64-.22.19-.66.44-4.16.44-2.73,0-4.1,0-4.57-.22-2.2-1.02-1.24-3.82-2.64-7.73-.88-2.46-2.32-4.36-3.55-5.67h-.51c-1.19,2.61-1.39,4.74-1.35,6.22.11,3.28,1.49,5.86-.09,6.94-.59.39-1.36.44-1.9.41-2.06.33-4.7.46-6.46-.72-3.11-2.09-.56-6.24-.14-15.02.33-6.84.56-11.6-.59-17.58Zm14.76,5.22c.7-1.36.07-3.31-1.82-3.87-1.62-.48-3.5.25-4.19,1.34-1.08,1.72.91,4.25,3.05,4.3,1.29.03,2.49-.85,2.96-1.77Z"/>
  <path class="cls-1" d="m261.62,345.47c-.55-4.39-.46-6.89,1.28-7.75.51-.25,1.12-.35,2.15-.5,1.25-.18,2.6-.39,3.98,0,2.01.57,2.93,2.08,3.16,2.45.97,1.57.62,2.95.4,4.83-.51,4.18-.98,8.02,1.2,9.27,1.47.85,4.17.55,5.18-.47.89-.89.1-1.94.04-6.75v-1.08c.04-4.53.06-6.79,1.27-7.75,1.43-1.14,4.25-1.28,6.13-.5,2.95,1.22,3.31,4.56,3.55,7.28.39,4.3-.9,5.52-1.49,9.91-.67,5.03.13,10.15,1.05,16.13.43,2.76,1.13,6.49-1.18,7.75-.54.29-1.07.36-2.15.5-1.45.19-5.14.68-6.88-.59-1.68-1.22-1.18-4.59-.11-11.28.26-1.65.5-2.82-.42-3.67-1.42-1.3-5.08-1.34-6.67,0-.67.57-1.14,1.51.04,7.28,1.05,5.13,1.93,6.78.72,7.68-.92.7-2.64.5-6.07.12-2.67-.3-4.01-.45-4.75-.97-2.28-1.6.09-5.02,1.06-11.55.28-1.87,1-7.02-.21-13.15-.31-1.56-.84-3.71-1.29-7.19h0Z"/>
  <path class="cls-1" d="m295.85,337.71c2.11-1.34,6.31-1.38,8.66.27,3.2,2.24,2.46,8.78.84,21.79-.24,1.93-.77,5.9,1.66,7.05.1.05,1.36.63,2.39.23,2.98-1.14.08-8.92.62-21.59.14-3.42.51-6.53,3.34-8.25,1.61-.98,4.24-1.65,5.92-.82,1.22.61,1.39,1.74,1.4,9.27,0,4.13-.04,8.22-.04,12.88v1.23c0,6.43-.02,9.65-.4,10.85-.31,1-1.71,5.47-6.72,7.65-.85.37-2.94,1.26-5.6,1.13-7.39-.33-11.42-8.03-11.78-8.75-1.19-2.35-.54-2.59-1.27-10.81-.37-4.08-.93-8.59-.92-15.21,0-4.08.24-5.86,1.9-6.91h0Z"/>
  <path class="cls-1" d="m323.47,369.48c.11-1.31.4-5,2.92-5.81,3.33-1.06,7.4,4,9.83,2.95,1.62-.7,1.86-3.8.56-6.14-2.13-3.81-6.91-3.01-10.39-6.82-2.46-2.69-3.48-6.82-1.64-10.45,1.91-3.78,6.56-6.34,11.04-6.61.91-.06,3.99-.19,6.89,1.28.89.45,1.55.89,2,1.47,1.86,2.42,2.22,6.2.14,7.34-2,1.1-4.71-1.1-7.68.31-.24.12-1.68.8-1.7,1.77-.02.76.86,1.33,1.22,1.57,2.3,1.53,4.18,3.46,6.62,4.85,4.22,2.4,6.81,7.87,6.07,12.56-.65,4.11-3.88,8.45-9.16,10.39-.84.31-6.81,2.41-11.55.16-1.37-.65-2.22-1.47-2.62-1.86-2.82-2.76-2.62-6.01-2.55-6.95h0Z"/>
  <path class="cls-1" d="m136.49,241.14c-.19-1.67-.77-5.89,1.64-6.98.75-.33,2.15-.54,2.33-.56,1.65-.22,3-.1,3.74,0,.67.1,1.23.17,1.6.32,2.02.83,1.12,5,.66,8.01,0,0-.78,5.16-.5,11.85.26,6.22,1,10.15,1,10.15.61,3.22,1.44,6.22-.56,7.47-.73.46-1.64.55-2.3.55h-3.74c-1.57.22-3.27.2-4.51-.54-3.42-2.04.49-7.18.64-17.63.17-11.27,0-12.66,0-12.66h0Z"/>
  <path class="cls-1" d="m154.92,249.28c-.1-7.91-2.08-13.8.99-15.11.72-.31,2.1-.53,2.37-.57,2.09-.34,4.25-.26,5.29,0,2.98.74,3.33,4.56,4.98,8.98,2.52,6.72,6.96,11.95,7.81,11.72.63-.17-.14-3.83-1.7-11.15-.93-4.39-1.7-7.45.43-8.84.88-.58,1.99-.69,2.76-.7.83-.1,2.07-.19,3.54,0,.44.05,1.14.15,1.6.32,2.19.84,1.85,4.78,1.8,5.38,0,0-.1,1.19-.37,15.13-.18,9.27,3.39,16.26.57,17.25-.02,0-1.26.1-3.75.28-1.32.1-2.3.16-3.6,0-.74-.1-1.12-.14-1.49-.29-1.74-.68-1.81-3.04-1.96-4.51-.12-1.17-.81-3.18-2.17-7.21-.74-2.19-3.28-9.68-7.35-10.17-.23-.03-.34-.04-.48,0-2.27.66-.03,11.71.77,15.68.35,1.73,1.04,4.91-.86,5.92-.63.33-1.61.47-2.35.57-1.56.21-2.88.12-3.74,0-1.01-.02-2.4-.18-3.44-.93-2.4-1.7-1.24-5.21-.5-8.89.92-4.58.88-7.94.82-12.87h0Z"/>
  <path class="cls-1" d="m192.7,234.15c.72-.31,1.48-.42,2.29-.55,4.68-.73,8.66.93,10.61,1.77,4.7,2.03,7.18,4.88,9.47,7.6,2.35,2.78,4.78,5.67,5.66,9.82.4,1.9,2.09,9.85-4.84,15.29-6.55,5.15-16.05,4.32-21.04,3.89-.55-.05-1.03-.11-1.56-.31-3.88-1.48-2.83-7.4-2.8-15.81.05-12.79-2.29-19.79,2.22-21.7h0Zm6.73,13.9c-.62.39-.7.89-.81,5.61-.1,4.49-.04,4.94.5,5.41,2.1,1.81,8.77,1.5,11.01-1.6,2.17-3.01-1.33-6.57-1.54-6.77-2.48-2.44-7.23-3.84-9.15-2.65h0Z"/>
  <path class="cls-1" d="m227.47,260.97c3.78-1.95,9.74,2.33,12,.55,1.33-1.04.76-3.66-.83-5.28-2.76-2.8-7.19-1.19-10.8-4-2.57-1.99-2.82-4.75-2.95-6.12-.06-.63-.45-6.06,4.96-9.73,4.63-3.15,11.55-3.67,15.53-1.83.69.32,1.4.76,1.99,1.4,2.06,2.23,1.74,6-.39,6.99-2.23,1.04-4.75-1.81-8.79-.77-.37.1-3.02.81-3.71,2.59-.13.34-.38.99,0,1.55.79,1.15,3.37.59,6.31,1.16,3.74.73,6.04,2.9,7.48,4.25,1.13,1.06,2.98,3.12,3.82,6.06.42,1.49,1.58,5.53-1.33,9.27-3.99,5.14-12.32,5.42-14.12,5.48-1.6.06-4.8.13-7.87-1.36-.76-.37-1.81-.88-2.62-1.82-2.21-2.56-1.49-6.95,1.31-8.39h0Z"/>
  <path class="cls-1" d="m260.73,242.85c-.56-.16-2.3-.07-5.78.12-.54.03-1.11.06-1.63-.21-.25-.13-.82-.5-1.09-2.9-.11-1-.23-2.13.05-3.67.19-1.1.3-1.68.6-2.14,2.45-3.82,18.69-.37,24.17-.62.24-.01.9-.05,1.47.25.85.44.96,1.36,1.15,3.19.19,1.87,0,3.08-.05,3.44-.2,1.23-.3,1.84-.62,2.15-1.57,1.53-5.73-.67-8.12.44-1.86.87-2.25,3.59-.19,13.58,1.71,8.25,3.55,13.95.99,15.07-.56.25-1.79.3-4.27.41-1.93.09-3.32.02-3.74,0-2.18-.12-3.27-.17-3.79-.41-2.66-1.21.33-7.99,1.98-17.66.34-2,1.68-10.26-1.15-11.05h0Z"/>
  <path class="cls-1" d="m283.53,245.85c1.01-8.16.78-9.14,2.36-10.45,2.23-1.85,7.05-1.91,16.71-2.02.7,0,1.91.06,2.96.68,2.96,1.75,2.81,6.96-.08,8.42-.22.11-.62.46-2.07.44-5.67-.06-7.68-.77-9.03-.06-2.06,1.08-1.9,5.09,0,5.98,1.16.54,3.21.03,7.38-.06.24,0,.7-.01,1.15.19.77.35,1.06,1.09,1.27,2.35.4,2.42.73,4.31-.67,5.09-.43.24-.87.33-1.52.33-4.75-.06-6.61-.57-7.76,0-1.96.95-2.07,5.01,0,6.1,1.05.55,2.51.25,9.32-.17.43-.03,1.18-.06,1.83.29.84.46.99,1.29,1.23,2.82.29,1.85.07,3.22,0,3.61-.21,1.19-.32,1.79-.61,2.15-1.69,2.14-7.72.06-18.57.44-3.1.11-3.68.31-4.62-.15-2.17-1.08-2.18-3.81-.83-14.94.99-8.14.79-5.05,1.54-11.02h0Z"/>
  <path class="cls-1" d="m110.96,127.85c.32-.14.93-.27,2.18-.52,4.9-1,8.43-.68,15.31,0,.75.08,1.27.14,1.82.42,2.92,1.51,1.15,6.42.75,7.32-.13.3-.35.68-.83.98-.68.41-1.49.41-1.93.4-5.42-.06-7.32-.72-8.61-.05-2.01,1.05-1.86,5,0,5.86,1.11.51,2.66-.17,7.03-.05.4,0,.7.03,1.05.16,1.93.8,1.4,4.23,1.27,5.09-.19,1.24-.29,1.86-.65,2.23-2.07,2.11-7.9-.39-9.9,1.49-1.3,1.22-.65,3.96,1.06,4.79,1.1.53,2.55.23,8.88-.16.4-.03,1.09-.06,1.71.26.84.44.98,1.28,1.21,2.78.28,1.84.06,3.18,0,3.54-.2,1.17-.31,1.75-.6,2.13-1.44,1.85-6.23.74-17.68.42-3.61-.1-3.97-.01-4.71-.4-3.84-1.96-.62-7.6-.13-18.52.44-9.93-1.75-16.17,2.76-18.15h0Z"/>
  <path class="cls-1" d="m138.25,127.84c2.64-1.41,7.16-.96,11.72-.51,2.52.25,4.1.42,5.94,1.18,4.27,1.76,5.96,5,6.87,6.74.65,1.25,2.66,5.11.8,8.81-.03.06-.18.35-.41.73-2.14,3.39-4.97,3.5-5.91,5.2-.36.65-.39,1.44,4.49,8.76,2.4,3.59,3.56,5.14,2.7,6.07-.55.59-1.86.66-4.49.8-2.63.14-3.94.2-5.01-.3-1.12-.53-1.48-1.39-2.48-5.1-1.42-5.26-1.68-7.12-3.47-7.74-.08-.03-1.37-.46-2.27,0-1.51.78-.95,3.65-.04,7.96.58,2.77,1,3.78.18,4.38-.61.44-1.4.3-5.39.1-3.88-.19-3.8-.1-4.11-.2-3.36-1.15-.78-8.86-.39-18.12.5-11.55-2.77-16.59,1.28-18.77Zm14.27,13.96c1.46-1.45.62-3.5-.58-4.6-1.67-1.53-4.9-2.03-6.09-1.12-.61.46-.52,1.44-.33,3.4.15,1.56.23,2.35.77,2.79,1.29,1.06,4.65,1.1,6.24-.47h0Z"/>
  <path class="cls-1" d="m168.76,142.44c-.19-7.79-2.29-13.04.99-14.6.74-.35,1.6-.45,2.15-.51,3.53-.4,6.49,1.24,8.14,2.2,16.21,9.31,16.22,19.59,16.22,19.59,0,1.77.02,9.6-7.3,13.68-4.19,2.33-8.68,2.26-17.21,2.13-.28,0-.86-.02-1.44-.28-2.15-.97-1.88-4.21-1.79-5.35,0,0,.49-6.46.25-16.84h0Zm17.15,10.81c.83-1.87-.67-3.68-1.74-4.98-1.6-1.94-4.81-4.4-6.43-3.8-.94.35-.83,2.69-.54,7.34.2,3.32.42,3.91,1.07,4.26,1.89,1.03,6.54-.35,7.63-2.83h0Z"/>
  <path class="cls-1" d="m202.84,127.85c.28-.13.91-.26,2.18-.52,2.45-.5,4.54-.68,15.31,0,.61.04,1.23.08,1.82.42,1.44.82,1.28,2.59,1,5.71-.12,1.38-.33,2.13-1.08,2.58-.65.4-1.43.4-1.93.4-4.99,0-7.52-.92-8.61-.05-.47.37-.43.97-.37,2.16.07,1.28.16,2.86,1.41,3.49.6.3,1.13.22,5.99.16.26,0,.65,0,1.05.16.88.38,1.07,1.3,1.27,2.33.2,1.06.34,1.8,0,2.76-.17.48-.67,1.88-2.08,2.54-2.59,1.22-5.82-1.08-7.4,0-.55.38-.55,1.19-.55,2.83,0,1.77,0,2.65.55,3.14,1.89,1.66,7.33-1.71,10.59.09,1.7.94,2,2.84,2.25,4.45.25,1.53.54,3.38-.76,4.47-1.57,1.31-4.16.46-10.13.17-7.96-.39-9.3.85-11.21-.25-3.2-1.83-.88-6.03-.44-14.35.68-12.7-3.79-20.42,1.13-22.7h.03Z"/>
  <path class="cls-1" d="m229.1,137.07c-.4-4.89-1.39-7.59.95-9.21,1.83-1.26,5.05-1.43,7.25-.53,1.96.79,2.5,2.16,4.05,4.88,2.36,4.14,5.94,9.46,6.82,9.23.33-.08.21-.91-.31-4.75-.7-5.21-1.02-7.83.44-8.69.68-.4,1.66-.53,2.6-.66.62-.08,1.86-.2,3.38,0,.76.1,1.35.25,1.48.29,2.47.74-.48,9.41.64,18.38,1.68,13.47,1.72,13.6,1.72,13.6.29,1.04.91,3.08-.49,4.28-1.43,1.23-4.47,1.12-6.9,1.04-1.26-.04-1.9-.07-2.38-.34-1.86-1.06-.82-4.1-.57-6.09.83-6.68-5.95-13.58-8.06-13.2-1.92.34-3.28,7.25-1.05,13.28.91,2.47,2.54,5.11,1.16,6.1-.33.23-.68.27-4.21.26-4.21-.02-4.6-.09-5-.28-2.12-1-1.88-4.08-1.79-5.35.26-3.85.85-15.39.31-22.21h0Z"/>
  <path class="cls-1" d="m264.33,153.98c.36-.08.75-.05,1.51,0,1.71.12,2.79.55,3.45.72,2.23.59,5.87-.08,7.3-1.98.84-1.11.84-2.54.23-3.64-.69-1.22-2-1.75-4.26-2.71-4.85-2.05-7.27-3.07-7.68-3.42-3.27-2.81-2.37-9.48,2.51-12.88,2.93-2.05,6.52-2.37,8.43-2.54,1.8-.16,4.13-.34,6.3.72,1.02.5,1.63,1.08,1.87,1.34,1.47,1.55,2.24,4.15.88,5.26-1.43,1.17-3.95-.4-6.47.91-1.33.68-2.31,1.98-2.34,3.19-.05,2.43,3.82,3.19,7.23,6.19,3.64,3.2,6.6,8.8,4.16,13.39-1.78,3.35-5.63,4.91-6.83,5.39-6.53,2.65-12.96.63-14.32.21-1.4-.44-2.58-.82-3.5-1.77-2.7-2.75-.92-7.86,1.51-8.4h0Z"/>
</svg>