<svg width="142" height="182" viewBox="0 0 142 182" fill="none" xmlns="http://www.w3.org/2000/svg">
<path d="M17.7011 29.6677C17.2186 31.0186 17.261 32.0921 17.3001 33.6192C17.3001 33.6192 17.4175 38.1255 17.3588 44.0871C17.3327 46.7824 17.0882 56.0951 18.0271 57.1621C18.7703 58.0073 19.6798 58.2292 19.6798 58.2292C19.6798 58.2292 20.723 58.4837 22.0008 57.9257C26.3137 56.0364 29.7593 37.9754 29.7593 37.9754C32.6248 22.9686 34.5546 17.9174 32.7617 17.2452C31.3436 16.7133 28.4456 19.19 26.8841 21.572C24.2013 25.6672 26.1572 28.444 25.3911 36.9345C24.9999 41.2711 24.0057 46.4985 23.2429 46.4724C22.5681 46.4495 21.9454 42.4719 21.9356 38.8956C21.9063 30.0168 25.44 25.2299 24.035 24.2836C22.8778 23.5038 18.9789 26.0979 17.7043 29.6644L17.7011 29.6677Z" fill="#FDF1E0"/>
<path d="M21.1696 138.151C21.6227 141.297 22.3757 144.413 22.6137 147.578C23.1059 154.088 22.3301 157.713 24.85 159.394C26.0105 160.167 27.7904 160.47 28.5825 159.824C29.7137 158.904 28.2337 156.542 27.3079 150.919C26.92 148.573 26.669 145.871 26.907 145.8C27.1906 145.718 28.4847 149.311 29.2475 153.448C29.8897 156.93 29.717 158.444 30.8612 159.609C31.9272 160.696 33.7625 161.1 34.6817 160.196C36.2106 158.689 34.9458 153.801 33.9222 151.122C31.3795 144.462 26.5842 142.905 27.3764 139.711C27.422 139.531 28.5988 137.972 30.9362 134.849C31.8587 133.619 32.3803 132.933 32.4748 131.853C32.6378 130 31.4121 128.59 31.1057 128.258C30.5352 127.641 29.1008 126.398 28.312 126.822C27.5263 127.243 28.2631 128.887 27.7252 131.494C27.2558 133.775 26.0855 136.242 25.4596 136.131C24.6609 135.991 24.3545 131.612 24.9152 127.81C25.176 126.042 25.4661 125.621 25.2477 124.629C24.612 121.705 21.0196 119.085 19.5233 119.744C18.3791 120.247 18.9138 122.472 21.1663 138.151H21.1696Z" fill="#FDF1E0"/>
<path d="M38.6849 109.178C37.6646 109.782 36.1683 109.498 35.324 108.996C33.3289 107.811 33.8244 104.754 33.8896 100.633C34.007 93.2026 32.6476 86.7907 32.0804 86.7874C31.712 86.7874 31.2752 89.4957 31.1122 90.9184C30.8449 93.2744 31.0959 94.1554 30.4537 94.821C30.0397 95.2518 29.3812 95.4573 28.726 95.428C28.0708 95.4573 27.4155 95.2518 27.0015 94.821C26.3593 94.1554 26.6136 93.2744 26.343 90.9184C26.18 89.4957 25.74 86.7874 25.3749 86.7874C24.8076 86.7874 23.4483 93.1993 23.5656 100.633C23.6308 104.751 24.1296 107.811 22.1345 108.996C21.287 109.498 19.7907 109.782 18.7704 109.178C16.2603 107.697 19.2235 102.404 20.6154 89.9624C20.9186 87.2442 21.3783 84.5359 21.5347 81.808C21.7727 77.6541 21.551 75.383 23.031 73.174C23.9438 71.8133 25.5346 70.433 26.4506 70.8963C27.2362 71.2912 27.0895 72.8085 27.4123 76.052C27.6926 78.8647 28.2598 82.3268 28.726 83.2633C29.1922 82.3268 29.7594 78.8647 30.043 76.052C30.3657 72.8085 30.2223 71.2912 31.0047 70.8963C31.9239 70.433 33.5148 71.8165 34.4243 73.174C35.9042 75.3798 35.6826 77.6541 35.9205 81.808C36.077 84.5359 36.5367 87.2442 36.8398 89.9624C38.2318 102.404 41.195 107.697 38.6849 109.178Z" fill="#FDF1E0"/>
<path d="M36.9245 144.69C36.8659 142.566 36.6964 141.512 37.3842 140.98C38.2774 140.288 40.1518 140.788 40.8396 141.91C41.2243 142.537 41.0255 143.157 41.0026 144.22C40.97 145.888 40.8592 150.159 40.9081 151.536C40.9766 153.497 40.8853 154.528 41.5242 154.91C41.8991 155.132 42.4207 155.09 42.7858 154.871C43.7931 154.271 43.679 152.3 43.5616 150.619C43.3823 148.061 42.864 147.412 42.6391 144.69C42.4696 142.628 42.3913 141.502 43.0824 140.98C43.9365 140.331 45.6675 140.85 46.5412 141.91C47.3007 142.837 47.1931 143.914 47.0595 146.498C46.7628 152.267 47.0856 151.363 46.802 153.262C46.3456 156.336 45.9022 159.315 43.9398 160.389C42.9716 160.917 41.8632 160.93 41.8632 160.93C38.0068 160.93 37.1038 157.361 37.0256 151.569C36.9767 147.676 36.9637 145.836 36.9311 144.694L36.9245 144.69Z" fill="#FDF1E0"/>
<path d="M48.3635 157.122C48.458 153.23 48.5069 145.829 48.5069 144.687C48.5069 143.868 48.3961 143.02 48.4743 142.083C48.5395 141.313 48.885 141.062 48.9567 140.987C49.6348 140.269 51.0137 140.207 51.7831 140.869C52.3046 141.316 52.422 141.988 52.5361 142.638C52.673 143.424 52.5915 144.054 52.5687 144.217C52.1905 146.932 50.3129 156.568 51.268 156.956C51.7439 157.149 53.0023 155.093 54.567 154.926C54.6876 154.913 54.8636 154.907 55.0592 154.975C55.972 155.292 56.1708 156.803 56.2002 157.064C56.6011 158.545 56.2752 159.893 55.4569 160.402C55.2842 160.51 54.994 160.64 54.5474 160.634C53.9411 160.748 53.1196 160.868 52.1384 160.921C50.5345 161.002 49.7228 161.035 49.1589 160.503C48.6471 160.02 48.458 159.286 48.4058 158.705C48.3569 158.18 48.3569 157.622 48.3569 157.126L48.3635 157.122Z" fill="#FDF1E0"/>
<path d="M56.3632 145.451C56.2002 145.271 56.1806 145.134 55.9948 143.486C55.8285 142.005 55.7503 141.258 56.0535 140.97C56.2002 140.83 56.4642 140.693 56.963 140.742C59.2188 140.576 60.8781 140.442 62.3189 140.318C63.0981 140.253 63.9261 140.177 64.4248 140.713C64.8486 141.169 64.8095 141.829 64.7345 143.065C64.6432 144.573 64.5846 145.539 63.913 145.917C63.7794 145.992 63.2447 146.26 62.27 145.813C61.605 151.06 61.8137 154.46 62.1885 156.685C62.2798 157.227 62.7297 159.805 61.7452 160.395C61.6637 160.444 61.5203 160.513 60.0631 160.552C59.033 160.581 58.5147 160.594 58.4201 160.552C57.1129 159.961 57.4259 155.318 58.2669 151.464C58.87 148.697 59.6752 146.664 58.8374 145.979C58.1789 145.441 57.051 146.185 56.3762 145.451H56.3632Z" fill="#FDF1E0"/>
<path d="M66.4948 140.98C66.798 140.794 67.1044 140.752 67.2902 140.739H68.7507C69.4255 140.739 69.7743 141.228 69.9503 141.91C70.1915 142.84 70.2143 143.646 70.1133 144.22C70.0807 144.416 69.9764 145.885 69.7677 148.821C69.6732 150.149 69.3668 154.453 70.6349 154.907C70.925 155.011 71.2021 154.878 71.2282 154.864C72.0399 154.46 71.8899 152.567 71.8117 151.533C71.3031 145.01 71.0717 141.731 72.1898 140.977C72.3267 140.886 72.5745 140.752 72.9852 140.735C73.7415 140.784 74.9379 140.99 75.6453 141.907C76.3168 142.772 76.2027 143.816 76.0365 146.018C75.9419 147.255 75.8083 149.144 75.6812 151.533C76.1441 155.628 75.1954 159.159 73.0439 160.382C72.0399 160.953 70.9674 160.924 70.9674 160.924C68.6137 160.855 67.1435 158.503 66.9382 158.17C65.9472 156.581 66.2634 155.514 66.1297 151.559C65.9146 145.245 64.904 141.943 66.4916 140.974L66.4948 140.98Z" fill="#FDF1E0"/>
<path d="M77.6175 144.69C77.4676 143.682 77.1449 141.714 78.0609 140.98C78.2532 140.827 78.5107 140.739 78.8563 140.739C79.0975 140.69 83.0028 139.956 85.4477 142.716C85.6564 142.951 87.358 144.935 87.0875 147.5C87.0418 147.937 86.9636 148.697 86.4713 149.454C85.4836 150.978 84.0851 150.57 83.6972 151.513C83.2278 152.652 84.9522 153.99 86.8821 158.222C87.1787 158.875 87.6547 159.978 87.2407 160.441C87.1592 160.529 86.9962 160.653 85.6988 160.653C84.6882 160.653 84.1797 160.653 84.0036 160.549C83.1887 160.062 83.544 158.721 83.0257 156.852C82.6997 155.674 82.165 154.767 81.7087 154.137H81.5196C81.0795 155.387 81.0045 156.405 81.0208 157.116C81.06 158.685 81.5718 159.922 80.9882 160.434C80.7698 160.624 80.483 160.643 80.2841 160.634C79.5213 160.793 78.5433 160.852 77.8881 160.288C76.7341 159.289 77.6795 157.302 77.8359 153.102C77.9598 149.83 78.0446 147.549 77.6175 144.69ZM83.0876 147.186C83.3451 146.534 83.1137 145.604 82.4128 145.336C81.813 145.108 81.1154 145.457 80.8611 145.976C80.4601 146.801 81.1969 148.012 81.9923 148.035C82.4715 148.048 82.9148 147.627 83.0876 147.186Z" fill="#FDF1E0"/>
<path d="M88.4696 144.69C88.2643 142.592 88.3001 141.395 88.9423 140.98C89.1314 140.859 89.3563 140.814 89.7377 140.742C90.2006 140.654 90.7026 140.556 91.2144 140.742C91.9577 141.013 92.3 141.737 92.3847 141.913C92.7433 142.664 92.6162 143.326 92.5314 144.224C92.3424 146.224 92.1696 148.061 92.9748 148.661C93.5192 149.069 94.5199 148.922 94.8948 148.436C95.2241 148.012 94.9307 147.51 94.9111 145.206C94.9111 144.99 94.9111 144.837 94.9111 144.69C94.9274 142.524 94.934 141.44 95.3838 140.98C95.9152 140.435 96.9583 140.367 97.6559 140.742C98.748 141.326 98.8816 142.925 98.9729 144.224C99.1164 146.279 98.6404 146.863 98.422 148.968C98.1743 151.373 98.4709 153.824 98.8132 156.688C98.9729 158.01 99.2337 159.795 98.3764 160.399C98.1775 160.539 97.9787 160.572 97.5777 160.64C97.0398 160.731 95.6707 160.966 95.0285 160.359C94.4059 159.775 94.5917 158.163 94.9894 154.962C95.0872 154.173 95.1752 153.611 94.8329 153.207C94.3048 152.584 92.9487 152.567 92.3587 153.207C92.1109 153.478 91.9349 153.931 92.375 156.688C92.7661 159.146 93.0889 159.932 92.6423 160.363C92.3 160.696 91.6643 160.601 90.393 160.418C89.402 160.275 88.9065 160.203 88.6326 159.955C87.7883 159.188 88.6652 157.553 89.0271 154.43C89.1314 153.533 89.3987 151.073 88.9488 148.136C88.8347 147.389 88.6359 146.361 88.4696 144.694V144.69Z" fill="#FDF1E0"/>
<path d="M101.16 140.98C101.943 140.341 103.498 140.321 104.371 141.111C105.558 142.181 105.284 145.313 104.684 151.536C104.596 152.46 104.401 154.362 105.3 154.91C105.336 154.933 105.806 155.21 106.187 155.021C107.292 154.476 106.216 150.753 106.415 144.69C106.467 143.055 106.604 141.564 107.654 140.742C108.251 140.275 109.225 139.952 109.848 140.347C110.301 140.638 110.363 141.182 110.366 144.782C110.366 146.756 110.353 148.714 110.35 150.946C110.35 151.331 110.35 151.298 110.35 151.536C110.347 154.613 110.343 156.153 110.203 156.728C110.089 157.204 109.567 159.348 107.713 160.389C107.396 160.565 106.624 160.989 105.636 160.93C102.898 160.771 101.402 157.087 101.268 156.741C100.828 155.618 101.069 155.501 100.798 151.569C100.662 149.614 100.453 147.457 100.456 144.289C100.459 142.334 100.544 141.486 101.16 140.983V140.98Z" fill="#FDF1E0"/>
<path d="M111.396 156.183C111.435 155.556 111.546 153.788 112.479 153.403C113.714 152.897 115.22 155.315 116.123 154.816C116.723 154.483 116.814 152.998 116.328 151.875C115.54 150.051 113.766 150.433 112.479 148.609C111.566 147.32 111.188 145.346 111.869 143.607C112.576 141.799 114.301 140.572 115.96 140.442C116.296 140.416 117.44 140.354 118.516 141.055C118.845 141.271 119.09 141.479 119.256 141.757C119.947 142.915 120.077 144.723 119.308 145.268C118.568 145.793 117.561 144.742 116.462 145.418C116.374 145.473 115.839 145.803 115.833 146.263C115.826 146.625 116.152 146.899 116.286 147.014C117.14 147.744 117.838 148.671 118.741 149.334C120.306 150.482 121.264 153.102 120.99 155.344C120.749 157.312 119.552 159.39 117.593 160.317C117.284 160.464 115.067 161.472 113.31 160.395C112.801 160.085 112.488 159.694 112.338 159.505C111.292 158.183 111.367 156.627 111.393 156.179L111.396 156.183Z" fill="#FDF1E0"/>
<path d="M42.0849 94.7655C42.0132 93.9661 41.7981 91.9463 42.6913 91.4274C42.9684 91.2676 43.4899 91.1697 43.5551 91.1599C44.168 91.0522 44.6668 91.1109 44.9406 91.1599C45.1883 91.2056 45.397 91.2414 45.5339 91.3132C46.2836 91.7113 45.9479 93.7051 45.7784 95.1473C45.7784 95.1473 45.4882 97.6175 45.5926 100.819C45.6904 103.794 45.9642 105.677 45.9642 105.677C46.1891 107.217 46.4988 108.653 45.7555 109.253C45.485 109.472 45.1492 109.518 44.9015 109.518H43.516C42.9325 109.622 42.3033 109.612 41.8437 109.26C40.5756 108.284 42.0263 105.824 42.0817 100.825C42.1436 95.4312 42.0817 94.7655 42.0817 94.7655H42.0849Z" fill="#FDF1E0"/>
<path d="M48.9144 98.6616C48.8785 94.8765 48.1451 92.0572 49.2827 91.4307C49.5501 91.2839 50.0619 91.1762 50.1597 91.1566C50.9355 90.9935 51.7342 91.0326 52.1221 91.1566C53.2272 91.5123 53.3543 93.3363 53.9672 95.4541C54.8995 98.6682 56.549 101.171 56.8619 101.063C57.0967 100.982 56.8098 99.2294 56.2328 95.7281C55.8872 93.6267 55.6036 92.1616 56.3925 91.496C56.7185 91.2186 57.1293 91.1664 57.4161 91.1599C57.7226 91.1109 58.1855 91.0685 58.7299 91.1599C58.8929 91.186 59.1536 91.2317 59.3232 91.3132C60.1349 91.7146 60.0077 93.6006 59.9914 93.8878C59.9914 93.8878 59.9556 94.4556 59.8545 101.129C59.7893 105.563 61.1096 108.911 60.0664 109.384C60.0599 109.384 59.6002 109.43 58.6777 109.518C58.1887 109.563 57.8236 109.596 57.3444 109.518C57.0706 109.472 56.9304 109.449 56.7935 109.381C56.148 109.054 56.122 107.925 56.0665 107.224C56.0209 106.666 55.7666 105.703 55.2614 103.775C54.9875 102.727 54.0454 99.1446 52.5361 98.9064C52.4513 98.8933 52.409 98.8868 52.3568 98.9064C51.5158 99.2229 52.347 104.509 52.6437 106.411C52.7741 107.237 53.0283 108.761 52.3242 109.244C52.0895 109.404 51.7277 109.469 51.4538 109.515C50.8768 109.616 50.3878 109.57 50.0684 109.515C49.6935 109.505 49.1784 109.426 48.7938 109.071C47.9038 108.255 48.3341 106.578 48.608 104.819C48.9502 102.626 48.9339 101.021 48.9111 98.6584L48.9144 98.6616Z" fill="#FDF1E0"/>
<path d="M62.9188 91.4209C63.1861 91.2741 63.4664 91.2186 63.7696 91.1566C65.5038 90.8075 66.9806 91.6037 67.701 92.0018C69.445 92.9741 70.361 94.3381 71.2119 95.6368C72.0823 96.9649 72.9852 98.3484 73.3112 100.336C73.4612 101.243 74.0871 105.047 71.5183 107.655C69.0897 110.118 65.569 109.723 63.7174 109.515C63.5121 109.492 63.336 109.462 63.1372 109.364C61.6996 108.656 62.0875 105.824 62.1005 101.801C62.1201 95.6792 61.2497 92.3313 62.922 91.4177L62.9188 91.4209ZM65.4126 98.071C65.1811 98.257 65.1518 98.4952 65.1127 100.757C65.0768 102.904 65.0964 103.119 65.2985 103.344C66.0776 104.209 68.5486 104.062 69.3798 102.577C70.185 101.138 68.8876 99.435 68.8093 99.3371C67.8901 98.1689 66.1297 97.5 65.4158 98.0678L65.4126 98.071Z" fill="#FDF1E0"/>
<path d="M75.8083 104.255C77.21 103.321 79.417 105.37 80.258 104.516C80.7503 104.016 80.5416 102.767 79.9516 101.99C78.928 100.649 77.285 101.419 75.9485 100.078C74.9966 99.125 74.902 97.8067 74.8564 97.1508C74.8336 96.8474 74.6902 94.25 76.695 92.4945C78.4129 90.9869 80.9784 90.7357 82.4519 91.6167C82.7062 91.7701 82.9702 91.9789 83.1886 92.2856C83.9514 93.3526 83.8341 95.1571 83.0452 95.6303C82.2172 96.1262 81.2849 94.7655 79.7853 95.2615C79.6484 95.3072 78.6639 95.6498 78.4097 96.5015C78.3608 96.6646 78.2695 96.9746 78.4097 97.2422C78.7031 97.7937 79.6582 97.5228 80.7503 97.7969C82.1357 98.1461 82.9898 99.1837 83.5211 99.8298C83.9384 100.336 84.6262 101.321 84.9359 102.727C85.0924 103.442 85.5227 105.374 84.4437 107.165C82.9637 109.625 79.8766 109.759 79.2083 109.789C78.615 109.815 77.4284 109.851 76.2908 109.139C76.0071 108.963 75.6192 108.718 75.3193 108.268C74.5011 107.044 74.7684 104.943 75.805 104.251L75.8083 104.255Z" fill="#FDF1E0"/>
<path d="M88.1404 95.5846C87.935 95.5095 87.2896 95.5519 85.9987 95.64C85.7998 95.6531 85.5879 95.6694 85.3956 95.5389C85.3043 95.4769 85.0924 95.3007 84.9914 94.1521C84.949 93.6724 84.9066 93.134 85.0109 92.3966C85.0826 91.8712 85.1217 91.5906 85.2326 91.372C86.1388 89.5447 92.1598 91.1958 94.1907 91.075C94.2787 91.0685 94.5232 91.0522 94.7351 91.1958C95.0513 91.4079 95.0904 91.8484 95.1622 92.7229C95.2339 93.617 95.1654 94.1978 95.1426 94.3707C95.0676 94.9581 95.0318 95.2517 94.9111 95.4018C94.3276 96.136 92.7857 95.0788 91.9023 95.6139C91.2145 96.0316 91.0678 97.3336 91.8338 102.114C92.4662 106.062 93.1508 108.79 92.2022 109.325C91.9968 109.443 91.5372 109.469 90.6212 109.521C89.9072 109.563 89.3889 109.531 89.2357 109.521C88.4273 109.466 88.023 109.439 87.8307 109.325C86.8462 108.744 87.9513 105.504 88.5642 100.874C88.6913 99.9146 89.1868 95.9664 88.1371 95.5878L88.1404 95.5846Z" fill="#FDF1E0"/>
<path d="M96.59 97.0203C96.9648 93.1144 96.8801 92.6446 97.4636 92.0181C98.2916 91.1338 100.078 91.1044 103.657 91.0489C103.918 91.0457 104.365 91.0783 104.753 91.3752C105.851 92.2106 105.796 94.7068 104.723 95.4051C104.642 95.4573 104.495 95.6237 103.957 95.6139C101.855 95.5846 101.111 95.2452 100.609 95.5878C99.8466 96.1067 99.9053 98.0253 100.609 98.4495C101.04 98.7106 101.799 98.4658 103.344 98.4234C103.432 98.4234 103.602 98.4169 103.771 98.5148C104.058 98.6812 104.166 99.0369 104.244 99.6373C104.394 100.796 104.515 101.7 103.996 102.072C103.837 102.186 103.674 102.231 103.432 102.228C101.672 102.199 100.981 101.957 100.554 102.228C99.827 102.685 99.7879 104.626 100.554 105.145C100.942 105.406 101.483 105.263 104.009 105.064C104.169 105.051 104.446 105.034 104.687 105.201C105 105.419 105.056 105.818 105.144 106.552C105.251 107.439 105.17 108.092 105.144 108.281C105.066 108.852 105.027 109.136 104.919 109.312C104.293 110.334 102.057 109.342 98.0341 109.521C96.8866 109.573 96.6682 109.671 96.3227 109.449C95.5175 108.93 95.5142 107.625 96.0162 102.3C96.3813 98.4038 96.3096 99.8853 96.5867 97.0236L96.59 97.0203Z" fill="#FDF1E0"/>
<path d="M32.6183 40.5532C32.7356 40.488 32.9638 40.426 33.4267 40.3052C35.2425 39.8256 36.5529 39.9789 39.1022 40.3052C39.3792 40.3411 39.5716 40.3705 39.777 40.5075C40.8592 41.2287 40.204 43.5781 40.054 44.0121C40.0051 44.1556 39.9236 44.3384 39.7476 44.4787C39.4966 44.6745 39.1967 44.6745 39.0337 44.6712C37.0256 44.6418 36.3215 44.3253 35.8423 44.6451C35.0958 45.1476 35.1545 47.0402 35.8423 47.4481C36.253 47.6928 36.8268 47.3665 38.4502 47.422C38.5969 47.4252 38.711 47.435 38.8381 47.5003C39.5553 47.882 39.3564 49.5266 39.3075 49.9345C39.2358 50.5284 39.2 50.8253 39.0663 51.0015C38.3002 52.0131 36.1389 50.8155 35.3957 51.7161C34.9132 52.3002 35.1545 53.612 35.7901 54.0068C36.1976 54.2613 36.7355 54.1177 39.0826 53.9285C39.2293 53.9154 39.4868 53.8991 39.715 54.0525C40.028 54.2613 40.0801 54.6627 40.1649 55.3838C40.2692 56.2648 40.1877 56.9076 40.1649 57.0773C40.0899 57.6386 40.0508 57.9159 39.9432 58.0954C39.4086 58.9797 37.6352 58.4511 33.3909 58.2944C32.0543 58.2455 31.9174 58.2879 31.6436 58.1052C30.219 57.1687 31.4154 54.4701 31.5947 49.2427C31.7577 44.4885 30.946 41.506 32.6183 40.5565V40.5532Z" fill="#FDF1E0"/>
<path d="M42.7337 40.5467C43.7116 39.8712 45.3872 40.0866 47.0791 40.302C48.0147 40.4227 48.5982 40.5043 49.2827 40.8665C50.867 41.7083 51.4929 43.2583 51.8287 44.0904C52.0699 44.6908 52.8164 46.5377 52.1254 48.3062C52.1123 48.3356 52.0602 48.4726 51.9721 48.6554C51.18 50.2771 50.1303 50.3326 49.7815 51.1451C49.6479 51.4551 49.6381 51.8336 51.4473 55.3381C52.3372 57.0577 52.7675 57.7984 52.4481 58.2455C52.246 58.5261 51.757 58.5587 50.7823 58.6273C49.8076 58.6925 49.3219 58.7252 48.9242 58.4837C48.5102 58.2292 48.3765 57.818 48.0049 56.0429C47.4768 53.5238 47.3822 52.6363 46.7172 52.3394C46.6879 52.3263 46.2087 52.1207 45.8762 52.3394C45.3155 52.7113 45.5241 54.0851 45.8599 56.1473C46.075 57.4721 46.2315 57.9583 45.9251 58.2455C45.7002 58.4543 45.4068 58.3891 43.9268 58.2944C42.4892 58.2031 42.5185 58.2487 42.4044 58.1998C41.1591 57.6483 42.1143 53.9578 42.261 49.5266C42.4468 43.999 41.2341 41.5876 42.7337 40.5467ZM48.0244 47.2294C48.5656 46.5344 48.2559 45.5555 47.8093 45.0301C47.1899 44.2959 45.9935 44.0577 45.5502 44.495C45.3253 44.7169 45.3579 45.1835 45.4263 46.1232C45.4817 46.8705 45.5111 47.249 45.7099 47.4578C46.1891 47.9636 47.4344 47.9864 48.0244 47.2327V47.2294Z" fill="#FDF1E0"/>
<path d="M54.0454 47.5329C53.977 43.8032 53.1946 41.2907 54.4105 40.5467C54.6844 40.3803 55.0038 40.3313 55.2059 40.302C56.5164 40.1094 57.6117 40.8958 58.2246 41.3527C64.2325 45.8067 64.239 50.7274 64.239 50.7274C64.239 51.5758 64.2456 55.3218 61.5334 57.2731C59.9784 58.3891 58.3159 58.3564 55.1538 58.2912C55.0495 58.2912 54.8343 58.2814 54.6192 58.1574C53.8205 57.694 53.9216 56.1441 53.9542 55.5959C53.9542 55.5959 54.1367 52.5025 54.0454 47.5362V47.5329ZM60.4022 52.7048C60.7086 51.8108 60.1544 50.946 59.7567 50.3195C59.1634 49.3896 57.9736 48.2116 57.3738 48.502C57.025 48.6717 57.0673 49.7877 57.1717 52.0163C57.2466 53.6054 57.3281 53.8861 57.5694 54.0557C58.2702 54.5485 59.9947 53.8861 60.3989 52.7016L60.4022 52.7048Z" fill="#FDF1E0"/>
<path d="M66.6774 40.5532C66.7818 40.4912 67.0165 40.4292 67.4859 40.3052C68.3921 40.0638 69.168 39.9822 73.1613 40.3052C73.3862 40.3248 73.6177 40.3444 73.8361 40.5075C74.3707 40.9024 74.3121 41.7475 74.2077 43.242C74.1621 43.9011 74.0839 44.26 73.8068 44.4787C73.5655 44.6679 73.2754 44.6712 73.0929 44.6712C71.2413 44.6679 70.3057 44.2307 69.9014 44.6451C69.7287 44.8213 69.7417 45.1084 69.7645 45.6795C69.7906 46.2929 69.8232 47.05 70.2861 47.3502C70.5078 47.4937 70.7066 47.4546 72.5061 47.4252C72.6039 47.4252 72.7473 47.4252 72.894 47.5035C73.22 47.6862 73.2917 48.1268 73.3634 48.6162C73.4384 49.122 73.4906 49.4777 73.3634 49.9378C73.3015 50.1662 73.1157 50.8351 72.5908 51.1549C71.6324 51.739 70.4328 50.6393 69.846 51.1549C69.6407 51.3376 69.6407 51.7259 69.6407 52.509C69.6407 53.3542 69.6407 53.7784 69.846 54.01C70.5469 54.8062 72.5648 53.191 73.7709 54.0525C74.4001 54.5028 74.5109 55.4099 74.6054 56.1832C74.6967 56.9174 74.8043 57.8017 74.3218 58.3238C73.7416 58.9503 72.7799 58.5424 70.5665 58.4054C67.6163 58.2194 67.1208 58.81 66.4101 58.2846C65.2235 57.4101 66.0841 55.4001 66.2471 51.4159C66.4981 45.3401 64.8421 41.6463 66.6677 40.5532H66.6774Z" fill="#FDF1E0"/>
<path d="M76.4146 44.9649C76.2679 42.6253 75.8996 41.3331 76.7667 40.5565C77.4447 39.9528 78.6379 39.8745 79.4561 40.302C80.183 40.6805 80.3819 41.3364 80.9556 42.635C81.8293 44.6157 83.1593 47.1609 83.4853 47.0532C83.6059 47.0141 83.5635 46.6192 83.3712 44.7789C83.1104 42.2859 82.993 41.0296 83.5342 40.6185C83.7852 40.4292 84.1503 40.364 84.4991 40.302C84.7273 40.2628 85.1869 40.2041 85.7509 40.302C86.0345 40.3509 86.2529 40.4227 86.2986 40.4423C87.2146 40.7947 86.1225 44.9453 86.5365 49.2395C87.1592 55.684 87.1722 55.746 87.1722 55.746C87.2798 56.2452 87.508 57.2209 86.9896 57.7919C86.4583 58.3825 85.3336 58.3303 84.4306 58.2912C83.9645 58.2716 83.7265 58.2585 83.5472 58.128C82.8561 57.6222 83.2441 56.1669 83.3353 55.2141C83.6418 52.0163 81.1284 48.7141 80.346 48.8968C79.6354 49.06 79.1301 52.3655 79.9548 55.25C80.2939 56.4312 80.8969 57.6973 80.3851 58.1704C80.2645 58.2814 80.1341 58.301 78.8237 58.2944C77.2622 58.2846 77.1188 58.252 76.9688 58.1607C76.1832 57.681 76.2712 56.2061 76.3038 55.5992C76.4016 53.7555 76.62 48.2344 76.4179 44.9714L76.4146 44.9649Z" fill="#FDF1E0"/>
<path d="M89.4737 53.0573C89.6073 53.0181 89.7508 53.0311 90.0344 53.0573C90.6701 53.116 91.0678 53.3183 91.3123 53.3999C92.1403 53.6805 93.4866 53.364 94.018 52.4536C94.3309 51.9217 94.3309 51.2365 94.1027 50.7111C93.8484 50.127 93.3595 49.8725 92.5249 49.4157C90.7255 48.4368 89.829 47.9473 89.6791 47.7809C88.4664 46.4365 88.8022 43.2453 90.6114 41.617C91.6969 40.6381 93.0269 40.4847 93.7376 40.4031C94.4059 40.3248 95.2697 40.24 96.0749 40.749C96.4531 40.9872 96.678 41.2678 96.7693 41.3918C97.3137 42.1325 97.6006 43.379 97.0953 43.9076C96.5639 44.4656 95.6316 43.7184 94.696 44.3416C94.2038 44.6679 93.8387 45.2912 93.8289 45.8687C93.8093 47.0337 95.2437 47.3959 96.5085 48.8316C97.8581 50.362 98.9534 53.0409 98.0504 55.237C97.3919 56.8391 95.9641 57.5864 95.5175 57.818C93.0954 59.0841 90.7124 58.1215 90.2104 57.9192C89.6921 57.7104 89.2553 57.5276 88.913 57.0741C87.9122 55.7558 88.5707 53.3118 89.4737 53.054V53.0573Z" fill="#FDF1E0"/>
</svg>
