<?xml version="1.0" encoding="UTF-8"?>
<svg id="logo" xmlns="http://www.w3.org/2000/svg" viewBox="0 0 410 426">
  <defs>
    <style>
      .cls-1 {
        fill: #231f20;
      }
    </style>
  </defs>
  <g>
    <path class="cls-1" d="m336.7,326.88c.2.31.45-.05.54-.06-.46-.43-.62.14-.54.06Z"/>
    <polygon class="cls-1" points="332.15 322.7 332.35 322.68 331.47 322.24 332.15 322.7"/>
    <path class="cls-1" d="m328.6,318.23c-.22.87,1.38,1.54,1.81,2.5l-.02.23h.74c-.84-.91-2.14-1.93-2.53-2.73Z"/>
    <path class="cls-1" d="m327.91,314.89c-.1.32-.6-.37.37.61-.02-.07-.02-.1-.03-.14-.08-.09-.19-.23-.35-.46Z"/>
    <path class="cls-1" d="m328.26,315.36c.39.46-.06-.45,0,0h0Z"/>
    <path class="cls-1" d="m326.41,313.29l.69.46c.03-.23-.39-.81-.13-.68-.61-.55-.64-.32-.56.21Z"/>
    <path class="cls-1" d="m325.53,313.02l.34.26c0-.1-.04-.2-.34-.26Z"/>
    <path class="cls-1" d="m326.58,313.82l-.72-.54c-.02.16-.19.32.31.26-.21.08.06.08.4.28Z"/>
    <path class="cls-1" d="m326.81,314.27c.16.44.44.95-.25.49,1.02,1.12,1.27.64.25-.49Z"/>
    <path class="cls-1" d="m327.84,318.47l.21.59.51.25c-.25-.13-.56-1.01-.71-.85Z"/>
    <path class="cls-1" d="m323.62,309.2c-.15.06-.15.46-.27.63l.5.35c-.11-.3-.39-.8-.24-.98Z"/>
    <path class="cls-1" d="m323.35,309.83l-.75-.52c.46.63.65.66.75.52Z"/>
    <polygon class="cls-1" points="324.82 313.41 326.15 314.19 324.64 313.2 324.82 313.41"/>
    <polygon class="cls-1" points="321.55 306.58 322.14 306.74 321.17 306.38 321.55 306.58"/>
    <path class="cls-1" d="m320.12,304.88c.46.11.07-.7.45-.51-.42-.44-.93-.68-1.4-.91.4.31.71.74.94,1.41Z"/>
    <path class="cls-1" d="m318.44,303.06c.21.15.46.27.74.4-.22-.16-.45-.3-.74-.4Z"/>
    <path class="cls-1" d="m321.73,308.09c.03-.11.14-.36-.09-.81l-.12.54c.06.08.14.18.21.27Z"/>
    <path class="cls-1" d="m321.52,307.84v-.02c-.22-.3-.38-.51-.44-.6.06.08.19.26.44.61Z"/>
    <path class="cls-1" d="m321.79,308.16s-.03-.04-.05-.07c-.01.05-.01.08.05.07Z"/>
    <path class="cls-1" d="m323.69,311.37c-.51-.25-1.38-.93-1.01.11.46.11.25-.49,1.01-.11Z"/>
    <path class="cls-1" d="m321.64,308.83l.5.79c.08-.08.1-.32.35-.19l-.86-.59Z"/>
    <polygon class="cls-1" points="321.25 308.56 321.64 308.83 321.45 308.54 321.25 308.56"/>
    <path class="cls-1" d="m319.12,304.56c-.4-.2-.68-.53-1.01-.9.27.47.57.93.9,1.33.15-.03.48,0,.12-.43Z"/>
    <path class="cls-1" d="m320.26,306.18s-.05-.04-.07-.05c0,.07.02.11.07.05Z"/>
    <path class="cls-1" d="m315.06,299.84s0,.07-.01.11c.02-.01.04-.02.07-.03l-.06-.08Z"/>
    <path class="cls-1" d="m319,305.11c.18.36.42.49.66.58-.22-.21-.44-.44-.65-.7-.07.01-.1.03,0,.12Z"/>
    <path class="cls-1" d="m317.43,302.12c.06.22.15.45.25.69-.02-.24-.11-.7-.25-.69Z"/>
    <path class="cls-1" d="m320.19,305.94s.04.02.05.03c-.01-.16-.03-.12-.05-.03Z"/>
    <path class="cls-1" d="m320.19,305.94c-.18-.12-.36-.18-.53-.25.18.17.35.32.53.43,0-.06,0-.12,0-.18Z"/>
    <path class="cls-1" d="m311.99,300.39c.35-.19,1.29.4,1.53,1.37.79.51,1.44-.76,1.53-1.82-.15.09-.28.19-1.03-.39.03.39.88,1.91.11,1.53-.92-.82-.51-.87-.72-1.46-.07.7-1.53-.76-1.93-.1l.86.67c-.08.09-.46-.1-.35.19Z"/>
    <path class="cls-1" d="m316.11,301.34l.27.26c-.21-.38-.28-.72-.39-1.36-.54-.37-.74-.38-.87-.33l1.12,1.49-.13-.06Z"/>
    <path class="cls-1" d="m317.44,302.93c-.52.04-1.23-.56-1.25.17.71.85.77.38,1.33.78-1.2-1.33.51.25-.11-.91.28.23.49.46.69.68-.16-.28-.3-.57-.42-.85,0,.02,0,.03,0,.05h0s0,0,0,0c0,.09,0,.13-.03.05,0,0-.02-.02-.03-.02-.05.03-.12.03-.18.04-.25-.46.04-.13.18-.04.02,0,.04,0,.06-.02,0,0,0,0,0,0l-1.3-1.25c.19.33.5.7,1.06,1.33Z"/>
    <path class="cls-1" d="m321.36,311.31c0-.07.02-.08.04-.11-.11-.06-.17-.07-.04.11Z"/>
    <path class="cls-1" d="m321.1,310.57c.13.06.33.04.56.4.13.37-.16.13-.26.23.25.13.8.51.46-.25l-.12-.06c-.33-.66-.49-1.72-.37-1.65-.17.41-.27.72-.27,1.34Z"/>
    <path class="cls-1" d="m319.15,306.78l-1.1-1.04.18.83.15-.17c.46.72.56.4.76.38Z"/>
    <polygon class="cls-1" points="315.12 299.57 315.6 299.44 314.56 299.17 315.12 299.57"/>
    <polygon class="cls-1" points="313.87 298.09 314.22 297.9 313.72 297.64 313.87 298.09"/>
    <path class="cls-1" d="m241.77,215.57l-.36-.27c.16.14.27.22.36.27Z"/>
    <path class="cls-1" d="m243.73,218.07l.2-.06c-.18-.05-.28-.05-.2.06Z"/>
    <path class="cls-1" d="m284.13,260.87c-.11-.73-.11-1.65-.41-1.31l-.22.42c.34.3.51.6.62.88Z"/>
    <path class="cls-1" d="m261.76,236.97c0,.07,0,.15.01.23.21.03.41.06.59.08-.19-.09-.39-.2-.61-.31Z"/>
    <path class="cls-1" d="m260.07,237.74l-.31-.83c.04.21.14.48.31.83Z"/>
    <path class="cls-1" d="m230.6,202.29l-.66-.12c.5.62.46.21.66.12Z"/>
    <path class="cls-1" d="m301.36,282.65c-.21-.54-.43-.92-.65-1.24.22.67.26,1.33.65,1.24Z"/>
    <path class="cls-1" d="m246.15,213.67c-.23-.16-.37-.2-.44-.13.23.17.39.24.44.13Z"/>
    <path class="cls-1" d="m299.71,280.17c.03.1.07.19.1.29.31.27.61.55.89.95-.16-.5-.42-1.01-.99-1.24Z"/>
    <path class="cls-1" d="m191.66,152.9s-.04-.1-.05-.14c-.05.03-.02.08.05.14Z"/>
    <path class="cls-1" d="m183.66,135.84c.13.12.32.35.49.57-.06-.12-.2-.3-.49-.57Z"/>
    <path class="cls-1" d="m309.15,291.87c.28.3.08.02,0,0h0Z"/>
    <path class="cls-1" d="m309.06,294.5c-.09-.04-.18-.05-.27,0,.1-.04.19-.04.27,0Z"/>
    <path class="cls-1" d="m295.04,278.65s-.01-.02-.02-.03c0,.15,0,.12.02.03Z"/>
    <path class="cls-1" d="m309.38,292.47c-.05-.15-.13-.32-.23-.49.03.09.09.24.23.49Z"/>
    <path class="cls-1" d="m309.49,292.28c.07.12.13.22.19.31.09,0,.1-.07-.19-.31Z"/>
    <path class="cls-1" d="m308.77,291.43c.15.18.27.36.38.55-.03-.08-.03-.12,0-.12-.08-.09-.19-.22-.38-.43Z"/>
    <path class="cls-1" d="m213.58,178.52s-.02-.06-.02-.09c-.4-.21-.26-.09.02.09Z"/>
    <path class="cls-1" d="m273.93,255.31s.03.01.05.02c0-.02-.02-.04-.03-.06l-.02.03Z"/>
    <path class="cls-1" d="m272.75,254.35c.81.16.99.48,1.19.92l.67-1.16-1.87.24Z"/>
    <path class="cls-1" d="m236.94,209.7l.34,1.05c-1.28-.58-1.67-1.43-1.5-.32,1.15-.73,2.62,3.07,3.77,2.33l.2.71c-.11-.16-.19-.14-.3-.3.32,1.45,1.38.16,2.3,1.62.29.53.4.98.02.76l1.09.83c.22.32-.02.39-.24.07l1.35,1.52h-.04c.35.11,1.01.41,1.32.58.17.52-.27-.11-.32.1l.96.67c.01.58-.84.06-1.28-.58-.41,1.67.85.52,1.64,2.78l-.8-.72c-.18,1.02.56,1.49.93,2.73.02-.38-.55-2.63.47-1.89.13.33.38.72,1,1.06-.37.31.12.73.64,1.35l-.53.36c.69.56.9.31,1.44.53.55.8.29,1.26.11,1.7.89,1.28-.05-1.33,1.19.03.61,1.16,1.38,1.71,2.64,2.68.39.84-.4.12-.35.49l.9.31c.11.16-.05.21-.13.23.58.4.53-.36,1.33.37.73-.22.55,2.34,2,2.87.06.37-.4.12-.54.35,1.53,1.08,1.26.97,2.74,1.69l.46,1.25c-.2-1.02.98-.45,1.99.07-.02-.4-.04-.75-.08-.95l1.3,1.08c.04.22-.23.23-.61.18.11.06.22.11.31.14.18.61-.3.6-.84.49-.03-.24-.05-.48-.06-.71-.56-.08-1.13-.11-1.37.19.12.04.3.16.47.32-.15-.02-.27-.01-.28.07-.02.09.2.13.5.24l-.32.74.28-.11,1,1.97c1.53.76,3.19,1.16,4.95,2.89-.79-.15-.75.43-1.25.79.09-.93-1.4-1.31-2.09-2.39.36.56.04.63-.15.56l1.88,1.4c-.43.28,0,.61.21,1.21.5-.97,1.58.91,2.39,1.44-.23.25-.63.3-1.27-.64.19,1.44,1.92.52,2.18,1.88-.18-.21-.23-.36-.43-.34.63.32,1.43,1.69.97,1.59l-.18-.21c1.05,1.5,3.46,4.35,4.3,4.04-.07.08-.95.45-1.15.47l4.27.76c-.75.23-1.42,2.18-2.69,1.25.19.4.43.9,1.2,1.46-.1-.3.36-1.24.67-.96.06,1.38.14.88.46,2.38-.15-.45,1.05-.77,1.46-.2-.2.02-.85.75-1.1.62l1.97.67c-.43-.22-.79.53-.8,1.04.06-.28.93,1.2,1.31,1.49l-.26-.74c1.1,1.65,2.45.54,3.63,2.11-.33-.04-1.48.43-.97,1.3.74,0,3.43-.15,4.85.93l-.05.47,1.12.81c-1.19-.11-4.07-.79-5.42-1.34.26.74-.18.4.54,1.25,0,.5-.74-.18-.96-.42l1.45,2.14c.45-.51,1.76,1.12,2.13.69l-2.29-1.75c.45-.51,2.5.08,3.55,1.58.08.53-1.15.47-1.3.64.33.04,1.43,1.08,1.4,1.31l-.76-.38c.44.95,1.73.74,1.99,2.1.23.36.11,1.52.46,1.33.17-1.02,1.94-2.6,2.68-2.6.05.15.81,2.19.81,2.8-.04.92-1.77.08-1.81.86.16-.09.58.06.73.14.15.44-.56.21.11.91.63-.3,1.18,1.57.73,0,.74.61.51.87,1.23,1.72.12-.55,1.79-.16,2.53.46-.17.06-.21.37-.23.52,1.16,1.55,1.56,2.55,2.68,3.96-.03.23.36,1.04-.1.93.26.13.58.17.94.59.21,1.21-.84-.91-.89.17.35-.19,1.32.78,2.01,1.25.33-.57-1.05-1.5-1.73-1.97.66-.53,2.21,0,3.69,1.22,1.1,1.04-.02.85.23.97,1.64,2.29,2.64.95,3.62,3.15.16,1.06-.81.7-.99,1.1-.92-.83-.9-1.67-1.43-2.31l.43.95c-.38-.19-.99-.74-1.15-1.19.11.91,2.89,3.77,3.89,5.74.38.19.94.59.91.21l-.49-.49c-.05-.76,1.27.63.89-.17.81.53,1.83,1.04,2.44,2.2l-.33.57c.12-.13-.24-.89-.61-1.06.55.25.59,2.07,1.59,2.03l-.23-.97c.82.53,2.04,1.02,2.6,2.03.15-.79-.22-.16-.17-1.24-.25,1.1-1.8-2.32-1.82-.85.12-1.17-.63-1.35-.76-2.64-.14.15-.06.54-.58-.27-.07,0-.2-.03-.27-.05-.01-.03-.02-.04-.03-.06,0,.02,0,.04.01.06-.05-.01-.06-.01,0,.02.07.23.11.45.07.58-.66-.08-1.6-1.29-2.11-1.55-.28-.51.33.04.3-.34l-.76-.38c.3-.34-.36-1.65.68-.76l-.74-.96c-.25-.71-.78-1.54-1.31-1.9-.28-.51-1.29-.82-.7-.65l-1.4-1.31.08-.08c-1.12-1.5-2.99-2.55-3.69-4.73-.48-.42-1-.85-1.56-1.75l.18-.4c-.61-.55-1.21-2.14-1.75-2.16.27-1.34-2.27-3.22-3.02-4.45l-.43.27c-.59-.78-1.29-1.43-2.21-2.26l-.3.34c-.94-.59-1.43-2.31-2.51-3.58.2-.02.43.34.54.64-.45-2.18-3.19-2.81-3.73-4.68-.41-.25-.57-.54-.67-.85.03.03.06.06.09.07-.02-.04-.07-.09-.11-.15-.06-.2-.12-.42-.2-.64.03.21.07.41.14.56-.22-.26-.59-.64-1-.97l.24-.47s-.05-.06-.08-.08c-.18-.51-.43-.17-.55.26-.22-.15-.45-.28-.65-.35.35-.81-1.05-.89-.75-1.85-.53-.02-1.85-1.83-2.69-1.51.08-.08.02-.23.2-.02-.28-.51-.56-1.02-1.07-1.27l.33-.57-1.42-.46c-.18-.83-.21-1.21.63-.91-1.7-.97-1.14-.99-2.66-1.75l.36-.19c-.36-.42-1.32-.79-1.28-1.25-.18-1.44-3.74-4.86-5.18-7.78-.53,1.21-.51-1.48-1.3-1.02.1-.32-.05-.76.45-.51-1.22-1.1-1.18-2.18-2.47-2.58.1-.32.53.02.56-.21-.13-.06-.51-.25-.49-.49.03-.23.33.04.58.17-1.07-1.27-1.84-.87-2.54-.47-.23-.89-.53-1.19-1.32-1.34.02-.39-.07-.94.65-.2-.33-.48-1.91-3.01-2.45-2.66.01-.24-.47-.66-.62-.74-.78-1.04-.81-1.17-1.65-2.13l.14.34c-.92.09-.8-.72-1.51-1.47l.08-.03c-1.04-2.19-.84-.63-1.8-2.85l-.3.4c-.94.47-.81-1.99-1.96-2.8l.09.55c-.74-.36-.19-2.49-.55-3.15-.03-.18.27.11.46.24-.73-1.9-.65.2-1.66-.84.1-.42.89-.27.33-1.07-.09-.55-2.62-1.52-2.94-2.97-.02.39-.04.78-.62.38-.72-.75-.96-2.79-2.19-3.01-.03-.15,0-.23.04-.27-.66-.48-1.87-1.78-2.52-1.87.84-1.6-3.68-3.32-2.48-4.26l-1.57-1.84.16-.05c-.89-1.27-1.51-1.47-2.14-1.67-.14-.34.13-.23.21-.26-1.17-1.96-1.36-2.1-3.14-3.1l.26-.46c-.55-.22-1.43-3.04-3.27-4.42.06-.02.16-.04.33.05-2.01-1.59-2.65-5.53-4.63-5.12l-1.38-1.01c1.22,1.75-.81.24-.5,1.11-.61-.59-.93-2.03-.21-1.29l.03.18c.97-.29-1.39-2.28-.85-2.63-2.65-3.25-4.79-6.77-7.21-9.87l-.29.81-.82-1.1c-.09-.39.15-.73.73.05,0-.66-1.29-1.07-1.44-.99-.96-1.68,1.13.05.78-.42l-.54-.59.05.19c-.64-.32-.92-.17-1.62-1.11-.35-.67.11-.58-.05-.83.04-.03,0-.12-.26-.36l-1.03-1.39-.02.9c-.7-.42-.99-1.29-1-.26.06-1.54-3.73-5.26-3.93-6.02-1-.58-1.65-1.41-2.43-2.46.11.33-.28.89-.92-.05,1.31-.51-.84-1.98-.65-3.3,0,1.04-2.13-2.41-2.04-.85-.5-.8.36-.36.16-1.11-1.81-1.43-2.82-4.08-4.69-6.14-.16.08-.08.61-.66.3l-.23-1.69c-.41-.37-1.11.24-1.26-.92-.03.2-.07.51-.34.25-2.72-4.78-7.47-8.25-9.66-13.56.2.8-.14.43-.5,0,.17.34-.34.26-.49.47l-.92-2.22c-.78.08-1.58-1.91-2.22-1.7l.55.5c-1.19-.3-.45,2.1-1.29,2.59,1.34.32.81,3.03,2.87,3.67.09.43-.45-.07-.49.23.6.1,1.01.47,1.5,1.38l-.15-.03c1.85,2.17,2.3,3.37,4.09,6.04l.22-.48c.38.58.35.78.46,1.11,1.05.17-1.17-1.54-.11-1.47-.18,1.31,3.01,3.8,2.54,4.97.66.83.24-.58.89.25l-.06.4.47-.03c.38.58.31,1.09.13,1.26-.08-.15-.35-.33-.48-.46.29.92,1.68,1.91,1.78,2.22l-.49-.91c2.02,2.08,3.91,5.08,6.12,6.89l.04-.31c1.65,1.41.87,1.49,2.48,3.2l-.09-.03c.47.23.94.65,1.32,1.16-.57-.3.3,1.19-.41.76,1.79,1.53.99.68,2.59,1.35l-.07.51c.59.2.75.12,1.56.97-.85-.55.02.94-.98.36.89,2.42,2.91,2.34,2.68,3.95,1.5.24-.88-2.01-.31-1.66-.07-.62,1.18.25,1.58.91.47.63-.2,1.86,1.05,3.39-.12-.16-.19-.12-.31-.27.26.74,1.18.91,1.41,1.88.8,0,.7.94,1.41.56l-1.27-1.3c.8.67,2.12.85,2.82,2.44-.21,0-.68-.26-.99-.46.13.53.71.65.85,1.2-.71.38-1.5-1.61-2.66-2.09.07.62,1.74,1.27.73,1.37,1.35-.06,1.1,1.6,2.59,2.13l-.43.23c.19.12.64.32.87.63l-.92-.17c1.08.52.94,1.91,1.81,2.55-1.36-1.69.14-.74-.16-1.67,2.16,1.7-.01,1.98,2.03,4.18-.31-.28-.73-1.37-.16-1.01.28.51.61,1.21.63,1.64,1.31,1.49.19-.54.95-.06-.03.89.79.62,1.48,1.18l-.37.31c1.17,1.96,1.16-.16,2.14,1.67l-1.06-.26.8.72-.57.17c1.04.65,1.18,1,1.77,1.98.1-.42.78-.43,1.41.34.2.71-.6-.01.34,1.05-.44-.06-.95-.1-.99-.86-.16.05-.43-.06-.6-.01.2.78,1.09,1.49,1.42,1.89-.11-.17-.24-.37-.26-.5l1.81,1.19c.06.37-.21.26-.48.15.3.29.65.38,1.07.83-.41.12-.7.4-1.38-.16l1.56,1.26c-.05.21.26,1.08-.01.97.5.99,2.26,1.61,2.92,2.93.11.01.26.08.49.29.78,1.11,1.15,2.35,2.57,3.27l.02,1.15c.91.88-.08-1.52,1.44-.04,1.1,1.02-.12.81.05,1.34.74.36,2.1.91,2.5,2.33-.38-.27-.52-.61-.83-.91Zm9.91,11.93c-.27-.17-.88-.45-.8-.79.65-.08.6.29.8.79Zm15.61,17.71c-.26-.08-.42-.39-.52-.81.21.2.39.46.52.81Zm43.57,49.25s-.02,0-.04-.01c-.27-.64-.18-.41.04.01Zm.7,1.22c.14.07.19.02.2-.07-.16,0-.36-.24-.55-.54-.04.16,0,.35.35.61Zm-93.35-116.75l.07.29c-.49-.39-.28-.34-.07-.29Z"/>
    <path class="cls-1" d="m260.27,237.66c.01-.12.07-.19.12-.26-.14-.04-.21.01-.12.26Z"/>
    <path class="cls-1" d="m230.72,202.32s-.02-.03-.03-.04c-.04,0-.07,0-.1.02l.12.02Z"/>
    <path class="cls-1" d="m290.09,275.5c-.12-.27-.16-.45-.15-.59-.1.06-.1.23.15.59Z"/>
    <path class="cls-1" d="m311.98,295.06l-.65-.62c.29.32.3.51.38.73.08-.09.1-.32.28-.11Z"/>
    <path class="cls-1" d="m314.47,302.97c.13.06.18.21.3.28l.15-.17c-.36-.42-.74-.62-.46-.11Z"/>
    <path class="cls-1" d="m311.24,296.71c-.27.31.18.66.63,1.1-.02-.03-.05-.05-.07-.09.56-.21,0-.61-.56-1.01Z"/>
    <path class="cls-1" d="m311.97,297.91c.14.14.27.29.37.44.22-.08-.11-.21-.37-.44Z"/>
    <path class="cls-1" d="m308.05,291.02c.1.3.52-.18.5.06.61-.06-1.72-1.15-.5-.06Z"/>
    <polygon class="cls-1" points="310.51 297.93 310.76 297.45 310.23 297.43 310.51 297.93"/>
    <path class="cls-1" d="m307.72,293.85l.51.87c.06-.06.17,0,.3.1-.37-.49-.71-1.08-.81-.97Z"/>
    <path class="cls-1" d="m308.53,294.82c.19.26.39.49.57.58-.11-.13-.36-.41-.57-.58Z"/>
    <polygon class="cls-1" points="309.54 296.96 309.44 296.67 309.03 296.09 309.54 296.96"/>
    <path class="cls-1" d="m301.11,285.4l-.79-.76c-.2.02-.1.32.21.59.26.13.56.4.59.17Z"/>
    <path class="cls-1" d="m302.09,288.83c-.1-.3-.03-.38,0-.61l-.51.36.51.25Z"/>
    <path class="cls-1" d="m299.99,286.44c-.2.02-1.37-.93-.48.13.2-.02.99.74.48-.13Z"/>
    <polygon class="cls-1" points="290.38 273.12 290.55 273.33 291.33 272.67 290.38 273.12"/>
    <path class="cls-1" d="m279.45,263.33c.61,1.16.68-.15,1.17.95.38.09-.4-.9-.04-.79-.68-.45-.83-.86-1.13-.16Z"/>
    <path class="cls-1" d="m280.58,263.49c.11.07.23.15.37.21-.19-.14-.29-.19-.37-.21Z"/>
    <polygon class="cls-1" points="182.19 133.12 181.84 132.34 181.91 132.97 182.19 133.12"/>
    <path class="cls-1" d="m180.61,132.35l.39-.56-.77-.02c.14.13.41.38.38.58Z"/>
    <path class="cls-1" d="m247.26,224.25l.16-.05c.05-.21-.06-.37-.28-.69l.12.73Z"/>
    <polygon class="cls-1" points="240.63 215.15 240.74 215.3 240.97 214.66 240.63 215.15"/>
    <path class="cls-1" d="m234.15,208.23c.22.32.61.59.83.91-.61-.59-.32-1.45-.83-.91Z"/>
  </g>
  <g>
    <path class="cls-1" d="m324.53,383.82c.23.35.46-.03.56-.03-.5-.49-.64.11-.56.03Z"/>
    <polygon class="cls-1" points="319.54 379.03 319.75 379.02 318.8 378.49 319.54 379.03"/>
    <path class="cls-1" d="m315.58,373.99c-.19.92,1.53,1.75,2.03,2.81v.25s.76.05.76.05c-.93-1.03-2.34-2.21-2.79-3.1Z"/>
    <path class="cls-1" d="m314.68,370.36c-.09.34-.65-.43.42.68-.02-.08-.02-.11-.03-.16-.09-.11-.21-.26-.39-.52Z"/>
    <path class="cls-1" d="m315.07,370.88c.43.52-.09-.49,0,0h0Z"/>
    <path class="cls-1" d="m313.02,368.53l.74.54c.01-.25-.45-.89-.17-.73-.67-.63-.68-.38-.57.19Z"/>
    <path class="cls-1" d="m312.09,368.19l.37.3c0-.11-.05-.22-.37-.3Z"/>
    <path class="cls-1" d="m313.23,369.12l-.78-.63c-.01.17-.18.33.34.3-.22.07.06.09.44.33Z"/>
    <path class="cls-1" d="m313.49,369.62c.19.49.51,1.05-.24.51,1.13,1.27,1.37.77.24-.51Z"/>
    <path class="cls-1" d="m314.8,374.2l.25.65.54.3c-.27-.15-.64-1.13-.79-.96Z"/>
    <path class="cls-1" d="m309.88,363.95c-.15.05-.13.49-.24.66l.54.41c-.13-.33-.45-.89-.3-1.07Z"/>
    <path class="cls-1" d="m309.64,364.61l-.81-.61c.52.71.72.76.81.61Z"/>
    <polygon class="cls-1" points="311.37 368.56 312.8 369.49 311.17 368.32 311.37 368.56"/>
    <polygon class="cls-1" points="307.58 361 308.2 361.22 307.17 360.77 307.58 361"/>
    <path class="cls-1" d="m305.99,359.08c.48.14.04-.75.45-.52-.46-.5-1.01-.8-1.51-1.07.44.36.78.84,1.06,1.58Z"/>
    <path class="cls-1" d="m304.13,357.02c.23.17.5.32.8.48-.23-.19-.49-.36-.8-.48Z"/>
    <path class="cls-1" d="m307.85,362.64c.02-.12.12-.38-.14-.88l-.1.57c.07.09.15.2.23.31Z"/>
    <path class="cls-1" d="m307.61,362.35v-.02c-.25-.33-.42-.57-.5-.67.06.09.21.29.5.69Z"/>
    <path class="cls-1" d="m307.91,362.72s-.04-.05-.06-.08c-.01.06,0,.08.06.08Z"/>
    <path class="cls-1" d="m310.08,366.3c-.54-.31-1.49-1.09-1.06.05.49.14.24-.51,1.06-.05Z"/>
    <path class="cls-1" d="m307.79,363.43l.57.88c.08-.09.09-.34.36-.18l-.93-.7Z"/>
    <polygon class="cls-1" points="307.36 363.11 307.79 363.43 307.57 363.1 307.36 363.11"/>
    <path class="cls-1" d="m304.92,358.67c-.42-.24-.74-.62-1.11-1.04.3.52.65,1.03,1.01,1.49.16-.02.51.03.1-.46Z"/>
    <path class="cls-1" d="m306.2,360.48s-.06-.05-.08-.06c0,.07.03.12.08.06Z"/>
    <path class="cls-1" d="m300.42,353.33s0,.08,0,.12c.02-.01.05-.02.07-.03l-.06-.09Z"/>
    <path class="cls-1" d="m304.82,359.25c.21.4.46.55.72.67-.24-.24-.48-.5-.72-.8-.07,0-.11.03,0,.13Z"/>
    <path class="cls-1" d="m303.02,355.94c.07.24.18.49.3.76-.04-.26-.16-.76-.3-.76Z"/>
    <path class="cls-1" d="m306.12,360.23s.04.02.06.04c-.02-.17-.04-.13-.06-.04Z"/>
    <path class="cls-1" d="m306.12,360.23c-.19-.14-.39-.22-.57-.31.2.19.39.36.57.5-.01-.06,0-.13,0-.19Z"/>
    <path class="cls-1" d="m297.24,353.72c.36-.18,1.38.52,1.67,1.58.85.6,1.47-.72,1.5-1.86-.16.08-.28.18-1.1-.48.05.42,1.02,2.11.2,1.65-1.01-.95-.58-.97-.83-1.62-.04.75-1.64-.92-2.03-.24l.94.78c-.07.09-.49-.14-.36.18Z"/>
    <path class="cls-1" d="m301.6,355.01l.3.3c-.24-.42-.33-.79-.49-1.48-.59-.43-.79-.46-.93-.42l1.25,1.67-.14-.08Z"/>
    <path class="cls-1" d="m303.08,356.81c-.54,0-1.32-.68-1.3.1.79.96.82.46,1.43.93-1.33-1.51.55.3-.16-.99.3.26.54.53.76.78-.18-.32-.35-.63-.49-.94,0,.02,0,.03,0,.05h0s0,0,0,0c.01.1,0,.14-.03.05,0,0-.02-.02-.03-.03-.06.03-.12.03-.18.03-.29-.51.03-.14.18-.03.02,0,.05,0,.07-.02,0,0,0,0,0,0l-1.43-1.43c.22.37.56.78,1.18,1.49Z"/>
    <path class="cls-1" d="m307.63,366.08c0-.07.02-.09.04-.11-.12-.07-.18-.09-.04.11Z"/>
    <path class="cls-1" d="m307.32,365.26c.14.08.35.07.61.47.15.4-.16.13-.26.23.27.15.86.6.47-.24l-.13-.08c-.39-.73-.61-1.88-.47-1.8-.16.43-.25.76-.21,1.42Z"/>
    <path class="cls-1" d="m305.08,361.06l-1.2-1.19.24.9.15-.17c.52.8.61.47.82.46Z"/>
    <polygon class="cls-1" points="300.47 353.04 300.96 352.93 299.86 352.57 300.47 353.04"/>
    <polygon class="cls-1" points="299.08 351.37 299.44 351.18 298.9 350.88 299.08 351.37"/>
    <path class="cls-1" d="m219.16,257.9l-.39-.32c.17.16.29.26.39.32Z"/>
    <path class="cls-1" d="m221.35,260.72l.21-.05c-.19-.06-.29-.07-.21.05Z"/>
    <path class="cls-1" d="m265.94,309.39c-.15-.79-.2-1.78-.5-1.43l-.2.44c.37.35.57.68.7.99Z"/>
    <path class="cls-1" d="m241.24,282.23c0,.08.02.16.03.25.22.04.43.09.63.12-.2-.11-.42-.24-.65-.37Z"/>
    <path class="cls-1" d="m239.51,282.95l-.37-.92c.05.23.17.52.37.92Z"/>
    <path class="cls-1" d="m206.75,242.9l-.7-.18c.56.7.49.26.7.18Z"/>
    <path class="cls-1" d="m285.15,333.95c-.25-.59-.5-1.02-.75-1.37.27.74.34,1.44.75,1.37Z"/>
    <path class="cls-1" d="m223.65,256.15c-.25-.19-.4-.23-.47-.17.25.2.42.28.47.17Z"/>
    <path class="cls-1" d="m283.29,331.17c.03.11.08.21.12.32.34.31.66.63.99,1.08-.2-.55-.5-1.11-1.11-1.4Z"/>
    <path class="cls-1" d="m163.33,187.22c-.02-.05-.05-.11-.06-.16-.06.02-.01.08.06.16Z"/>
    <path class="cls-1" d="m154.04,168.36c.15.14.35.4.55.64-.07-.14-.23-.34-.55-.64Z"/>
    <path class="cls-1" d="m293.8,344.37c.31.35.08.03,0,0h0Z"/>
    <path class="cls-1" d="m293.85,347.19c-.1-.05-.19-.07-.28-.01.11-.03.2-.03.28.01Z"/>
    <path class="cls-1" d="m278.32,329.23s-.01-.02-.02-.03c.02.16.02.13.02.03Z"/>
    <path class="cls-1" d="m294.08,345.04c-.07-.17-.15-.35-.26-.54.03.1.11.26.26.54Z"/>
    <path class="cls-1" d="m294.18,344.83c.08.14.15.24.22.34.09,0,.1-.07-.22-.34Z"/>
    <path class="cls-1" d="m293.39,343.88c.17.2.31.41.43.62-.03-.09-.04-.13-.01-.12-.09-.1-.21-.25-.42-.49Z"/>
    <path class="cls-1" d="m187.66,216.22s-.02-.07-.03-.1c-.43-.25-.28-.11.03.1Z"/>
    <path class="cls-1" d="m254.96,302.74s.03.02.05.03c-.01-.02-.02-.04-.03-.06l-.02.03Z"/>
    <path class="cls-1" d="m253.68,301.64c.86.22,1.06.58,1.3,1.07l.64-1.21-1.94.14Z"/>
    <path class="cls-1" d="m213.78,251.27l.42,1.16c-1.37-.71-1.83-1.64-1.58-.44,1.17-.71,2.91,3.47,4.08,2.76l.25.78c-.13-.18-.21-.16-.33-.34.41,1.58,1.46.26,2.5,1.89.33.59.47,1.08.06.82l1.19.97c.25.36,0,.42-.25.06l1.5,1.72h-.04c.37.13,1.08.51,1.42.71.21.58-.29-.14-.33.08l1.04.79c.04.62-.87.01-1.37-.7-.34,1.76.92.61,1.87,3.1l-.87-.83c-.13,1.08.67,1.64,1.12,2.99,0-.41-.72-2.87.39-2,.16.37.43.8,1.11,1.21-.38.3.16.8.74,1.49l-.54.35c.75.65.96.39,1.54.66.62.89.37,1.38.2,1.84,1,1.43-.12-1.44,1.25.11.7,1.29,1.54,1.93,2.91,3.05.45.93-.42.1-.34.5l.96.39c.13.18-.04.22-.12.24.62.47.54-.35,1.41.48.75-.18.7,2.56,2.24,3.22.08.4-.42.1-.54.35,1.66,1.26,1.37,1.13,2.95,1.99l.55,1.37c-.27-1.11,1-.42,2.09.2-.05-.43-.08-.81-.14-1.03l1.42,1.25c.06.24-.23.23-.63.16.12.07.24.13.33.17.23.67-.28.63-.85.47-.04-.26-.07-.52-.1-.77-.59-.12-1.19-.19-1.43.12.13.05.33.19.51.37-.16-.03-.28-.03-.29.05-.01.09.22.16.53.29l-.3.77.29-.09,1.15,2.18c1.64.92,3.4,1.45,5.34,3.44-.83-.21-.76.41-1.27.77.05-1-1.54-1.5-2.32-2.71.41.63.07.68-.12.6l2.05,1.63c-.43.27.04.66.28,1.31.48-1.02,1.7,1.08,2.58,1.7-.22.26-.65.28-1.37-.77.27,1.56,2.04.69,2.39,2.16-.2-.24-.26-.4-.47-.39.68.38,1.59,1.91,1.1,1.77l-.2-.24c1.18,1.68,3.86,4.91,4.72,4.62-.07.08-.97.42-1.18.43l4.51,1.1c-.77.2-1.37,2.25-2.75,1.17.22.45.5,1,1.34,1.65-.12-.33.32-1.31.65-.99.13,1.48.2.95.6,2.59-.19-.49,1.06-.76,1.52-.12-.21,0-.85.75-1.12.6l2.1.85c-.46-.26-.8.52-.78,1.06.05-.3,1.04,1.35,1.45,1.69l-.31-.82c1.24,1.85,2.6.74,3.91,2.51-.35-.07-1.53.37-.95,1.33.77.05,3.58.07,5.13,1.32l-.03.5,1.22.94c-1.26-.19-4.3-1.11-5.74-1.79.31.81-.16.42.63,1.38.03.54-.79-.24-1.03-.52l1.63,2.4c.45-.52,1.9,1.32,2.27.89l-2.49-2.04c.45-.52,2.62.25,3.8,1.93.11.58-1.18.43-1.33.61.35.07,1.55,1.25,1.54,1.5l-.82-.46c.51,1.05,1.85.91,2.2,2.39.26.4.2,1.65.56,1.46.12-1.08,1.9-2.67,2.67-2.62.06.16.96,2.41,1,3.07.01.98-1.85-.03-1.85.81.16-.09.61.11.77.2.18.49-.57.19.16.99.65-.28,1.31,1.76.77.04.81.71.58.97,1.38,1.92.1-.58,1.87-.05,2.67.66-.17.06-.2.38-.21.54,1.29,1.74,1.77,2.84,3.01,4.43-.01.25.43,1.14-.06.99.27.15.62.22,1.02.7.28,1.31-.93-1.03-.92.13.36-.18,1.43.93,2.17,1.47.31-.59-1.18-1.68-1.92-2.23.66-.53,2.31.14,3.92,1.56,1.2,1.19.02.91.3,1.06,1.83,2.57,2.82,1.2,3.96,3.63.22,1.15-.81.7-.97,1.12-1.01-.95-1.03-1.86-1.62-2.57l.51,1.05c-.41-.23-1.08-.86-1.27-1.35.16.98,3.22,4.24,4.38,6.42.41.23,1.02.7.97.29l-.54-.56c-.1-.82,1.37.77.92-.12.88.62,1.97,1.23,2.68,2.53l-.31.59c.12-.14-.3-.97-.7-1.18.59.31.73,2.26,1.77,2.29l-.3-1.06c.88.62,2.19,1.23,2.83,2.36.11-.83-.24-.19-.25-1.35-.2,1.17-2.01-2.61-1.95-1.04.06-1.25-.73-1.49-.94-2.89-.14.15-.03.58-.63-.33-.08,0-.21-.05-.29-.08-.02-.03-.02-.04-.03-.07,0,.02.01.04.02.06-.05-.02-.06-.02,0,.02.09.26.14.49.1.62-.7-.13-1.75-1.49-2.3-1.8-.32-.56.35.07.3-.34l-.82-.46c.3-.35-.47-1.8.67-.78l-.83-1.08c-.3-.78-.9-1.71-1.47-2.13-.32-.56-1.39-.96-.77-.74l-1.54-1.5.08-.08c-1.26-1.69-3.27-2.94-4.12-5.33-.53-.49-1.09-.98-1.72-1.99l.16-.42c-.67-.63-1.39-2.39-1.95-2.44.21-1.42-2.55-3.61-3.4-4.98l-.44.27c-.66-.88-1.43-1.62-2.43-2.57l-.3.34c-1.02-.7-1.62-2.58-2.81-4.01.21,0,.47.39.6.72-.58-2.38-3.49-3.23-4.16-5.28-.44-.29-.62-.61-.75-.96.03.04.06.06.1.08-.03-.04-.07-.1-.12-.17-.08-.22-.15-.46-.25-.7.05.23.1.45.18.61-.25-.3-.66-.73-1.1-1.11l.23-.49s-.06-.06-.09-.1c-.21-.55-.46-.22-.56.25-.24-.18-.48-.33-.7-.42.33-.84-1.14-1.03-.88-2.03-.56-.06-2.03-2.09-2.89-1.8.07-.08.01-.25.21,0-.32-.57-.64-1.13-1.19-1.43l.31-.59-1.52-.59c-.24-.9-.28-1.31.61-.94-1.84-1.16-1.24-1.13-2.88-2.06l.36-.18c-.4-.48-1.43-.93-1.4-1.43-.27-1.56-4.18-5.47-5.84-8.71-.49,1.27-.62-1.63-1.41-1.18.09-.33-.1-.82.45-.52-1.34-1.26-1.35-2.42-2.73-2.94.09-.34.56.06.57-.19-.14-.08-.55-.31-.53-.56.01-.25.35.07.62.22-1.19-1.43-1.97-1.06-2.68-.67-.29-.97-.62-1.31-1.45-1.52,0-.42-.12-1.02.67-.17-.37-.53-2.16-3.36-2.7-3.02,0-.26-.53-.74-.69-.83-.87-1.17-.91-1.31-1.84-2.4l.16.38c-.96.03-.87-.83-1.66-1.68l.08-.02c-1.2-2.43-.92-.73-2.04-3.18l-.29.41c-.96.45-.96-2.2-2.21-3.14l.12.6c-.79-.43-.33-2.69-.75-3.42-.04-.2.29.14.5.29-.87-2.09-.67.17-1.79-1.02.08-.45.92-.23.29-1.13-.12-.6-2.83-1.81-3.24-3.38,0,.42,0,.84-.63.37-.79-.85-1.16-3.07-2.45-3.38-.04-.16-.02-.25.03-.29-.71-.56-2.06-2.04-2.74-2.18.8-1.67-4.03-3.82-2.82-4.75l-1.75-2.08.17-.04c-1-1.43-1.66-1.68-2.33-1.94-.17-.38.13-.24.21-.26-1.33-2.18-1.54-2.34-3.45-3.54l.25-.48c-.58-.27-1.66-3.36-3.66-4.96.06-.02.17-.03.34.08-2.19-1.84-3.07-6.12-5.13-5.81l-1.49-1.18c1.37,1.97-.84.21-.46,1.16-.67-.67-1.08-2.25-.29-1.4l.04.2c1-.25-1.58-2.54-1.03-2.89-2.95-3.67-5.38-7.59-8.08-11.08l-.26.85-.92-1.23c-.12-.42.11-.78.77.1-.03-.71-1.41-1.23-1.56-1.16-1.1-1.87,1.19.13.8-.4l-.6-.67.06.21c-.68-.38-.97-.24-1.76-1.3-.4-.75.09-.62-.09-.89.04-.03,0-.13-.3-.41l-1.15-1.56.03.97c-.76-.5-1.1-1.45-1.06-.34-.02-1.66-4.19-5.9-4.44-6.73-1.08-.68-1.8-1.62-2.67-2.81.13.36-.24.94-.97-.11,1.34-.47-.98-2.18-.86-3.59.06,1.12-2.36-2.73-2.18-1.04-.57-.9.35-.36.1-1.19-1.97-1.66-3.17-4.57-5.24-6.91-.17.07-.06.65-.68.28l-.33-1.84c-.45-.43-1.15.18-1.36-1.08-.02.22-.05.54-.35.25-3.1-5.32-8.27-9.36-10.84-15.22.25.87-.12.45-.53-.04.19.38-.35.26-.48.47l-1.09-2.45c-.81.04-1.76-2.16-2.42-1.98l.6.57c-1.26-.4-.36,2.23-1.21,2.7,1.42.44,1.01,3.31,3.21,4.14.12.47-.48-.11-.5.22.64.15,1.08.57,1.64,1.58l-.16-.04c2.06,2.45,2.59,3.78,4.6,6.77l.21-.5c.43.65.41.87.54,1.22,1.11.25-1.31-1.73-.19-1.58-.12,1.4,3.36,4.29,2.93,5.51.73.94.22-.61.95.32l-.04.43h.49c.43.65.38,1.19.21,1.37-.09-.17-.39-.38-.53-.52.35,1.01,1.86,2.16,1.98,2.51l-.56-1.01c2.22,2.37,4.37,5.72,6.78,7.81l.03-.33c1.8,1.62.99,1.66,2.77,3.6l-.1-.04c.5.27,1.02.76,1.45,1.34-.62-.36.37,1.29-.39.79,1.95,1.76,1.07.79,2.78,1.62l-.05.54c.62.25.79.18,1.68,1.15-.92-.65.07,1.01-1,.32,1.07,2.66,3.17,2.7,3.02,4.43,1.59.36-1.03-2.22-.42-1.8-.1-.67,1.25.34,1.7,1.09.53.7-.11,1.99,1.28,3.71-.13-.18-.2-.14-.34-.31.31.81,1.28,1.05,1.58,2.11.84.06.79,1.06,1.51.7l-1.4-1.48c.87.77,2.27,1.05,3.09,2.81-.22-.02-.73-.33-1.06-.56.16.58.78.74.95,1.34-.72.36-1.66-1.83-2.9-2.42.11.67,1.89,1.48.84,1.52,1.41.02,1.24,1.8,2.82,2.46l-.43.22c.21.14.69.39.95.74l-.97-.24c1.16.63,1.09,2.12,2.03,2.86-1.52-1.9.11-.78-.25-1.81,2.36,1.97.09,2.12,2.35,4.62-.33-.32-.83-1.52-.22-1.1.32.56.7,1.34.75,1.8,1.46,1.69.17-.57.99,0,.02.95.86.71,1.61,1.37l-.37.3c1.33,2.19,1.21-.09,2.33,1.93l-1.12-.34.87.83-.58.15c1.12.77,1.29,1.15,1.95,2.24.08-.44.79-.41,1.5.46.25.78-.63-.05.41,1.16-.46-.1-1-.17-1.08-.99-.17.04-.46-.09-.62-.05.25.85,1.23,1.68,1.59,2.13-.12-.19-.27-.41-.3-.56l1.96,1.4c.08.4-.21.26-.5.13.33.34.71.45,1.16.97-.42.1-.71.39-1.46-.26l1.7,1.46c-.04.22.33,1.18.04,1.04.57,1.1,2.45,1.88,3.21,3.34.11.02.27.11.53.34.87,1.25,1.33,2.6,2.87,3.69l.08,1.24c1,1.01-.16-1.64,1.5.05,1.21,1.17-.09.86.12,1.44.79.43,2.25,1.11,2.74,2.67-.42-.32-.58-.69-.91-1.03Zm11.02,13.48c-.29-.2-.95-.54-.88-.91.67-.04.65.36.88.91Zm17.29,20.06c-.28-.1-.46-.45-.59-.91.23.23.44.52.59.91Zm48.27,55.82s-.03-.01-.04-.01c-.32-.71-.21-.45.04.01Zm.8,1.36c.15.08.2.03.21-.06-.16-.01-.39-.28-.61-.62-.03.17.03.38.4.68Zm-104.01-131.66l.09.32c-.53-.45-.32-.38-.09-.32Z"/>
    <path class="cls-1" d="m239.72,282.87c0-.13.06-.2.12-.28-.15-.05-.22,0-.12.28Z"/>
    <path class="cls-1" d="m206.88,242.93s-.02-.03-.03-.04c-.04,0-.07,0-.1.01l.13.03Z"/>
    <path class="cls-1" d="m272.97,325.52c-.14-.3-.19-.49-.19-.64-.1.06-.09.24.19.64Z"/>
    <path class="cls-1" d="m296.93,347.99l-.72-.71c.32.37.34.57.43.81.07-.09.08-.34.28-.1Z"/>
    <path class="cls-1" d="m299.97,356.66c.14.08.2.24.33.32l.15-.17c-.4-.48-.81-.71-.48-.15Z"/>
    <path class="cls-1" d="m296.25,349.71c-.27.31.23.72.72,1.23-.03-.03-.05-.06-.08-.1.57-.19-.04-.66-.64-1.13Z"/>
    <path class="cls-1" d="m297.08,351.05c.15.16.29.32.41.5.23-.08-.13-.24-.41-.5Z"/>
    <path class="cls-1" d="m292.6,343.38c.12.33.54-.16.52.09.64-.03-1.86-1.35-.52-.09Z"/>
    <polygon class="cls-1" points="295.55 350.98 295.79 350.47 295.23 350.41 295.55 350.98"/>
    <path class="cls-1" d="m292.41,346.4l.58.97c.06-.07.18.02.32.13-.41-.55-.8-1.21-.9-1.1Z"/>
    <path class="cls-1" d="m293.32,347.5c.22.29.44.55.62.66-.12-.15-.4-.47-.62-.66Z"/>
    <polygon class="cls-1" points="294.48 349.87 294.36 349.55 293.9 348.9 294.48 349.87"/>
    <path class="cls-1" d="m285.03,336.89l-.87-.87c-.21,0-.09.34.25.65.28.16.61.47.62.22Z"/>
    <path class="cls-1" d="m286.24,340.64c-.12-.32-.05-.41-.03-.66l-.51.36.55.3Z"/>
    <path class="cls-1" d="m283.92,337.93c-.21.01-1.49-1.09-.5.11.21,0,1.08.86.5-.11Z"/>
    <polygon class="cls-1" points="273.14 322.98 273.34 323.22 274.11 322.55 273.14 322.98"/>
    <path class="cls-1" d="m261.18,311.73c.71,1.29.71-.12,1.28,1.1.4.12-.47-.99-.09-.85-.74-.53-.91-.98-1.19-.25Z"/>
    <path class="cls-1" d="m262.37,311.98c.12.09.25.17.4.25-.21-.16-.32-.22-.4-.25Z"/>
    <polygon class="cls-1" points="152.36 165.34 151.95 164.48 152.05 165.16 152.36 165.34"/>
    <path class="cls-1" d="m150.66,164.4l.37-.57-.81-.08c.15.15.45.43.43.65Z"/>
    <path class="cls-1" d="m225.38,267.6l.17-.04c.04-.22-.08-.4-.33-.76l.16.8Z"/>
    <polygon class="cls-1" points="217.94 257.37 218.06 257.55 218.27 256.87 217.94 257.37"/>
    <path class="cls-1" d="m210.79,249.51c.25.35.67.67.92,1.03-.67-.68-.41-1.58-.92-1.03Z"/>
  </g>
  <g>
    <path class="cls-1" d="m153.44,170.88c-.08-.02,0,.39,0,.46.12-.11,0-.57,0-.46Z"/>
    <polygon class="cls-1" points="154.53 169.73 154.54 169.9 154.64 169.46 154.53 169.73"/>
    <path class="cls-1" d="m155.65,169.54c-.25-.68-.38.18-.63-.03l-.06-.15v.58c.25-.13.48-.56.7-.4Z"/>
    <path class="cls-1" d="m156.61,170.92c-.1-.26.08-.27-.16-.04.02.03.03.04.04.06.02-.01.06-.02.12-.02Z"/>
    <path class="cls-1" d="m156.48,170.94c-.12.05.13.2,0,0h0Z"/>
    <path class="cls-1" d="m157.01,170.62l-.1.29c.07.15.23.15.2.28.13-.18.06-.33-.1-.56Z"/>
    <path class="cls-1" d="m157.03,170.08l-.05.12c.03.06.06.08.05-.12Z"/>
    <path class="cls-1" d="m156.85,170.47l.12-.26c-.05-.11-.11-.33-.06.1-.04-.21-.02,0-.06.16Z"/>
    <path class="cls-1" d="m156.73,170.39c-.13-.13-.26-.19-.16-.47-.27.18-.12.66.16.47Z"/>
    <path class="cls-1" d="m155.56,168.81l-.16-.18-.05.25c.02-.12.26.15.21-.07Z"/>
    <path class="cls-1" d="m158.1,170.7c-.03-.15-.17-.37-.23-.56l-.07.2c.09.08.23.14.3.36Z"/>
    <path class="cls-1" d="m157.87,170.14l.1-.3c-.16.01-.16.14-.1.3Z"/>
    <polygon class="cls-1" points="156.85 169.3 156.71 169.91 156.91 169.28 156.85 169.3"/>
    <polygon class="cls-1" points="158.79 170.52 158.79 170.88 158.81 170.33 158.79 170.52"/>
    <path class="cls-1" d="m159.22,170.33c.02.3.26.44.24.63.11-.08.13-.36.15-.61-.05.16-.17.17-.38-.02Z"/>
    <path class="cls-1" d="m159.64,169.98c-.02.08-.03.22-.04.37.03-.08.05-.19.04-.37Z"/>
    <path class="cls-1" d="m158.29,169.83c.04.08.14.31.27.37l-.2-.39s-.05,0-.07.01Z"/>
    <path class="cls-1" d="m158.35,169.8h0c.08,0,.13,0,.15,0-.02,0-.07,0-.16,0Z"/>
    <path class="cls-1" d="m158.27,169.83h.02s-.03-.05-.02,0Z"/>
    <path class="cls-1" d="m157.4,169.55c.04-.26.17-.56-.13-.86,0,.3.18.47.13.86Z"/>
    <path class="cls-1" d="m158.03,169.34l-.21-.04c.04.11.12.26.1.38l.11-.34Z"/>
    <polygon class="cls-1" points="158.08 169.19 158.03 169.34 158.1 169.36 158.08 169.19"/>
    <path class="cls-1" d="m159.21,169.72c.02-.21.09-.25.18-.32-.13-.04-.25-.04-.35,0,.03.13.06.37.17.32Z"/>
    <path class="cls-1" d="m158.78,169.73v-.03s-.02-.04,0,.03Z"/>
    <path class="cls-1" d="m160.31,169.04s-.03-.05-.04-.07l.02.07h.02Z"/>
    <path class="cls-1" d="m158.99,169.33c-.1-.06-.12.06-.12.2.05-.06.1-.1.16-.12-.01-.06-.02-.1-.04-.07Z"/>
    <path class="cls-1" d="m159.84,169.69c-.07-.07-.14-.12-.21-.17.08.11.24.28.21.17Z"/>
    <path class="cls-1" d="m158.85,169.8s0,.02,0,.02c.05.08.04.04,0-.02Z"/>
    <path class="cls-1" d="m158.85,169.8c.02-.07.02-.18.02-.28-.04.05-.07.1-.09.17.02.03.04.07.06.1Z"/>
    <path class="cls-1" d="m159.57,166.38c.14.37.08.79-.23.45-.05.34.51,1.52.93,2.14-.06-.16-.11-.31-.03-.6-.14-.18-.56-.32-.55-.71.15-.28.23.06.42.21-.27-.42.01-.78-.31-1.43l-.09.31c-.05-.1-.05-.3-.13-.37Z"/>
    <path class="cls-1" d="m159.92,169.07l-.05.07c.11.03.22.16.44.4.05-.23.02-.38-.02-.5l-.37.09v-.07Z"/>
    <path class="cls-1" d="m159.55,169.27c-.09-.43.01-.67-.25-1.06-.19.11-.02.39-.08.62.3-.23-.02.26.31.4-.04.1-.09.14-.14.18.08.03.16.06.24.12l-.02-.02h0s0,0,0,0c-.03-.04-.05-.07-.02-.05,0,0,0-.01,0-.01-.02-.06-.03-.11-.04-.16.13.04.05.1.04.16l.02.06h0s.26-.35.26-.35c-.09-.03-.18.02-.32.13Z"/>
    <path class="cls-1" d="m157.19,167.75s.03.06.04.09c0-.06,0-.09-.04-.09Z"/>
    <path class="cls-1" d="m157.4,167.96c0,.06.02.24-.07.22-.1-.1-.06-.2-.1-.33-.01.12-.08.34.13.5v-.06c.18.1.51.57.51.63-.15-.36-.27-.61-.46-.95Z"/>
    <path class="cls-1" d="m158.43,168.54l.21-.28-.26-.31.08.21c-.19-.04-.07.21-.03.38Z"/>
    <polygon class="cls-1" points="160.42 169.23 160.55 169.67 160.48 169 160.42 169.23"/>
    <polygon class="cls-1" points="160.77 169.03 160.91 169.4 160.92 169.14 160.77 169.03"/>
    <path class="cls-1" d="m173.7,152.43l-.04-.13s.02.09.04.13Z"/>
    <path class="cls-1" d="m173.34,152.87l.15.13c-.07-.09-.13-.14-.15-.13Z"/>
    <path class="cls-1" d="m169.08,164.16c.33.22.8.58.51.24l-.3-.32c-.02.11-.11.12-.21.08Z"/>
    <path class="cls-1" d="m172.04,158s-.08-.04-.12-.07c.09.12.17.24.24.34-.04-.09-.08-.18-.12-.28Z"/>
    <path class="cls-1" d="m170.8,156.71l.31.08c-.1-.04-.2-.07-.31-.08Z"/>
    <path class="cls-1" d="m175.03,149.63l-.33-.31c-.07.12.15.18.33.31Z"/>
    <path class="cls-1" d="m164.36,167.16c.18.1.3.12.38.1-.24-.15-.52-.43-.38-.1Z"/>
    <path class="cls-1" d="m177.28,155.34c-.03-.09-.09-.16-.17-.22.03.09.08.16.17.22Z"/>
    <path class="cls-1" d="m165.01,167.08s-.07-.04-.1-.06c-.03.11-.07.2-.17.23.18.11.33.15.27-.17Z"/>
    <path class="cls-1" d="m179.78,139.64s.03,0,.06-.01c-.06-.02-.06,0-.06.01Z"/>
    <path class="cls-1" d="m184.8,137.25s0,.1,0,.15c.03-.02.04-.07,0-.15Z"/>
    <path class="cls-1" d="m162.32,168.58c-.06.06,0,.05,0,0h0Z"/>
    <path class="cls-1" d="m161.25,167.2c0-.05-.02-.11-.06-.2.04.1.05.16.06.2Z"/>
    <path class="cls-1" d="m164.31,164.34h0c-.06-.06-.05-.05,0,0Z"/>
    <path class="cls-1" d="m162.13,168.46c.05.03.1.06.15.07-.03-.02-.08-.05-.15-.07Z"/>
    <path class="cls-1" d="m162.23,168.64s-.06,0-.08,0c.02.07.05.11.08,0Z"/>
    <path class="cls-1" d="m162.42,168.51s-.09.03-.14.02c.03.02.04.04.05.05.02-.02.05-.04.09-.07Z"/>
    <path class="cls-1" d="m178.82,145.72s.02,0,.04,0c-.13-.14-.12-.1-.04,0Z"/>
    <path class="cls-1" d="m167.81,159.38s0,.02,0,.02h.02s-.03-.02-.03-.02Z"/>
    <path class="cls-1" d="m167.79,158.96c.27.48.18.47.04.44l.88.89-.92-1.33Z"/>
    <path class="cls-1" d="m174.39,151.26l-.42-.06c-.41-.55-.15-.55-.69-.72,1.12.79-.27.66.81,1.45l-.31-.07s-.03-.07,0-.09c-.67-.19.7.71.35.85-.15.03-.35-.03-.44-.18l.13.39c-.06.04-.24-.11-.18-.15l-.13.36-.03-.03c.14.17.33.46.41.59-.21-.04-.09-.12-.24-.21l.14.36c-.33-.15-.5-.49-.38-.57-1.19-.67.17.34-.7.18l-.02-.26c-.68-.37-.55-.09-1.05-.22.22.12,1.2.41,1.34.79-.12-.01-.2.02-.06.29-.38-.3-.35-.13-.42,0l-.49-.41c.04.23.31.43.47.68-.16.09-.57-.2-.92-.43-.26.14.74.36.62.68-.34.02-.24.31-.13.77-.27-.02-.28-.28-.46-.35l.29.44s-.14-.09-.2-.15c.07.22.48.43.48.69.49.51-1.03-.38-.58.33-.17-.08-.27-.28-.47-.44.18.6.11.47.44,1.15l-.47-.12c.47.21.73.75.94,1.21.21.12.4.22.49.26l.03.46c-.1-.05-.24-.22-.4-.44.02.05.05.1.07.15-.25-.08-.47-.38-.68-.68.12.06.24.13.36.19-.23-.32-.49-.67-.78-.91.04.06.06.13.06.19-.06-.09-.12-.16-.18-.2-.06-.04.02.08.11.23l-.56-.44.19.21-.59-.03c.32.7.89,1.62.77,2.16-.29-.45-.58-.63-1.01-1.08.55.38.05-.44.3-.51-.13.04-.32-.19-.38-.28l.13.71c-.35-.37-.33-.21-.55-.28.76.66.25.7.34,1.04-.24-.24-.45-.51-.25-.6-.68-.39.61,1.06,0,.75.03-.04.08-.02-.02-.16.13.31-.26.31-.4.06l.03-.04c-.33.13-.76.65-.24,1.32-.07-.08-.64-.8-.74-.94.48.84.96,1.7,1.42,2.56-.44-.59-1.71-1.78-1.78-2.28-.13-.03-.28-.06-.23.25.11.05.78.72.77.82-.68-.49-.39-.24-1.02-.61.16.07.82,1.01.7,1.07-.09-.15-.73-.87-.77-.99l.47,1.08c-.07-.21-.59-.75-.84-.95.17.16-.23.15-.22.28l.27.13c-.39.08.69,1.45.36,1.63-.1-.21-.78-1.2-1.01-1.2.29.5,1.37,2.43,1.36,3l-.25-.23v.46c-.36-.8-1.09-2.53-1.34-3.23-.26-.13-.26-.29-.4-.15-.24-.21-.19-.44-.16-.49l-.48.11c.41.53.12.75.46,1.2v-.86c.41.53.88,1.71.54,1.82-.22-.17-.64-1.01-.78-1.19.1.21,0,.55-.11.43l-.1-.38c-.29-.1.27.91-.27.51-.09,0-.67-.6-.46-.26.53.57,1.89,2.52,2.13,3.05-.06-.03-.77-.38-1.06-.65-.44-.44-.62-1.3-1-1.68.1.16.16.38.18.46-.15-.09-.28-.49-.38-.33.34.59-.33.14.24.53-.04.25-.23-.02-.38.11.29.34.64,1.37.58,1.63-.08-.15-.23-.32-.3-.4-.34.14-.66-.02-.95.15-.11-.13-.34-.22-.43-.51.02.13.1.35.01.41-.46-.43.16-.18-.32-.73.18.35.04.59.02.88.33.52.36-.05.36-.33.42.74.62,1.62.48,2.14-.16.32-.37-.42-.36-.29-.55.11.26,1.52-.43,1.19-.4-.4-.48-.95-.69-1.28.11-.29.47.14.6.05l-.29-.14c-.02-.19.06-.38.21-.28-.35-.36-.84.32-1.4.11.01.2-.02.42.12.59l.08-.13c.29.34.03.66.27.76-.03.36-.01.89-.35.76l-.29-.54c.08.16.3.27.29.08,0,.29-.69-.62-.48.16l.33.32c-.04.35,0,1.03-.3.94.33.52.02-.08.45.51-.48-.76.57-.19,0-.95.49.69.41.21.91.76-.09-.18-.23-.32-.01-.31-.02-.06-.03-.14-.04-.18h.02s-.02,0-.02,0c0-.03,0-.04,0,0-.08-.06-.16-.14-.22-.23-.11-.47.17-.59.16-.85.14.04.06.23.21.4l-.02-.39c.21.4.6.53.47.89l.23-.09c.24.16.47.16.49-.07.15.03.04-.58.11-.22l.22-.42.06.1c.37-.14.35-.98,1.11-.52.05-.17.09-.35.34-.36l.23.31c.07-.2.62.07.47-.31.7.79.81-.23,1.15-.23l-.27-.43c.18-.08.27-.3.36-.6l-.26-.36c-.04-.43.61-.06.85-.29.08.15-.01.17-.12.12.91.58.24-1.09.96-.71-.03-.18.06-.18.18-.13,0,0,0,.02,0,.03.01,0,.02,0,.03-.02.08.04.17.08.25.11-.1-.06-.18-.11-.23-.13.05-.05.1-.16.11-.31l.33.35s0-.01.01-.03c.19.08-.08-.23-.34-.48,0-.09-.03-.2-.07-.31.55.56.05-.36.66.22-.2-.36.2-.57-.3-1.26.07.08.13.1.09.15.15,0,.29,0,.21-.25l.43.44-.35-.79c.35.19.54.31.74.77-.2-.79.04-.4-.2-1.14l.25.31c.07-.08-.15-.59.12-.39.69.4.97-.7,1.88-.66-.9-.75.57.17-.04-.5.22.17.39.22.49.46.03-.42.65-.04.27-.73.22.17.24.33.38.42-.02-.06-.1-.24.04-.15.14.09.13.2.18.32.2-.27-.39-.88-.95-1.45.39.15.41.05.11-.39.23.14.5.26.42.46.11-.05.77-.24.29-.68.14.08.14-.09.1-.16.19-.17.25-.14.37-.37l-.12-.02c-.51-.58,0-.27.06-.48l.06.06c.72.02-.08-.32.7-.25l-.38-.29c-.76-.7.72.09.59-.36l-.27-.1c-.18-.33,1.35.58,1.55.55.09.03.08.13.1.2.72.08-.45-.43-.39-.74.3.17.63.59.8.47.28.09-.53-1.13.14-.94-.24-.11-.48-.22-.56-.45.04-.21,1.12.15.57-.49.07.02.13.05.19.09-.08-.25.01-.61-.29-.94,1.44.84-.1-1.22,1.15-.36l.19-.45.12.1c.25-.2,0-.49-.25-.78.12,0,.22.12.28.17.5-.21.47-.28.02-1l.44.23c-.19-.23,1.01-.14.75-.81.05.03.12.09.17.15-.27-.71,1.77-.37.27-1.4l-.24-.49c-.32.29-.66-.43-1-.42-.02-.19.68-.1.66.11l-.09-.02c.79.51.54-.29,1.1.02.37-.73,1.16-1.24,1.51-1.93l-.7-.22.15-.23c.18,0,.56.15.45.31.42.08-.18-.44-.33-.51.43-.22.72.48.78.38l.02-.17h-.09c-.22-.24-.51-.38-.38-.57.19-.08.45.11.49.07.05.02.08.01.06-.07l.2-.29-.59-.1c-.2-.25.16-.28-.51-.39,1.05.19.78-1.04,1.13-1.05-.32-.35-.25-.53-.11-.76-.13.02-.76-.17-.61-.34,1.24.52.68-.18,1.66-.04-.66-.05.07-.65-.88-.69.17-.14.48.15.83.11-.34-.57.59-.84.58-1.42-.17-.06-.45-.04-.67-.23l.92-.04c-.05-.13-.95-.36-.31-.39-.15-.01-.38-.03-.41-.11.55-.41.56-.97.57-1.53.02-.56.14-1.08,1.03-1.48-.36.09-.38-.02-.37-.13-.09.06-.43-.08-.66-.11l.74-.33c-.64-.19.05-.49-.57-.63l.09.16c-.7-.3-1.69,0-2.63-.19.8.34-1.34.29-.2.83-.21.03-.29-.12-.52-.12.39.16.45.27.24.42l-.1-.04c0,.52-.43.66-.81,1.15l.47.07c-.09.1-.25.1-.38.12.66.3.13-.32.87-.02-.98-.06-.25.85-1.34.68-.06.18.55.09.49.27l-.3-.03.36.15c-.09.1-.47.07-.71,0,.04-.02-.05-.1-.06-.14-.38.06,0,.46-.13.49l.22-.12c.12.57-.38,1.07,0,1.72l.23.03c.26.49-.34.21-.3.67l-.05-.03c.18.15.25.3.18.4-.21-.19-.55.02-.77-.21.28.54.26.31.94.86l-.37-.07c.28.21.44.28.46.52-.24-.28-.57-.08-.9-.41-.91.11.55.93-.64.67.87.58.68-.14.83.05.34.03.66.45.5.54-.08.13-1.31-.28-1.44.05.02-.03-.05-.06-.03-.09-.29.02.22.38-.24.36.53.33-.12.18.59.52l-.03-.37c.11.25.89.79.35.89-.14-.09-.29-.26-.37-.36-.25-.01.07.22-.19.21-.71-.35,0-.44-.46-.86-.34-.05.37.57-.37.13.94.58-.27.26.39.82l-.42-.22c.05.07.22.23.18.29l-.51-.38c.4.4-.57.14-.38.43.14-.36.55.17.93.17.37.71-1.21-.28-1.26.28-.03-.09.38-.11.53.09-.14.05-.36.08-.61.02-.08.35.46.17.65.44-.57-.16.13.26.22.48l-.43-.22c-.47.21.84.56.33.71l-.52-.45.06.25-.47-.29c.26.37.14.38-.09.48.32.12.75.45.68.61-.31-.03-.37-.28-.43-.03-.24-.2-.54-.44-.1-.32-.13-.09-.24-.2-.37-.28-.35-.05-.22.25-.26.33.03-.02.07-.05.14-.03l.41.65c-.18-.04-.29-.15-.39-.26.01.09.18.25.16.37-.33-.22-.68-.42-.77-.65l.21.52c-.16-.07-.5-.09-.6-.2-.3.04.4.79,0,.84.06.05.11.11.12.19-.21.16-.72.07-.42.6l-.68-.25c.01.27.86.3.88.76.04.35-.55-.25-.77-.28.23.3.7.9.1.79-.07-.14.05-.14.05-.23Zm-1.38,2.42c-.05-.11-.23-.38.02-.24.4.39.16.26-.02.24Zm-1.93,3.98c-.09-.14.02-.13.2-.05,0,.06-.06.09-.2.05Zm-8.1,10.16s0-.01,0-.02c.21.11.13.06,0,.02Zm-.34-.06c0,.07.04.13.08.19-.04-.12.02-.15.1-.16-.07-.1-.14-.17-.17-.03Zm19.51-21.49h-.14c-.08-.17.02-.09.14,0Z"/>
    <path class="cls-1" d="m170.94,156.86c.07.05.14.1.21.16-.04-.07-.11-.14-.21-.16Z"/>
    <polygon class="cls-1" points="175.09 149.69 175.1 149.68 175.03 149.63 175.09 149.69"/>
    <path class="cls-1" d="m164.16,162.19c.08.03.15.09.22.16-.06-.1-.14-.17-.22-.16Z"/>
    <path class="cls-1" d="m161.61,169.14l.12-.18c-.07.06-.15-.03-.22-.08.05.1.15.24.1.27Z"/>
    <path class="cls-1" d="m159.07,166.93c0,.06-.05.03-.05.09l.08.21c.09-.05.1-.25-.04-.3Z"/>
    <path class="cls-1" d="m160.82,167.72c-.17-.37-.22-.2-.3-.09,0,0,.01,0,.02,0,.18.54.24.31.28.09Z"/>
    <path class="cls-1" d="m160.5,167.66s-.06.06-.1.05c.07.22.06.03.1-.05Z"/>
    <path class="cls-1" d="m162.43,168.16c-.1-.07.19.49.09.35.16.5.09-.75-.09-.35Z"/>
    <polygon class="cls-1" points="160.21 166.53 160.44 166.98 160.35 166.58 160.21 166.53"/>
    <path class="cls-1" d="m161.22,166.51l-.23-.04c.04.08.04.13.02.17.12-.03.27,0,.2-.13Z"/>
    <path class="cls-1" d="m161.02,166.64c-.06.01-.11.05-.11.13.03-.02.09-.06.11-.13Z"/>
    <polygon class="cls-1" points="160.39 166.3 160.48 166.37 160.62 166.36 160.39 166.3"/>
    <path class="cls-1" d="m163.09,165.66l.12-.22c-.06-.16-.16-.23-.2-.13.01.13-.02.22.08.35Z"/>
    <path class="cls-1" d="m161.9,164.73c.1.07.15.17.25.3l-.28-.55.03.26Z"/>
    <path class="cls-1" d="m162.35,164.34c-.06-.16.02-.56-.18-.42.06.16-.05.37.18.42Z"/>
    <polygon class="cls-1" points="165.35 163.45 165.32 163.49 165.88 164.33 165.35 163.45"/>
    <path class="cls-1" d="m166.05,159.94c-.33-.06.34.53,0,.41.1.22.29.1.37.29-.04-.28.1-.21-.36-.7Z"/>
    <path class="cls-1" d="m166.41,160.65s.02.1.04.16c0-.07-.02-.12-.04-.16Z"/>
    <polygon class="cls-1" points="185.45 136.75 185.69 136.61 185.33 136.67 185.45 136.75"/>
    <path class="cls-1" d="m184.76,136.32l.65.06-.56-.18s.06.12-.09.13Z"/>
    <path class="cls-1" d="m171.74,153.2l.12.11c.15.09.18.07.24.03l-.35-.14Z"/>
    <polygon class="cls-1" points="173.3 151.91 173.26 151.93 173.78 152.22 173.3 151.91"/>
    <path class="cls-1" d="m173.61,150.14c-.06.04.01.18-.05.22-.01-.18.67.16.05-.22Z"/>
  </g>
  <g>
    <path class="cls-1" d="m139.82,112.14c-.04-.07-.23.31-.27.37.15-.02.32-.47.27-.37Z"/>
    <polygon class="cls-1" points="141.32 111.89 141.21 112.03 141.57 111.75 141.32 111.89"/>
    <path class="cls-1" d="m142.27,112.43c.26-.67-.41-.09-.45-.41l.05-.16-.36.46c.25.04.71-.14.76.11Z"/>
    <path class="cls-1" d="m142.03,114.07c.1-.26.23-.15-.08-.14,0,.03,0,.05-.01.07.02,0,.05.02.09.07Z"/>
    <path class="cls-1" d="m141.94,114c-.11-.04-.05.24,0,0h0Z"/>
    <path class="cls-1" d="m142.49,114.12l-.25.14c-.05.16.05.26-.05.34.2-.04.25-.2.31-.48Z"/>
    <path class="cls-1" d="m142.87,113.74l-.12.05c-.02.07-.01.1.12-.05Z"/>
    <path class="cls-1" d="m142.5,113.9l.25-.11c.04-.11.15-.31-.11.03.11-.18-.01-.02-.15.08Z"/>
    <path class="cls-1" d="m142.47,113.76c0-.18-.05-.32.21-.46-.3-.06-.51.4-.21.46Z"/>
    <path class="cls-1" d="m142.68,111.82v-.24s-.2.16-.2.16c.1-.08.1.28.2.08Z"/>
    <path class="cls-1" d="m143.14,114.91c.08-.13.15-.38.24-.55l-.18.1c0,.12.05.26-.05.46Z"/>
    <path class="cls-1" d="m143.38,114.35l.27-.15c-.12-.1-.2,0-.27.15Z"/>
    <polygon class="cls-1" points="143.28 113.06 142.77 113.4 143.33 113.08 143.28 113.06"/>
    <polygon class="cls-1" points="143.7 115.24 143.44 115.5 143.85 115.12 143.7 115.24"/>
    <path class="cls-1" d="m144.1,115.39c-.2.22-.16.48-.31.6.13.01.34-.16.52-.31-.14.06-.22-.01-.22-.29Z"/>
    <path class="cls-1" d="m144.61,115.47c-.08.04-.18.12-.29.21.08-.03.17-.09.29-.21Z"/>
    <path class="cls-1" d="m143.87,114.42c-.03.09-.13.31-.1.44l.15-.41s-.04-.02-.05-.04Z"/>
    <path class="cls-1" d="m143.93,114.44h0c.06.06.1.09.11.1-.01-.01-.05-.04-.11-.1Z"/>
    <path class="cls-1" d="m143.85,114.41s0,0,.01,0c.01-.04.02-.05-.01,0Z"/>
    <path class="cls-1" d="m143.48,113.61c.2-.16.51-.28.51-.7-.2.22-.21.46-.51.7Z"/>
    <path class="cls-1" d="m144.04,113.9l-.11-.17c-.05.1-.1.26-.2.34l.31-.17Z"/>
    <polygon class="cls-1" points="144.19 113.82 144.04 113.9 144.08 113.96 144.19 113.82"/>
    <path class="cls-1" d="m144.53,114.97c.16-.12.24-.1.34-.08-.05-.12-.12-.21-.21-.26-.08.11-.23.3-.13.34Z"/>
    <path class="cls-1" d="m144.26,114.68s.02,0,.03-.01c0-.04,0-.05-.03.01Z"/>
    <path class="cls-1" d="m145.69,115.36s.02-.05.02-.08c-.01.02-.03.04-.04.06h.01Z"/>
    <path class="cls-1" d="m144.69,114.55c-.03-.11-.12-.04-.22.05.07,0,.14,0,.2.03.04-.05.06-.08.02-.08Z"/>
    <path class="cls-1" d="m144.93,115.42c0-.1,0-.19,0-.27-.03.14-.06.36,0,.27Z"/>
    <path class="cls-1" d="m144.25,114.78s-.01,0-.02.01c-.02.09,0,.05.02-.01Z"/>
    <path class="cls-1" d="m144.25,114.78c.06-.03.14-.11.22-.18-.06,0-.12.03-.18.06,0,.03-.02.08-.03.12Z"/>
    <path class="cls-1" d="m147.28,113.1c-.21.34-.56.56-.51.1-.3.18-.83,1.37-1.06,2.08.09-.15.17-.29.44-.41.05-.22-.1-.63.21-.87.3-.06.1.22.1.45.16-.48.61-.48.92-1.14l-.3.12c.05-.1.2-.22.21-.34Z"/>
    <path class="cls-1" d="m145.44,115.08h-.09c.04.11.01.28-.04.6.2-.11.29-.23.37-.34l-.29-.22.05-.04Z"/>
    <path class="cls-1" d="m145.07,114.93c.26-.35.5-.42.64-.88-.2-.08-.31.24-.51.34.35.08-.2.16-.1.5-.09.03-.16.02-.22,0,.03.08.05.16.06.26,0,0,0-.02,0-.03h0s0,0,0,0c.01-.05.02-.09.02-.05,0,0,0,0,.01,0,.03-.05.06-.09.09-.13.04.13-.04.11-.09.13-.01.02-.02.03-.03.05,0,0,0,0,0,0l.42-.04c-.03-.09-.12-.12-.29-.16Z"/>
    <path class="cls-1" d="m144.6,112.19s-.02.07-.04.09c.05-.04.07-.06.04-.09Z"/>
    <path class="cls-1" d="m144.6,112.49c-.05.04-.15.18-.2.1,0-.15.1-.18.17-.31-.1.08-.3.19-.27.44l.05-.04c.05.2-.06.75-.11.79.15-.36.26-.62.36-.99Z"/>
    <path class="cls-1" d="m144.9,113.62l.35-.04.05-.4-.1.2c-.1-.16-.2.1-.31.24Z"/>
    <polygon class="cls-1" points="145.62 115.56 145.36 115.94 145.82 115.46 145.62 115.56"/>
    <polygon class="cls-1" points="145.97 115.69 145.77 116.03 145.97 115.87 145.97 115.69"/>
    <path class="cls-1" d="m166.82,121.72l.13-.06c-.05.01-.09.03-.13.06Z"/>
    <path class="cls-1" d="m166.3,121.4l-.11.16c.08-.08.13-.14.11-.16Z"/>
    <path class="cls-1" d="m154.03,120.14c-.07.38-.23.95-.03.55l.18-.4c-.11.03-.15-.05-.15-.16Z"/>
    <path class="cls-1" d="m160.79,120.96s.02-.09.03-.13c-.1.11-.19.22-.28.32.07-.06.16-.12.24-.19Z"/>
    <path class="cls-1" d="m161.74,119.43v.32c.02-.1.02-.21,0-.32Z"/>
    <path class="cls-1" d="m169.97,122.95l.3-.34c-.14-.07-.19.15-.3.34Z"/>
    <path class="cls-1" d="m149.4,117.43c.01.2.05.3.1.36,0-.28.1-.66-.1-.36Z"/>
    <path class="cls-1" d="m164.37,125.62c.08-.04.15-.11.19-.19-.08.04-.15.1-.19.19Z"/>
    <path class="cls-1" d="m149.77,117.93s0-.08,0-.12c-.1.03-.2.04-.27-.03,0,.21.03.36.27.15Z"/>
    <path class="cls-1" d="m180.4,129.19s0,.03,0,.06c.03-.05.02-.06,0-.06Z"/>
    <path class="cls-1" d="m181.36,134.74s-.09-.02-.14-.04c0,.04.05.06.14.04Z"/>
    <path class="cls-1" d="m147.19,116.59c-.08-.01-.03.04,0,0h0Z"/>
    <path class="cls-1" d="m147.69,114.91s.08-.08.13-.17c-.06.09-.1.14-.13.17Z"/>
    <path class="cls-1" d="m151.78,115.96s0,0,0,0c.02-.09.02-.07,0,0Z"/>
    <path class="cls-1" d="m147.19,116.36c0,.06,0,.12.03.16,0-.04,0-.09-.03-.16Z"/>
    <path class="cls-1" d="m147.1,116.55s-.03-.05-.04-.07c-.04.06-.06.1.04.07Z"/>
    <path class="cls-1" d="m147.3,116.63s-.07-.05-.09-.1c0,.03,0,.06-.02.07.02,0,.06.01.11.03Z"/>
    <path class="cls-1" d="m174.15,127.03s0,.03,0,.04c.16-.12.11-.11,0-.04Z"/>
    <path class="cls-1" d="m158.03,117.22s-.01.01-.02.01c0,0,0,.01,0,.02l.02-.03Z"/>
    <path class="cls-1" d="m158.44,117.08c-.37.41-.4.32-.42.18l-.53,1.14.95-1.31Z"/>
    <path class="cls-1" d="m168.17,122.33l.02-.44c.52-.44.57-.16.67-.73-.69,1.17-.75-.26-1.43.91l.02-.31s.07-.04.1,0c.09-.69-.65.76-.84.43-.05-.15-.02-.36.12-.46l-.39.17c-.05-.06.08-.26.13-.2l-.4-.1.02-.03c-.15.16-.42.38-.55.48,0-.22.11-.1.17-.26l-.35.18c.09-.35.42-.56.52-.44.48-1.28-.32.21-.32-.69l.26-.05c.26-.74-.02-.57.02-1.1-.07.25-.19,1.28-.56,1.46,0-.12-.06-.21-.3-.03.23-.42.07-.38-.08-.43l.32-.55c-.24.08-.38.37-.61.57-.13-.15.08-.6.24-.98-.21-.23-.21.79-.58.73-.1-.34-.38-.19-.83,0-.04-.28.22-.33.25-.52l-.38.37s.06-.16.1-.23c-.21.11-.32.55-.58.6-.39.59.14-1.1-.48-.53.03-.19.22-.33.32-.55-.56.29-.45.19-1.04.66v-.49c-.09.51-.56.89-.96,1.2-.06.23-.11.44-.12.54l-.45.14c.02-.11.15-.29.33-.49-.04.04-.09.07-.13.11.02-.26.25-.56.49-.83-.03.13-.06.27-.09.4.26-.3.53-.64.7-.98-.05.05-.12.09-.18.1.07-.08.13-.16.15-.22.02-.06-.07.04-.2.16l.28-.66-.15.24-.15-.59c-.61.48-1.35,1.28-1.91,1.3.36-.4.44-.73.75-1.27-.21.64.46-.06.61.17-.08-.12.09-.37.17-.44l-.67.31c.26-.44.1-.38.11-.62-.41.92-.61.42-.92.6.15-.3.36-.58.51-.4.16-.78-.84.88-.74.2.05.02.05.08.15-.06-.25.2-.4-.15-.2-.38l.05.02c-.25-.28-.93-.53-1.4.19.05-.1.54-.87.64-1.01l-1.95,2.19c.4-.61,1.07-2.23,1.52-2.45-.02-.13-.05-.29-.33-.15,0,.12-.39.99-.49,1.01.21-.82.08-.45.19-1.19,0,.18-.64,1.13-.74,1.03.1-.14.54-.99.64-1.07l-.84.82c.17-.14.48-.82.57-1.14-.08.21-.25-.16-.38-.11v.3c-.25-.33-1.1,1.2-1.4.96.15-.18.8-1.19.7-1.41-.36.46-1.69,2.23-2.2,2.45l.1-.32-.41.2c.56-.68,1.84-2.05,2.4-2.55,0-.3.15-.36-.05-.44.08-.31.33-.35.39-.34l-.34-.42c-.31.6-.66.4-.92.9l.81-.34c-.31.6-1.2,1.51-1.45,1.24.05-.28.64-1.01.75-1.21-.15.18-.51.22-.46.06l.31-.24c-.05-.32-.71.62-.61-.05-.05-.08.21-.87,0-.53-.26.73-1.39,2.82-1.75,3.28,0-.06-.02-.85.09-1.23.18-.59.88-1.15,1.03-1.66-.09.16-.27.32-.33.37,0-.18.31-.48.11-.5-.36.58-.3-.23-.36.46-.25.08-.1-.22-.3-.29-.16.42-.9,1.22-1.15,1.3.09-.15.17-.36.2-.46-.3-.24-.32-.6-.62-.78.05-.16,0-.42.21-.64-.1.08-.26.26-.36.22.11-.62.25.04.46-.66-.2.34-.51.34-.76.48-.26.56.25.27.5.13-.41.74-1.07,1.38-1.58,1.54-.35.04.16-.54.05-.46-.4-.39-1.12,1.06-1.22.31.11-.56.51-.94.67-1.3.3-.06.15.47.3.53l-.05-.32c.15-.12.36-.16.35.02.1-.49-.75-.53-.9-1.12-.15.12-.36.22-.41.44h.15c-.11.44-.51.4-.46.66-.3.18-.71.5-.81.16l.26-.56c-.08.16-.04.4.12.27-.22.19.07-.91-.42-.27l-.05.46c-.31.18-.82.64-.92.37-.21.58.08-.04-.13.66.31-.84.48.31.74-.61-.26.8.07.44-.08,1.16.09-.18.12-.37.24-.2.04-.05.09-.1.12-.14,0,0,0,.01,0,.02,0,0,0-.02,0-.03.02-.02.03-.03,0,0,0-.1.03-.21.07-.31.31-.36.56-.2.76-.36.05.14-.15.18-.21.4l.31-.24c-.21.4-.11.79-.46.9l.19.13c0,.29.11.47.31.36.05.14.49-.3.23-.04l.46-.06-.05.1c.29.23,1.01-.29.98.62.16-.04.34-.1.46.11l-.15.36c.2-.04.22.57.48.25-.36.99.55.57.7.87l.26-.44c.15.12.38.08.68.02l.21-.4c.36-.22.3.53.6.65-.1.14-.15.06-.15-.06-.16,1.07,1.07-.25,1.01.56.16-.1.18-.02.18.11,0,0-.02,0-.03.01,0,0,.02.02.03.02,0,.09-.01.18-.01.27.02-.11.03-.21.03-.26.06.02.18.03.32-.02l-.2.44s.02,0,.03,0c0,.2.18-.16.31-.5.08-.04.17-.11.26-.19-.31.72.36-.1.05.68.26-.32.58-.02,1.05-.74-.05.1-.05.16-.1.14.05.14.1.28.3.12l-.26.56.61-.6c-.05.4-.11.62-.46.96.66-.46.38-.1.99-.58l-.21.34c.1.04.51-.34.41-.02-.16.77.98.67,1.18,1.58.46-1.08,0,.6.46-.18-.1.26-.1.44-.31.6.41-.08.2.61.76.05-.1.26-.26.32-.31.48.05-.04.2-.16.15,0-.05.16-.15.18-.25.26.3.12.74-.61,1.15-1.29-.04.41.05.4.41,0-.08.26-.13.54-.35.52.08.09.41.67.73.12-.05.16.11.12.18.07.2.16.19.22.44.28v-.12c.45-.63.25-.05.47-.03l-.04.07c.13.71.3-.14.39.64l.21-.43c.54-.88.05.73.47.51l.05-.29c.3-.24-.34,1.42-.27,1.6-.02.09-.11.1-.18.14.03.71.35-.52.66-.52-.12.32-.48.72-.34.87-.05.29,1.01-.69.92,0,.08-.26.16-.51.37-.62.22.02-.01,1.12.55.49-.01.07-.04.14-.07.2.24-.11.6-.07.9-.41-.69,1.51,1.22-.24.47,1.09l.45.16-.09.13c.21.23.48-.03.75-.3,0,.12-.1.22-.15.29.23.48.3.45.99-.04l-.21.45c.23-.2.17.99.83.69-.03.05-.09.13-.15.17.7-.27.34,1.76,1.37.27l.49-.23c-.29-.32.44-.65.43-1,.19-.01.1.68-.12.66l.02-.09c-.52.79.28.54-.04,1.09.73.35,1.16,1.19,1.81,1.6l.28-.68.21.17c-.02.18-.2.55-.35.43-.12.41.45-.15.53-.28.18.44-.54.67-.45.74l.16.03v-.09c.27-.2.43-.47.61-.33.05.2-.16.43-.12.48-.03.05-.02.08.07.06l.26.22.17-.57c.27-.18.26.18.44-.47-.29.99.91.92.88,1.26.39-.27.56-.16.76,0,0-.14.29-.72.44-.54-.72,1.13.07.7-.25,1.63.17-.63.62.16.85-.75.11.18-.24.44-.27.79.63-.24.67.76,1.22.87.09-.15.15-.43.37-.6l-.18.91c.13-.02.58-.84.45-.21.05-.14.12-.36.21-.37.5,1.26,2.22.43,2.36,2.36.04-.37.14-.35.24-.31-.02-.11.21-.38.32-.59l.07.8c.39-.54.44.19.79-.34l-.18.03c.53-.56.58-1.58,1.07-2.4-.6.64.13-1.37-.77-.48.03-.21.21-.24.28-.45-.28.32-.41.34-.49.08l.07-.08c-.53-.18-.54-.65-.95-1.19l-.19.44c-.08-.12-.04-.26-.03-.4-.48.55.31.22-.2.84.32-.93-.81-.47-.38-1.48-.18-.1-.22.51-.39.4l.1-.29-.23.31c-.09-.12.04-.48.15-.7.01.04.11-.02.16-.02.02-.39-.49-.13-.48-.26l.08.26c-.62-.03-1.03-.7-1.79-.44l-.07.22c-.56.16-.17-.38-.66-.43l.04-.04c-.19.15-.35.19-.44.11.23-.17.06-.55.33-.73-.61.17-.36.2-1.03.78l.12-.36c-.25.24-.34.39-.59.37.32-.19.15-.56.54-.83-.02-.94-1.01.37-.62-.77-.69.79.08.7-.13.83-.07.34-.53.58-.61.42-.12-.09.42-1.27.07-1.44.03.02.07-.04.1-.02,0-.3-.42.17-.36-.28-.39.49-.18-.14-.59.54h.39c-.27.09-.89.81-.95.26.1-.13.29-.26.4-.33.03-.25-.24.05-.21-.21.41-.68.45.06.93-.37.07-.34-.63.31-.12-.39-.67.88-.26-.3-.89.3l.25-.41c-.07.05-.26.2-.31.15l.42-.47c-.44.36-.13-.6-.44-.45.37.19-.2.55-.21.93-.76.3.35-1.23-.27-1.31.1-.02.12.39-.1.52-.05-.14-.09-.37-.02-.62-.38-.1-.19.45-.47.63.17-.57-.28.11-.52.19l.23-.42c-.23-.48-.59.82-.75.3l.47-.5-.26.05.3-.46c-.39.25-.4.12-.52-.12-.12.32-.45.75-.63.67.02-.31.29-.36.02-.44.2-.23.45-.53.33-.08.09-.13.2-.23.29-.36.04-.36-.28-.24-.36-.28.02.03.05.08.04.15l-.67.39c.03-.19.15-.29.26-.39-.1,0-.25.17-.38.15.22-.33.41-.68.65-.76l-.54.2c.06-.16.06-.5.17-.61-.07-.3-.82.41-.92.01-.05.06-.11.11-.19.13-.19-.21-.15-.74-.69-.42l.19-.7c-.29.02-.22.89-.71.92-.36.06.2-.58.21-.8-.3.24-.87.75-.82.12.14-.07.15.05.25.05Zm-2.77-1.19c.1-.06.35-.28.25,0-.33.45-.24.19-.25,0Zm-4.54-1.21c.12-.12.14-.02.11.18-.07,0-.11-.04-.11-.18Zm-12.71-3.26s.01,0,.02-.02c.02.23.02.14-.02.02Zm-.13-.31c-.06.05-.09.1-.11.17.08-.1.13-.08.18-.01.04-.12.06-.21-.07-.16Zm25.3,13.92l.02-.14c.17-.06.08.03-.02.14Z"/>
    <path class="cls-1" d="m161.63,119.61c-.03.08-.07.16-.11.24.06-.06.11-.14.11-.24Z"/>
    <path class="cls-1" d="m169.92,123.02s0,0,0,0c.02-.02.03-.05.05-.07l-.06.06Z"/>
    <path class="cls-1" d="m153.64,114.82c.01.09,0,.18-.03.27.06-.1.09-.2.03-.27Z"/>
    <path class="cls-1" d="m146.37,116.38l.21-.03c-.08-.02-.06-.13-.06-.21-.05.1-.1.26-.15.24Z"/>
    <path class="cls-1" d="m146.52,113.05c-.05.04-.05-.02-.1.02l-.1.2c.1.04.25-.08.2-.22Z"/>
    <path class="cls-1" d="m147.01,114.91c.19-.36.02-.29-.12-.29,0,0,.01,0,.02.01-.31.48-.1.38.1.28Z"/>
    <path class="cls-1" d="m146.86,114.62s-.08-.01-.1-.05c-.12.19.02.06.1.05Z"/>
    <path class="cls-1" d="m147.58,116.43c0-.12-.28.44-.23.28-.31.42.64-.36.23-.28Z"/>
    <polygon class="cls-1" points="147.58 113.69 147.37 114.15 147.63 113.83 147.58 113.69"/>
    <path class="cls-1" d="m148.23,114.48l-.1-.22c-.04.07-.08.11-.13.12.1.07.16.22.23.09Z"/>
    <path class="cls-1" d="m148,114.39s-.11-.06-.18,0c.03.01.1.03.18,0Z"/>
    <polygon class="cls-1" points="147.88 113.69 147.88 113.81 147.98 113.91 147.88 113.69"/>
    <path class="cls-1" d="m149.99,115.57l.25-.02c.1-.14.1-.26,0-.24-.1.08-.2.1-.26.26Z"/>
    <path class="cls-1" d="m150.11,114.06c0,.12-.05.22-.1.38l.31-.54-.2.16Z"/>
    <path class="cls-1" d="m150.71,114.24c.1-.14.51-.28.26-.38-.1.14-.36.16-.26.38Z"/>
    <polygon class="cls-1" points="153.1 116.47 153.05 116.45 152.56 117.34 153.1 116.47"/>
    <path class="cls-1" d="m156.72,115.7c-.1-.33-.36.52-.41.14-.17.18.04.31-.11.46.26-.15.25.02.52-.6Z"/>
    <path class="cls-1" d="m156.2,116.31s-.09.05-.14.1c.07-.03.11-.07.14-.1Z"/>
    <polygon class="cls-1" points="181.6 135.5 181.64 135.77 181.72 135.42 181.6 135.5"/>
    <path class="cls-1" d="m182.24,135l-.28.58.37-.47s-.13.02-.09-.12Z"/>
    <path class="cls-1" d="m165.65,119.78l-.09.13c-.06.16-.03.19.02.25l.07-.38Z"/>
    <polygon class="cls-1" points="167.31 121.26 167.28 121.23 167.06 121.78 167.31 121.26"/>
    <path class="cls-1" d="m169.27,121.5c-.05-.06-.19.01-.25-.04.19-.01-.09.69.25.04Z"/>
  </g>
  <g>
    <path class="cls-1" d="m152.44,164.15c-.01.09.38-.04.46-.05-.13-.11-.56.08-.46.05Z"/>
    <polygon class="cls-1" points="151.16 163.04 151.33 163.02 150.88 162.93 151.16 163.04"/>
    <path class="cls-1" d="m150.84,161.77c-.66.3.23.43.04.72l-.15.08.58-.04c-.16-.25-.62-.51-.48-.75Z"/>
    <path class="cls-1" d="m152.16,160.71c-.26.11-.27-.09-.04.18.03-.02.04-.03.06-.05-.01-.03-.02-.06-.02-.13Z"/>
    <path class="cls-1" d="m152.18,160.84c.05.13.2-.15,0,0h0Z"/>
    <path class="cls-1" d="m151.86,160.27l.29.11c.15-.08.14-.24.27-.22-.18-.15-.33-.07-.56.1Z"/>
    <path class="cls-1" d="m151.31,160.23l.13.06c.06-.03.08-.06-.13-.06Z"/>
    <path class="cls-1" d="m151.7,160.43l-.26-.14c-.1.05-.33.12.1.07-.21.04,0,.02.16.07Z"/>
    <path class="cls-1" d="m151.63,160.57c-.12.14-.19.29-.47.18.18.31.66.14.47-.18Z"/>
    <path class="cls-1" d="m150.11,161.89l-.17.18.26.05c-.13-.03.12-.3-.09-.24Z"/>
    <path class="cls-1" d="m151.93,159.08c-.15.03-.38.16-.56.22l.2.09c.08-.09.14-.24.36-.31Z"/>
    <path class="cls-1" d="m151.37,159.3l-.3-.13c.02.18.14.18.3.13Z"/>
    <polygon class="cls-1" points="150.54 160.4 151.15 160.58 150.52 160.34 150.54 160.4"/>
    <polygon class="cls-1" points="151.76 158.33 152.13 158.35 151.56 158.29 151.76 158.33"/>
    <path class="cls-1" d="m151.57,157.86c.3,0,.45-.24.64-.19-.09-.12-.36-.17-.6-.22.15.08.15.2-.04.41Z"/>
    <path class="cls-1" d="m151.25,157.35c.08.04.22.06.36.09-.08-.04-.19-.07-.36-.09Z"/>
    <path class="cls-1" d="m151.06,158.82c.08-.04.31-.13.38-.26l-.39.18s0,.05.01.08Z"/>
    <path class="cls-1" d="m151.03,158.75h.01c-.01-.09-.02-.15-.02-.18,0,.02,0,.08,0,.18Z"/>
    <path class="cls-1" d="m151.06,158.84s0-.01,0-.02c-.04.02-.05.03,0,.02Z"/>
    <path class="cls-1" d="m150.78,159.79c-.26-.05-.57-.23-.86.09.3,0,.47-.18.86-.09Z"/>
    <path class="cls-1" d="m150.57,159.07l-.04.23c.11-.03.26-.11.39-.08l-.35-.15Z"/>
    <polygon class="cls-1" points="150.41 159.01 150.57 159.07 150.58 158.99 150.41 159.01"/>
    <path class="cls-1" d="m150.96,157.81c-.2-.04-.24-.14-.3-.24-.05.14-.06.27-.03.39.13-.02.38-.03.33-.15Z"/>
    <path class="cls-1" d="m150.96,158.28s-.02-.01-.03-.01c-.03.02-.04.03.03.01Z"/>
    <path class="cls-1" d="m150.38,156.49s-.05.02-.07.04c.02,0,.05-.01.07-.01v-.02Z"/>
    <path class="cls-1" d="m150.55,158c-.06.11.06.14.2.15-.06-.06-.1-.12-.13-.19-.06,0-.1.02-.07.04Z"/>
    <path class="cls-1" d="m150.98,157.1c-.07.07-.13.14-.19.21.12-.08.3-.22.19-.21Z"/>
    <path class="cls-1" d="m151.04,158.2s.02,0,.02,0c.08-.05.04-.04-.02,0Z"/>
    <path class="cls-1" d="m151.04,158.2c-.07-.03-.18-.04-.28-.05.05.05.1.08.18.11.03-.02.07-.04.11-.06Z"/>
    <path class="cls-1" d="m147.64,156.85c.39-.08.8.06.44.36.34.12,1.57-.33,2.23-.69-.17.04-.32.08-.6-.07-.19.13-.37.58-.76.5-.27-.22.08-.26.25-.44-.45.24-.78-.16-1.47.08l.31.17c-.11.03-.3,0-.39.08Z"/>
    <path class="cls-1" d="m150.37,156.92l.07.07c.04-.11.18-.22.44-.43-.22-.09-.37-.08-.5-.06l.05.43h-.06Z"/>
    <path class="cls-1" d="m150.54,157.37c-.43.04-.66-.11-1.08.13.09.24.39.08.61.18-.21-.37.26.05.42-.29.09.06.13.12.17.19.03-.08.08-.17.14-.25,0,0-.01.01-.02.02h0s0,0,0,0c-.05.03-.08.04-.05.02,0,0,0,0-.01,0-.06.01-.11.02-.16.02.06-.14.1-.05.16-.02.02,0,.04,0,.06-.01,0,0,0,0,0,0l-.33-.34c-.04.1,0,.2.1.38Z"/>
    <path class="cls-1" d="m148.97,159.91s.06-.03.09-.04c-.06-.01-.1-.01-.09.04Z"/>
    <path class="cls-1" d="m149.18,159.68c.07.01.24,0,.22.1-.1.11-.2.05-.34.09.13.03.35.12.51-.11h-.06c.1-.21.57-.55.63-.54-.36.14-.62.26-.96.46Z"/>
    <path class="cls-1" d="m149.75,158.54l-.29-.28-.32.26.21-.07c-.04.21.22.1.39.08Z"/>
    <polygon class="cls-1" points="150.57 156.39 151.03 156.32 150.35 156.29 150.57 156.39"/>
    <polygon class="cls-1" points="150.41 155.98 150.8 155.89 150.54 155.84 150.41 155.98"/>
    <path class="cls-1" d="m139.33,132.93l-.13-.07s.09.06.13.07Z"/>
    <path class="cls-1" d="m139.49,133.64l.19-.03c-.11,0-.19,0-.19.03Z"/>
    <path class="cls-1" d="m147.61,145.42c.32-.23.83-.54.41-.41l-.41.15c.1.08.07.17,0,.26Z"/>
    <path class="cls-1" d="m143.22,138.83s-.08.05-.12.07c.15,0,.29,0,.43,0-.1-.02-.2-.04-.31-.07Z"/>
    <path class="cls-1" d="m141.46,139.18l.22-.26c-.08.07-.16.15-.22.26Z"/>
    <path class="cls-1" d="m137.88,129.19h-.46c.05.17.24.04.46,0Z"/>
    <path class="cls-1" d="m149.11,151.61c.13-.17.18-.28.17-.37-.2.21-.53.42-.17.37Z"/>
    <path class="cls-1" d="m143.86,132.04c-.09-.04-.18-.04-.28-.02.09.04.18.06.28.02Z"/>
    <path class="cls-1" d="m149.19,150.88s-.05.06-.08.09c.09.07.17.15.18.26.15-.16.23-.31-.09-.35Z"/>
    <path class="cls-1" d="m134.6,115.15s.02-.03.04-.04c-.06.01-.06.03-.04.04Z"/>
    <path class="cls-1" d="m137.77,109.98s.05.1.08.16c.02-.04,0-.09-.08-.16Z"/>
    <path class="cls-1" d="m150.14,154.2c.05.08.05,0,0,0h0Z"/>
    <path class="cls-1" d="m148.6,155.07c-.05,0-.12,0-.21.02.1-.02.17-.02.21-.02Z"/>
    <path class="cls-1" d="m146.34,150.66s0,0,0,0c-.08.05-.06.04,0,0Z"/>
    <path class="cls-1" d="m149.99,154.38s.08-.1.09-.15c-.03.03-.06.07-.09.15Z"/>
    <path class="cls-1" d="m150.18,154.31s-.01.06-.02.09c.07,0,.11-.03.02-.09Z"/>
    <path class="cls-1" d="m150.09,154.08c.02.05.01.1,0,.16.02-.03.05-.04.06-.04-.01-.03-.03-.06-.06-.12Z"/>
    <path class="cls-1" d="m137.67,122.33s.02-.02.03-.03c-.2-.05-.16-.01-.03.03Z"/>
    <path class="cls-1" d="m142.63,144.18s.02,0,.02,0c0,0,0-.01.01-.02h-.03Z"/>
    <path class="cls-1" d="m142.24,143.93c.56,0,.52.1.43.23l1.18-.42-1.61.19Z"/>
    <path class="cls-1" d="m138.77,131.27l-.32.33c-.69-.12-.53-.37-1.01-.02,1.32-.31.37.86,1.69.55l-.24.22s-.08-.03-.08-.08c-.55.46,1.01-.03.92.4-.07.16-.23.3-.41.25l.4.21c0,.09-.24.13-.23.04l.22.42h-.04c.22.02.58.08.73.12-.16.16-.15-.02-.31.05l.38.17c-.31.19-.7.07-.69-.12-1.25.57.38.12-.25.82l-.23-.19c-.71.35-.39.46-.78.85.23-.13,1.03-.84,1.43-.65-.08.1-.1.21.2.29-.47.12-.31.24-.24.41l-.62.15c.23.15.54.05.85.09,0,.23-.47.4-.86.56,0,.37.71-.44.93-.06-.16.35.14.48.6.73-.16.26-.39.06-.55.18l.54.05s-.16.07-.23.08c.23.1.62-.15.85.04.7-.11-.87.74-.02.83-.16.12-.39.06-.62.15.61.27.46.25,1.23.4l-.33.39c.41-.33,1.03-.21,1.54-.1.21-.13.39-.24.47-.31l.43.28c-.09.07-.31.09-.59.1.06.01.11.02.17.03-.19.19-.57.22-.94.21.11-.08.23-.15.35-.23-.4,0-.84.03-1.2.14.08,0,.15.04.2.08-.11,0-.2.01-.26.04-.06.03.09.03.26.05l-.67.26.28-.05-.31.59c.78.16,1.88.19,2.31.67-.54,0-.83.19-1.44.34.6-.31-.38-.35-.32-.67-.03.16-.32.21-.43.2l.71.35c-.49.12-.34.2-.51.39.94-.35.74.21,1.09.33-.32.1-.67.13-.65-.14-.66.47,1.23.06.68.49-.02-.06.02-.1-.15-.09.33.07.19.48-.12.47l-.02-.06c0,.44.31,1.24,1.15,1.08-.11.03-1.01.21-1.18.22h2.96c-.72.12-2.34.81-2.83.57-.08.12-.16.27.14.41.08-.09.98-.43,1.07-.36-.72.45-.38.28-.97.76.13-.14,1.26-.32,1.27-.15-.17.02-1.09.3-1.22.27l1.19.1c-.22-.05-.93.22-1.21.39.2-.1.07.34.2.42l.21-.23c-.05.48,1.64.03,1.7.48-.24,0-1.42.23-1.5.49.58-.04,2.8-.25,3.33.02l-.3.16.44.2c-.89.03-2.79-.02-3.55-.12-.21.23-.36.14-.27.38-.28.16-.49-.02-.52-.08l-.04.62c.64-.2.77.27,1.3.1l-.84-.45c.64-.19,1.94-.12,1.93.31-.23.17-1.18.22-1.39.29.24,0,.53.27.38.35l-.39-.08c-.19.29.96.14.41.58-.02.1-.76.5-.38.41.7-.35,2.99-.97,3.58-1.02-.04.05-.58.68-.92.88-.54.31-1.45.13-1.91.39.18-.04.42-.01.5,0-.13.14-.56.1-.43.3.67-.14.06.45.58-.04.24.16-.08.26.01.5.41-.19,1.51-.16,1.75,0-.17.03-.38.14-.47.18.05.44-.19.75-.09,1.15-.15.08-.29.32-.6.31.13.03.37.02.42.14-.51.39-.16-.25-.8.11.39-.08.61.18.9.29.58-.21,0-.43-.28-.55.82-.21,1.75-.13,2.24.19.29.28-.49.28-.36.31.02.66,1.56.16,1.11.83-.47.34-1.03.28-1.4.42-.27-.22.22-.5.15-.68l-.19.29c-.2-.04-.37-.19-.25-.32-.42.29.18,1.08-.12,1.67.2.04.42.14.61.02l-.11-.13c.38-.25.65.14.8-.11.35.13.87.23.71.58l-.58.21c.17-.05.3-.28.1-.31.29.05-.69.65.12.58l.36-.31c.35.13,1.05.22.93.52.56-.27-.08-.04.56-.4-.81.38-.13-.66-.96-.18.75-.39.25-.41.87-.83-.19.06-.35.18-.31-.06-.06,0-.14,0-.18,0,0,0,0-.01.01-.02,0,0-.01.01-.02.02-.03,0-.04,0,0,0-.07.07-.16.14-.27.19-.48.01-.55-.33-.81-.39.06-.15.24,0,.43-.13l-.39-.08c.43-.13.63-.52.97-.29l-.05-.27c.2-.22.24-.46.02-.55.06-.15-.56-.19-.2-.17l-.38-.35.11-.03c-.05-.43-.94-.67-.28-1.35-.15-.11-.32-.22-.26-.49l.36-.14c-.18-.15.24-.64-.18-.61.96-.46,0-.93.09-1.29l-.49.12c-.03-.22-.22-.4-.49-.62l-.43.13c-.42-.14.15-.68.01-1.04.17-.02.15.09.07.18.87-.7-.96-.74-.34-1.33-.18-.06-.15-.14-.06-.24,0,0,.01.02.03.02,0-.01,0-.03,0-.04.06-.06.14-.13.19-.2-.09.07-.17.13-.2.18-.03-.07-.11-.18-.25-.26l.45-.17s0-.02-.02-.02c.14-.16-.24-.03-.58.12-.09-.04-.2-.07-.32-.08.73-.29-.33-.23.44-.57-.41.03-.44-.5-1.28-.34.11-.03.15-.08.17-.02.06-.15.12-.3-.14-.36l.58-.21-.87-.07c.32-.26.51-.39,1.01-.34-.81-.22-.35-.26-1.13-.42l.39-.08c-.05-.12-.61-.18-.31-.34.66-.46-.25-1.39.24-2.27-1.09.43.42-.46-.46-.26.26-.11.38-.25.64-.19-.36-.29.28-.65-.52-.71.26-.11.41-.02.56-.1-.07-.01-.26-.05-.11-.13.15-.08.24,0,.37.02-.14-.36-.97-.18-1.75,0,.32-.28.24-.36-.3-.36.24-.13.47-.31.62-.1,0-.14.17-.88-.46-.73.15-.08,0-.19-.08-.21-.04-.3.01-.34-.12-.61l-.08.1c-.78.08-.23-.19-.38-.4h.08c.4-.68-.32-.17.16-.85l-.46.15c-1.01.21.47-.61,0-.81l-.24.18c-.38-.07,1.24-.81,1.32-1.01.08-.06.15.02.23.05.48-.58-.62.1-.85-.18.31-.14.85-.14.86-.37.24-.18-1.23-.35-.68-.81-.24.13-.47.26-.7.16-.15-.21.79-.87-.06-.87.06-.05.12-.08.19-.09-.25-.12-.49-.48-.95-.47,1.56-.58-1.06-.88.42-1.26l-.22-.52.15-.03c0-.37-.38-.4-.76-.43.08-.11.23-.08.31-.1.17-.58.09-.61-.75-.84l.47-.17c-.31-.04.56-.92-.12-1.27.06,0,.15-.02.23,0-.71-.41.99-1.67-.81-1.42l-.53-.25c-.01.51-.78.13-1.02.4-.15-.16.4-.62.55-.41l-.08.06c.93-.15.17-.67.79-.82-.29-.92-.02-1.96-.21-2.84l-.68.28-.04-.31c.14-.12.53-.25.55-.03.37-.22-.43-.28-.59-.24.18-.5.87-.05.85-.18l-.1-.16-.07.06c-.33-.07-.64,0-.67-.27.1-.2.41-.2.43-.27.05-.01.07-.04,0-.1l-.04-.4-.52.3c-.32-.1-.06-.37-.65-.03.91-.51-.02-1.52.24-1.76-.47-.13-.52-.37-.55-.67-.1.1-.71.31-.7.04,1.32-.25.44-.61,1.32-1.05-.57.34-.34-.67-1.14-.16.05-.24.48-.14.75-.38-.63-.37.04-1.18-.29-1.75-.17.03-.41.21-.69.14l.77-.55c-.12-.1-1.01.14-.48-.23-.14.07-.34.17-.41.1.52-1.42-1.32-2.29-.08-3.92-.29.25-.35.15-.39.03-.06.1-.42.11-.65.18l.51-.68c-.66.07-.19-.54-.81-.43l.15.13c-.78-.03-1.53.72-2.46.93.88.03-1.05.95.23,1.04-.17.14-.32,0-.52.11.42,0,.54.1.42.37h-.1c.26.61-.06.98-.14,1.76l.44-.17c-.02.17-.16.24-.25.34.74,0-.07-.44.74-.48-.88.45.27,1.08-.76,1.49.06.24.51-.21.57.03l-.27.14.39-.04c-.02.17-.36.34-.6.41.02-.04-.1-.09-.13-.12-.29.29.26.53.17.63l.12-.27c.44.57.26,1.45,1.01,1.92l.2-.1c.52.37-.14.44.18.91h-.06c.24.04.39.15.4.3-.29-.07-.43.37-.75.28.56.4.4.17,1.3.29l-.34.17c.35.03.53,0,.69.23-.36-.13-.5.31-.97.18-.64.75,1,.6-.08,1.15,1.06,0,.43-.61.68-.53.29-.2.8.01.74.21.02.18-1.19.63-1.06,1.06,0-.04-.08-.03-.09-.07-.21.23.43.23.07.54.63-.04.03.27.81.1l-.28-.35c.26.18,1.21.15.87.64-.16.01-.39-.05-.53-.09-.2.17.2.17,0,.35-.78.17-.29-.44-.94-.54-.29.2.68.32-.19.41,1.1-.1-.02.47.86.55l-.46.1c.08.03.33.07.34.16h-.64c.57.11-.32.58.01.73-.14-.48.53-.25.81-.54.77.43-1.11.65-.72,1.26-.09-.07.19-.41.44-.32-.06.15-.19.36-.42.5.21.42.45-.19.79-.08-.52.3.28.16.51.3l-.47.12c-.17.58,1.01-.12.76.43l-.7-.02.23.19-.54.09c.46.15.38.26.3.55.31-.14.86-.19.93.03-.24.22-.47.03-.32.33-.31,0-.7.02-.3-.23-.16.03-.31,0-.47.03-.28.25.03.43.07.54,0-.05.02-.11.08-.15l.77.29c-.16.12-.31.1-.46.08.07.08.31.09.38.21-.39.06-.78.17-1.01.03l.53.33c-.16.07-.4.34-.55.32-.16.3.89.4.68.8.08,0,.16.01.23.07,0,.32-.4.71.21.93l-.63.38c.23.24.79-.5,1.16-.1.3.27-.55.27-.71.44.39.07,1.16.18.68.62-.15-.07-.07-.17-.15-.25Zm1.2,3.36c-.12-.04-.45-.1-.19-.22.55-.06.31.06.19.22Zm2.49,4.94c-.17,0-.11-.11.04-.24.05.05.06.13-.04.24Zm7.05,13.72s-.01,0-.02,0c.14-.2.09-.12.02,0Zm-.12.36c.07.01.14,0,.2-.04-.12,0-.15-.06-.14-.15-.12.05-.19.12-.06.18Zm-8.82-33.12l-.11.09c-.17-.1-.04-.09.11-.09Z"/>
    <path class="cls-1" d="m141.66,139.14c.07-.04.16-.07.25-.09-.09,0-.18.02-.25.09Z"/>
    <path class="cls-1" d="m137.97,129.19s0,0,0-.01c-.03,0-.06,0-.09.01h.08Z"/>
    <path class="cls-1" d="m144.17,149.9c.05-.08.13-.14.21-.19-.12.03-.2.08-.21.19Z"/>
    <path class="cls-1" d="m150.6,155.09l-.17-.17c.05.09-.05.15-.11.22.11-.03.26-.11.28-.05Z"/>
    <path class="cls-1" d="m148.16,157.56c.06.01.02.06.09.07l.21-.06c-.05-.12-.24-.16-.3,0Z"/>
    <path class="cls-1" d="m149.1,155.67c-.39.12-.22.21-.11.33,0,0,0-.01,0-.02.56-.1.34-.2.12-.3Z"/>
    <path class="cls-1" d="m149,156.03s.05.08.04.13c.22-.04.03-.06-.04-.13Z"/>
    <path class="cls-1" d="m149.74,153.98c-.08.09.51-.09.36-.01.52-.06-.72-.28-.36.01Z"/>
    <polygon class="cls-1" points="147.83 156.12 148.3 155.95 147.89 155.97 147.83 156.12"/>
    <path class="cls-1" d="m147.9,154.94l-.08.26c.08-.02.14,0,.18.02-.02-.14.04-.32-.1-.27Z"/>
    <path class="cls-1" d="m148.01,155.21c0,.07.04.14.13.16-.02-.04-.05-.12-.13-.16Z"/>
    <polygon class="cls-1" points="147.61 155.86 147.69 155.77 147.69 155.6 147.61 155.86"/>
    <path class="cls-1" d="m147.38,152.53l-.2-.21c-.17.02-.26.11-.17.18.13.03.22.1.37.02Z"/>
    <path class="cls-1" d="m146.24,153.61c.08-.09.19-.12.34-.2l-.6.15.26.05Z"/>
    <path class="cls-1" d="m145.91,152.94c-.17.02-.57-.23-.45.07.17-.02.37.19.45-.07Z"/>
    <polygon class="cls-1" points="145.73 149.1 145.75 149.16 146.73 148.9 145.73 149.1"/>
    <path class="cls-1" d="m142.53,146.51c-.16.35.63-.09.4.25.25,0,.19-.27.4-.26-.29-.11-.18-.24-.8.01Z"/>
    <path class="cls-1" d="m143.33,146.49s.1.03.17.05c-.07-.03-.13-.05-.17-.05Z"/>
    <polygon class="cls-1" points="138.13 109.17 138.28 108.93 137.98 109.13 138.13 109.17"/>
    <path class="cls-1" d="m137.3,109l.62-.21-.6.04s.11.1-.02.17Z"/>
    <path class="cls-1" d="m138.84,135.47l.16-.03c.16-.07.16-.12.16-.21l-.32.24Z"/>
    <polygon class="cls-1" points="138.66 132.85 138.65 132.9 139.2 132.67 138.66 132.85"/>
    <path class="cls-1" d="m137.39,130.95c0,.09.15.16.15.25-.15-.16.55-.46-.15-.25Z"/>
  </g>
  <g>
    <path class="cls-1" d="m144.58,131.24s.31.22.38.26c-.06-.07-.47-.32-.38-.26Z"/>
    <polygon class="cls-1" points="143.94 130.48 144.08 130.58 143.76 130.32 143.94 130.48"/>
    <path class="cls-1" d="m144.1,130.26c-.61-.37.04.14-.2.05l-.14-.08.47.33c-.04-.1-.32-.37-.13-.29Z"/>
    <path class="cls-1" d="m145.47,130.99c-.24-.14-.18-.16-.09-.02.03.01.04.02.06.03,0,0,0-.01.03-.01Z"/>
    <path class="cls-1" d="m145.44,131s.21.11,0,0h0Z"/>
    <path class="cls-1" d="m145.38,130.81l.19.17c.14.08.19.08.28.15-.09-.11-.23-.19-.47-.32Z"/>
    <path class="cls-1" d="m144.96,130.49l.08.07c.06.03.08.04-.08-.07Z"/>
    <path class="cls-1" d="m145.2,130.72l-.16-.15c-.1-.06-.29-.18.06.06-.18-.12,0,0,.11.1Z"/>
    <path class="cls-1" d="m145.1,130.68c-.14-.07-.24-.1-.42-.26.04.11.47.38.42.26Z"/>
    <path class="cls-1" d="m143.48,129.85l-.19-.09.19.15c-.09-.07.19.06,0-.06Z"/>
    <path class="cls-1" d="m145.81,130.81c-.13-.08-.35-.21-.51-.31l.13.12c.09.04.19.07.38.2Z"/>
    <path class="cls-1" d="m145.3,130.5l-.2-.18s.05.09.2.18Z"/>
    <polygon class="cls-1" points="144.3 130.05 144.72 130.41 144.3 130.04 144.3 130.05"/>
    <polygon class="cls-1" points="145.91 130.69 146.19 130.9 145.77 130.58 145.91 130.69"/>
    <path class="cls-1" d="m145.92,130.57c.23.17.43.25.57.36-.03-.05-.22-.21-.4-.35.09.09.05.09-.16-.01Z"/>
    <path class="cls-1" d="m145.83,130.38c.05.05.15.13.25.21-.05-.05-.12-.11-.25-.21Z"/>
    <path class="cls-1" d="m145.21,130.31c.08.05.28.17.38.21l-.37-.22s0,0-.01.01Z"/>
    <path class="cls-1" d="m145.21,130.29h.01s.03,0,.04,0c0,0-.02,0-.05,0Z"/>
    <path class="cls-1" d="m145.2,130.31s0,0,0,0c-.04-.02-.05-.03,0,0Z"/>
    <path class="cls-1" d="m144.68,130.17c-.19-.15-.37-.33-.71-.49.24.17.42.26.71.49Z"/>
    <path class="cls-1" d="m144.74,130.03l-.11-.02c.09.06.24.14.33.22l-.22-.2Z"/>
    <polygon class="cls-1" points="144.64 129.94 144.74 130.03 144.78 130.04 144.64 129.94"/>
    <path class="cls-1" d="m145.45,130.22c-.15-.12-.15-.14-.16-.18-.08-.02-.14-.03-.15,0,.11.08.31.22.31.19Z"/>
    <path class="cls-1" d="m145.3,130.23s-.01-.01-.02-.02c-.03-.02-.04-.02.02.02Z"/>
    <path class="cls-1" d="m145.42,129.85s-.05-.03-.07-.04c.02.01.04.03.06.04h0Z"/>
    <path class="cls-1" d="m145.07,129.99c-.08-.03,0,.04.11.12-.03-.04-.04-.06-.04-.08-.05-.03-.08-.06-.07-.04Z"/>
    <path class="cls-1" d="m145.7,130.21c-.08-.04-.15-.07-.21-.1.12.07.31.16.21.1Z"/>
    <path class="cls-1" d="m145.39,130.28s.01,0,.01.01c.08.04.04.02-.01-.01Z"/>
    <path class="cls-1" d="m145.39,130.28s-.13-.11-.21-.16c.02.03.05.06.1.1.03.01.07.04.1.06Z"/>
    <path class="cls-1" d="m143.16,128.3c.33.22.61.46.23.26.23.2,1.33.88,1.96,1.25-.14-.1-.28-.18-.45-.35-.19-.11-.48-.2-.76-.42-.14-.16.14.04.33.13-.43-.25-.56-.45-1.18-.84l.19.18c-.09-.06-.24-.17-.33-.22Z"/>
    <path class="cls-1" d="m145.27,129.86l.03.04c.07.02.21.1.48.24-.15-.13-.27-.22-.38-.29l-.09.04-.05-.04Z"/>
    <path class="cls-1" d="m145.26,129.97c-.35-.25-.48-.38-.89-.61,0,.06.28.23.42.35-.04-.13.19.15.43.23.05.05.06.08.07.1.05.02.11.04.19.07,0,0-.02,0-.02-.01h0s0,0,0,0c-.05-.03-.07-.04-.05-.03,0,0,0,0,0,0-.05-.03-.09-.06-.13-.09.09.03.1.06.13.09.02.01.03.02.05.04,0,0,0,0,0,0l-.15-.2c-.06-.02-.06,0-.04.07Z"/>
    <path class="cls-1" d="m143.22,129.14s.06.04.09.05c-.04-.03-.07-.05-.09-.05Z"/>
    <path class="cls-1" d="m143.46,129.25s.19.14.14.13c-.12-.06-.17-.11-.29-.19.09.07.24.2.43.29l-.05-.04c.14.05.62.31.66.35-.33-.2-.57-.35-.9-.54Z"/>
    <path class="cls-1" d="m144.27,129.55l-.14-.17-.33-.17.19.12c-.1-.01.14.13.28.23Z"/>
    <polygon class="cls-1" points="145.6 129.96 145.98 130.22 145.46 129.83 145.6 129.96"/>
    <polygon class="cls-1" points="145.61 129.86 145.94 130.08 145.75 129.92 145.61 129.86"/>
    <path class="cls-1" d="m144.28,122.89l-.08-.08s.05.05.08.08Z"/>
    <path class="cls-1" d="m144.18,123l.16.11c-.09-.06-.15-.11-.16-.11Z"/>
    <path class="cls-1" d="m146.79,127.96c.33.18.82.46.45.22l-.37-.23c.05.06,0,.05-.08,0Z"/>
    <path class="cls-1" d="m145.45,125.27s-.08-.04-.12-.06c.12.09.23.17.34.24-.07-.06-.14-.12-.22-.18Z"/>
    <path class="cls-1" d="m143.95,124.28l.26.12c-.09-.05-.17-.09-.26-.12Z"/>
    <path class="cls-1" d="m144.34,121.96l-.36-.26s.18.14.36.26Z"/>
    <path class="cls-1" d="m145.98,128.99c.16.07.23.09.25.09-.23-.11-.55-.29-.25-.09Z"/>
    <path class="cls-1" d="m148.11,125.45c-.06-.05-.13-.11-.21-.16.06.05.12.1.21.16Z"/>
    <path class="cls-1" d="m146.27,129.02s-.06-.03-.09-.04c.05.06.09.1.05.11.17.08.28.12.04-.06Z"/>
    <path class="cls-1" d="m146.25,119.69s.03.01.05.02c-.05-.03-.05-.03-.05-.02Z"/>
    <path class="cls-1" d="m150.38,121.36s.01.03,0,.05c.03.01.03,0,0-.05Z"/>
    <path class="cls-1" d="m145.96,129.65s.04.03,0,0h0Z"/>
    <path class="cls-1" d="m144.48,128.8s-.09-.07-.17-.12c.09.06.14.1.17.12Z"/>
    <path class="cls-1" d="m144.12,127.38s0,0,0,0c-.07-.04-.06-.03,0,0Z"/>
    <path class="cls-1" d="m145.78,129.57s.09.04.12.05c-.03-.01-.07-.03-.12-.05Z"/>
    <path class="cls-1" d="m145.96,129.68s-.03,0-.04,0c.06.04.1.06.04,0Z"/>
    <path class="cls-1" d="m145.96,129.62s-.02.01-.05,0c.03.01.05.02.06.03,0,0,0-.02,0-.04Z"/>
    <path class="cls-1" d="m146.36,121.64s.02,0,.04.02c-.14-.11-.12-.09-.04-.02Z"/>
    <path class="cls-1" d="m143.28,125.09s.01,0,.02.01c0,0,0,0,.01,0l-.03-.02Z"/>
    <path class="cls-1" d="m143.05,124.85c.44.32.37.3.26.25l1.06.66-1.32-.92Z"/>
    <path class="cls-1" d="m144.37,122.52l-.35-.17c-.51-.4-.3-.31-.78-.57,1.13.75.01.23,1.15.98l-.26-.13s-.05-.05-.03-.05c-.58-.3.8.57.59.54-.1-.03-.28-.12-.4-.23l.25.24s-.23-.13-.2-.13l.04.14-.03-.02c.17.13.43.33.54.42-.18-.09-.11-.09-.26-.18l.25.22c-.31-.17-.57-.4-.51-.4-1.16-.7.26.22-.46-.12l-.12-.14c-.66-.39-.45-.21-.88-.42.22.13,1.08.57,1.33.8-.09-.04-.15-.05.07.12-.4-.26-.32-.17-.32-.13l-.53-.35c.13.13.41.31.64.49-.08,0-.5-.26-.85-.48-.12,0,.69.39.75.53-.24-.08-.04.1.24.36-.21-.08-.32-.22-.49-.31l.41.31s-.15-.09-.21-.13c.15.13.53.35.65.49.58.4-.92-.48-.28.01-.16-.09-.32-.22-.53-.35.39.36.28.27.83.71l-.38-.18c.43.23.87.58,1.24.88.2.11.38.21.47.26l.25.25c-.09-.05-.27-.18-.49-.33.04.03.08.07.12.1-.21-.11-.51-.32-.8-.53.11.06.23.13.35.19-.32-.23-.67-.48-.98-.68.06.04.11.09.13.12-.09-.06-.16-.12-.22-.15-.06-.03.06.05.19.15l-.61-.37.24.16-.43-.16c.56.45,1.41,1.08,1.6,1.34-.42-.31-.71-.47-1.23-.81.57.33-.19-.23-.04-.2-.07-.01-.32-.18-.4-.24l.44.41c-.42-.28-.33-.19-.52-.28.85.53.52.43.75.63-.28-.18-.57-.38-.47-.38-.66-.36.94.7.38.4,0-.02.05,0-.09-.09.23.19,0,.12-.24-.05h0c-.15,0-.15.2.56.67-.09-.06-.85-.57-.99-.67l2.32,1.69c-.6-.41-2.09-1.32-2.4-1.6-.1-.04-.21-.08-.02.09.09.05.9.55.95.6-.71-.4-.38-.21-1-.53.14.07,1.09.71,1.04.72-.14-.1-.95-.61-1.04-.69l.9.68c-.16-.13-.8-.52-1.07-.68.19.11-.06.05.03.13l.24.11c-.19-.02,1.28.94,1.18.98-.19-.14-1.18-.8-1.33-.84.47.33,2.27,1.59,2.6,1.9l-.28-.17.28.26c-.71-.51-2.17-1.59-2.74-2.03-.24-.11-.33-.2-.33-.14-.27-.15-.38-.28-.38-.3h-.23c.57.35.51.44.99.74l-.51-.49c.57.36,1.56,1.1,1.41,1.11-.24-.13-.99-.67-1.18-.79.19.14.33.31.18.23l-.28-.23c-.24-.1.7.55.14.25-.05,0-.76-.42-.43-.2.66.39,2.65,1.68,3.12,2.01-.05-.02-.67-.31-1-.5-.52-.3-1.17-.82-1.62-1.08.15.1.33.24.39.29-.14-.07-.47-.32-.43-.23.57.38-.1.05.47.33.14.14-.14-.04-.15.02.38.23,1.23.86,1.37,1-.14-.1-.34-.21-.43-.26-.1.04-.39-.09-.44-.02-.14-.08-.33-.16-.57-.33.09.08.28.21.28.24-.52-.28-.05-.1-.66-.45.33.22.42.35.61.52.52.32.14,0-.04-.17.71.46,1.41,1,1.69,1.28.14.17-.47-.27-.38-.2-.2.03,1.17.9.6.66-.47-.26-.9-.58-1.23-.79-.14-.16.33.11.34.07l-.24-.1c-.14-.11-.23-.22-.09-.15-.42-.23-.2.14-.63-.02.14.11.28.24.47.35l-.05-.07c.38.21.47.38.66.45.23.2.61.5.37.42l-.52-.33c.15.1.33.17.18.05.21.17-.75-.37-.09.09l.38.2c.23.2.75.6.56.54.52.31-.05-.05.56.31-.76-.45.11-.09-.7-.56.71.42.33.13.94.47-.17-.11-.33-.2-.23-.18-.05-.03-.11-.08-.14-.11,0,0,0,0,.01,0,0,0-.01,0-.02-.01-.02-.02-.03-.02,0,0-.08-.04-.17-.09-.27-.15-.38-.27-.33-.32-.51-.48.1.03.19.14.38.24l-.28-.23c.38.24.66.35.85.54l.05-.04c.23.11.34.13.2,0,.1.03-.38-.33-.1-.12l-.18-.23.09.06c.1-.04-.52-.56.21-.2-.08-.09-.18-.19-.04-.16l.33.2c-.09-.11.39.12.06-.12.9.54.29-.03.48.02l-.42-.28s-.05-.14-.19-.3l-.38-.24c-.28-.24.34.07.34-.02.14.1.09.09,0,.05.9.47-.51-.57.15-.23-.13-.11-.07-.09.03-.04,0,0,0,0,.02.02,0,0,0,0,0,0,.07.03.15.08.22.11-.1-.05-.18-.09-.21-.11,0-.02-.03-.07-.11-.15l.41.25s0,0,0-.01c.16.08-.18-.14-.49-.33-.06-.05-.13-.11-.23-.19.66.41-.19-.2.52.23-.33-.23-.19-.27-.89-.74.09.06.14.08.14.1.1.03.19.06,0-.09l.52.32-.66-.5c.33.17.52.28.9.57-.56-.47-.19-.21-.75-.66l.33.22s-.42-.35-.14-.19c.66.36.24-.18.91.07-.99-.61.48.23-.28-.27.24.14.38.21.57.36-.19-.21.43.14-.18-.32.24.14.33.23.47.32-.05-.04-.19-.15-.05-.07.14.08.19.14.28.21,0-.09-.7-.56-1.37-1,.34.17.3.13-.12-.18.23.13.47.26.52.35.05,0,.41.07-.12-.28.14.08.06,0,0-.05.07-.03.12,0,.1-.09l-.1-.04c-.63-.44-.12-.14-.17-.23l.07.04c.53.21-.2-.19.39.07l-.41-.26c-.86-.57.56.25.27-.02l-.24-.13c-.28-.22,1.23.68,1.36.73.08.04.11.09.16.13.56.26-.52-.35-.61-.49.29.17.71.48.79.48.24.13-.85-.71-.27-.41-.23-.13-.45-.26-.6-.4-.05-.09.9.43.23-.06.06.03.12.07.18.1-.16-.15-.23-.29-.59-.55,1.41.88-.55-.63.73.2v-.14s.12.09.12.09c.12,0-.17-.23-.46-.45.1.04.21.13.28.18.32.08.27.04-.32-.45l.42.26c-.23-.18.73.3.31-.11.05.03.13.09.18.13-.42-.42,1.3.52-.18-.5l-.33-.31c-.17,0-.65-.44-.92-.57-.07-.09.51.21.56.3l-.08-.04c.78.53.35.08.88.43.07-.19.61-.07.74-.2l-.62-.38.07-.03c.15.08.49.29.44.32.36.21-.25-.25-.38-.34.3.09.7.49.73.48l-.03-.06-.08-.04c-.23-.19-.5-.36-.44-.39.14.05.39.23.42.24.04.03.07.04.03,0l.1-.03-.5-.29c-.22-.19.07-.05-.5-.37.88.5.47-.05.75.09-.33-.27-.29-.31-.22-.33-.11-.05-.66-.4-.56-.4,1.11.75.54.24,1.37.73-.56-.32-.05-.21-.84-.66.11.02.42.27.7.42-.38-.37.41,0,.33-.21-.15-.1-.38-.23-.59-.39l.77.42c-.06-.07-.84-.57-.3-.28-.13-.08-.32-.19-.36-.23.86.25-.3-.82,1.19-.16-.3-.16-.32-.19-.32-.22-.08-.03-.36-.24-.57-.36l.61.27c-.54-.38.03-.12-.5-.48l.08.09c-.6-.45-1.43-.85-2.22-1.38.68.51-1.13-.57-.15.16-.17-.09-.25-.18-.44-.29.33.24.39.31.21.25l-.08-.06c.01.17-.36,0-.67-.03l.4.25c-.07,0-.2-.08-.31-.14.58.42.08-.05.73.41-.83-.49-.14.18-1.07-.39-.03.04.47.29.44.33l-.26-.15.31.22c-.07,0-.39-.2-.6-.33.03,0-.05-.06-.06-.08-.32-.16.04.16-.07.11l.18.06c.16.26-.26.19.18.63l.19.11c.29.31-.25-.07-.15.13l-.04-.03c.17.14.25.23.22.24-.2-.17-.45-.23-.68-.42.31.33.26.23.92.75l-.32-.19c.27.2.41.3.47.4-.24-.21-.49-.28-.82-.55-.74-.35.59.59-.43-.01.83.6.53.23.7.37.29.16.62.45.51.43-.04.02-1.13-.66-1.17-.58,0,0-.06-.05-.05-.05-.24-.11.26.25-.12.05.51.36-.06.03.6.46l-.11-.17c.15.15.9.7.48.52-.13-.09-.29-.23-.38-.3-.21-.11.11.12-.11.01-.66-.44-.09-.18-.57-.55-.29-.16.43.39-.28-.1.89.63-.16,0,.5.51l-.4-.26c.06.05.23.19.21.2l-.5-.36c.41.33-.44-.17-.22.03.04-.09.49.29.81.45.46.45-1.08-.62-.97-.38-.05-.05.28.1.45.24-.1-.03-.27-.1-.49-.22.03.13.42.25.64.45-.5-.29.17.17.31.3l-.4-.26c-.32-.08.83.57.46.45l-.54-.4.12.14-.45-.31c.31.27.21.22.06.18.29.18.73.48.72.53-.26-.13-.37-.27-.35-.17-.24-.18-.55-.4-.17-.18-.13-.09-.25-.18-.37-.26-.29-.15-.11.03-.12.05.02,0,.05,0,.11.04l.51.45c-.16-.09-.28-.18-.39-.26.03.04.21.18.23.22-.32-.22-.66-.44-.8-.57l.31.31c-.15-.09-.42-.22-.53-.3-.22-.08.57.52.28.41.06.04.12.09.16.13-.11,0-.54-.21-.13.15l-.61-.35c.1.14.77.43.94.66.15.18-.52-.31-.69-.39.28.22.85.67.34.41-.1-.09,0-.05-.04-.09Zm-.13.78c-.08-.07-.32-.26-.08-.11.45.31.23.18.08.11Zm.37,1.56c-.13-.1-.05-.07.11.02.03.03,0,.04-.11-.02Zm1.14,4.41s-.01,0-.02-.01c.17.08.11.05.02.01Zm-.21-.06c.05.04.11.08.17.11-.1-.07-.1-.09-.06-.08-.11-.07-.19-.11-.11-.03Zm3.65-5.96l-.11-.06c-.1-.1,0-.02.11.06Z"/>
    <path class="cls-1" d="m144.13,124.39c.07.04.15.09.22.14-.06-.05-.14-.1-.22-.14Z"/>
    <path class="cls-1" d="m144.41,122s0,0,0,0c-.02-.02-.05-.03-.07-.05l.07.05Z"/>
    <path class="cls-1" d="m142.66,126.13c.07.03.14.07.22.11-.1-.07-.19-.11-.22-.11Z"/>
    <path class="cls-1" d="m146.04,129.94l-.08-.1s-.08-.02-.15-.05c.09.06.24.14.24.16Z"/>
    <path class="cls-1" d="m143.34,128.61s0,.01.05.05l.19.12s-.14-.14-.23-.17Z"/>
    <path class="cls-1" d="m144.67,129.1c-.34-.22-.24-.12-.19-.06,0,0,0,0,0,0,.47.32.33.19.19.06Z"/>
    <path class="cls-1" d="m144.49,129.05s.01.03,0,.03c.19.13.05.02,0-.03Z"/>
    <path class="cls-1" d="m145.72,129.42c-.1-.05.43.29.29.21.42.29-.47-.42-.29-.21Z"/>
    <polygon class="cls-1" points="143.54 128.39 143.97 128.65 143.64 128.42 143.54 128.39"/>
    <path class="cls-1" d="m143.97,128.39l-.14-.04c.07.05.11.08.14.1.03-.02.13.01,0-.07Z"/>
    <path class="cls-1" d="m143.97,128.46s-.02.03.05.08c0,0,0-.03-.05-.08Z"/>
    <polygon class="cls-1" points="143.45 128.25 143.54 128.3 143.59 128.29 143.45 128.25"/>
    <path class="cls-1" d="m144.33,128.03l-.09-.12c-.14-.1-.24-.14-.19-.09.09.08.14.13.28.21Z"/>
    <path class="cls-1" d="m143.1,127.41c.09.05.19.11.33.19l-.52-.34.19.15Z"/>
    <path class="cls-1" d="m143.06,127.2c-.14-.1-.37-.33-.38-.26.14.1.23.22.38.26Z"/>
    <polygon class="cls-1" points="144.13 126.99 144.13 127 144.99 127.56 144.13 126.99"/>
    <path class="cls-1" d="m142.46,125.09c-.24-.08.52.35.23.23.19.14.23.1.4.22-.19-.17-.06-.11-.63-.46Z"/>
    <path class="cls-1" d="m143.09,125.55s.07.06.12.1c-.05-.04-.09-.07-.12-.1Z"/>
    <polygon class="cls-1" points="150.92 121.54 151.12 121.62 150.82 121.45 150.92 121.54"/>
    <path class="cls-1" d="m150.33,121.06l.55.35-.48-.34s.06.07-.07,0Z"/>
    <path class="cls-1" d="m143.08,122.68l.13.09c.15.09.16.09.19.09l-.32-.17Z"/>
    <polygon class="cls-1" points="143.78 122.5 143.76 122.5 144.26 122.81 143.78 122.5"/>
    <path class="cls-1" d="m143.39,121.72s.07.09.04.09c-.07-.09.58.3-.04-.09Z"/>
  </g>
  <g>
    <path class="cls-1" d="m311.31,377.75c-.09-.05-.15.36-.18.43.19-.06.2-.54.18-.43Z"/>
    <polygon class="cls-1" points="313.08 377.11 313.03 377.27 313.32 376.89 313.08 377.11"/>
    <path class="cls-1" d="m314.56,377.27c-.08-.72-.54.06-.78-.21l-.02-.17-.19.56c.34-.06.79-.4.99-.18Z"/>
    <path class="cls-1" d="m315.29,378.86c-.04-.28.19-.24-.19-.09.02.03.02.05.03.07.03,0,.08,0,.16.02Z"/>
    <path class="cls-1" d="m315.13,378.84c-.17.02.1.24,0,0h0Z"/>
    <path class="cls-1" d="m315.9,378.69l-.22.24c.04.16.24.2.16.32.23-.13.18-.3.06-.57Z"/>
    <path class="cls-1" d="m316.11,378.17l-.11.1c.02.07.05.09.11-.1Z"/>
    <path class="cls-1" d="m315.76,378.5l.24-.22c-.03-.12-.03-.35-.11.08.02-.21-.03,0-.13.14Z"/>
    <path class="cls-1" d="m315.63,378.39c-.12-.16-.27-.26-.05-.5-.41.09-.37.59.05.5Z"/>
    <path class="cls-1" d="m314.69,376.54l-.13-.22-.15.23c.07-.11.27.22.28,0Z"/>
    <path class="cls-1" d="m317.27,379.05c0-.15-.09-.4-.11-.59l-.15.18c.08.1.24.18.27.41Z"/>
    <path class="cls-1" d="m317.16,378.46l.22-.28c-.21-.02-.24.11-.22.28Z"/>
    <polygon class="cls-1" points="316.15 377.38 315.76 377.92 316.22 377.38 316.15 377.38"/>
    <polygon class="cls-1" points="318.2 379.01 318.08 379.37 318.29 378.82 318.2 379.01"/>
    <path class="cls-1" d="m318.8,378.9c-.07.3.19.48.1.67.16-.07.28-.34.38-.58-.12.14-.27.13-.48-.08Z"/>
    <path class="cls-1" d="m319.46,378.63c-.06.08-.11.21-.17.35.06-.08.12-.18.17-.35Z"/>
    <path class="cls-1" d="m317.78,378.23c.02.09.07.33.22.42l-.12-.42s-.06,0-.09,0Z"/>
    <path class="cls-1" d="m317.87,378.22h0c.1.02.17.02.2.02-.03,0-.09-.01-.21-.02Z"/>
    <path class="cls-1" d="m317.76,378.23h.02s-.02-.05-.02,0Z"/>
    <path class="cls-1" d="m316.75,377.78c.13-.23.4-.52.12-.86-.09.3.07.5-.12.86Z"/>
    <path class="cls-1" d="m317.61,377.7l-.25-.08c.01.11.06.27,0,.4l.25-.31Z"/>
    <polygon class="cls-1" points="317.73 377.56 317.61 377.7 317.71 377.73 317.73 377.56"/>
    <path class="cls-1" d="m318.98,378.29c.09-.2.2-.23.33-.28-.15-.06-.3-.09-.44-.07,0,.14-.04.38.11.35Z"/>
    <path class="cls-1" d="m318.44,378.23l.02-.03s-.03-.05-.02.03Z"/>
    <path class="cls-1" d="m320.6,377.83s-.02-.05-.03-.07v.07s.03,0,.03,0Z"/>
    <path class="cls-1" d="m318.84,377.87c-.11-.07-.17.04-.21.18.08-.05.16-.08.25-.1,0-.06,0-.1-.03-.08Z"/>
    <path class="cls-1" d="m319.8,378.38c-.07-.08-.14-.15-.22-.21.07.13.21.32.22.21Z"/>
    <path class="cls-1" d="m318.51,378.32s0,.02-.01.02c.04.09.04.04.01-.02Z"/>
    <path class="cls-1" d="m318.51,378.32c.05-.07.08-.17.12-.27-.06.04-.12.09-.16.15.02.03.03.07.05.12Z"/>
    <path class="cls-1" d="m320.46,375.06c.06.39-.12.82-.42.42-.16.32.18,1.59.52,2.28-.02-.17-.05-.32.14-.6-.12-.19-.61-.41-.47-.79.27-.25.27.09.46.27-.21-.46.24-.79.03-1.48l-.2.31c-.03-.11.03-.31-.06-.39Z"/>
    <path class="cls-1" d="m320.1,377.79l-.09.06c.12.05.23.2.43.48.14-.22.15-.36.13-.5l-.5.02.02-.06Z"/>
    <path class="cls-1" d="m319.56,377.91c.02-.44.23-.65.02-1.09-.28.07-.15.38-.29.59.45-.17-.1.26.27.45-.08.09-.16.12-.24.15.09.04.18.09.27.16v-.03s-.02,0-.02,0h0c-.03-.06-.04-.09-.01-.06,0,0,0-.01,0-.01,0-.06,0-.11,0-.16.15.07.04.11,0,.16v.06s0,0,0,0l.44-.3c-.11-.04-.23-.01-.45.07Z"/>
    <path class="cls-1" d="m317.08,375.97s.02.07.02.1c.03-.05.04-.09-.02-.1Z"/>
    <path class="cls-1" d="m317.27,376.22c-.03.06-.05.24-.16.2-.1-.12,0-.21-.02-.35-.06.12-.21.32,0,.52l.03-.06c.18.14.45.66.42.72-.08-.38-.14-.66-.28-1.03Z"/>
    <path class="cls-1" d="m318.38,376.99c.12-.08.24-.15.36-.24l-.23-.35.03.22c-.22-.07-.15.2-.16.37Z"/>
    <polygon class="cls-1" points="320.68 378.04 320.71 378.49 320.82 377.82 320.68 378.04"/>
    <polygon class="cls-1" points="321.18 377.87 321.24 378.27 321.33 378 321.18 377.87"/>
    <path class="cls-1" d="m338.75,358.4l-.05-.14c0,.06.03.1.05.14Z"/>
    <path class="cls-1" d="m338.39,359.03l.16.11c-.08-.08-.14-.13-.16-.11Z"/>
    <path class="cls-1" d="m332.61,372.78c.35.21.85.56.57.21l-.3-.32c-.05.13-.15.14-.27.11Z"/>
    <path class="cls-1" d="m336.87,365.33s-.09-.03-.13-.05c.09.12.17.24.25.35-.04-.09-.08-.19-.12-.3Z"/>
    <path class="cls-1" d="m335.56,364.1l.34.03c-.1-.03-.22-.04-.34-.03Z"/>
    <path class="cls-1" d="m339.93,354.66l-.37-.26c-.06.17.18.17.37.26Z"/>
    <path class="cls-1" d="m326.18,376.21c.2.1.33.12.43.1-.26-.16-.52-.45-.43-.1Z"/>
    <path class="cls-1" d="m342.68,360.82c-.04-.1-.1-.17-.19-.21.03.1.09.17.19.21Z"/>
    <path class="cls-1" d="m327,376.14s-.07-.04-.11-.06c-.07.11-.14.21-.27.24.19.12.38.16.39-.17Z"/>
    <path class="cls-1" d="m342.53,340.87s.03-.02.05-.03c-.06,0-.06.01-.05.03Z"/>
    <path class="cls-1" d="m346.28,335.94s.05.11.07.18c.02-.04,0-.1-.07-.18Z"/>
    <path class="cls-1" d="m323.26,377.57c-.1.06,0,.05,0,0h0Z"/>
    <path class="cls-1" d="m322.31,376.06c0-.05,0-.12-.01-.22.02.1.02.17.01.22Z"/>
    <path class="cls-1" d="m326.83,373.26h0c-.06-.07-.05-.05,0,0Z"/>
    <path class="cls-1" d="m323.05,377.42c.05.04.11.07.17.08-.03-.03-.08-.05-.17-.08Z"/>
    <path class="cls-1" d="m323.12,377.62s-.07,0-.1-.01c0,.07.03.11.1.01Z"/>
    <path class="cls-1" d="m323.4,377.5c-.06.02-.12.02-.18,0,.03.02.04.04.04.06.03-.02.07-.04.14-.07Z"/>
    <path class="cls-1" d="m343.19,348.64s.03,0,.04-.01c-.16-.13-.14-.08-.04.01Z"/>
    <path class="cls-1" d="m331.92,367.64s0,.02,0,.02h.02s-.03-.02-.03-.02Z"/>
    <path class="cls-1" d="m331.95,367.17c.25.5.15.51-.01.49l.9.88-.89-1.37Z"/>
    <path class="cls-1" d="m339.4,356.81l-.45.05c-.47-.53-.19-.61-.77-.65,1.23.61-.25.86.95,1.48h-.33s-.04-.06,0-.1c-.72-.03.78.64.43.9-.15.07-.37.07-.47-.09l.16.43c-.06.07-.26-.06-.2-.13-.03.16-.08.31-.12.46l-.03-.02c.15.16.37.45.45.58-.23,0-.1-.12-.26-.18l.16.39c-.36-.08-.55-.44-.42-.57-1.3-.46.19.35-.75.4l-.03-.29c-.74-.26-.59.04-1.13.02.24.08,1.3.16,1.46.57-.13.02-.22.08-.06.35-.42-.25-.38-.06-.46.11l-.54-.35c.05.26.33.42.51.67-.17.15-.62-.08-.99-.27-.27.23.8.23.67.64-.36.11-.26.42-.14.93-.29.05-.3-.25-.49-.3l.31.44s-.16-.07-.22-.13c.07.24.51.38.51.68.53.47-1.13-.21-.67.51-.19-.05-.29-.27-.5-.4.17.65.09.51.44,1.22l-.51-.04c.51.14.78.7.97,1.2.23.09.43.17.54.19v.53c-.11-.03-.26-.2-.42-.43.02.05.05.11.07.16-.27-.04-.51-.34-.71-.65.13.05.26.1.39.15-.23-.32-.51-.67-.81-.89.04.07.06.14.05.21-.06-.09-.13-.16-.18-.19-.06-.03.02.09.11.24l-.6-.39.2.2-.66.08c.32.74.9,1.69.69,2.32-.28-.46-.6-.61-1.04-1.04.58.33.11-.5.39-.63-.15.07-.35-.15-.4-.25.04.26.06.52.08.78-.36-.36-.35-.18-.6-.23.8.62.21.74.28,1.11-.25-.23-.46-.51-.22-.63-.73-.33.58,1.09-.07.85.04-.05.1-.04,0-.18.11.32-.32.41-.46.14l.04-.05c-.39.2-.95.85-.44,1.53-.08-.08-.64-.81-.73-.95.45.88.89,1.79,1.29,2.68-.42-.6-1.73-1.78-1.73-2.31-.15-.02-.32-.04-.31.29.12.04.81.71.78.82-.72-.47-.42-.22-1.1-.57.18.06.81,1.02.65,1.1-.09-.15-.71-.88-.74-1.01l.38,1.14c-.04-.22-.57-.76-.83-.96.16.15-.28.2-.3.35l.29.11c-.47.12.57,1.53.14,1.76-.09-.22-.71-1.25-.98-1.23.25.53,1.19,2.56,1.06,3.18l-.25-.23-.08.49c-.27-.84-.81-2.67-.99-3.43-.28-.12-.26-.29-.44-.13-.24-.21-.15-.47-.1-.52-.19.05-.38.11-.58.15.39.55,0,.79.31,1.26.06-.31.12-.6.16-.92.4.55.74,1.8.29,1.92-.23-.17-.56-1.06-.69-1.24.08.22-.1.58-.22.46l-.04-.4c-.32-.1.14.96-.43.55-.11.01-.67-.6-.49-.25.51.59,1.72,2.63,1.91,3.19-.06-.02-.85-.38-1.13-.66-.43-.45-.46-1.38-.84-1.76.08.16.11.4.11.49-.16-.09-.23-.52-.39-.35.29.62-.43.16.18.56-.1.28-.27-.02-.48.13.27.35.47,1.45.34,1.73-.06-.16-.21-.34-.28-.43-.45.14-.81-.05-1.2.12-.1-.14-.37-.24-.4-.54,0,.14.03.37-.08.44-.45-.44.23-.2-.22-.78.14.38-.1.64-.18.93.28.55.45-.04.52-.35.33.78.37,1.73.05,2.26-.28.33-.35-.45-.37-.32-.7.1-.07,1.6-.84,1.23-.39-.44-.34-1.01-.51-1.37.22-.28.54.17.73.08l-.32-.15c.03-.2.17-.4.32-.29-.17-.2-.45-.12-.76-.02-.32.07-.68.17-.99.02-.04.2-.14.42-.01.61l.14-.12c.27.37-.14.67.12.8-.14.35-.27.9-.65.74l-.21-.58c.05.17.3.31.34.1-.07.31-.68-.7-.64.12l.32.36c-.16.35-.31,1.05-.65.92.26.56.05-.08.42.56-.38-.82.78-.13.27-.97.41.75.46.26.91.86-.06-.19-.2-.34.07-.32,0-.06,0-.14,0-.19h.02s-.02,0-.02,0c0-.03,0-.04,0,0-.08-.07-.16-.16-.21-.26,0-.48.38-.58.44-.85.17.05,0,.24.14.42l.09-.4c.15.43.6.6.34.95l.32-.07c.26.19.55.2.64-.04.18.04.2-.6.19-.22l.38-.44.04.1c.5-.12.67-1.03,1.5-.53.11-.17.21-.37.51-.37l.21.33c.14-.21.76.09.67-.32.67.83,1.04-.29,1.46-.3l-.23-.45c.24-.1.4-.33.56-.68l-.24-.38c.04-.46.76-.09,1.11-.36.07.16-.05.18-.17.13,1,.59.52-1.19,1.3-.85,0-.2.1-.2.23-.16,0,0-.01.02-.01.04.01,0,.03-.01.04-.02.09.03.18.08.27.1-.1-.06-.19-.11-.25-.12.07-.06.15-.18.19-.35l.33.36s.01-.02.02-.03c.21.07-.05-.24-.32-.5,0-.1,0-.21-.03-.33.55.57.12-.41.73.16-.17-.38.34-.66-.14-1.37.07.08.14.1.08.15.17-.01.35-.03.3-.3l.44.43-.28-.83c.39.17.59.28.75.76-.11-.85.11-.46-.07-1.26l.25.31c.1-.11-.09-.65.19-.46.37.17.68-.07,1.03-.36.33-.31.7-.67,1.24-.72-.96-.69.65.08,0-.56.23.15.43.18.51.44.09-.48.75-.19.37-.91.24.15.25.34.4.41-.02-.07-.09-.26.06-.19.15.07.13.2.18.33.25-.37-.37-.95-.96-1.49.43.08.46-.04.15-.48.25.11.54.19.44.45.13-.08.88-.46.37-.87.16.06.16-.13.13-.21.23-.24.29-.23.44-.52h-.14c-.54-.55.02-.3.1-.57l.06.05c.81-.16-.07-.36.78-.48l-.41-.24c-.83-.62.79-.09.65-.59l-.3-.05c-.2-.34,1.47.33,1.68.23.1.01.09.13.11.22.79-.1-.49-.39-.43-.78.32.12.69.53.87.34.3.03-.58-1.19.15-1.16-.27-.06-.53-.13-.61-.37.05-.27,1.23-.14.6-.75.08,0,.14.02.2.05-.1-.28-.02-.75-.36-1.05,1.57.57-.17-1.44,1.19-.79l.17-.6.14.08c.25-.32-.03-.6-.31-.86.13-.04.24.07.31.11.52-.4.48-.49-.06-1.22l.48.13c-.23-.22,1.02-.51.68-1.24.05.02.14.07.19.13-.34-.77,1.78-1.05.13-1.8l-.3-.52c-.29.47-.73-.29-1.08-.17-.04-.22.67-.36.7-.09h-.1c.88.36.49-.53,1.1-.35.11-.52.36-1,.6-1.47.23-.48.47-.95.59-1.45l-.74-.02.11-.33c.19-.06.59-.02.51.22.43-.06-.26-.47-.42-.5.36-.43.81.33.85.19l-.02-.21-.09.03c-.27-.21-.58-.28-.5-.57.17-.16.46-.03.5-.1.05,0,.08-.01.04-.11l.13-.43-.6.1c-.25-.23.09-.4-.59-.29,1.06-.16.55-1.57.87-1.71-.4-.31-.37-.57-.29-.89-.13.07-.78.08-.68-.19,1.33.18.6-.48,1.57-.68-.65.18-.13-.83-1.05-.52.12-.23.5,0,.82-.18-.48-.57.33-1.27.14-1.99-.18,0-.44.12-.71-.02l.87-.41c-.09-.14-1.01-.07-.42-.36-.14.05-.36.11-.43.02.36-.72.14-1.42-.03-2.11-.2-.7-.26-1.39.38-2.25-.29.26-.35.14-.4,0-.06.11-.43.08-.66.15l.52-.72c-.67.04-.18-.62-.81-.53l.15.15c-.78-.06-1.54.72-2.48.89.89.07-1.09.9.19,1.06-.17.12-.32-.02-.53.07.43.02.52.14.38.4h-.1c.19.62-.14.96-.33,1.7l.47-.11c-.05.16-.19.21-.31.3.73.11,0-.44.8-.37-.94.31.08,1.12-1,1.35.02.24.54-.11.56.13l-.29.08.39.04c-.05.16-.42.26-.67.28.03-.04-.07-.1-.1-.14-.34.22.13.56.02.64l.18-.24c.29.65-.05,1.44.51,2.09l.23-.04c.4.51-.26.39-.08.93l-.05-.02c.22.12.33.27.29.42-.25-.15-.53.22-.8.03.4.56.32.28,1.12.7l-.38.05c.32.15.5.18.57.46-.3-.25-.58.12-.97-.17-.85.47.74.93-.48,1.05.98.39.64-.42.83-.24.35-.09.73.31.6.48-.05.18-1.35.14-1.39.58.01-.04-.07-.06-.05-.1-.28.13.3.38-.15.52.59.22-.07.26.7.43l-.12-.45c.18.27,1.05.65.52.97-.15-.06-.33-.21-.43-.31-.25.07.11.25-.15.32-.78-.18-.06-.53-.62-.88-.34.06.48.57-.34.29,1.04.37-.22.41.54.86l-.46-.11c.06.06.26.2.23.29l-.57-.28c.47.35-.54.37-.31.65.08-.48.58.01.96-.12.5.74-1.27.08-1.22.78-.04-.1.36-.27.54-.08-.13.1-.35.23-.61.24-.02.46.49.05.73.31-.6,0,.17.27.3.52l-.47-.12c-.43.42.94.4.46.76l-.59-.37.11.28-.52-.2c.32.36.19.41-.04.61.34.04.83.28.77.51-.32.07-.41-.22-.44.11-.27-.16-.6-.35-.14-.35-.15-.06-.27-.16-.41-.22-.36.06-.2.37-.23.49.03-.04.07-.08.15-.09l.49.66c-.19.01-.31-.09-.43-.19.02.11.21.24.21.39-.36-.16-.75-.28-.86-.53.09.18.19.37.27.56-.17-.03-.52.06-.64-.05-.3.14.51.82.11,1.02.07.04.12.1.15.19-.19.26-.72.33-.38.86l-.73-.09c.03.32.93.09.98.63.07.4-.6-.13-.83-.1.26.29.8.86.15.91-.08-.15.05-.18.04-.29Zm-1.36,3.25c-.05-.11-.25-.39.02-.28.44.35.18.27-.02.28Zm-2.23,5.08c-.09-.14.03-.15.22-.1-.01.08-.08.12-.22.1Zm-11.51,11.72s0-.01,0-.02c.23.13.15.08,0,.02Zm-.42-.1c-.02.07,0,.14.04.2-.01-.12.06-.15.17-.15-.06-.11-.13-.18-.21-.05Zm22.68-28.66l-.14.05c-.11-.17,0-.11.14-.05Z"/>
    <path class="cls-1" d="m335.71,364.24c.08.04.15.09.22.14-.04-.07-.12-.13-.22-.14Z"/>
    <path class="cls-1" d="m340,354.71s0,0,0,0c-.02-.02-.05-.03-.08-.04l.07.05Z"/>
    <path class="cls-1" d="m327.12,370.96c.09.03.16.09.23.16-.05-.11-.13-.18-.23-.16Z"/>
    <path class="cls-1" d="m322.2,378.07l.21-.17c-.11.05-.17-.05-.25-.11.03.11.11.26.04.28Z"/>
    <path class="cls-1" d="m319.68,375.52c-.02.06-.07.02-.09.08l.04.22c.13-.03.2-.23.04-.3Z"/>
    <path class="cls-1" d="m321.63,376.55c-.11-.39-.21-.23-.35-.12,0,0,.02,0,.03,0,.07.57.2.34.33.13Z"/>
    <path class="cls-1" d="m321.24,376.46s-.09.05-.14.04c.03.23.07.03.14-.04Z"/>
    <path class="cls-1" d="m323.51,377.15c-.1-.08.1.51,0,.37.06.52.33-.75,0-.37Z"/>
    <polygon class="cls-1" points="321.21 375.28 321.37 375.75 321.37 375.34 321.21 375.28"/>
    <path class="cls-1" d="m322.47,375.35l-.27-.07c.03.08,0,.14-.02.18.15-.03.34.02.29-.12Z"/>
    <path class="cls-1" d="m322.18,375.47c-.08.01-.15.05-.17.13.04-.01.13-.06.17-.13Z"/>
    <polygon class="cls-1" points="321.5 375.06 321.59 375.15 321.77 375.15 321.5 375.06"/>
    <path class="cls-1" d="m325,374.61l.2-.23c-.04-.17-.14-.24-.21-.14-.02.13-.09.23.01.37Z"/>
    <path class="cls-1" d="m323.79,373.6c.1.07.14.18.23.32l-.2-.59-.03.27Z"/>
    <path class="cls-1" d="m324.44,373.21c-.04-.17.16-.59-.12-.44.04.17-.15.39.12.44Z"/>
    <polygon class="cls-1" points="328.28 372.28 328.23 372.31 328.73 373.2 328.28 372.28"/>
    <path class="cls-1" d="m329.78,368.43c-.38-.04.31.55-.08.45.08.24.32.08.38.29,0-.31.15-.24-.3-.74Z"/>
    <path class="cls-1" d="m330.08,369.17s0,.11.02.18c0-.08,0-.13-.02-.18Z"/>
    <polygon class="cls-1" points="346.64 335.05 346.8 334.79 346.5 335 346.64 335.05"/>
    <path class="cls-1" d="m345.82,334.82l.62-.21-.6.02s.11.12-.02.19Z"/>
    <path class="cls-1" d="m336.66,359.82l.13.09c.16.06.19.03.26-.03l-.38-.07Z"/>
    <polygon class="cls-1" points="338.29 357.9 338.26 357.93 338.82 358.13 338.29 357.9"/>
    <path class="cls-1" d="m338.5,355.71c-.06.07.02.21-.03.28-.02-.21.71,0,.03-.28Z"/>
  </g>
</svg>