<?xml version="1.0" encoding="UTF-8"?>
<svg id="logo" xmlns="http://www.w3.org/2000/svg" viewBox="0 0 468.87 393.88">
  <defs>
    <style>
      .cls-1 {
        fill: #231f20;
      }
    </style>
  </defs>
  <g>
    <path class="cls-1" d="m76.89,268.67c-.26.27.15.42.18.51.31-.54-.27-.57-.18-.51Z"/>
    <polygon class="cls-1" points="79.95 263.31 80.02 263.5 80.25 262.54 79.95 263.31"/>
    <path class="cls-1" d="m83.52,258.85c-.89-.02-1.2,1.69-2.03,2.33l-.23.03.16.72c.7-1.02,1.4-2.52,2.1-3.07Z"/>
    <path class="cls-1" d="m86.62,257.44c-.33-.03.22-.66-.51.5.07-.03.09-.04.14-.06.07-.1.18-.23.38-.44Z"/>
    <path class="cls-1" d="m86.25,257.88c-.36.48.43-.16,0,0h0Z"/>
    <path class="cls-1" d="m87.85,255.61l-.3.77c.23-.03.7-.55.63-.28.4-.72.17-.69-.33-.5Z"/>
    <path class="cls-1" d="m87.91,254.7l-.17.39c.1-.01.19-.08.17-.39Z"/>
    <path class="cls-1" d="m87.37,255.9l.37-.82c-.16.02-.35-.12-.19.36-.12-.19-.07.07-.18.46Z"/>
    <path class="cls-1" d="m86.98,256.22c-.4.25-.83.64-.53-.14-.87,1.25-.34,1.38.53.14Z"/>
    <path class="cls-1" d="m83.12,258.17l-.53.33-.13.55c.07-.27.86-.77.67-.88Z"/>
    <path class="cls-1" d="m91.22,251.99c-.09-.13-.48-.04-.67-.12l-.23.57c.27-.17.7-.56.9-.45Z"/>
    <path class="cls-1" d="m90.55,251.87l.34-.85c-.51.59-.5.78-.34.85Z"/>
    <polygon class="cls-1" points="87.38 254.1 86.91 255.56 87.55 253.87 87.38 254.1"/>
    <polygon class="cls-1" points="93.32 249.39 93.28 249.99 93.42 248.97 93.32 249.39"/>
    <path class="cls-1" d="m94.65,247.62c0,.47.7-.09.6.33.33-.5.46-1.06.57-1.56-.21.46-.56.85-1.17,1.23Z"/>
    <path class="cls-1" d="m96.05,245.57c-.1.24-.16.51-.23.81.11-.25.19-.51.23-.81Z"/>
    <path class="cls-1" d="m91.88,249.9c.11,0,.38.05.77-.27h-.55c-.07.08-.14.17-.22.27Z"/>
    <path class="cls-1" d="m92.08,249.64h.02c.24-.29.41-.48.48-.57-.06.07-.21.24-.5.57Z"/>
    <path class="cls-1" d="m91.82,249.97s.04-.04.06-.07c-.05,0-.08,0-.06.07Z"/>
    <path class="cls-1" d="m89.11,252.54c.13-.55.6-1.55-.33-.96,0,.47.53.14.33.96Z"/>
    <path class="cls-1" d="m91.14,249.97l-.66.67c.1.06.33.03.27.3l.39-.97Z"/>
    <polygon class="cls-1" points="91.31 249.53 91.14 249.97 91.38 249.72 91.31 249.53"/>
    <path class="cls-1" d="m94.74,246.56c.1-.43.37-.78.65-1.19-.4.36-.78.76-1.1,1.17.06.14.1.47.45.02Z"/>
    <path class="cls-1" d="m93.42,248.03s.03-.06.04-.08c-.06.02-.1.05-.04.08Z"/>
    <path class="cls-1" d="m98.44,241.56s-.07,0-.11.01c.02.02.03.04.05.06l.06-.07Z"/>
    <path class="cls-1" d="m94.18,246.57c-.31.26-.38.51-.42.77.15-.26.33-.53.54-.79-.03-.06-.05-.09-.12.02Z"/>
    <path class="cls-1" d="m96.74,244.38c-.2.11-.41.24-.62.39.23-.07.66-.27.62-.39Z"/>
    <path class="cls-1" d="m93.63,247.92s-.01.04-.02.06c.15-.05.11-.06.02-.06Z"/>
    <path class="cls-1" d="m93.63,247.92c.08-.2.1-.39.13-.58-.13.21-.23.42-.3.61.05-.02.12-.03.18-.03Z"/>
    <path class="cls-1" d="m97.22,238.69c.27.3-.1,1.35-1,1.8-.32.88,1.06,1.24,2.11,1.08-.12-.13-.24-.23.15-1.09-.37.12-1.67,1.28-1.46.45.6-1.08.73-.69,1.26-1.02-.7.09.4-1.66-.33-1.9l-.47.99c-.1-.05,0-.47-.27-.3Z"/>
    <path class="cls-1" d="m97.21,242.92l-.2.33c.32-.29.64-.44,1.24-.69.24-.61.21-.81.13-.92l-1.2,1.42.03-.14Z"/>
    <path class="cls-1" d="m95.96,244.57c-.15-.5.27-1.32-.44-1.18-.67.89-.2.83-.47,1.47,1.03-1.47-.13.55.86-.31-.16.32-.34.58-.51.83.24-.22.49-.42.73-.6-.02,0-.03.01-.05.02h0s0,0,0,0c-.09.03-.13.03-.05-.02,0,0,.01-.03.02-.03-.04-.05-.06-.11-.08-.16.39-.35.14,0,.08.16.01.02.02.04.04.06,0,0,0,0,0,0l.93-1.55c-.28.26-.57.64-1.06,1.33Z"/>
    <path class="cls-1" d="m88.66,250.25c.06-.02.09,0,.11.02.03-.12.03-.18-.11-.02Z"/>
    <path class="cls-1" d="m89.32,249.84c-.03.14.03.33-.27.64-.33.21-.16-.13-.28-.2-.07.27-.32.89.35.4l.03-.14c.57-.47,1.56-.86,1.53-.73-.43-.08-.77-.1-1.36.03Z"/>
    <path class="cls-1" d="m92.58,247.1l.77-1.3-.77.36.2.11c-.6.61-.27.64-.2.83Z"/>
    <polygon class="cls-1" points="98.72 241.56 98.95 242 98.98 240.92 98.72 241.56"/>
    <polygon class="cls-1" points="99.88 240.01 100.15 240.31 100.28 239.76 99.88 240.01"/>
    <path class="cls-1" d="m164.3,151.36l.19-.41c-.1.18-.16.31-.19.41Z"/>
    <path class="cls-1" d="m162.3,153.83l.1.18c0-.18-.02-.28-.1-.18Z"/>
    <path class="cls-1" d="m129.55,202.73c.69-.27,1.58-.47,1.18-.69l-.46-.12c-.22.4-.47.63-.72.8Z"/>
    <path class="cls-1" d="m147.87,175.61c-.07.02-.15.04-.22.06.02.21.04.41.06.6.05-.2.1-.42.16-.66Z"/>
    <path class="cls-1" d="m146.75,174.14l.74-.48c-.19.09-.44.24-.74.48Z"/>
    <path class="cls-1" d="m174.75,137.52l-.03-.68c-.5.63-.1.49.03.68Z"/>
    <path class="cls-1" d="m112.15,224.38c.48-.33.81-.62,1.06-.91-.61.36-1.24.55-1.06.91Z"/>
    <path class="cls-1" d="m167.12,155.21c.11-.26.11-.4.03-.46-.11.26-.15.44-.03.46Z"/>
    <path class="cls-1" d="m114.2,222.22c-.09.05-.17.11-.26.16-.19.36-.4.71-.73,1.08.45-.27.89-.64.99-1.25Z"/>
    <path class="cls-1" d="m214.25,88.57s.09-.06.13-.08c-.04-.05-.08,0-.13.08Z"/>
    <path class="cls-1" d="m229.1,76.97c-.09.16-.27.39-.44.61.11-.09.25-.27.44-.61Z"/>
    <path class="cls-1" d="m104.9,234.03c-.23.34,0,.08,0,0h0Z"/>
    <path class="cls-1" d="m102.31,234.52c.02-.1,0-.19-.06-.26.06.09.08.18.06.26Z"/>
    <path class="cls-1" d="m114.64,217.33s.01-.02.02-.03c-.14.04-.12.04-.02.03Z"/>
    <path class="cls-1" d="m104.36,234.39c.14-.09.28-.2.43-.33-.08.05-.21.14-.43.33Z"/>
    <path class="cls-1" d="m104.57,234.45c-.1.1-.18.18-.26.25.02.09.09.08.26-.25Z"/>
    <path class="cls-1" d="m105.24,233.56c-.14.19-.29.35-.45.49.07-.04.11-.06.11-.03.07-.1.17-.24.34-.46Z"/>
    <path class="cls-1" d="m194.15,115.64s.05-.03.09-.04c.12-.44.03-.28-.09.04Z"/>
    <path class="cls-1" d="m132.71,191.55s0,.03-.01.05c.02-.01.04-.03.05-.04h-.04Z"/>
    <path class="cls-1" d="m133.38,190.2c.03.83-.25,1.07-.63,1.37l1.28.4-.65-1.77Z"/>
    <path class="cls-1" d="m168.94,145.34l-.95.57c.28-1.38,1.02-1.95-.02-1.53.97.96-2.41,3.24-1.44,4.2l-.65.36c.13-.14.09-.22.22-.36-1.34.63.15,1.38-1.07,2.6-.45.4-.87.61-.74.19l-.57,1.25c-.26.29-.39.07-.13-.22l-1.18,1.65-.02-.04c-.01.36-.17,1.08-.26,1.42-.47.28.05-.29-.17-.29l-.44,1.08c-.56.14-.25-.8.28-1.38-1.71-.02-.31.94-2.35,2.22l.53-.94c-1.03.05-1.33.88-2.45,1.52.37-.07,2.44-1.12,1.95.04-.29.2-.62.53-.81,1.21-.38-.3-.69.28-1.17.93l-.47-.44c-.4.79-.1.94-.19,1.52-.65.72-1.17.57-1.63.48-1.05,1.15,1.29-.34.24,1.17-1,.86-1.36,1.73-2.02,3.17-.74.57-.21-.37-.55-.23l-.1.94c-.13.15-.21,0-.26-.08-.27.65.47.44-.06,1.38.37.66-2.16,1.06-2.36,2.59-.34.14-.21-.37-.46-.44-.71,1.74-.66,1.44-1.03,3.04l-1.11.72c.95-.42.66.85.38,1.96.39-.11.72-.2.91-.29l-.76,1.51c-.21.09-.27-.18-.31-.55-.03.12-.05.24-.07.33-.55.31-.65-.15-.67-.71.22-.08.45-.15.68-.22-.05-.56-.15-1.13-.49-1.3,0,.13-.09.33-.2.53-.02-.15-.05-.26-.13-.26-.09,0-.08.22-.13.54l-.79-.15.16.25-1.7,1.41c-.4,1.66-.42,3.37-1.72,5.47-.03-.8-.59-.63-1.05-1.05.93-.12.97-1.66,1.87-2.57-.47.48-.61.18-.58-.02l-.95,2.15c-.36-.36-.6.14-1.13.47,1.06.27-.53,1.74-.87,2.65-.3-.16-.43-.55.34-1.38-1.36.5-.08,1.99-1.34,2.54.17-.22.3-.3.23-.5-.17.69-1.33,1.77-1.33,1.3l.17-.22c-1.23,1.35-3.47,4.34-2.98,5.09-.1-.05-.65-.83-.72-1.02l.2,4.33c-.39-.68-2.44-.9-1.82-2.34-.35.28-.78.62-1.15,1.5.27-.17,1.29.08,1.09.44-1.33.36-.82.33-2.22.97.4-.25.99.85.52,1.38-.07-.19-.92-.66-.85-.93l-.21,2.07c.11-.47-.7-.65-1.19-.55.29,0-.96,1.17-1.16,1.6l.67-.42c-1.36,1.44.02,2.51-1.25,4.01-.03-.33-.75-1.35-1.48-.66.17.72.9,3.31.17,4.94l-.46.05-.54,1.27c-.16-1.19-.14-4.14.1-5.58-.66.42-.43-.08-1.1.8-.48.11.01-.76.2-1.03l-1.76,1.89c.6.33-.7,1.96-.2,2.23l1.2-2.62c.6.33.48,2.46-.75,3.81-.5.2-.72-1.02-.92-1.13.03.33-.74,1.63-.97,1.66l.2-.83c-.83.64-.34,1.85-1.6,2.41-.3.3-1.46.44-1.2.75,1.03-.06,2.97,1.32,3.13,2.03-.13.08-1.95,1.27-2.55,1.41-.9.17-.47-1.71-1.24-1.57.13.13.07.58.02.75-.4.25-.33-.5-.87.31.43.55-1.27,1.49.17.71-.43.86-.73.69-1.4,1.58.56,0,.55,1.71.12,2.57-.1-.15-.41-.13-.55-.11-1.25,1.47-2.14,2.09-3.27,3.49-.23.03-.93.58-.93.11-.07.28-.03.61-.37,1.05-1.13.47.7-1.02-.36-.83.27.3-.47,1.46-.77,2.24.63.19,1.23-1.35,1.53-2.13.66.52.49,2.15-.37,3.87-.77,1.3-.83.17-.9.44-1.87,2.1-.34,2.79-2.27,4.23-1,.39-.86-.63-1.29-.72.6-1.08,1.43-1.25,1.93-1.91l-.83.64c.1-.41.5-1.13.9-1.38-.86.3-3.03,3.65-4.73,5.07-.1.41-.37,1.05,0,.94l.37-.58c.73-.22-.34,1.38.36.83-.33.91-.6,2.01-1.6,2.87l-.63-.19c.16.09.81-.43.89-.83-.12.59-1.89,1.03-1.63,2l.9-.44c-.33.91-.54,2.21-1.4,2.99.8-.03.11-.25,1.17-.45-1.13,0,1.86-2.27.43-1.96,1.16-.14,1.18-.91,2.41-1.33-.18-.1-.54.06.13-.63-.02-.07-.01-.2,0-.28.02-.02.03-.03.05-.04-.02.01-.03.02-.05.03,0-.05,0-.06-.02.01-.21.12-.41.2-.55.19-.06-.66.9-1.85,1.04-2.41.43-.39.03.33.4.22l.2-.83c.4.22,1.53-.72.9.49l.77-.93c.64-.4,1.33-1.11,1.56-1.7.43-.39.51-1.44.48-.83l.97-1.66.1.06c1.21-1.43,1.82-3.48,3.79-4.65.3-.56.6-1.16,1.36-1.91l.43.08c.4-.72,1.82-1.66,1.72-2.18,1.36-.03,2.63-2.93,3.66-3.93l-.36-.36c.63-.75,1.11-1.57,1.71-2.65l-.4-.22c.37-1.05,1.93-1.91,2.93-3.24.06.2-.23.5-.5.66,2.03-.92,2.03-3.73,3.73-4.68.15-.45.4-.67.68-.85-.03.03-.04.07-.05.1.03-.03.08-.09.12-.14.18-.11.38-.21.57-.34-.2.08-.38.16-.51.26.21-.28.49-.72.72-1.19l.51.13s.04-.06.06-.1c.45-.28.07-.46-.38-.47.1-.25.17-.5.2-.71.86.16.64-1.22,1.63-1.14-.1-.52,1.37-2.21.88-2.95.1.06.23-.03.07.19.43-.39.87-.77,1-1.33l.63.19.14-1.49c.77-.36,1.13-.47,1.03.41.57-1.88.71-1.33,1.11-2.99l.26.31c.33-.44.47-1.47.94-1.52,1.36-.5,3.91-4.73,6.44-6.78-1.3-.24,1.33-.83.7-1.49.33.03.73-.22.6.33.8-1.44,1.86-1.63,1.97-2.99.33.03.1.52.33.5.03-.14.13-.55.37-.58.23-.03.03.33-.03.61,1-1.33.44-1.99-.11-2.58.82-.42,1.04-.78,1.01-1.58.39-.07.9-.28.33.59.39-.43,2.51-2.53,2.04-2.98.24-.04.54-.6.58-.77.84-.99.96-1.05,1.71-2.08l-.3.21c-.29-.88.53-.94,1.1-1.8l.04.07c1.91-1.5.43-.96,2.38-2.39l-.45-.2c-.67-.81,1.76-1.23,2.3-2.54l-.52.21c.18-.8,2.38-.74,2.95-1.24.17-.07-.05.29-.14.51,1.69-1.14-.33-.59.45-1.81.43,0,.46.81,1.12.08.52-.21.9-2.89,2.24-3.53-.39.07-.77.13-.51-.52.57-.86,2.51-1.56,2.44-2.8.14-.06.22-.05.28-.02.32-.75,1.32-2.22,1.27-2.87,1.75.46,2.42-4.33,3.61-3.36l1.45-1.94.08.15c1.04-1.15,1.1-1.8,1.15-2.46.3-.21.25.08.3.15,1.65-1.58,1.74-1.79,2.33-3.75l.51.15c.1-.58,2.65-2.07,3.58-4.17.03.05.08.15.02.33,1.1-2.31,4.8-3.81,3.96-5.66l.68-1.57c-1.44,1.58-.41-.74-1.2-.24.44-.72,1.78-1.35,1.21-.49l-.17.07c.5.88,1.91-1.86,2.38-1.42,2.58-3.31,5.53-6.18,8.02-9.22l-.85-.1.89-1.05c.36-.17.75-.02.12.72.64-.14.75-1.5.64-1.62,1.43-1.31.2,1.12.58.67l.45-.66-.18.09c.17-.69-.04-.93.72-1.83.58-.49.59-.02.79-.23.04.03.12-.03.3-.34l1.13-1.31-.88.18c.25-.78,1.04-1.25.03-1.04,1.52-.29,4.3-4.81,4.99-5.17.34-1.1,1-1.92,1.86-2.92-.3.18-.93-.07-.16-.91.79,1.16,1.75-1.26,3.07-1.37-1.01.24,1.88-2.61.37-2.17.67-.67.43.27,1.12-.09.99-2.08,3.35-3.66,4.94-5.94-.11-.14-.61.05-.44-.58l1.6-.6c.27-.48-.48-1.03.62-1.43-.2.02-.51.04-.32-.28,4.06-3.71,6.38-9.12,11.08-12.43-.73.37-.45-.04-.1-.49-.3.24-.33-.28-.57-.37l1.96-1.39c-.25-.74,1.51-1.96,1.17-2.55l-.37.64c.02-1.23-2.15.03-2.81-.68-.02,1.38-2.77,1.46-2.94,3.62-.4.19-.03-.46-.34-.43.04.61-.24,1.09-1.01,1.77v-.15c-1.71,2.29-2.78,2.99-4.99,5.33l.52.11c-.48.5-.68.52-.98.7.07,1.06,1.24-1.49,1.41-.43-1.32.11-3.04,3.78-4.28,3.58-.66.82.62.1-.04.92l-.41.03.13.45c-.48.5-.99.55-1.2.41.13-.11.24-.42.34-.57-.83.49-1.49,2.06-1.77,2.23l.78-.68c-1.58,2.43-4.09,4.94-5.36,7.5l.31-.03c-1.01,1.92-1.26,1.18-2.56,3.13v-.1c-.11.5-.41,1.06-.83,1.55.16-.62-1.09.55-.83-.23-1.09,2.08-.44,1.11-.74,2.82l-.51.04c-.06.62.05.76-.6,1.73.35-.95-.91.23-.57-.87-2.16,1.41-1.63,3.36-3.26,3.5.1,1.52,1.77-1.3,1.55-.67.59-.2.02,1.2-.54,1.74-.51.6-1.86.22-3.07,1.77.13-.15.07-.21.2-.36-.66.41-.62,1.35-1.52,1.79.17.78-.76.9-.23,1.5l.98-1.53c-.48.93-.35,2.26-1.76,3.3-.04-.2.11-.73.23-1.07-.49.24-.47.84-.98,1.09-.53-.61,1.23-1.82,1.45-3.06-.59.21-.85,1.98-1.17,1.01.36,1.3-1.32,1.43-1.5,2.99l-.32-.36c-.07.21-.17.69-.42.99l-.04-.93c-.26,1.17-1.66,1.34-2.08,2.33,1.34-1.71.75-.02,1.59-.53-1.17,2.49-1.93.43-3.62,2.91.2-.36,1.17-1.01.95-.38-.43.38-1.04.86-1.46.98-1.16,1.61.57.07.27.91-.87.17-.42.91-.82,1.7l-.38-.3c-1.65,1.57.41,1.1-1.15,2.45v-1.09s-.51.94-.51.94l-.29-.51c-.4,1.16-.71,1.37-1.53,2.16.43,0,.59.66-.02,1.45-.65.36-.12-.58-.95.57-.04-.44-.11-.95.62-1.16-.08-.15-.04-.44-.12-.58-.72.37-1.21,1.4-1.53,1.8.14-.14.31-.31.43-.36l-.76,2.03c-.34.14-.3-.15-.25-.44-.22.36-.23.72-.58,1.23-.21-.37-.55-.59-.15-1.38l-.88,1.8c-.21,0-.99.49-.95.21-.86.71-1.07,2.56-2.2,3.5.01.11-.02.27-.17.54-.91,1-2.04,1.64-2.62,3.23l-1.12.27c-.66,1.08,1.46-.41.36,1.39-.75,1.3-.81.06-1.29.34-.18.8-.42,2.25-1.71,2.96.18-.43.48-.65.7-1.01Zm-9.43,12.32c.11-.3.24-.96.6-.96.22.61-.15.65-.6.96Zm-13.79,19.16c.01-.27.29-.49.68-.69-.15.25-.36.49-.68.69Zm-38.32,53.44s0-.03,0-.04c.56-.41.36-.27,0,.04Zm-1.03.96c-.03.15.02.19.11.18-.03-.15.15-.4.4-.66-.16,0-.34.08-.52.48Zm93.06-116.98l-.27.13c.27-.56.26-.35.27-.13Z"/>
    <path class="cls-1" d="m146.88,174.32c.12-.02.2.02.29.06.01-.14-.06-.2-.29-.06Z"/>
    <path class="cls-1" d="m174.76,137.64s.02-.02.03-.03c0-.04-.02-.07-.04-.09v.12Z"/>
    <path class="cls-1" d="m116.62,211.8c.23-.18.4-.25.54-.28-.08-.09-.24-.05-.54.28Z"/>
    <path class="cls-1" d="m102.41,237.49l.46-.78c-.25.35-.43.41-.62.53.1.05.33.02.17.25Z"/>
    <path class="cls-1" d="m95.25,241.68c-.04.14-.17.22-.2.36l.2.11c.33-.44.44-.86,0-.47Z"/>
    <path class="cls-1" d="m100.64,237.14c-.36-.2-.6.33-.93.86.02-.03.04-.06.07-.09.33.5.6-.14.86-.77Z"/>
    <path class="cls-1" d="m99.63,238.12c-.11.16-.22.32-.35.46.13.2.18-.15.35-.46Z"/>
    <path class="cls-1" d="m105.48,232.76c-.27.17.29.47.06.5.2.58.74-1.93-.06-.5Z"/>
    <polygon class="cls-1" points="99.28 236.7 99.82 236.83 99.72 236.31 99.28 236.7"/>
    <path class="cls-1" d="m102.65,233.07l-.73.69c.07.04.03.17-.03.32.4-.47.89-.94.76-1.01Z"/>
    <path class="cls-1" d="m101.88,234.08c-.21.24-.39.49-.44.68.1-.14.32-.44.44-.68Z"/>
    <polygon class="cls-1" points="100.02 235.54 100.28 235.37 100.75 234.84 100.02 235.54"/>
    <path class="cls-1" d="m109.41,224.74l.57-.94c-.07-.19-.33-.03-.53.33-.07.28-.27.64-.04.61Z"/>
    <path class="cls-1" d="m106.28,226.46c.26-.17.36-.11.6-.14l-.47-.41-.13.55Z"/>
    <path class="cls-1" d="m108.15,223.89c-.07-.19.6-1.54-.23-.44.06.19-.5,1.14.23.44Z"/>
    <polygon class="cls-1" points="119 211.55 118.83 211.77 119.65 212.38 119 211.55"/>
    <path class="cls-1" d="m126.11,198.72c-1,.86.3.63-.67,1.35,0,.39.79-.59.76-.22.29-.77.65-1-.09-1.14Z"/>
    <path class="cls-1" d="m126.21,199.86c-.05.12-.09.26-.13.41.09-.22.12-.33.13-.41Z"/>
    <polygon class="cls-1" points="231.43 74.94 232.11 74.42 231.51 74.63 231.43 74.94"/>
    <path class="cls-1" d="m231.83,73.22l.63.25-.15-.76c-.09.16-.28.48-.48.5Z"/>
    <path class="cls-1" d="m157.06,158.65l.08.15c.21,0,.34-.14.61-.43l-.69.28Z"/>
    <polygon class="cls-1" points="164.46 150.15 164.32 150.29 165.01 150.38 164.46 150.15"/>
    <path class="cls-1" d="m169.76,142.3c-.26.29-.44.72-.7,1.01.44-.72,1.34-.63.7-1.01Z"/>
  </g>
  <g>
    <path class="cls-1" d="m89.08,325.6c-.29.3.14.45.16.54.36-.6-.25-.59-.16-.54Z"/>
    <polygon class="cls-1" points="92.58 319.63 92.64 319.83 92.93 318.78 92.58 319.63"/>
    <path class="cls-1" d="m96.55,314.6c-.94.03-1.35,1.89-2.25,2.63l-.24.05.13.76c.79-1.15,1.6-2.8,2.36-3.44Z"/>
    <path class="cls-1" d="m99.87,312.87c-.35,0,.27-.73-.56.57.07-.04.1-.05.14-.07.08-.11.2-.26.42-.5Z"/>
    <path class="cls-1" d="m99.46,313.38c-.4.54.46-.2,0,0h0Z"/>
    <path class="cls-1" d="m101.26,310.83l-.36.85c.24-.04.76-.64.67-.34.46-.8.21-.75-.32-.51Z"/>
    <path class="cls-1" d="m101.37,309.85l-.2.43c.1-.02.2-.1.2-.43Z"/>
    <path class="cls-1" d="m100.74,311.18l.43-.9c-.17.03-.36-.1-.21.4-.12-.19-.08.08-.22.5Z"/>
    <path class="cls-1" d="m100.31,311.54c-.43.3-.91.74-.55-.11-.98,1.4-.43,1.51.55.11Z"/>
    <path class="cls-1" d="m96.17,313.89l-.58.39-.17.6c.08-.3.95-.89.75-.99Z"/>
    <path class="cls-1" d="m104.98,306.71c-.08-.14-.5-.02-.7-.08l-.27.62c.29-.2.76-.64.97-.54Z"/>
    <path class="cls-1" d="m104.28,306.63l.4-.93c-.57.67-.57.87-.4.93Z"/>
    <polygon class="cls-1" points="100.85 309.23 100.28 310.84 101.04 308.98 100.85 309.23"/>
    <polygon class="cls-1" points="107.31 303.78 107.24 304.43 107.44 303.33 107.31 303.78"/>
    <path class="cls-1" d="m108.81,301.79c-.03.5.74-.14.61.31.38-.56.54-1.17.68-1.72-.24.51-.63.95-1.29,1.4Z"/>
    <path class="cls-1" d="m110.38,299.49c-.12.26-.19.56-.28.89.13-.27.23-.56.28-.89Z"/>
    <path class="cls-1" d="m105.78,304.43c.12,0,.4.03.82-.34l-.57.04c-.07.09-.16.19-.24.3Z"/>
    <path class="cls-1" d="m106,304.13h.02c.27-.33.45-.55.54-.64-.07.08-.24.28-.55.64Z"/>
    <path class="cls-1" d="m105.72,304.5s.04-.05.06-.08c-.06,0-.08.01-.06.08Z"/>
    <path class="cls-1" d="m102.75,307.45c.17-.6.71-1.7-.29-1.02-.03.51.55.11.29,1.02Z"/>
    <path class="cls-1" d="m105,304.55l-.72.76c.1.05.35,0,.26.31l.46-1.06Z"/>
    <polygon class="cls-1" points="105.21 304.06 105 304.55 105.27 304.27 105.21 304.06"/>
    <path class="cls-1" d="m108.96,300.65c.13-.47.43-.87.75-1.32-.44.42-.85.87-1.21,1.33.05.15.08.5.47-.01Z"/>
    <path class="cls-1" d="m107.49,302.32s.03-.06.04-.09c-.07.03-.11.06-.04.09Z"/>
    <path class="cls-1" d="m113.1,295.03s-.08.01-.12.02c.02.02.03.04.05.06l.07-.08Z"/>
    <path class="cls-1" d="m108.37,300.69c-.34.3-.43.58-.48.86.17-.29.37-.59.61-.89-.02-.07-.05-.1-.12.03Z"/>
    <path class="cls-1" d="m111.17,298.17c-.21.13-.44.29-.67.46.25-.1.7-.33.67-.46Z"/>
    <path class="cls-1" d="m107.72,302.18s-.02.04-.03.06c.16-.06.12-.07.03-.06Z"/>
    <path class="cls-1" d="m107.72,302.18c.09-.22.12-.43.16-.63-.14.24-.26.46-.35.67.06-.02.13-.04.19-.05Z"/>
    <path class="cls-1" d="m111.97,292.02c.26.31-.18,1.46-1.14,2-.39.97,1.04,1.26,2.16,1.03-.12-.13-.24-.23.21-1.18-.39.15-1.81,1.48-1.56.58.68-1.2.8-.79,1.38-1.18-.74.14.51-1.81-.24-2.02l-.54,1.1c-.1-.05.02-.5-.26-.31Z"/>
    <path class="cls-1" d="m111.74,296.56l-.22.36c.35-.34.69-.51,1.33-.82.28-.67.26-.88.19-1l-1.34,1.61.04-.15Z"/>
    <path class="cls-1" d="m110.34,298.42c-.13-.53.35-1.44-.4-1.24-.75,1-.26.91-.57,1.61,1.16-1.64-.17.6.92-.39-.19.36-.39.65-.58.92.26-.25.53-.49.8-.69-.02,0-.03.01-.05.02h0s0,0,0,0c-.1.03-.14.04-.05-.02,0,0,.01-.03.02-.04-.04-.05-.06-.11-.07-.17.43-.4.14,0,.07.17.01.02.02.04.04.06,0,0,0,0,0,0l1.06-1.73c-.31.3-.63.72-1.18,1.5Z"/>
    <path class="cls-1" d="m102.39,305.02c.07-.03.09,0,.12.01.04-.13.04-.2-.12-.01Z"/>
    <path class="cls-1" d="m103.11,304.53c-.04.15.02.35-.31.7-.36.24-.16-.13-.29-.2-.09.3-.38.98.34.4l.04-.15c.62-.54,1.68-1.03,1.64-.88-.45-.05-.8-.06-1.43.13Z"/>
    <path class="cls-1" d="m106.67,301.36l.87-1.45-.82.44.2.1c-.66.69-.31.7-.25.9Z"/>
    <polygon class="cls-1" points="113.39 295.01 113.61 295.46 113.7 294.31 113.39 295.01"/>
    <polygon class="cls-1" points="114.69 293.26 114.95 293.57 115.12 292.97 114.69 293.26"/>
    <path class="cls-1" d="m186.89,193.72l.22-.46c-.12.2-.18.35-.22.46Z"/>
    <path class="cls-1" d="m184.66,196.5l.1.19c.02-.2,0-.3-.1-.19Z"/>
    <path class="cls-1" d="m147.76,251.24c.73-.33,1.68-.61,1.28-.82l-.48-.1c-.25.44-.52.71-.8.91Z"/>
    <path class="cls-1" d="m168.39,220.87c-.08.03-.15.06-.23.08,0,.23.02.44.03.64.06-.22.13-.46.21-.72Z"/>
    <path class="cls-1" d="m167.3,219.36l.8-.57c-.21.11-.47.29-.8.57Z"/>
    <path class="cls-1" d="m198.58,178.15v-.72c-.55.71-.13.53,0,.72Z"/>
    <path class="cls-1" d="m128.37,275.65c.52-.38.88-.72,1.16-1.05-.66.43-1.32.67-1.16,1.05Z"/>
    <path class="cls-1" d="m189.64,197.67c.12-.29.14-.44.05-.49-.13.29-.18.48-.05.49Z"/>
    <path class="cls-1" d="m130.64,273.19c-.1.06-.19.13-.28.19-.22.4-.46.79-.82,1.21.49-.32.97-.74,1.11-1.4Z"/>
    <path class="cls-1" d="m242.56,122.92s.09-.07.14-.09c-.04-.05-.08,0-.14.09Z"/>
    <path class="cls-1" d="m258.73,109.47c-.1.18-.31.44-.5.68.12-.1.27-.3.5-.68Z"/>
    <path class="cls-1" d="m120.26,286.5c-.26.38,0,.09,0,0h0Z"/>
    <path class="cls-1" d="m117.53,287.2c.02-.11.02-.2-.05-.28.06.09.07.19.05.28Z"/>
    <path class="cls-1" d="m131.36,267.91s.02-.02.03-.03c-.15.06-.12.05-.03.03Z"/>
    <path class="cls-1" d="m119.68,286.92c.15-.1.31-.23.47-.38-.09.05-.23.17-.47.38Z"/>
    <path class="cls-1" d="m119.9,286.98c-.11.11-.2.2-.28.29.02.09.09.08.28-.29Z"/>
    <path class="cls-1" d="m120.64,285.98c-.16.21-.33.39-.5.56.08-.05.12-.07.12-.04.08-.11.19-.27.38-.52Z"/>
    <path class="cls-1" d="m220.06,153.35s.06-.04.09-.05c.15-.48.04-.3-.09.05Z"/>
    <path class="cls-1" d="m151.66,239.01s0,.04-.02.05c.02-.01.04-.03.05-.04h-.04Z"/>
    <path class="cls-1" d="m152.43,237.5c-.01.89-.31,1.16-.73,1.51l1.32.34-.59-1.86Z"/>
    <path class="cls-1" d="m192.08,186.94l-1.03.67c.37-1.5,1.17-2.16.06-1.64.96.97-2.69,3.64-1.73,4.61l-.7.43c.15-.16.11-.24.25-.4-1.44.77.08,1.48-1.26,2.87-.5.46-.94.71-.78.25l-.66,1.38c-.29.33-.41.1-.12-.23l-1.33,1.86-.02-.04c-.03.39-.23,1.17-.34,1.54-.51.33.07-.32-.16-.31l-.52,1.19c-.59.19-.22-.85.36-1.5-1.79.09-.38,1.03-2.58,2.54l.6-1.04c-1.08.13-1.44,1.03-2.65,1.79.4-.1,2.62-1.37,2.04-.08-.32.24-.67.61-.92,1.36-.38-.29-.74.35-1.27,1.07l-.46-.44c-.46.88-.16,1.02-.28,1.65-.72.82-1.25.69-1.74.63-1.16,1.31,1.37-.45.19,1.24-1.09.99-1.51,1.95-2.29,3.55-.8.66-.2-.38-.57-.21l-.16,1.02c-.15.17-.23.01-.26-.06-.31.72.46.44-.14,1.49.35.69-2.32,1.28-2.61,2.93-.37.17-.2-.38-.46-.45-.84,1.91-.77,1.6-1.25,3.34l-1.21.85c1.02-.52.65.88.29,2.08.41-.15.76-.27.97-.37l-.88,1.67c-.22.11-.28-.17-.3-.58-.04.13-.07.26-.09.36-.6.37-.67-.12-.66-.72.24-.1.48-.19.72-.28-.02-.6-.09-1.2-.45-1.36-.02.14-.11.36-.24.58,0-.16-.04-.28-.12-.27-.09,0-.1.25-.16.59l-.82-.11.16.26-1.85,1.63c-.51,1.81-.62,3.65-2.09,6,.01-.86-.58-.64-1.04-1.06.98-.18,1.1-1.85,2.09-2.89-.52.54-.65.23-.61.02l-1.11,2.37c-.36-.36-.63.19-1.21.58,1.1.22-.65,1.9-1.05,2.91-.3-.16-.42-.57.43-1.51-1.46.63-.19,2.14-1.54,2.82.18-.25.33-.35.27-.55-.21.75-1.49,1.99-1.46,1.48l.19-.25c-1.36,1.54-3.87,4.9-3.39,5.67-.1-.05-.64-.85-.7-1.05l-.02,4.65c-.37-.71-2.51-.81-1.78-2.4-.38.32-.85.72-1.29,1.69.29-.2,1.34,0,1.11.4-1.41.48-.88.41-2.38,1.19.43-.3.99.85.47,1.45-.06-.2-.93-.65-.84-.95l-.33,2.24c.14-.51-.7-.66-1.22-.51.3-.02-1.07,1.32-1.3,1.8l.72-.49c-1.51,1.64-.11,2.7-1.52,4.39-.02-.35-.72-1.4-1.52-.61.14.76.77,3.5-.09,5.3l-.49.09-.63,1.4c-.11-1.27.08-4.45.4-6-.72.49-.45-.06-1.19.94-.51.15.05-.82.26-1.12l-1.95,2.15c.61.32-.84,2.16-.33,2.42l1.4-2.9c.61.32.37,2.61-.99,4.14-.53.24-.7-1.05-.9-1.15.02.35-.86,1.8-1.1,1.85l.26-.91c-.91.74-.45,2.01-1.81,2.69-.33.35-1.55.57-1.29.88,1.08-.13,3.04,1.22,3.17,1.98-.14.1-2.11,1.5-2.75,1.69-.95.24-.4-1.81-1.22-1.61.13.14.04.61-.02.8-.43.29-.32-.51-.92.39.42.56-1.41,1.69.14.76-.5.95-.81.8-1.55,1.79.59-.04.49,1.8-.01,2.75-.1-.16-.42-.11-.57-.08-1.39,1.66-2.35,2.38-3.61,3.97-.24.04-1,.69-.98.18-.08.3-.07.66-.44,1.15-1.21.58.79-1.15-.34-.86.26.31-.57,1.6-.92,2.45.65.16,1.36-1.54,1.72-2.39.67.52.4,2.28-.6,4.18-.87,1.45-.88.23-.96.54-2.07,2.38-.5,3.02-2.6,4.7-1.06.48-.87-.63-1.32-.68.69-1.2,1.57-1.44,2.12-2.18l-.91.74c.13-.45.59-1.25,1.02-1.55-.92.38-3.37,4.12-5.22,5.76-.13.45-.44,1.15-.05,1.01l.42-.65c.78-.29-.43,1.51.34.87-.4,1-.74,2.2-1.83,3.19l-.65-.17c.16.09.87-.52.98-.96-.16.64-2.03,1.24-1.81,2.25l.96-.54c-.4,1-.68,2.41-1.63,3.3.84-.09.13-.28,1.25-.56-1.18.08,2.07-2.56.55-2.14,1.23-.23,1.28-1.06,2.59-1.59-.18-.1-.57.1.17-.69-.02-.07,0-.21,0-.3.02-.02.03-.03.06-.05-.02.01-.04.02-.06.03,0-.06,0-.06-.02.01-.23.15-.44.25-.58.24-.03-.71,1.04-2.05,1.21-2.65.47-.44.02.35.4.21l.26-.9c.41.21,1.64-.88.91.47l.86-1.06c.69-.47,1.45-1.28,1.73-1.93.47-.44.61-1.58.54-.92l1.1-1.85.1.05c1.35-1.62,2.1-3.86,4.22-5.25.35-.63.69-1.29,1.53-2.14l.45.06c.46-.8,2-1.9,1.92-2.46,1.43-.12,2.91-3.33,4.05-4.47l-.36-.36c.7-.85,1.24-1.77,1.93-2.96l-.4-.21c.44-1.15,2.13-2.18,3.24-3.67.06.21-.27.55-.56.75,2.17-1.12,2.33-4.15,4.16-5.28.18-.5.45-.75.76-.96-.03.04-.05.08-.06.11.04-.04.08-.1.13-.16.2-.13.41-.25.62-.4-.22.1-.41.2-.55.31.23-.31.55-.81.82-1.33l.53.11s.05-.07.07-.11c.49-.33.1-.5-.37-.49.12-.28.21-.55.24-.78.9.12.73-1.35,1.77-1.33-.08-.56,1.56-2.47,1.08-3.23.1.05.25-.05.06.2.47-.45.95-.89,1.12-1.49l.65.16.22-1.61c.82-.44,1.21-.58,1.06.37.7-2.06.81-1.47,1.33-3.28l.26.31c.37-.5.57-1.61,1.06-1.7,1.45-.63,4.34-5.34,7.1-7.71-1.34-.18,1.44-.98.82-1.65.35,0,.78-.29.61.32.92-1.6,2.04-1.88,2.22-3.34.35,0,.08.56.32.51.04-.15.17-.6.42-.65.24-.04.02.35-.07.65,1.12-1.49.57-2.16.02-2.76.88-.51,1.13-.91,1.14-1.77.41-.1.96-.36.32.61.43-.49,2.76-2.89,2.3-3.33.25-.06.6-.69.65-.87.93-1.12,1.06-1.19,1.9-2.35l-.33.25c-.25-.92.6-1.04,1.25-2.01l.04.07c2.08-1.74.5-1.06,2.62-2.72l-.46-.19c-.66-.83,1.91-1.44,2.54-2.88l-.55.26c.24-.87,2.54-.95,3.15-1.53.18-.09-.06.31-.17.55,1.83-1.34-.32-.61.57-1.98.45-.03.44.84,1.16.02.55-.26,1.1-3.17,2.53-3.94-.41.1-.82.19-.5-.52.64-.97,2.71-1.84,2.71-3.17.15-.07.24-.07.29-.04.38-.83,1.5-2.47,1.48-3.17,1.81.38,2.77-4.81,3.96-3.85l1.62-2.19.08.15c1.16-1.3,1.25-2.01,1.34-2.72.33-.25.26.07.3.14,1.81-1.8,1.92-2.04,2.64-4.19l.53.13c.13-.63,2.88-2.4,3.97-4.72.03.05.07.15,0,.35,1.28-2.56,5.23-4.42,4.45-6.34l.8-1.73c-1.59,1.79-.39-.76-1.24-.18.5-.8,1.93-1.57,1.29-.61l-.18.09c.48.92,2.1-2.13,2.56-1.68,2.88-3.73,6.13-7.01,8.89-10.44l-.89-.05.99-1.18c.38-.21.78-.07.08.77.68-.2.87-1.66.76-1.78,1.56-1.5.15,1.19.57.68l.51-.74-.19.11c.21-.75,0-1,.85-2.01.63-.56.62-.06.84-.3.04.03.13-.04.33-.38l1.25-1.48-.93.25c.31-.85,1.15-1.41.08-1.12,1.6-.41,4.76-5.45,5.5-5.89.41-1.21,1.15-2.13,2.1-3.26-.32.21-.97-.02-.12-.96.77,1.19,1.89-1.46,3.29-1.67-1.07.32,2.11-2.93.51-2.36.74-.76.43.26,1.18-.18,1.15-2.3,3.7-4.15,5.49-6.71-.11-.15-.64.1-.43-.59l1.71-.75c.31-.54-.45-1.07.73-1.58-.21.03-.54.08-.32-.28,4.45-4.26,7.17-10.23,12.26-14.09-.79.45-.47-.01-.08-.52-.32.28-.34-.28-.57-.36l2.13-1.63c-.23-.78,1.69-2.21,1.36-2.82l-.42.72c.09-1.32-2.25.17-2.9-.55-.09,1.49-2.98,1.76-3.27,4.08-.43.23,0-.49-.33-.44,0,.65-.31,1.19-1.15,1.97v-.16c-1.9,2.57-3.07,3.4-5.5,6.06l.54.08c-.53.57-.74.6-1.06.81.02,1.14,1.37-1.68,1.5-.55-1.39.21-3.38,4.27-4.67,4.13-.74.93.65.07-.09.99l-.43.06.11.47c-.53.57-1.07.65-1.28.52.14-.13.28-.47.39-.64-.9.58-1.67,2.31-1.97,2.51l.85-.78c-1.79,2.72-4.54,5.59-6.01,8.42l.32-.05c-1.16,2.13-1.38,1.35-2.85,3.53l.02-.11c-.15.55-.5,1.17-.96,1.72.2-.68-1.17.66-.86-.2-1.26,2.31-.52,1.22-.93,3.08l-.54.08c-.1.67.01.81-.73,1.9.42-1.04-.96.31-.55-.9-2.34,1.66-1.89,3.72-3.6,3.97.02,1.63,1.92-1.52,1.66-.83.63-.26-.04,1.29-.66,1.91-.56.68-1.96.36-3.31,2.11.14-.17.09-.23.23-.4-.72.49-.73,1.49-1.69,2.03.14.83-.84,1.01-.32,1.63l1.11-1.71c-.55,1.03-.49,2.45-2.01,3.66-.03-.21.15-.79.3-1.16-.53.29-.54.93-1.08,1.24-.52-.62,1.39-2.04,1.68-3.38-.63.26-.99,2.19-1.28,1.17.31,1.37-1.46,1.63-1.73,3.32l-.31-.37c-.09.23-.22.76-.5,1.09v-1c-.33,1.28-1.8,1.55-2.3,2.64,1.5-1.92.79-.08,1.7-.67-1.36,2.75-2.04.59-3.95,3.37.23-.4,1.28-1.17,1.01-.47-.47.44-1.14.99-1.58,1.15-1.3,1.81.59.03.24.96-.92.24-.49,1-.95,1.89l-.38-.29c-1.81,1.8.37,1.15-1.34,2.71l.07-1.17-.6,1.04-.28-.53c-.48,1.27-.82,1.52-1.72,2.42.45-.02.58.67-.1,1.56-.7.42-.09-.62-1.03.67-.01-.47-.07-1.01.71-1.28-.08-.15-.02-.47-.09-.62-.77.44-1.34,1.58-1.7,2.04.15-.16.34-.36.47-.42l-.91,2.23c-.37.17-.3-.14-.24-.46-.25.4-.27.79-.67,1.36-.2-.38-.54-.6-.08-1.48l-1.02,2c-.22.01-1.07.6-1,.28-.94.82-1.26,2.82-2.5,3.9,0,.11-.04.29-.21.6-1.01,1.14-2.22,1.9-2.92,3.65l-1.19.37c-.75,1.21,1.55-.54.31,1.47-.85,1.45-.86.12-1.37.45-.23.87-.56,2.45-1.95,3.29.21-.48.54-.73.79-1.13Zm-10.53,13.86c.13-.33.3-1.05.68-1.07.2.64-.2.71-.68,1.07Zm-15.47,21.5c.03-.3.33-.55.75-.78-.17.27-.4.55-.75.78Zm-42.99,59.97s0-.03,0-.04c.61-.47.39-.31,0,.04Zm-1.13,1.1c-.04.16.01.2.11.19-.03-.16.18-.44.46-.73-.17,0-.36.11-.57.55Zm103.71-131.9l-.29.16c.32-.63.3-.4.29-.16Z"/>
    <path class="cls-1" d="m167.42,219.54c.12-.02.21.01.3.05.02-.15-.05-.21-.3-.05Z"/>
    <path class="cls-1" d="m198.58,178.28s.02-.03.04-.04c0-.04-.02-.07-.04-.1v.13Z"/>
    <path class="cls-1" d="m133.73,261.84c.25-.21.43-.3.58-.33-.08-.09-.25-.03-.58.33Z"/>
    <path class="cls-1" d="m117.48,290.39l.52-.86c-.28.39-.47.47-.68.61.1.05.35,0,.16.25Z"/>
    <path class="cls-1" d="m109.75,295.36c-.04.15-.19.25-.23.4l.2.11c.37-.5.5-.95.03-.51Z"/>
    <path class="cls-1" d="m115.64,290.13c-.37-.19-.65.39-1.02.99.02-.03.05-.07.08-.1.32.51.63-.19.95-.89Z"/>
    <path class="cls-1" d="m114.53,291.25c-.12.18-.25.36-.39.52.13.21.2-.18.39-.52Z"/>
    <path class="cls-1" d="m120.94,285.1c-.29.2.28.48.03.53.18.61.88-2.13-.03-.53Z"/>
    <polygon class="cls-1" points="114.24 289.74 114.79 289.86 114.72 289.3 114.24 289.74"/>
    <path class="cls-1" d="m117.96,285.62l-.8.79c.08.04.03.18-.05.34.44-.53.99-1.06.85-1.14Z"/>
    <path class="cls-1" d="m117.1,286.76c-.23.28-.43.55-.49.76.12-.16.36-.5.49-.76Z"/>
    <polygon class="cls-1" points="115.07 288.45 115.36 288.25 115.88 287.65 115.07 288.45"/>
    <path class="cls-1" d="m125.49,276.23l.64-1.05c-.06-.2-.35,0-.57.39-.09.3-.32.7-.07.66Z"/>
    <path class="cls-1" d="m122.12,278.28c.29-.2.39-.14.63-.19l-.46-.41-.17.6Z"/>
    <path class="cls-1" d="m124.21,275.39c-.06-.2.71-1.7-.22-.46.06.2-.59,1.25.22.46Z"/>
    <polygon class="cls-1" points="136.23 261.41 136.05 261.66 136.87 262.25 136.23 261.41"/>
    <path class="cls-1" d="m144.37,247.15c-1.09.99.28.66-.77,1.5-.02.42.86-.69.8-.28.34-.84.74-1.12-.04-1.21Z"/>
    <path class="cls-1" d="m144.41,248.36c-.06.13-.11.28-.15.45.11-.24.14-.36.15-.45Z"/>
    <polygon class="cls-1" points="261.28 107.13 262.02 106.53 261.38 106.79 261.28 107.13"/>
    <path class="cls-1" d="m261.79,105.26l.65.23-.11-.8c-.11.18-.32.54-.53.57Z"/>
    <path class="cls-1" d="m178.92,202.03l.08.15c.22,0,.37-.17.66-.5l-.74.35Z"/>
    <polygon class="cls-1" points="187.12 192.41 186.97 192.57 187.69 192.61 187.12 192.41"/>
    <path class="cls-1" d="m193.1,183.61c-.29.32-.5.81-.79,1.13.5-.81,1.44-.77.79-1.13Z"/>
  </g>
  <g>
    <path class="cls-1" d="m256.93,104.81c.06.05.08-.37.1-.45-.11.07-.11.55-.1.45Z"/>
    <polygon class="cls-1" points="255.75 105.57 255.8 105.4 255.57 105.79 255.75 105.57"/>
    <path class="cls-1" d="m254.76,105.39c-.05.71.39-.05.51.23v.16s.18-.55.18-.55c-.23.05-.58.38-.7.16Z"/>
    <path class="cls-1" d="m254.59,103.78c-.03.28-.16.2.09.12,0-.03,0-.05,0-.07-.02,0-.05-.01-.09-.04Z"/>
    <path class="cls-1" d="m254.68,103.82c.1,0,0-.25,0,0h0Z"/>
    <path class="cls-1" d="m254.19,103.84l.19-.2c.01-.17-.09-.24-.02-.34-.16.09-.18.26-.17.54Z"/>
    <path class="cls-1" d="m253.94,104.31l.09-.08c0-.07,0-.1-.09.08Z"/>
    <path class="cls-1" d="m254.23,104.06l-.2.17c-.01.12-.06.34.09-.06-.06.2.01.01.11-.12Z"/>
    <path class="cls-1" d="m254.28,104.19c.04.17.11.29-.08.5.28-.02.35-.52.08-.5Z"/>
    <path class="cls-1" d="m254.55,106.1l.06.22.14-.22c-.07.11-.17-.22-.21,0Z"/>
    <path class="cls-1" d="m253.5,103.26c-.05.14-.07.4-.11.59l.14-.14c-.02-.11-.09-.23-.03-.45Z"/>
    <path class="cls-1" d="m253.38,103.85l-.22.21c.12.07.18-.05.22-.21Z"/>
    <polygon class="cls-1" points="253.72 105.07 254.09 104.61 253.67 105.07 253.72 105.07"/>
    <polygon class="cls-1" points="252.97 103.09 253.16 102.78 252.86 103.24 252.97 103.09"/>
    <path class="cls-1" d="m252.6,103.05c.15-.26.08-.49.2-.64-.11.03-.27.23-.42.41.12-.09.19-.02.22.23Z"/>
    <path class="cls-1" d="m252.15,103.08c.06-.05.14-.15.23-.26-.06.05-.13.12-.23.26Z"/>
    <path class="cls-1" d="m252.94,103.92c.02-.09.07-.33.02-.45l-.07.42.05.02Z"/>
    <path class="cls-1" d="m252.89,103.91h0c-.06-.04-.1-.06-.11-.07.01,0,.05.03.11.07Z"/>
    <path class="cls-1" d="m252.96,103.92h-.01s0,.05.01,0Z"/>
    <path class="cls-1" d="m253.43,104.59c-.15.21-.41.4-.33.8.14-.26.1-.49.33-.8Z"/>
    <path class="cls-1" d="m252.87,104.45l.13.14c.03-.11.05-.27.12-.38l-.25.24Z"/>
    <polygon class="cls-1" points="252.75 104.56 252.87 104.45 252.82 104.4 252.75 104.56"/>
    <path class="cls-1" d="m252.27,103.56c-.12.15-.2.14-.29.13.06.11.13.19.22.22.06-.12.17-.34.07-.36Z"/>
    <path class="cls-1" d="m252.56,103.76l-.02.02s0,.05.02-.02Z"/>
    <path class="cls-1" d="m251.2,103.38s-.01.05-.02.08l.03-.07h-.01Z"/>
    <path class="cls-1" d="m252.19,103.99c.04.1.11,0,.19-.11-.06.03-.12.04-.18.03-.03.06-.04.09-.01.08Z"/>
    <path class="cls-1" d="m251.87,103.18c0,.1.01.18.03.26.01-.14.02-.36-.03-.26Z"/>
    <path class="cls-1" d="m252.55,103.67l.02-.02c0-.09,0-.05-.02.02Z"/>
    <path class="cls-1" d="m252.55,103.67c-.05.05-.11.14-.17.22.05-.02.1-.05.15-.1,0-.03,0-.08.01-.12Z"/>
    <path class="cls-1" d="m249.94,105.83c.16-.36.48-.63.48-.17.26-.21.62-1.47.76-2.2-.07.16-.12.31-.36.47-.03.22.16.61-.1.89-.28.11-.12-.2-.14-.43-.1.49-.53.56-.76,1.25l.28-.16c-.04.11-.17.25-.16.36Z"/>
    <path class="cls-1" d="m251.45,103.6l.08-.02c-.05-.09-.04-.26-.02-.59-.17.14-.24.27-.3.39l.28.17-.04.05Z"/>
    <path class="cls-1" d="m251.8,103.69c-.19.39-.41.5-.47.97.2.05.25-.29.42-.42-.33-.02.16-.19.04-.51.08-.05.14-.05.19-.04-.03-.07-.06-.15-.08-.24v.03s0,0,0,0h0c0,.06-.01.09-.02.06,0,0,0,0,0,0-.02.05-.05.1-.07.15-.05-.12.02-.11.07-.15l.03-.06h0s-.37.1-.37.1c.04.08.12.1.27.11Z"/>
    <path class="cls-1" d="m252.68,106.23s0-.07.02-.1c-.04.04-.05.08-.02.1Z"/>
    <path class="cls-1" d="m252.62,105.94c.04-.05.11-.21.17-.15.03.14-.06.2-.09.34.08-.1.24-.25.16-.49l-.04.05c-.09-.18-.09-.74-.05-.79-.08.38-.12.66-.15,1.04Z"/>
    <path class="cls-1" d="m252.13,104.93l-.33.13v.39s.08-.21.08-.21c.12.13.18-.15.25-.3Z"/>
    <polygon class="cls-1" points="251.25 103.16 251.45 102.75 251.07 103.3 251.25 103.16"/>
    <polygon class="cls-1" points="250.92 103.09 251.08 102.73 250.91 102.92 250.92 103.09"/>
    <path class="cls-1" d="m232.25,93.99h-.14c.05,0,.1,0,.14,0Z"/>
    <path class="cls-1" d="m232.6,94.51l.17-.1c-.1.04-.17.08-.17.1Z"/>
    <path class="cls-1" d="m243.75,98.97c.13-.36.39-.88.13-.53l-.24.36c.11-.01.13.06.11.16Z"/>
    <path class="cls-1" d="m237.6,96.9l-.07.12c.13-.08.25-.16.36-.23-.09.04-.19.07-.29.11Z"/>
    <path class="cls-1" d="m236.23,98.07l.09-.31c-.05.09-.08.19-.09.31Z"/>
    <path class="cls-1" d="m229.93,91.37l-.43.14c.09.14.24-.04.43-.14Z"/>
    <path class="cls-1" d="m247.74,101.77c0-.19-.04-.28-.08-.34-.02.27-.12.64.08.34Z"/>
    <path class="cls-1" d="m236.1,91.46c-.09,0-.18.04-.25.1.09,0,.17-.03.25-.1Z"/>
    <path class="cls-1" d="m247.42,101.28s0,.07,0,.12c.1-.03.18-.04.24.03.02-.21,0-.36-.24-.15Z"/>
    <path class="cls-1" d="m225.23,79.7s.02-.03.04-.04c-.06.01-.06.03-.04.04Z"/>
    <path class="cls-1" d="m228.74,75.36s.04.08.06.13c.02-.03.01-.07-.06-.13Z"/>
    <path class="cls-1" d="m249.76,102.4c.07,0,.03-.04,0,0h0Z"/>
    <path class="cls-1" d="m249.36,104.12s-.07.09-.11.18c.05-.09.09-.15.11-.18Z"/>
    <path class="cls-1" d="m245.41,103.21h0c-.02.08-.02.06,0,0Z"/>
    <path class="cls-1" d="m249.77,102.63c0-.06-.01-.11-.03-.16,0,.04,0,.09.03.16Z"/>
    <path class="cls-1" d="m249.85,102.44s.03.05.04.07c.04-.06.05-.11-.04-.07Z"/>
    <path class="cls-1" d="m249.66,102.38s.06.05.08.09c0-.03,0-.06.01-.07-.02,0-.05,0-.1-.02Z"/>
    <path class="cls-1" d="m228.57,85.56s.02-.02.03-.03c-.2,0-.16.02-.03.03Z"/>
    <path class="cls-1" d="m239.36,101.2s.02,0,.02,0v-.02s-.02.03-.02.03Z"/>
    <path class="cls-1" d="m238.92,101.25c.45-.33.46-.23.46-.08l.74-1.01-1.2,1.09Z"/>
    <path class="cls-1" d="m231.26,92.83l-.21.39c-.67.15-.58-.13-.93.34,1.13-.73.58.6,1.71-.16l-.15.27s-.08,0-.09-.04c-.37.59.92-.41.96-.03-.01.16-.12.34-.3.37h.43c.02.09-.18.22-.2.14l.33.26-.03.02c.21-.08.54-.18.69-.21-.1.2-.15.05-.26.17l.39-.02c-.23.29-.61.35-.66.19-.95.99.38-.06.02.78l-.26-.07c-.53.58-.21.55-.44,1.04.16-.21.66-1.14,1.08-1.15-.04.12-.02.22.27.16-.38.3-.21.33-.09.44l-.51.39c.26.02.5-.2.79-.3.08.19-.28.53-.57.83.12.3.47-.67.81-.47-.02.35.3.32.79.3-.05.28-.32.23-.41.4l.49-.21s-.11.13-.17.18c.24-.03.49-.41.76-.37.56-.42-.49,1.01.27.67-.09.17-.31.24-.48.42.62-.08.48-.02,1.19-.29l-.13.46c.22-.46.8-.68,1.28-.86.12-.2.24-.38.28-.47l.47-.02c-.05.1-.23.23-.46.38.05-.02.1-.05.15-.07-.09.24-.4.46-.72.65.07-.11.14-.23.21-.35-.34.21-.7.46-.96.72.07-.04.14-.05.2-.04-.09.06-.17.11-.21.16-.04.05.09-.02.24-.09l-.46.54.22-.18-.02.61c.73-.28,1.66-.84,2.19-.73-.45.29-.62.59-1.05,1.03.37-.56-.46-.07-.54-.34.04.14-.19.33-.28.38l.74-.11c-.36.35-.2.34-.26.57.64-.78.7-.24,1.04-.34-.22.25-.49.47-.59.25-.35.72,1.03-.63.76,0-.04-.03-.03-.09-.16.02.29-.12.36.24.11.41l-.05-.03c.19.32.82.73,1.42.12-.07.09-.71.74-.84.85.79-.57,1.57-1.16,2.34-1.75-.52.52-1.48,1.99-1.97,2.1,0,.14,0,.3.3.22.02-.12.57-.9.68-.9-.36.76-.17.43-.41,1.14.03-.18.84-1,.92-.88-.12.12-.71.88-.82.94l.97-.65c-.19.1-.61.73-.75,1.03.11-.19.22.2.37.17l.04-.29c.21.37,1.28-1.02,1.54-.75-.18.16-.96,1.07-.89,1.3.43-.4,1.98-1.98,2.49-2.15l-.15.3.41-.16c-.62.62-2.05,1.83-2.69,2.24-.04.3-.2.33,0,.44-.12.29-.38.3-.44.28l.3.47c.38-.56.72-.31,1.02-.78l-.86.23c.38-.55,1.38-1.35,1.59-1.05-.08.27-.75.94-.87,1.12.17-.16.53-.16.46,0l-.33.2c.02.33.77-.54.6.14.05.08-.27.85-.04.53.31-.71,1.62-2.69,2.01-3.12,0,.06-.06.82-.19,1.19-.22.57-.95,1.09-1.14,1.59.1-.15.29-.3.36-.35-.01.18-.34.46-.13.49.4-.56.3.25.39-.44.26-.07.09.22.29.31.18-.41.96-1.17,1.2-1.25-.1.14-.18.36-.22.45.28.24.29.62.58.8-.06.16-.01.42-.22.64.1-.08.25-.25.36-.22-.1.61-.26-.03-.46.66.21-.34.52-.35.77-.5.25-.56-.26-.26-.51-.12.41-.73,1.08-1.38,1.57-1.57.34-.06-.15.53-.05.45.4.37,1.07-1.11,1.16-.38-.09.56-.47.96-.61,1.33-.3.08-.16-.46-.3-.51l.05.31c-.15.13-.34.18-.35,0-.09.5.75.49.93,1.08.14-.13.33-.24.37-.47h-.15c.08-.44.47-.42.41-.68.28-.2.64-.55.76-.24l-.21.58c.07-.17,0-.39-.13-.24.2-.21,0,.89.42.2l.02-.45c.28-.22.72-.75.83-.5.15-.59-.07.05.07-.66-.23.86-.45-.22-.64.7.19-.81-.1-.41.02-1.12-.08.19-.1.38-.21.22-.03.05-.08.11-.11.15v-.02s0,.03,0,.03c-.02.02-.02.03,0,0,0,.1-.02.21-.05.32-.27.38-.5.25-.69.42-.05-.13.14-.19.18-.41l-.28.26c.18-.41.09-.79.41-.92l-.18-.11c0-.28-.1-.45-.28-.33-.04-.13-.45.33-.21.06l-.42.1.05-.1c-.25-.2-.98.37-.89-.55-.15.04-.32.1-.41-.11l.17-.35c-.19.04-.15-.55-.42-.24.42-.97-.45-.55-.56-.84l-.29.42c-.13-.11-.35-.08-.64-.03l-.24.38c-.36.19-.21-.55-.47-.69.12-.13.15-.05.13.07.31-1.03-1.03.15-.85-.63-.16.08-.18,0-.15-.12,0,0,.02,0,.03,0,0,0-.01-.02-.02-.02.02-.08.04-.17.06-.25-.04.11-.07.2-.07.25-.05-.03-.16-.04-.31,0l.26-.4s-.01,0-.03,0c.04-.19-.2.14-.38.45-.09.03-.18.08-.28.16.42-.65-.36.06.08-.65-.3.28-.54-.07-1.12.56.07-.09.08-.15.12-.12-.02-.14-.03-.29-.26-.16l.36-.5-.7.48c.14-.38.24-.58.64-.85-.72.33-.38.03-1.06.39l.27-.29c-.09-.05-.56.24-.39-.05.33-.7-.78-.81-.68-1.74-.74.91.18-.56-.47.07.17-.22.22-.39.46-.49-.4-.01,0-.61-.68-.22.18-.22.33-.24.43-.37-.06.03-.24.1-.14-.03.1-.14.2-.13.31-.18-.24-.17-.87.39-1.46.93.16-.37.07-.39-.39-.11.15-.22.29-.47.49-.4-.05-.1-.17-.72-.64-.3.1-.13-.06-.14-.13-.12-.13-.21-.1-.26-.29-.4l-.04.12c-.64.44-.26-.03-.45-.12l.06-.05c.14-.69-.33.03-.12-.7l-.35.33c-.82.63.22-.68-.24-.61l-.15.24c-.36.12.84-1.17.86-1.35.05-.08.14-.06.22-.07.25-.64-.52.36-.8.25.24-.25.71-.49.66-.66.17-.23-1.17.27-.79-.32-.18.2-.35.4-.58.42-.19-.1.49-.99-.27-.64.04-.06.09-.11.15-.15-.26.01-.56-.16-.98.03,1.27-1.06-1.2-.26.08-1.13l-.3-.32.14-.08c-.06-.29-.42-.17-.78-.06.05-.11.2-.15.27-.19.04-.51-.03-.51-.87-.4l.4-.29c-.3.07.35-.9-.36-.94.05-.03.14-.07.22-.08-.73-.11.69-1.61-.97-.88l-.53-.05c.06.41-.72.32-.9.61-.17-.09.29-.61.46-.49l-.07.07c.86-.38.06-.59.63-.87-.43-.64-.25-1.55-.5-2.2l-.63.38-.06-.24c.13-.13.49-.31.53-.14.34-.25-.44-.13-.59-.07.13-.44.84-.22.81-.33l-.11-.11-.06.06c-.32.02-.62.13-.67-.08.08-.18.39-.24.39-.3.05-.02.06-.05-.01-.08l-.07-.31-.48.34c-.32-.02-.09-.28-.64.1.82-.57-.08-1.23.16-1.47-.46-.03-.52-.22-.55-.46-.09.1-.69.35-.69.13,1.29-.38.42-.55,1.27-1.02-.55.34-.35-.49-1.13,0,.04-.2.47-.17.73-.39-.64-.22.08-.95-.23-1.37-.17.04-.41.2-.69.16l.78-.49c-.11-.07-1,.18-.46-.15-.14.06-.34.16-.41.11.29-.59-.04-1.01-.21-1.49-.17-.47-.26-.99.44-1.61-.31.19-.36.11-.39.01-.07.08-.43.08-.66.13l.57-.52c-.67.03-.13-.43-.76-.37l.14.11c-.77-.06-1.59.51-2.54.64.88.06-1.13.77.13.9-.18.11-.32,0-.53.07.42.01.52.1.38.33h-.1c.21.53-.16.85-.28,1.53l.45-.15c-.03.15-.16.21-.26.3.74-.02-.06-.38.75-.42-.89.4.24.91-.79,1.31.05.2.51-.2.56,0l-.27.13.38-.05c-.02.15-.36.31-.6.38.02-.04-.09-.07-.12-.1-.29.27.25.46.16.55l.12-.25c.43.47.21,1.28.99,1.61l.2-.11c.53.26-.12.39.22.76h-.06c.24.01.39.09.41.22-.29-.02-.4.38-.73.33.57.28.41.1,1.29.08l-.32.19c.35-.02.52-.08.68.1-.36-.06-.48.34-.94.29-.58.75,1,.37-.01,1.02,1.03-.19.37-.6.62-.57.28-.22.77-.12.74.05.04.14-1.11.74-.93,1.09-.01-.04-.08,0-.1-.05-.18.24.44.12.13.45.61-.16.06.23.8-.07l-.31-.25c.27.1,1.19-.11.92.37-.16.04-.39.04-.52.03-.17.18.22.1.04.29-.73.3-.33-.32-.97-.27-.26.23.69.14-.14.39,1.06-.31.03.41.9.3l-.44.18c.08,0,.32,0,.34.07l-.61.13c.56-.03-.24.58.1.64-.19-.39.47-.34.71-.65.8.2-1.01.83-.52,1.26-.1-.04.11-.4.37-.38-.03.14-.12.36-.31.53.28.31.41-.28.75-.26-.45.38.3.06.55.13l-.43.22c-.06.54.95-.36.8.16l-.67.17.25.1-.5.22c.47.01.41.12.38.39.27-.21.78-.4.89-.23-.19.26-.44.16-.24.37-.29.09-.66.22-.33-.11-.14.07-.29.09-.44.16-.22.29.11.36.16.45,0-.04,0-.1.05-.15l.78.03c-.13.15-.28.17-.42.2.08.05.3-.01.4.07-.35.17-.7.38-.94.32l.56.13c-.13.11-.29.41-.45.44-.08.31.94.06.83.46.07-.03.15-.04.23-.02.07.27-.21.74.42.72l-.49.54c.27.13.61-.69,1.06-.48.34.12-.44.42-.55.62.38-.07,1.11-.26.78.29-.16,0-.11-.12-.2-.16Zm2.07,2.31c-.11.01-.43.11-.23-.1.48-.28.3-.08.23.1Zm3.91,2.71c-.15.08-.14-.02-.06-.2.07.01.1.07.06.2Zm11.66,4.55l-.02.02c-.02-.22-.02-.14.02-.02Zm.12.3c.05-.05.08-.11.1-.18-.07.1-.12.08-.16.03-.04.12-.05.21.06.15Zm-17.81-19.19l-.1.09c-.17-.05-.04-.07.1-.09Z"/>
    <path class="cls-1" d="m236.39,97.93c.05-.07.11-.13.17-.2-.08.04-.14.1-.17.2Z"/>
    <polygon class="cls-1" points="230.01 91.34 230.01 91.33 229.93 91.37 230.01 91.34"/>
    <path class="cls-1" d="m243.48,104.25c-.01-.09.01-.18.04-.27-.07.1-.1.19-.04.27Z"/>
    <path class="cls-1" d="m250.51,102.49l-.19.06c.08,0,.06.11.06.2.04-.1.08-.26.13-.25Z"/>
    <path class="cls-1" d="m250.69,105.77s.05.01.09-.03l.07-.21c-.1-.02-.23.12-.17.25Z"/>
    <path class="cls-1" d="m250.02,104.02c-.15.38,0,.29.14.26,0,0-.01,0-.02,0,.25-.51.07-.38-.12-.25Z"/>
    <path class="cls-1" d="m250.18,104.28s.08,0,.1.03c.1-.21-.02-.06-.1-.03Z"/>
    <path class="cls-1" d="m249.41,102.6c0,.12.25-.45.21-.29.27-.44-.57.41-.21.29Z"/>
    <polygon class="cls-1" points="249.58 105.29 249.74 104.81 249.52 105.16 249.58 105.29"/>
    <path class="cls-1" d="m248.88,104.59l.11.21c.03-.08.07-.11.12-.14-.1-.06-.17-.21-.23-.07Z"/>
    <path class="cls-1" d="m249.1,104.67c.05.03.11.04.17-.02-.03,0-.1-.02-.17.02Z"/>
    <polygon class="cls-1" points="249.28 105.33 249.27 105.21 249.16 105.13 249.28 105.33"/>
    <path class="cls-1" d="m247.14,103.6l-.25.03c-.1.14-.1.26,0,.23.1-.08.2-.11.25-.27Z"/>
    <path class="cls-1" d="m247.06,105.1c0-.12.04-.22.09-.38l-.29.55.2-.17Z"/>
    <path class="cls-1" d="m246.44,104.95c-.1.14-.51.29-.25.38.1-.14.36-.17.25-.38Z"/>
    <polygon class="cls-1" points="244.14 102.65 244.19 102.68 244.75 101.82 244.14 102.65"/>
    <path class="cls-1" d="m240.42,102.97c.06.35.43-.46.44-.08.19-.16,0-.31.18-.44-.28.11-.26-.05-.61.52Z"/>
    <path class="cls-1" d="m241.03,102.45s.1-.04.16-.08c-.07.02-.12.05-.16.08Z"/>
    <polygon class="cls-1" points="229.18 74.74 229.36 74.56 229.04 74.71 229.18 74.74"/>
    <path class="cls-1" d="m228.38,74.57l.64-.13h-.6s.1.08-.04.13Z"/>
    <path class="cls-1" d="m232.58,96.32l.13-.09c.12-.13.1-.17.08-.25l-.21.33Z"/>
    <polygon class="cls-1" points="231.61 94.19 231.62 94.23 232.05 93.83 231.61 94.19"/>
    <path class="cls-1" d="m229.9,93.04c.02.08.18.09.2.17-.18-.09.4-.59-.2-.17Z"/>
  </g>
  <g>
    <path class="cls-1" d="m267.59,46.65c.08,0-.15-.36-.17-.43-.06.14.23.52.17.43Z"/>
    <polygon class="cls-1" points="267.02 48.06 266.96 47.9 267.01 48.35 267.02 48.06"/>
    <path class="cls-1" d="m266.06,48.59c.44.57.29-.3.59-.17l.11.13-.2-.54c-.16.2-.25.68-.49.59Z"/>
    <path class="cls-1" d="m264.79,47.53c.17.22,0,.27.16,0-.03-.02-.04-.03-.06-.05-.02.02-.05.03-.11.04Z"/>
    <path class="cls-1" d="m264.9,47.49c.09-.07-.18-.17,0,0h0Z"/>
    <path class="cls-1" d="m264.51,47.89v-.29c-.1-.13-.23-.09-.25-.22-.07.19.04.32.25.51Z"/>
    <path class="cls-1" d="m264.64,48.41l.02-.13c-.05-.05-.08-.06-.02.13Z"/>
    <path class="cls-1" d="m264.69,48.01l-.04.28c.08.09.19.29.03-.11.09.19.02,0,.01-.17Z"/>
    <path class="cls-1" d="m264.83,48.06c.15.09.29.12.28.42.21-.23-.07-.65-.28-.42Z"/>
    <path class="cls-1" d="m266.37,49.26l.2.13-.03-.26c.01.13-.29-.06-.17.13Z"/>
    <path class="cls-1" d="m263.5,48.03c.07.14.24.33.35.49v-.21c-.09-.06-.23-.09-.35-.29Z"/>
    <path class="cls-1" d="m263.84,48.52l-.02.31c.15-.05.11-.17.02-.31Z"/>
    <polygon class="cls-1" points="265 49.12 264.97 48.51 264.95 49.15 265 49.12"/>
    <polygon class="cls-1" points="262.92 48.33 262.84 47.98 262.95 48.52 262.92 48.33"/>
    <path class="cls-1" d="m262.58,48.59c-.08-.29-.33-.38-.35-.58-.08.1-.04.37,0,.61.02-.16.13-.18.36-.03Z"/>
    <path class="cls-1" d="m262.25,48.98c0-.08-.01-.22-.03-.36-.01.08,0,.19.03.36Z"/>
    <path class="cls-1" d="m263.53,48.91c-.06-.07-.2-.27-.33-.31l.27.34s.04-.02.06-.03Z"/>
    <path class="cls-1" d="m263.48,48.95h0c-.07.02-.12.03-.14.04.02,0,.06-.02.15-.04Z"/>
    <path class="cls-1" d="m263.55,48.9s-.01,0-.02,0c.03.03.04.04.02,0Z"/>
    <path class="cls-1" d="m264.42,49c.03.26-.03.58.33.8-.08-.29-.28-.42-.33-.8Z"/>
    <path class="cls-1" d="m263.88,49.33h.2c-.06-.1-.17-.23-.18-.35l-.02.35Z"/>
    <polygon class="cls-1" points="263.87 49.49 263.88 49.33 263.81 49.33 263.87 49.49"/>
    <path class="cls-1" d="m262.72,49.18c.02.2-.04.26-.11.33.13.02.25.01.33-.04-.05-.12-.13-.36-.22-.29Z"/>
    <path class="cls-1" d="m263.11,49.1s0,.02,0,.03c.03.03.04.03,0-.03Z"/>
    <path class="cls-1" d="m261.78,49.97s.03.04.05.06c-.01-.02-.02-.04-.03-.07h-.02Z"/>
    <path class="cls-1" d="m262.99,49.53c.11.03.1-.08.07-.22-.03.07-.07.12-.12.15.02.06.04.09.05.06Z"/>
    <path class="cls-1" d="m262.12,49.29c.08.06.16.1.23.14-.1-.1-.27-.24-.23-.14Z"/>
    <path class="cls-1" d="m263.02,49.04s0-.02,0-.02c-.07-.07-.04-.03,0,.02Z"/>
    <path class="cls-1" d="m263.02,49.04c0,.07.02.18.04.28.02-.05.04-.11.04-.19-.02-.02-.05-.06-.08-.09Z"/>
    <path class="cls-1" d="m262.87,52.5c-.18-.35-.18-.77.18-.49,0-.34-.73-1.43-1.21-1.99.08.15.16.29.12.58.16.16.59.25.63.64-.11.29-.24-.03-.44-.16.33.38.09.77.49,1.38l.06-.32c.06.1.08.29.18.35Z"/>
    <path class="cls-1" d="m262.14,49.9l.04-.08c-.11-.02-.24-.13-.48-.35-.01.23.04.37.09.49l.34-.13v.06Z"/>
    <path class="cls-1" d="m262.47,49.66c.16.4.1.65.42,1,.17-.13-.04-.39-.02-.61-.25.26-.03-.26-.37-.35.02-.1.07-.15.11-.19-.08-.02-.16-.04-.25-.08,0,0,.01.01.02.02h0s0,0,0,0c.04.04.06.07.03.05,0,0,0,0,0,.01.03.05.05.1.07.15-.13-.03-.07-.09-.07-.15,0-.02-.02-.04-.03-.06,0,0,0,0,0,0l-.19.38c.09.02.17-.04.29-.16Z"/>
    <path class="cls-1" d="m265.04,50.7s-.04-.06-.06-.08c0,.06.02.09.06.08Z"/>
    <path class="cls-1" d="m264.79,50.54c0-.06-.07-.23.02-.23.12.08.1.18.17.3-.01-.12,0-.35-.24-.46v.06c-.19-.06-.61-.44-.61-.51.22.32.39.54.66.83Z"/>
    <path class="cls-1" d="m263.67,50.2l-.15.33.31.25-.12-.19c.19,0,.02-.23-.05-.39Z"/>
    <polygon class="cls-1" points="261.64 49.8 261.46 49.38 261.62 50.02 261.64 49.8"/>
    <polygon class="cls-1" points="261.34 50.03 261.16 49.68 261.19 49.93 261.34 50.03"/>
    <path class="cls-1" d="m245.28,64.63l-.02.14s.02-.1.02-.14Z"/>
    <path class="cls-1" d="m245.83,64.35l-.08-.18c.03.11.06.18.08.18Z"/>
    <path class="cls-1" d="m253.33,54.56c-.29-.26-.69-.7-.46-.31l.24.36c.04-.11.12-.1.21-.05Z"/>
    <path class="cls-1" d="m249.09,59.89s.06.06.1.1c-.05-.14-.09-.28-.13-.4.01.1.02.2.03.31Z"/>
    <path class="cls-1" d="m249.89,61.5l-.28-.16c.08.07.17.12.28.16Z"/>
    <path class="cls-1" d="m242.58,66.66l.13.43c.13-.08-.03-.24-.13-.43Z"/>
    <path class="cls-1" d="m258.07,52.04c-.18-.1-.28-.12-.36-.1.23.15.51.43.36.1Z"/>
    <path class="cls-1" d="m243.25,60.49c0,.09.02.18.07.27.01-.09,0-.18-.07-.27Z"/>
    <path class="cls-1" d="m257.44,52.09s.06.04.1.06c.03-.1.07-.19.17-.21-.17-.12-.32-.16-.27.15Z"/>
    <path class="cls-1" d="m231.8,72.28s-.03-.02-.05-.03c.03.05.04.05.05.03Z"/>
    <path class="cls-1" d="m226.57,70.18s.07-.07.11-.1c-.04-.01-.07.01-.11.1Z"/>
    <path class="cls-1" d="m259.94,50.6c.06-.06-.01-.05,0,0h0Z"/>
    <path class="cls-1" d="m261.11,51.91c0,.05.03.11.08.2-.05-.09-.07-.16-.08-.2Z"/>
    <path class="cls-1" d="m258.07,54.83s0,0,0,0c.06.06.05.05,0,0Z"/>
    <path class="cls-1" d="m260.14,50.71c-.05-.03-.1-.05-.15-.06.03.02.08.04.15.06Z"/>
    <path class="cls-1" d="m260.02,50.54s.06,0,.08,0c-.03-.07-.06-.1-.08,0Z"/>
    <path class="cls-1" d="m259.85,50.67s.08-.03.13-.02c-.03-.02-.05-.04-.05-.05-.02.02-.04.04-.09.07Z"/>
    <path class="cls-1" d="m236.92,68.09s-.02-.01-.03-.03c.02.2.03.15.03.03Z"/>
    <path class="cls-1" d="m253.72,59.5s0-.02,0-.02c0,0-.01,0-.02,0l.02.03Z"/>
    <path class="cls-1" d="m253.63,59.92c-.16-.53-.06-.51.07-.45l-.69-1.05.62,1.5Z"/>
    <path class="cls-1" d="m244.06,65.45l.36.24c.1.68-.16.57.27.96-.64-1.2.61-.5-.03-1.7l.25.18s0,.08-.05.09c.54.44-.31-.95.07-.94.15.03.32.17.33.35l.06-.42c.08-.01.18.2.1.22l.29-.29.02.04c-.06-.21-.11-.56-.12-.72.18.12.03.15.13.29l.03-.39c.25.26.26.65.1.68.84,1.08,0-.39.76.09l-.09.25c.49.61.49.29.93.59-.17-.19-1-.83-.95-1.24.11.06.21.06.19-.24.24.42.29.26.41.16l.3.56c.06-.24-.11-.52-.17-.82.19-.04.47.38.71.72.31-.06-.57-.59-.32-.87.34.09.36-.22.44-.7.26.11.16.36.31.49l-.11-.52s.1.14.14.21c.02-.24-.3-.56-.21-.81-.3-.64.87.69.7-.13.14.13.17.36.3.56.05-.63.07-.48-.02-1.23l.42.25c-.39-.33-.47-.94-.52-1.44-.17-.17-.31-.32-.39-.39l.11-.46c.08.07.16.28.25.54,0-.06-.01-.11-.02-.16.22.15.34.5.45.85-.1-.09-.19-.19-.29-.29.12.38.27.79.46,1.11-.02-.07-.01-.15,0-.2.03.1.07.19.11.24.04.05,0-.09-.03-.25l.41.59-.12-.26.58.19c-.09-.77-.38-1.82-.11-2.31.15.51.39.76.69,1.3-.43-.51-.18.42-.46.43.15,0,.27.27.29.38l.09-.73c.24.45.27.29.47.41-.56-.83-.04-.74-.03-1.1.17.29.3.61.07.64.58.54-.3-1.18.22-.73-.04.03-.09,0-.03.16-.04-.32.34-.26.42.03l-.04.03c.37-.07.94-.52.57-1.29.06.09.46.92.52,1.08l-.85-2.81c.31.66,1.34,2.08,1.29,2.58.12.05.27.11.3-.21-.1-.06-.64-.85-.6-.95.58.61.34.31.91.78-.15-.09-.63-1.14-.49-1.18.07.16.56.98.58,1.11l-.25-1.15c.03.22.45.84.67,1.08-.14-.18.26-.12.29-.27l-.25-.16c.42-.04-.44-1.56-.08-1.7.07.23.6,1.3.84,1.33-.2-.55-1.01-2.61-.93-3.16l.22.26.04-.45c.28.83.78,2.65.91,3.38.25.16.22.32.4.19.22.23.13.47.08.51l.53-.07c-.35-.58,0-.77-.29-1.25l-.13.87c-.35-.57-.66-1.82-.29-1.89.21.19.53,1.08.64,1.27-.07-.22.08-.55.19-.42l.04.39c.29.12-.16-.93.36-.49.09,0,.63.64.45.28-.49-.6-1.67-2.66-1.87-3.21.05.03.73.43,1,.72.41.46.52,1.35.88,1.74-.09-.16-.13-.4-.14-.48.15.1.25.51.37.35-.31-.61.36-.13-.2-.55.06-.26.24.03.41-.1-.27-.35-.56-1.4-.5-1.66.08.16.22.33.29.41.36-.13.68.04.99-.12.11.13.35.22.43.51-.02-.13-.09-.35,0-.42.47.41-.16.2.32.74-.18-.35-.02-.61-.01-.9-.34-.51-.37.07-.38.36-.41-.74-.61-1.64-.48-2.16.15-.32.38.42.36.29.55-.14-.32-1.51.37-1.2.42.38.53.93.75,1.25-.11.29-.48-.12-.61-.03l.3.13c.02.19-.05.39-.2.29.37.35.84-.37,1.43-.18-.02-.19,0-.42-.16-.58l-.08.13c-.32-.32-.07-.64-.32-.74,0-.35-.05-.87.28-.78l.34.51c-.09-.15-.32-.24-.29-.04-.04-.29.74.54.45-.22l-.36-.29c0-.36-.12-1.03.17-.97-.38-.48-.01.09-.49-.46.55.7-.51.24.13.95-.54-.64-.41-.17-.94-.68.1.17.25.3.04.3.02.06.04.13.05.18,0,0-.01,0-.02,0,0,0,.01.01.02.02,0,.03.01.04,0,0,.08.06.17.13.23.22.15.45-.12.58-.09.84-.14-.03-.07-.22-.23-.38l.04.39c-.23-.39-.62-.51-.52-.86l-.21.1c-.24-.15-.46-.15-.47.07-.14-.03,0,.57-.09.22l-.18.42-.06-.1c-.34.13-.29,1.01-1.04.51-.05.16-.09.34-.33.33l-.22-.32c-.07.19-.6-.11-.46.28-.66-.83-.77.17-1.11.14l.24.45c-.18.07-.27.28-.37.57l.23.38c0,.42-.61-.02-.87.17-.06-.16.03-.16.13-.1-.83-.7-.35,1.04-1.01.56,0,.18-.08.17-.19.1,0,0,0-.02,0-.03-.01,0-.02,0-.03.01-.07-.05-.15-.11-.22-.15.08.08.16.14.21.16-.05.04-.11.14-.15.29l-.27-.4s-.01.01-.01.02c-.17-.11.04.24.26.53,0,.09,0,.2.03.32-.45-.64-.1.36-.6-.32.14.39-.29.51.08,1.28-.06-.1-.11-.13-.06-.16-.14-.03-.29-.06-.26.2l-.34-.51.19.84c-.31-.25-.47-.41-.57-.9.05.8-.12.38-.03,1.15l-.18-.35c-.09.07.02.61-.19.36-.58-.54-1.08.49-1.96.18.67.96-.5-.32-.08.48-.17-.22-.32-.32-.35-.57-.14.39-.62-.15-.44.62-.17-.22-.14-.39-.25-.51,0,.06.03.26-.08.13-.11-.13-.07-.22-.09-.35-.26.2.13.95.5,1.66-.33-.25-.37-.16-.22.35-.18-.2-.39-.39-.26-.57-.12.02-.78,0-.48.56-.11-.12-.16.03-.15.11-.24.09-.29.05-.47.22l.11.06c.29.72-.1.25-.22.43l-.03-.07c-.67-.26-.04.33-.74,0l.26.41c.47.92-.64-.34-.68.14l.22.19c.05.38-1.03-1.03-1.22-1.07-.07-.06-.03-.15-.02-.23-.62-.35.26.57.09.84-.21-.27-.36-.78-.56-.75-.22-.19.06,1.23-.48.78.18.2.35.4.34.64-.13.18-.95-.6-.71.21-.06-.05-.1-.1-.13-.16-.03.26-.26.55-.12.98-.93-1.38-.43,1.16-1.17-.17l-.37.3-.07-.14c-.31.06-.22.43-.14.8-.11-.06-.14-.21-.17-.28-.53-.06-.54.02-.49.87l-.28-.41c.05.3-.93-.37-1.02.34-.02-.05-.06-.14-.07-.22-.14.74-1.68-.64-.95,1.02l-.06.54c.43-.08.33.71.62.89-.09.17-.63-.27-.5-.45l.07.06c-.4-.86-.61-.04-.91-.61-.68.44-1.63.37-2.31.7l.43.6-.25.09c-.14-.11-.36-.45-.18-.52-.29-.31-.11.46-.03.6-.47-.08-.29-.82-.4-.78l-.11.12.07.06c.04.32.18.6-.03.68-.2-.06-.28-.36-.35-.36-.02-.05-.05-.06-.09.02l-.32.11.4.44c0,.32-.29.13.17.62-.69-.77-1.26.29-1.54.08.02.47-.16.56-.4.64.11.07.46.62.23.66-.58-1.21-.63-.31-1.26-1.07.45.48-.46.44.19,1.11-.21,0-.25-.43-.53-.64-.13.66-1,.17-1.38.59.08.16.29.35.32.63l-.68-.63c-.05.13.41.93-.06.5.1.12.24.29.21.37-1.33-.24-1.53,1.66-3.25.77.29.23.22.3.13.37.1.04.21.38.34.58l-.71-.36c.25.62-.4.27-.13.85l.07-.17c.2.74,1.04,1.32,1.48,2.17-.23-.84,1.1.83.81-.4.16.13.09.3.24.48-.12-.4-.07-.53.19-.46l.03.1c.43-.36.83-.12,1.51-.18l-.27-.39c.15,0,.24.11.36.18-.22-.7-.35.15-.61-.61.62.76.82-.44,1.46.45.18-.09-.32-.45-.14-.54l.19.23-.14-.36c.15-.01.39.28.51.5-.04-.01-.05.11-.07.14.32.22.37-.34.48-.27l-.26-.06c.35-.51,1.14-.51,1.31-1.3l-.14-.18c.16-.56.41.05.71-.33v.05c-.02-.24.03-.4.15-.43.03.28.44.34.45.67.17-.61.02-.41-.12-1.28l.24.29c-.08-.34-.15-.5,0-.69,0,.37.4.42.43.89.81.48.21-1.06.98-.13-.31-1-.64-.3-.64-.55-.25-.24-.22-.76-.04-.74.14-.05.86,1.02,1.19.82-.04.01,0,.08-.03.1.25.16.07-.45.43-.16-.22-.59.22-.08-.15-.78l-.22.33c.07-.28-.22-1.18.29-.94.06.15.07.38.07.52.2.16.08-.22.29-.06.36.71-.29.36-.18.99.25.24.07-.7.4.1-.4-1.03.39-.06.21-.92l.22.42c0-.09-.04-.32.03-.35l.18.6c-.07-.56.57.2.61-.14-.36.22-.36-.45-.68-.67.14-.81.86.94,1.26.46-.04.1-.4-.11-.4-.36.14.03.36.12.54.3.29-.27-.29-.4-.29-.73.4.44.05-.3.11-.54l.24.42c.53.06-.39-.93.14-.8l.18.67.09-.25.23.5c0-.46.11-.41.37-.38-.21-.27-.4-.78-.24-.89.25.19.16.44.36.24.09.29.22.66-.1.33.07.14.09.29.16.44.28.22.35-.11.43-.16-.04,0-.09,0-.15-.05l.02-.78c.14.13.17.28.2.43.04-.08-.01-.31.07-.4.16.36.37.71.31.95l.12-.56c.11.14.4.31.43.46.3.1.08-.92.47-.79-.02-.07-.03-.15-.01-.23.27-.05.71.26.72-.36l.5.53c.13-.26-.64-.66-.42-1.09.14-.34.39.47.57.59-.05-.38-.18-1.13.32-.76-.01.16-.12.1-.17.19Zm2.46-1.73c0,.12.05.45-.13.22-.21-.51-.04-.31.13-.22Zm3.41-3.24c.04.16-.06.12-.21,0,.03-.06.09-.08.21,0Zm9.44-9.12s0,.01,0,.02c-.2-.1-.13-.06,0-.02Zm.34.05c0-.07-.04-.13-.09-.18.04.12,0,.15-.08.16.08.1.15.16.17.03Zm-25.11,14.25l.11.08c-.04.18-.07.05-.11-.08Z"/>
    <path class="cls-1" d="m249.8,61.31c-.05-.06-.1-.14-.15-.22.02.08.06.16.15.22Z"/>
    <path class="cls-1" d="m242.56,66.58s0,0-.01,0c0,.03.02.05.03.08l-.02-.08Z"/>
    <path class="cls-1" d="m258.06,57.02c-.08-.03-.15-.1-.21-.17.06.1.13.18.21.17Z"/>
    <path class="cls-1" d="m260.55,50.01l-.09.19c.06-.06.14.02.21.06-.06-.1-.17-.22-.12-.26Z"/>
    <path class="cls-1" d="m263.31,51.88c0-.06.04-.03.04-.1l-.12-.19c-.09.07-.06.26.08.29Z"/>
    <path class="cls-1" d="m261.47,51.33c.21.35.24.17.31.05,0,0-.01.01-.02.01-.25-.51-.27-.29-.29-.06Z"/>
    <path class="cls-1" d="m261.79,51.35s.05-.06.09-.06c-.1-.21-.06-.02-.09.06Z"/>
    <path class="cls-1" d="m259.87,51.02c.1.06-.22-.47-.11-.34-.2-.48-.03.73.11.34Z"/>
    <polygon class="cls-1" points="262.21 52.45 261.92 52.03 262.06 52.42 262.21 52.45"/>
    <path class="cls-1" d="m261.2,52.59l.24.03c-.04-.07-.05-.13-.04-.17-.11.04-.27.02-.2.15Z"/>
    <path class="cls-1" d="m261.39,52.44c.06-.02.1-.06.09-.15-.03.02-.08.07-.09.15Z"/>
    <polygon class="cls-1" points="262.05 52.71 261.95 52.64 261.81 52.68 262.05 52.71"/>
    <path class="cls-1" d="m259.34,53.52l-.11.23c.07.16.17.22.2.13-.01-.13.02-.23-.09-.35Z"/>
    <path class="cls-1" d="m260.56,54.4c-.1-.06-.16-.16-.27-.29l.3.55-.03-.26Z"/>
    <path class="cls-1" d="m260.1,54.83c.07.16-.03.58.19.42-.06-.16.05-.39-.19-.42Z"/>
    <polygon class="cls-1" points="256.95 55.69 256.99 55.66 256.49 54.77 256.95 55.69"/>
    <path class="cls-1" d="m255.7,59.18c.34.09-.25-.58.09-.42-.07-.24-.28-.13-.33-.34,0,.3-.15.21.24.76Z"/>
    <path class="cls-1" d="m255.46,58.42s0-.1,0-.17c0,.08,0,.13,0,.17Z"/>
    <polygon class="cls-1" points="225.8 69.99 225.55 69.88 225.81 70.13 225.8 69.99"/>
    <path class="cls-1" d="m225.9,70.8l-.35-.55.2.56s.05-.13.15-.01Z"/>
    <path class="cls-1" d="m247.55,64.64l-.07-.14c-.1-.14-.14-.13-.22-.11l.29.26Z"/>
    <polygon class="cls-1" points="245.41 65.28 245.45 65.27 245.11 64.8 245.41 65.28"/>
    <path class="cls-1" d="m244.19,66.82c.08-.02.09-.17.17-.19-.09.17-.54-.44-.17.19Z"/>
  </g>
  <g>
    <path class="cls-1" d="m262.06,104.14c-.06.07.36.15.43.18-.05-.16-.53-.2-.43-.18Z"/>
    <polygon class="cls-1" points="261.5 102.55 261.65 102.62 261.3 102.31 261.5 102.55"/>
    <path class="cls-1" d="m261.83,101.28c-.72-.06,0,.49-.31.65h-.17s.53.24.53.24c-.02-.3-.29-.75-.05-.89Z"/>
    <path class="cls-1" d="m263.5,101c-.28-.03-.19-.21-.13.14.03,0,.05,0,.08-.01,0-.03.01-.07.05-.12Z"/>
    <path class="cls-1" d="m263.45,101.12c-.02.14.25-.03,0,0h0Z"/>
    <path class="cls-1" d="m263.46,100.47l.19.24c.17,0,.25-.14.35-.05-.08-.21-.25-.22-.54-.18Z"/>
    <path class="cls-1" d="m263,100.17l.08.12c.07,0,.1-.02-.08-.12Z"/>
    <path class="cls-1" d="m263.24,100.54l-.16-.25c-.12,0-.34-.06.05.11-.2-.07-.01.02.11.14Z"/>
    <path class="cls-1" d="m263.11,100.62c-.18.06-.3.16-.5-.08,0,.36.51.44.5.08Z"/>
    <path class="cls-1" d="m261.14,101.03l-.24.08.2.17c-.1-.09.25-.21.03-.25Z"/>
    <path class="cls-1" d="m264.1,99.47c-.14-.05-.41-.04-.6-.08l.13.17c.12-.04.24-.14.46-.09Z"/>
    <path class="cls-1" d="m263.5,99.39l-.2-.26c-.07.17.04.23.2.26Z"/>
    <polygon class="cls-1" points="262.24 99.94 262.69 100.4 262.25 99.88 262.24 99.94"/>
    <polygon class="cls-1" points="264.31 98.73 264.63 98.93 264.16 98.6 264.31 98.73"/>
    <path class="cls-1" d="m264.38,98.22c.26.15.51.01.66.14-.02-.15-.23-.32-.42-.48.09.14.03.25-.24.34Z"/>
    <path class="cls-1" d="m264.35,97.63c.05.07.16.16.27.26-.05-.07-.13-.16-.27-.26Z"/>
    <path class="cls-1" d="m263.46,98.82c.09,0,.33.04.46-.04l-.43-.03s-.02.05-.03.07Z"/>
    <path class="cls-1" d="m263.47,98.74h.01c.03-.08.05-.13.07-.16,0,.02-.03.07-.08.16Z"/>
    <path class="cls-1" d="m263.45,98.83s0-.01,0-.02c-.04,0-.06,0,0,.02Z"/>
    <path class="cls-1" d="m262.75,99.53c-.2-.17-.39-.48-.8-.34.26.16.5.08.8.34Z"/>
    <path class="cls-1" d="m262.91,98.8l-.15.18c.11.02.28.03.38.12l-.23-.3Z"/>
    <polygon class="cls-1" points="262.81 98.66 262.91 98.8 262.97 98.73 262.81 98.66"/>
    <path class="cls-1" d="m263.87,97.88c-.16-.14-.15-.24-.15-.35-.11.1-.19.21-.22.32.13.05.35.16.36.03Z"/>
    <path class="cls-1" d="m263.64,98.29s-.01-.02-.02-.03c-.04,0-.05,0,.02.03Z"/>
    <path class="cls-1" d="m264.01,96.44s-.05,0-.08,0c.02,0,.05.01.07.02v-.02Z"/>
    <path class="cls-1" d="m263.42,97.85c-.1.07-.02.15.1.23-.02-.08-.03-.15-.02-.23-.06-.02-.09-.03-.08,0Z"/>
    <path class="cls-1" d="m264.23,97.28c-.1.02-.19.06-.27.09.14-.01.37-.05.27-.09Z"/>
    <path class="cls-1" d="m263.74,98.26s.01.01.01.02c.1,0,.05-.01-.01-.02Z"/>
    <path class="cls-1" d="m263.74,98.26c-.05-.06-.14-.12-.22-.18.02.06.05.12.1.18.03,0,.08,0,.12,0Z"/>
    <path class="cls-1" d="m261.44,95.42c.38.12.67.44.21.53.24.27,1.53.47,2.28.48-.17-.05-.32-.09-.49-.35-.23.02-.61.32-.91.06-.13-.32.19-.19.43-.26-.51-.01-.61-.52-1.32-.65l.19.3c-.11-.02-.26-.16-.38-.12Z"/>
    <path class="cls-1" d="m263.79,96.82l.03.1c.09-.08.26-.11.6-.15-.15-.19-.29-.25-.41-.3l-.16.4-.05-.04Z"/>
    <path class="cls-1" d="m263.72,97.29c-.4-.17-.52-.42-1.01-.42-.04.25.3.26.45.46,0-.42.2.17.51-.05.05.1.05.17.05.24.07-.06.15-.11.24-.16-.01,0-.02,0-.03,0h0s0,0,0,0c-.06,0-.09,0-.05-.01,0,0,0,0,0-.01-.06-.02-.11-.04-.15-.06.12-.09.11.01.15.06.02,0,.04.01.06.02,0,0,0,0,0,0l-.12-.46c-.08.07-.1.18-.1.38Z"/>
    <path class="cls-1" d="m261.11,98.74s.07,0,.1.01c-.04-.04-.08-.06-.1-.01Z"/>
    <path class="cls-1" d="m261.4,98.65c.05.04.21.11.14.19-.15.05-.2-.05-.34-.08.1.09.25.28.5.15l-.05-.04c.19-.12.76-.19.81-.15-.39-.05-.67-.08-1.06-.07Z"/>
    <path class="cls-1" d="m262.46,97.93l-.12-.38-.41.07.22.05c-.13.17.14.2.3.26Z"/>
    <polygon class="cls-1" points="264.23 96.46 264.65 96.62 264.08 96.26 264.23 96.46"/>
    <polygon class="cls-1" points="264.28 96.02 264.66 96.13 264.46 95.96 264.28 96.02"/>
    <path class="cls-1" d="m265.86,70.49l-.08-.13c.02.05.05.09.08.13Z"/>
    <path class="cls-1" d="m265.65,71.19l.18.07c-.1-.06-.17-.09-.18-.07Z"/>
    <path class="cls-1" d="m267,85.43c.39-.05.99-.06.56-.16l-.43-.07c.05.12-.02.18-.12.22Z"/>
    <path class="cls-1" d="m266.37,77.54s-.09,0-.14,0c.13.07.26.14.38.2-.08-.06-.15-.13-.24-.21Z"/>
    <path class="cls-1" d="m264.66,76.99l.32-.12c-.11.02-.21.05-.32.12Z"/>
    <path class="cls-1" d="m266.42,66.53l-.4-.22c-.04.18.19.16.4.22Z"/>
    <path class="cls-1" d="m265.28,91.57c.2-.08.29-.16.33-.24-.28.08-.67.11-.33.24Z"/>
    <path class="cls-1" d="m270.24,71.93c-.06-.08-.14-.13-.23-.15.06.08.13.14.23.15Z"/>
    <path class="cls-1" d="m265.7,90.97s-.07.03-.12.04c.05.11.08.21.02.31.21-.06.35-.16.09-.35Z"/>
    <path class="cls-1" d="m270.4,52.66s.03-.02.06-.02c-.06-.02-.06,0-.06.02Z"/>
    <path class="cls-1" d="m275.7,49.7s0,.11-.01.18c.04-.02.05-.07.01-.18Z"/>
    <path class="cls-1" d="m264.92,94.33c0,.1.04.03,0,0h0Z"/>
    <path class="cls-1" d="m263.14,94.34s-.1-.06-.19-.09c.1.03.16.06.19.09Z"/>
    <path class="cls-1" d="m263.33,89.38s0,0,0,0c-.09,0-.07,0,0,0Z"/>
    <path class="cls-1" d="m264.69,94.42c.06-.02.11-.05.16-.08-.04.01-.09.04-.16.08Z"/>
    <path class="cls-1" d="m264.9,94.45s-.04.05-.06.07c.07.03.11.03.06-.07Z"/>
    <path class="cls-1" d="m264.93,94.2c0,.05-.04.1-.08.14.03-.01.06-.01.07,0,0-.03,0-.07.01-.13Z"/>
    <path class="cls-1" d="m269.58,60.43s.03,0,.04,0c-.15-.14-.13-.09-.04,0Z"/>
    <path class="cls-1" d="m263.25,81.92s.01.01.02.02c0,0,.01,0,.02,0h-.04Z"/>
    <path class="cls-1" d="m263.03,81.51c.49.28.4.34.26.42l1.24.21-1.5-.62Z"/>
    <path class="cls-1" d="m266.18,68.77l-.44.13c-.55-.44-.28-.58-.87-.51,1.31.38-.1.93,1.21,1.3l-.32.08s-.05-.07-.03-.11c-.71.13.89.47.61.8-.14.11-.35.15-.48.02l.25.38c-.05.08-.27,0-.22-.08v.48s-.05-.01-.05-.01c.19.12.47.35.59.45-.22.07-.12-.09-.3-.11l.25.33c-.37.01-.64-.28-.55-.44-1.37-.11.28.29-.62.6l-.11-.28c-.79-.04-.56.21-1.1.36.26,0,1.31-.23,1.57.13-.12.05-.19.14.03.35-.47-.12-.39.05-.41.24l-.62-.17c.13.24.45.31.7.49-.12.2-.61.12-1.03.06-.19.32.83-.04.84.4-.31.22-.11.49.17.93-.27.14-.37-.13-.57-.11l.45.31s-.17-.01-.25-.04c.15.2.62.17.72.45.67.24-1.12.22-.42.72-.19.03-.37-.13-.62-.17.4.53.28.44.88.94l-.48.17c.52-.08,1,.32,1.39.67.24-.01.46-.03.56-.04l.24.45c-.11.02-.32-.07-.56-.2.04.04.09.08.13.11-.26.07-.6-.09-.92-.27.13-.01.28-.02.42-.03-.35-.19-.75-.38-1.11-.46.07.04.11.1.14.16-.1-.05-.18-.09-.25-.09-.07,0,.06.07.2.17l-.71-.1.27.09-.56.37c.61.52,1.55,1.09,1.69,1.71-.47-.27-.82-.24-1.42-.41.67.02-.16-.49.04-.74-.1.13-.38.02-.47-.04l.45.65c-.49-.14-.4.01-.63.09,1,.15.55.54.79.83-.33-.07-.65-.21-.5-.44-.8.09,1.05.65.35.76,0-.06.07-.08-.09-.15.25.22-.07.51-.33.35v-.06c-.21.38-.32,1.23.49,1.51-.11-.02-.98-.31-1.14-.38l2.58,1.44c-.69-.25-2.44-.44-2.75-.88-.13.07-.27.16-.08.43.12-.04,1.06.1,1.11.21-.85.04-.47.06-1.22.19.18-.06,1.26.34,1.18.49-.16-.07-1.1-.27-1.2-.36l.99.67c-.17-.15-.92-.26-1.25-.25.22.02-.11.33-.03.46l.3-.1c-.28.4,1.42.83,1.25,1.25-.21-.11-1.35-.49-1.54-.3.53.25,2.56,1.15,2.89,1.64h-.34s.29.38.29.38c-.79-.4-2.42-1.38-3.03-1.84-.3.1-.39-.05-.42.2-.32,0-.42-.25-.42-.33l-.34.52c.66.14.54.61,1.09.73l-.51-.8c.66.14,1.75.84,1.53,1.22-.29.04-1.14-.38-1.36-.43.21.11.33.5.16.49l-.3-.26c-.3.16.77.59.07.7-.07.08-.91.06-.53.18.78.04,3.09.61,3.62.86-.06.02-.84.31-1.23.32-.62,0-1.33-.59-1.86-.59.18.05.37.19.43.25-.18.06-.54-.18-.52.05.65.21-.17.42.53.25.13.26-.19.19-.23.44.45.03,1.39.6,1.53.86-.16-.06-.4-.07-.5-.07-.17.41-.53.56-.64.96-.17,0-.41.14-.68-.02.1.09.31.2.3.33-.63.09-.02-.3-.75-.29.38.12.45.46.64.69.61.1.22-.38.03-.61.82.21,1.59.74,1.86,1.26.12.38-.57,0-.46.09-.3.59,1.29.9.56,1.27-.57.07-1.04-.26-1.42-.31-.13-.32.44-.33.47-.52l-.3.16c-.15-.13-.23-.35-.06-.4-.51.05-.36,1.03-.92,1.4.15.13.29.33.52.31l-.03-.17c.46-.03.51.44.75.3.24.28.65.63.33.86l-.61-.1c.18.04.4-.1.24-.22.23.19-.92.23-.18.56l.46-.09c.24.28.81.7.56.91.62.04-.05-.08.68-.08-.89-.07.21-.64-.76-.62.84.02.42-.23,1.16-.3-.2-.04-.4-.01-.24-.2-.05-.02-.12-.07-.16-.09,0,0,.01,0,.02-.01,0,0-.02,0-.03,0-.03-.02-.03-.02,0,0-.1.03-.21.04-.33.03-.42-.22-.32-.56-.52-.73.13-.1.21.11.44.1l-.3-.26c.44.1.81-.15.99.22l.09-.26c.29-.09.44-.29.29-.47.13-.1-.4-.45-.09-.25l-.16-.49.11.02c.16-.4-.5-1.04.41-1.31-.07-.17-.17-.35.01-.55l.39.05c-.08-.21.52-.44.15-.62,1.06.07.45-.82.71-1.08l-.49-.14c.08-.21,0-.46-.13-.78l-.44-.1c-.3-.33.46-.52.52-.9.16.07.09.15-.03.19,1.09-.18-.47-1.11.35-1.33-.13-.14-.06-.2.07-.24,0,0,0,.02.02.03,0,0,.01-.02.02-.04.09-.02.18-.05.27-.08-.12.01-.21.03-.26.06.01-.08-.01-.21-.09-.35l.48.07s0-.02,0-.03c.2-.07-.2-.15-.56-.18-.06-.08-.14-.15-.24-.22.78.11-.18-.37.66-.28-.37-.18-.15-.65-.95-.93.11.02.17,0,.16.07.13-.1.25-.21.05-.38l.61.1-.72-.49c.41-.07.63-.09,1.05.2-.6-.59-.18-.4-.78-.92l.38.12c.02-.13-.44-.46-.11-.45.8-.09.46-1.33,1.32-1.86-1.16-.16.59-.2-.28-.45.28.03.45-.03.66.14-.17-.43.56-.43-.11-.87.28.03.37.18.54.18-.05-.04-.2-.17-.03-.17.17,0,.21.11.31.2.05-.38-.76-.63-1.53-.86.41-.09.39-.2-.08-.46.27,0,.56-.04.59.21.07-.12.57-.69-.04-.86.17,0,.09-.17.03-.22.11-.28.17-.29.19-.59l-.12.05c-.72-.31-.1-.28-.14-.53l.07.03c.67-.38-.2-.29.55-.65l-.47-.09c-.99-.31.71-.3.4-.7l-.29.04c-.3-.25,1.48-.1,1.64-.24.1-.01.12.09.18.16.7-.28-.59-.21-.65-.57.34.03.81.29.93.09.29-.04-.9-.9-.2-1.03-.27,0-.54,0-.69-.2-.03-.25,1.12-.37.37-.78.08-.01.15,0,.21.01-.16-.23-.19-.66-.6-.87,1.65.26-.5-1.29.98-.9l.06-.56.15.05c.19-.32-.14-.53-.46-.74.12-.05.24.04.32.07.43-.42.38-.49-.25-1.1l.49.08c-.25-.19.94-.53.51-1.17.05.02.14.05.2.11-.42-.7,1.68-.98-.02-1.64l-.34-.48c-.26.44-.74-.27-1.08-.15-.05-.21.65-.34.68-.09h-.1c.89.33.48-.49,1.09-.32.2-.94.94-1.72,1.2-2.58l-.73-.08.12-.29c.19-.04.58.04.5.25.43,0-.24-.45-.39-.5.4-.35.78.38.83.26v-.19s-.1.02-.1.02c-.25-.22-.56-.31-.45-.56.18-.13.46.03.5-.03.05.01.08,0,.05-.09l.16-.37h-.6c-.23-.23.12-.34-.56-.33,1.04,0,.72-1.34,1.07-1.42-.35-.34-.28-.58-.15-.85-.14.04-.77-.08-.63-.31,1.27.43.68-.31,1.67-.27-.67.02.03-.75-.92-.7.16-.18.49.11.84.03-.37-.63.61-1.01.6-1.67-.17-.05-.45-.02-.67-.22l.94-.1c-.05-.14-.95-.37-.3-.44-.15,0-.38-.02-.41-.11,1.14-.99-.04-2.64,1.84-3.46-.37.08-.38-.04-.36-.17-.1.06-.42-.11-.65-.16l.77-.35c-.62-.26.1-.56-.5-.77l.07.19c-.67-.4-1.68-.12-2.6-.39.76.46-1.38.32-.31,1.02-.21.04-.28-.15-.51-.16.37.2.42.35.19.53l-.09-.05c-.07.66-.53.83-.98,1.47l.47.07c-.1.14-.25.13-.39.17.65.36.15-.42.88-.06-.99-.04-.29,1.07-1.39.93-.07.23.55.07.48.3h-.3s.35.14.35.14c-.1.14-.48.12-.72.06.04-.03-.04-.12-.05-.17-.39.11-.03.59-.16.63l.24-.18c.1.71-.48,1.39-.06,2.17h.23c.28.59-.34.33-.29.89l-.05-.03c.19.16.26.33.2.46-.22-.2-.56.12-.79-.13.3.62.27.34.99.89l-.38-.02c.29.2.46.25.49.54-.25-.29-.59.02-.94-.32-.93.34.58,1.01-.63.96.93.51.67-.33.85-.13.35-.03.69.4.54.54-.07.17-1.35-.04-1.44.41.02-.04-.06-.06-.04-.11-.3.1.26.41-.2.5.57.27-.1.25.66.48l-.07-.45c.14.28.98.73.45.99-.15-.07-.32-.23-.41-.34-.25.05.09.25-.17.3-.76-.23-.04-.53-.56-.93-.35.03.44.61-.36.27,1.01.45-.25.4.48.9l-.45-.14c.06.07.25.22.22.3l-.55-.31c.45.37-.56.35-.35.65.11-.48.58.04.97-.08.46.75-1.29.03-1.24.75-.04-.11.36-.27.54-.07-.13.1-.35.22-.61.24-.02.47.49.06.72.32-.6,0,.17.28.3.52l-.47-.12c-.43.42.94.39.46.74l-.6-.36.11.28-.52-.19c.33.36.2.41,0,.62.34.03.84.25.8.48-.32.08-.42-.2-.44.13-.27-.15-.62-.32-.15-.35-.15-.05-.27-.15-.42-.2-.36.08-.18.39-.21.51.03-.04.07-.09.14-.09l.53.63c-.19.03-.32-.07-.44-.16.03.11.22.23.23.37-.37-.13-.76-.23-.89-.47l.31.54c-.17-.01-.51.11-.64.01-.29.18.58.78.2,1.03.07.04.13.09.17.17-.16.28-.7.42-.27.91l-.73.02c.08.32.93-.05,1.06.48.13.39-.61-.03-.83.04.3.25.92.72.29.88-.1-.13.02-.19,0-.29Zm-.59,3.52c-.08-.09-.35-.3-.06-.28.51.22.24.21.06.28Zm-.24,5.52c-.14-.09-.04-.15.15-.19.02.07-.01.14-.15.19Zm-.55,15.42s-.01,0-.02-.01c.22-.1.14-.07.02.01Zm-.28.26c.06.05.12.06.19.07-.11-.05-.1-.12-.05-.19-.13,0-.22,0-.14.13Zm8.46-33.21l-.14.03c-.1-.17.01-.1.14-.03Z"/>
    <path class="cls-1" d="m264.86,77.05c.08,0,.17.02.26.04-.07-.05-.16-.07-.26-.04Z"/>
    <path class="cls-1" d="m266.49,66.57s0,0,0,0c-.03-.01-.05-.02-.08-.03l.07.04Z"/>
    <path class="cls-1" d="m261.8,87.67c.08-.05.18-.06.27-.06-.11-.03-.22-.03-.27.06Z"/>
    <path class="cls-1" d="m264.88,95.33l-.07-.23c0,.1-.11.11-.2.14.11.02.28.03.27.09Z"/>
    <path class="cls-1" d="m261.55,96.3s0,.06.04.11l.22.05c.02-.13-.13-.26-.26-.16Z"/>
    <path class="cls-1" d="m263.28,95.11c-.4-.09-.3.07-.26.23,0,0,0-.02,0-.02.54.18.4-.01.25-.21Z"/>
    <path class="cls-1" d="m263.03,95.38s0,.09-.02.13c.22.07.06-.04.02-.13Z"/>
    <path class="cls-1" d="m264.67,93.95c-.12.04.49.17.32.17.48.2-.49-.6-.32-.17Z"/>
    <polygon class="cls-1" points="261.96 94.89 262.46 94.96 262.09 94.78 261.96 94.89"/>
    <path class="cls-1" d="m262.6,93.88l-.19.19c.08.02.12.06.15.1.05-.13.19-.26.04-.29Z"/>
    <path class="cls-1" d="m262.56,94.17c-.03.07-.04.14.03.2,0-.04.01-.13-.03-.2Z"/>
    <polygon class="cls-1" points="261.89 94.54 262.01 94.51 262.09 94.36 261.89 94.54"/>
    <path class="cls-1" d="m263.32,91.53l-.08-.28c-.16-.07-.28-.03-.24.08.1.09.14.19.31.2Z"/>
    <path class="cls-1" d="m261.8,91.91c.12-.04.23-.02.4-.01l-.6-.16.2.17Z"/>
    <path class="cls-1" d="m261.84,91.17c-.16-.07-.39-.48-.43-.16.16.07.23.35.43.16Z"/>
    <polygon class="cls-1" points="263.55 87.73 263.54 87.79 264.53 88.04 263.55 87.73"/>
    <path class="cls-1" d="m262.03,83.9c-.31.22.59.23.23.41.22.13.3-.15.48-.03-.2-.24-.04-.29-.71-.38Z"/>
    <path class="cls-1" d="m262.74,84.29s.07.08.13.13c-.05-.07-.09-.1-.13-.13Z"/>
    <polygon class="cls-1" points="276.4 49.16 276.66 49.03 276.29 49.06 276.4 49.16"/>
    <path class="cls-1" d="m275.76,48.62l.64.12-.54-.26s.05.14-.1.14Z"/>
    <path class="cls-1" d="m264.19,72.47l.15.05c.17.01.19-.03.24-.11l-.39.05Z"/>
    <polygon class="cls-1" points="265.31 70.1 265.28 70.14 265.87 70.2 265.31 70.1"/>
    <path class="cls-1" d="m265.13,67.81c-.05.08.05.21,0,.29-.05-.21.71-.13,0-.29Z"/>
  </g>
  <g>
    <path class="cls-1" d="m269.28,67.35s.33-.2.39-.24c-.09.03-.48.3-.39.24Z"/>
    <polygon class="cls-1" points="268.33 67.63 268.48 67.54 268.1 67.73 268.33 67.63"/>
    <path class="cls-1" d="m268.19,67.4c-.58.41.15.02-.04.2l-.13.1.49-.3c-.11,0-.47.15-.32,0Z"/>
    <path class="cls-1" d="m269.41,66.44c-.23.16-.22.1-.05.08.02-.02.04-.03.06-.04,0,0-.01,0,0-.03Z"/>
    <path class="cls-1" d="m269.41,66.47s.19-.14,0,0h0Z"/>
    <path class="cls-1" d="m269.2,66.45l.23-.1c.13-.1.15-.14.25-.2-.13.04-.27.14-.48.3Z"/>
    <path class="cls-1" d="m268.75,66.7l.1-.04c.06-.04.07-.06-.1.04Z"/>
    <path class="cls-1" d="m269.06,66.57l-.21.09c-.09.07-.29.19.08-.03-.18.11,0,0,.13-.06Z"/>
    <path class="cls-1" d="m268.98,66.65c-.12.1-.19.18-.41.28.12,0,.54-.28.41-.28Z"/>
    <path class="cls-1" d="m267.57,67.79l-.16.14.21-.11c-.11.05.13-.15-.05-.03Z"/>
    <path class="cls-1" d="m269.39,66.05c-.13.08-.33.23-.49.34l.16-.07c.08-.07.15-.14.33-.27Z"/>
    <path class="cls-1" d="m268.89,66.39l-.24.11s.1-.01.24-.11Z"/>
    <polygon class="cls-1" points="268.08 67.13 268.58 66.88 268.07 67.12 268.08 67.13"/>
    <polygon class="cls-1" points="269.32 65.91 269.63 65.74 269.16 65.99 269.32 65.91"/>
    <path class="cls-1" d="m269.21,65.86c.25-.14.4-.29.56-.37-.06,0-.28.12-.48.23.12-.05.1-.01-.08.15Z"/>
    <path class="cls-1" d="m268.99,65.86c.06-.03.18-.09.29-.15-.06.03-.15.07-.29.15Z"/>
    <path class="cls-1" d="m268.68,66.4c.08-.05.27-.19.35-.26l-.35.25s0,.01,0,.02Z"/>
    <path class="cls-1" d="m268.66,66.39h.01s0-.04,0-.05c0,0,0,.02-.01.05Z"/>
    <path class="cls-1" d="m268.68,66.4s0,0,0,0c-.03.02-.05.03,0,0Z"/>
    <path class="cls-1" d="m268.35,66.83c-.21.11-.46.21-.73.45.25-.15.41-.28.73-.45Z"/>
    <path class="cls-1" d="m268.24,66.71l-.06.09c.09-.06.23-.16.33-.21l-.28.12Z"/>
    <polygon class="cls-1" points="268.12 66.77 268.24 66.71 268.26 66.68 268.12 66.77"/>
    <path class="cls-1" d="m268.7,66.14c-.17.09-.19.08-.23.07-.06.07-.08.11-.07.13.11-.07.32-.19.29-.21Z"/>
    <path class="cls-1" d="m268.65,66.28s-.01,0-.02,0c-.03.02-.04.03.02,0Z"/>
    <path class="cls-1" d="m268.35,66.02s-.04.03-.06.05c.02-.01.04-.03.06-.04h0Z"/>
    <path class="cls-1" d="m268.34,66.39c-.06.06.03.01.15-.05-.04.01-.08.01-.09,0-.05.03-.09.05-.06.05Z"/>
    <path class="cls-1" d="m268.79,65.91c-.07.06-.13.11-.18.16.11-.08.27-.21.18-.16Z"/>
    <path class="cls-1" d="m268.72,66.22s.01,0,.02,0c.07-.06.04-.03-.02,0Z"/>
    <path class="cls-1" d="m268.72,66.22c-.06.03-.15.08-.23.12.03,0,.08-.03.14-.05.02-.02.06-.05.1-.07Z"/>
    <path class="cls-1" d="m266.01,67.46c.33-.21.67-.37.33-.1.27-.13,1.35-.86,1.94-1.29-.15.09-.28.18-.5.27-.17.13-.37.36-.69.52-.2.06.09-.12.25-.25-.4.29-.64.33-1.24.74l.24-.1c-.09.06-.25.15-.33.21Z"/>
    <path class="cls-1" d="m268.3,66.16h.05c.05-.07.17-.16.42-.36-.18.08-.3.16-.42.23v.1s-.05.03-.05.03Z"/>
    <path class="cls-1" d="m268.39,66.21c-.37.22-.55.29-.92.56.05.03.32-.17.5-.24-.14-.01.21-.11.39-.29.07-.03.1-.03.12-.02.04-.04.08-.09.14-.14,0,0-.01.01-.02.02h0s0,0,0,0c-.04.03-.07.05-.05.03,0,0,0,0,0,0-.05.03-.1.06-.14.09.06-.07.09-.06.14-.09.02-.01.03-.02.05-.03,0,0,0,0,0,0l-.24.06s-.02.06.04.07Z"/>
    <path class="cls-1" d="m266.81,67.74s.06-.04.08-.06c-.05.02-.08.04-.08.06Z"/>
    <path class="cls-1" d="m267.01,67.57c.05-.03.2-.12.17-.08-.1.08-.17.11-.29.19.1-.05.28-.13.44-.28l-.05.03c.11-.11.53-.44.59-.47-.32.22-.55.38-.85.6Z"/>
    <path class="cls-1" d="m267.61,66.95l-.22.06-.29.23.19-.12c-.05.08.17-.08.32-.17Z"/>
    <polygon class="cls-1" points="268.53 65.9 268.91 65.66 268.35 65.97 268.53 65.9"/>
    <polygon class="cls-1" points="268.43 65.85 268.76 65.64 268.55 65.75 268.43 65.85"/>
    <path class="cls-1" d="m261.52,64.24l-.11.04s.07-.03.11-.04Z"/>
    <path class="cls-1" d="m261.58,64.38l.17-.1c-.09.05-.16.09-.17.1Z"/>
    <path class="cls-1" d="m267.18,64.01c.29-.23.76-.57.38-.32l-.36.24c.08-.02.04.01-.03.08Z"/>
    <path class="cls-1" d="m264.17,64.14s-.07.05-.11.08c.13-.07.25-.14.36-.21-.08.04-.16.08-.25.13Z"/>
    <path class="cls-1" d="m262.66,65.1l.21-.19c-.08.06-.15.12-.21.19Z"/>
    <path class="cls-1" d="m260.69,63.81l-.38.22s.2-.11.38-.22Z"/>
    <path class="cls-1" d="m267.79,65.16c.13-.11.18-.17.18-.2-.19.16-.49.39-.18.2Z"/>
    <path class="cls-1" d="m265.41,61.78c-.07.03-.15.08-.23.13.07-.03.14-.07.23-.13Z"/>
    <path class="cls-1" d="m267.93,64.9s-.05.04-.08.07c.07-.02.13-.04.12,0,.14-.12.22-.2-.04-.06Z"/>
    <path class="cls-1" d="m259.39,61.15s.02-.02.04-.03c-.05.03-.05.04-.04.03Z"/>
    <path class="cls-1" d="m262.59,58.04s.03,0,.05.01c.02-.02.01-.03-.05-.01Z"/>
    <path class="cls-1" d="m268.39,65.44s.04-.02,0,0h0Z"/>
    <path class="cls-1" d="m267,66.46s-.1.05-.18.11c.09-.06.15-.09.18-.11Z"/>
    <path class="cls-1" d="m265.56,66.21s0,0,0,0c-.07.05-.05.04,0,0Z"/>
    <path class="cls-1" d="m268.24,65.57s.07-.07.09-.09c-.03.02-.06.05-.09.09Z"/>
    <path class="cls-1" d="m268.41,65.46s-.02.03-.03.04c.06-.04.1-.06.03-.04Z"/>
    <path class="cls-1" d="m268.36,65.43s0,.03-.02.05c.02-.02.04-.03.05-.04,0,0-.02,0-.03,0Z"/>
    <path class="cls-1" d="m261.22,61.84s.02-.01.03-.03c-.16.08-.13.07-.03.03Z"/>
    <path class="cls-1" d="m263.13,66.05s.01,0,.02,0c0,0,0,0,.01-.01l-.03.02Z"/>
    <path class="cls-1" d="m262.82,66.16c.47-.27.42-.22.34-.14l1.04-.7-1.37.84Z"/>
    <path class="cls-1" d="m261.22,64.01l-.3.25c-.57.3-.41.14-.84.48,1.14-.74.22.08,1.36-.65l-.22.18s-.06.03-.06.01c-.51.41.85-.5.73-.32-.07.08-.23.2-.37.28l.32-.13s-.21.15-.2.13l.14.02-.03.02c.19-.11.48-.26.6-.32-.15.13-.13.07-.27.17l.3-.14c-.28.21-.59.36-.57.3-1.11.78.31-.15-.3.37l-.17.05c-.63.45-.37.33-.75.64.2-.15.95-.75,1.27-.89-.08.07-.11.11.14,0-.4.26-.29.22-.25.24l-.54.35c.18-.07.45-.25.7-.38-.03.07-.44.35-.78.59-.05.12.64-.48.79-.47-.17.18.07.08.43-.07-.16.16-.33.21-.48.32l.45-.25s-.14.1-.21.14c.18-.08.54-.35.71-.4.6-.37-.81.65-.1.26-.14.11-.33.21-.54.35.49-.22.36-.15.99-.48l-.32.28c.38-.3.89-.56,1.3-.78.19-.14.35-.26.43-.32l.33-.12c-.08.07-.27.18-.5.31.05-.02.09-.05.14-.07-.18.15-.5.34-.81.52.1-.08.21-.16.32-.24-.34.2-.71.42-1.02.62.06-.04.12-.06.16-.07-.09.05-.17.1-.22.14-.06.04.07-.03.21-.11l-.59.4.24-.15-.32.33c.64-.33,1.56-.85,1.87-.92-.45.26-.72.46-1.24.8.53-.38-.28.08-.2-.05-.04.06-.29.22-.38.27l.56-.24c-.43.27-.31.23-.47.36.83-.56.6-.3.88-.43-.28.19-.57.36-.53.28-.6.46,1.03-.58.52-.18-.01,0,.03-.04-.12.05.27-.14.11.05-.15.2h-.01c-.05.13.14.21.86-.24-.09.06-.87.55-1.01.64l2.48-1.43c-.62.39-2.05,1.38-2.43,1.55-.08.07-.16.16.08.06.08-.07.87-.61.93-.63-.65.49-.34.27-.89.7.12-.1,1.09-.71,1.08-.66-.15.09-.95.62-1.05.67l.99-.54c-.18.09-.8.52-1.06.71.18-.13.02.07.13.03l.2-.17c-.09.17,1.38-.79,1.38-.68-.2.12-1.21.76-1.31.87.49-.3,2.37-1.43,2.79-1.61l-.27.19.35-.15c-.75.44-2.34,1.34-2.96,1.68-.2.17-.32.22-.27.25-.25.18-.41.23-.43.23l-.1.21c.56-.37.62-.29,1.08-.6l-.66.27c.56-.37,1.64-.98,1.59-.84-.21.16-1.01.64-1.2.76.2-.12.41-.17.28-.08l-.32.17c-.19.18.79-.42.28-.02-.03.04-.69.52-.36.31.63-.45,2.61-1.75,3.11-2.04-.04.03-.56.49-.86.71-.49.36-1.23.74-1.65,1.05.15-.1.35-.21.42-.24-.12.1-.48.3-.39.3.58-.37,0,.11.49-.3.19-.07-.09.12-.04.14.36-.25,1.28-.78,1.47-.85-.15.09-.33.22-.41.28,0,.11-.24.32-.19.39-.13.1-.28.24-.53.39.11-.06.31-.17.34-.16-.47.36-.11,0-.68.42.33-.21.49-.24.72-.35.51-.34.05-.14-.18-.03.71-.46,1.48-.89,1.86-1.03.21-.06-.44.32-.33.27-.05.19,1.3-.71.85-.29-.43.33-.9.59-1.22.8-.2.06.24-.26.2-.28l-.19.18c-.16.08-.29.12-.17.02-.39.29.04.24-.28.56.16-.08.33-.16.51-.29h-.08c.35-.25.54-.26.68-.41.28-.13.71-.35.53-.17l-.51.34c.15-.1.28-.23.12-.14.24-.13-.64.53.04.12l.33-.27c.28-.13.86-.44.72-.29.49-.35-.06.03.51-.39-.72.51-.04-.14-.79.41.67-.48.26-.25.81-.67-.17.11-.31.23-.26.13-.05.03-.12.07-.15.09,0,0,0,0,.01-.01,0,0-.01.01-.02.02-.03.01-.03.02,0,0-.07.06-.15.12-.25.19-.4.23-.43.17-.64.28.07-.07.2-.12.37-.25l-.32.17c.37-.25.59-.47.84-.56v-.06c.18-.17.24-.26.06-.18.07-.08-.45.21-.15.04l-.28.08.09-.06c0-.1-.72.25-.1-.27-.11.04-.24.09-.16-.02l.32-.22c-.13.04.26-.31-.08-.1.85-.6.09-.28.21-.44l-.43.27c0-.05-.15-.01-.35.05l-.37.25c-.34.16.2-.28.12-.32.15-.09.12-.05.04.02.8-.63-.72.24-.15-.24-.15.07-.11.03-.02-.05,0,0,0,0,.02,0,0,0,0,0,0-.01.06-.05.13-.11.18-.15-.09.07-.16.12-.19.15-.02,0-.08,0-.18.04l.4-.27s0,0-.01,0c.14-.12-.2.11-.5.32-.07.03-.16.08-.26.13.64-.44-.25.09.43-.38-.35.21-.32.06-1.04.52.09-.06.13-.1.15-.09.07-.08.13-.15-.08-.04l.51-.34-.72.4c.29-.23.47-.36.88-.59-.65.32-.27.09-.91.42l.33-.21s-.49.24-.23.05c.6-.46-.07-.3.44-.8-.96.66.4-.34-.36.14.23-.16.35-.26.56-.37-.27.08.3-.33-.36.04.23-.16.35-.21.48-.3-.05.03-.21.11-.08.01.13-.1.2-.12.31-.17-.08-.04-.8.42-1.47.85.29-.24.24-.23-.21.04.21-.15.43-.32.53-.33.02-.04.23-.35-.31,0,.13-.1.02-.06-.05-.02,0-.07.04-.11-.04-.12l-.08.07c-.66.4-.17.05-.28.06l.07-.04c.41-.4-.25.11.22-.33l-.4.27c-.87.55.46-.41.09-.25l-.22.17c-.31.16,1.12-.85,1.21-.95.07-.06.13-.07.19-.1.46-.41-.53.33-.69.36.28-.2.73-.46.76-.53.22-.17-.99.49-.48.08-.21.15-.42.31-.6.39-.1.01.76-.65.04-.24.06-.04.11-.08.17-.12-.2.09-.36.09-.75.32,1.37-.93-.8.25.48-.59l-.13-.05.13-.08c.05-.12-.28.06-.6.24.08-.07.2-.14.27-.18.2-.26.14-.23-.55.11l.41-.28c-.25.14.57-.55.03-.32.05-.03.13-.08.19-.11-.55.22,1-.98-.54-.04l-.41.18c-.06.16-.66.41-.89.61-.11.02.4-.38.5-.39l-.07.06c.8-.5.21-.29.75-.63-.15-.14.19-.58.12-.76l-.6.42v-.08c.13-.11.47-.33.47-.28.33-.25-.33.13-.47.21.2-.24.73-.44.73-.47h-.07s-.07.05-.07.05c-.27.14-.53.31-.53.24.1-.11.37-.26.38-.29.04-.03.06-.05,0-.03v-.1s-.46.34-.46.34c-.26.13-.02-.08-.54.31.82-.6.14-.45.38-.65-.38.19-.4.14-.39.06-.09.08-.63.44-.59.35,1.13-.71.43-.4,1.22-.96-.51.38-.21-.04-.94.51.07-.1.42-.28.66-.48-.49.2.16-.38-.06-.39-.15.09-.36.26-.6.38l.7-.54c-.09.03-.86.53-.38.16-.12.09-.3.22-.36.23.58-.68-.87-.05.34-1.15-.27.22-.31.21-.33.2-.06.06-.36.24-.56.37l.5-.45c-.57.34-.1-.07-.64.26l.11-.03c-.65.37-1.36.96-2.16,1.48.74-.42-.98.8.08.21-.15.12-.27.16-.45.28.36-.21.44-.23.31-.09l-.09.05c.16.06-.15.33-.3.6l.39-.27c-.04.06-.16.15-.25.23.62-.36-.02-.1.67-.5-.78.56.11.2-.79.82.02.04.45-.31.47-.27l-.24.17.33-.2c-.04.06-.34.28-.55.42.02-.02-.07.02-.09.02-.27.23.16.03.08.11l.13-.14c.31-.04.07.31.65.09l.18-.13c.4-.14-.16.2.06.19l-.05.03c.2-.1.31-.14.3-.1-.23.12-.4.32-.66.45.43-.15.32-.15,1.06-.54l-.3.22c.29-.16.44-.26.55-.26-.29.14-.45.34-.83.53-.62.54.78-.3-.19.39.89-.52.42-.39.62-.49.27-.2.67-.38.6-.3,0,.04-1.07.77-1,.84,0-.01-.07.03-.07.02-.2.17.33-.14,0,.13.53-.32,0,.07.67-.36l-.2.03c.2-.07,1-.54.67-.23-.14.08-.33.18-.43.23-.18.15.15-.05-.03.1-.67.43-.2,0-.73.29-.27.2.53-.23-.2.21.93-.56-.07.15.67-.25l-.4.26c.07-.03.27-.14.27-.12l-.53.31c.47-.24-.33.33-.07.22-.07-.08.47-.33.73-.56.6-.24-1,.74-.73.73-.07.02.2-.22.4-.31-.07.08-.2.2-.4.35.13.02.4-.28.67-.4-.47.34.22-.09.4-.16l-.4.26c-.2.26.86-.53.6-.24l-.58.33.17-.05-.47.29c.37-.18.29-.11.19.02.28-.2.74-.47.78-.44-.22.18-.39.24-.3.25-.26.15-.59.35-.23.08-.13.08-.26.15-.39.23-.26.21-.02.11,0,.13.01-.02.03-.04.08-.08l.61-.28c-.14.11-.27.18-.4.25.05-.01.25-.12.3-.12-.33.21-.67.43-.85.5l.41-.16c-.14.1-.37.29-.49.36-.17.17.71-.31.49-.09.07-.04.13-.07.19-.09-.04.1-.41.41.08.18l-.57.42c.17-.04.71-.53.99-.59.23-.06-.49.35-.64.48.32-.16.95-.51.51-.14-.12.05-.04-.02-.1,0Zm.66.44c-.09.04-.37.19-.14.03.47-.29.26-.13.14-.03Zm1.58.29c-.14.08-.08.02.06-.09.04-.01.03.01-.06.09Zm4.49.74s-.01,0-.02.01c.14-.13.08-.08.02-.01Zm-.14.17c.06-.03.12-.07.17-.11-.1.06-.12.06-.1.02-.1.07-.17.13-.07.08Zm-3.97-5.75l-.1.08c-.13.05-.02-.01.1-.08Z"/>
    <path class="cls-1" d="m262.83,64.99c.07-.05.14-.1.22-.15-.07.04-.15.09-.22.15Z"/>
    <path class="cls-1" d="m260.77,63.77s0,0,0,0c-.02.01-.05.03-.07.05l.07-.04Z"/>
    <path class="cls-1" d="m263.83,67.03c.05-.05.12-.1.19-.16-.1.06-.18.12-.19.16Z"/>
    <path class="cls-1" d="m268.68,65.49l-.13.03s-.05.07-.11.12c.09-.06.23-.16.24-.15Z"/>
    <path class="cls-1" d="m266.38,67.42c.05-.03.01,0,.07-.02l.19-.12s-.19.07-.25.14Z"/>
    <path class="cls-1" d="m267.36,66.4c-.34.22-.21.17-.13.15,0,0,0,0,0,0,.48-.3.31-.23.13-.15Z"/>
    <path class="cls-1" d="m267.24,66.55s.03,0,.02.02c.19-.12.03-.04-.02-.02Z"/>
    <path class="cls-1" d="m268.08,65.57c-.08.07.44-.28.31-.18.44-.27-.57.26-.31.18Z"/>
    <polygon class="cls-1" points="266.25 67.15 266.67 66.86 266.32 67.07 266.25 67.15"/>
    <path class="cls-1" d="m266.43,66.75l-.09.11c.07-.05.11-.07.15-.08,0-.03.06-.11-.06-.03Z"/>
    <path class="cls-1" d="m266.49,66.78s.02.02.09-.01c0,0-.03,0-.09.01Z"/>
    <polygon class="cls-1" points="266.09 67.17 266.17 67.11 266.18 67.06 266.09 67.17"/>
    <path class="cls-1" d="m266.24,66.28l-.15.04c-.15.09-.23.16-.16.14.11-.06.17-.08.31-.17Z"/>
    <path class="cls-1" d="m265.17,67.16c.08-.07.17-.13.31-.23l-.52.34.21-.11Z"/>
    <path class="cls-1" d="m264.97,67.11c-.15.09-.45.21-.39.24.15-.09.29-.12.39-.24Z"/>
    <polygon class="cls-1" points="265.21 66.04 265.23 66.05 266.08 65.49 265.21 66.04"/>
    <path class="cls-1" d="m262.8,66.8c-.17.18.53-.33.31-.12.21-.12.18-.17.37-.27-.23.11-.12.01-.68.39Z"/>
    <path class="cls-1" d="m263.48,66.41s.08-.04.14-.07c-.06.03-.1.05-.14.07Z"/>
    <polygon class="cls-1" points="262.97 57.62 263.13 57.48 262.86 57.68 262.97 57.62"/>
    <path class="cls-1" d="m262.3,57.97l.54-.36-.51.3s.09-.02-.03.06Z"/>
    <path class="cls-1" d="m260.84,65.25l.13-.08c.14-.1.14-.11.16-.14l-.29.22Z"/>
    <polygon class="cls-1" points="260.96 64.54 260.96 64.56 261.44 64.23 260.96 64.54"/>
    <path class="cls-1" d="m260.09,64.58s.11-.03.1,0c-.11.02.51-.41-.1,0Z"/>
  </g>
  <g>
    <path class="cls-1" d="m97.42,311.76c.09.02-.04-.38-.04-.46-.11.11.07.56.04.46Z"/>
    <polygon class="cls-1" points="96.28 312.93 96.28 312.76 96.14 313.2 96.28 312.93"/>
    <path class="cls-1" d="m95,313.05c.18.7.46-.16.7.07l.06.16.04-.58c-.26.12-.58.53-.8.35Z"/>
    <path class="cls-1" d="m94.26,311.55c.05.28-.13.24.15.09-.01-.03-.02-.05-.03-.07-.03,0-.06,0-.12-.02Z"/>
    <path class="cls-1" d="m94.38,311.57c.12-.02-.09-.23,0,0h0Z"/>
    <path class="cls-1" d="m93.81,311.73l.16-.25c-.04-.16-.18-.2-.13-.32-.16.14-.13.3-.03.57Z"/>
    <path class="cls-1" d="m93.65,312.26l.09-.11c-.02-.07-.04-.09-.09.11Z"/>
    <path class="cls-1" d="m93.92,311.93l-.18.22c.03.11.03.35.08-.08-.01.21.02,0,.1-.14Z"/>
    <path class="cls-1" d="m94.03,312.03c.1.15.23.25.06.5.33-.1.26-.6-.06-.5Z"/>
    <path class="cls-1" d="m94.99,313.8l.15.2.1-.25c-.05.12-.28-.17-.25.05Z"/>
    <path class="cls-1" d="m92.79,311.36c-.02.15.04.41.04.6l.13-.17c-.06-.11-.18-.21-.17-.44Z"/>
    <path class="cls-1" d="m92.83,311.96l-.2.25c.17.04.2-.08.2-.25Z"/>
    <polygon class="cls-1" points="93.63 313.05 93.94 312.5 93.56 313.06 93.63 313.05"/>
    <polygon class="cls-1" points="92.1 311.29 92.23 310.95 92 311.47 92.1 311.29"/>
    <path class="cls-1" d="m91.64,311.32c.1-.28-.05-.5.05-.67-.13.03-.26.27-.38.48.12-.11.22-.06.33.19Z"/>
    <path class="cls-1" d="m91.1,311.43c.06-.06.13-.18.2-.3-.06.06-.13.15-.2.3Z"/>
    <path class="cls-1" d="m92.32,312.11c0-.09-.02-.33-.12-.44l.04.43s.05,0,.07.01Z"/>
    <path class="cls-1" d="m92.24,312.11h0c-.08-.03-.13-.04-.16-.05.02,0,.07.02.16.05Z"/>
    <path class="cls-1" d="m92.34,312.11h-.02s0,.05.02,0Z"/>
    <path class="cls-1" d="m93.12,312.67c-.12.24-.37.47-.15.86.09-.29-.03-.5.15-.86Z"/>
    <path class="cls-1" d="m92.4,312.65l.2.11c0-.11-.03-.28.03-.39l-.23.28Z"/>
    <polygon class="cls-1" points="92.29 312.78 92.4 312.65 92.32 312.61 92.29 312.78"/>
    <path class="cls-1" d="m91.39,311.88c-.11.17-.2.17-.31.19.1.1.22.16.33.18.03-.13.11-.36-.02-.37Z"/>
    <path class="cls-1" d="m91.8,312.04l-.02.02s.02.05.02-.02Z"/>
    <path class="cls-1" d="m90.02,311.92s0,.05,0,.08l.02-.07h-.02Z"/>
    <path class="cls-1" d="m91.42,312.33c.08.1.14,0,.2-.13-.07.04-.14.06-.21.05-.01.06-.02.1.01.08Z"/>
    <path class="cls-1" d="m90.79,311.59c.03.09.07.18.11.25-.03-.14-.08-.36-.11-.25Z"/>
    <path class="cls-1" d="m91.76,311.94v-.02c0-.09,0-.05,0,.02Z"/>
    <path class="cls-1" d="m91.76,311.94c-.05.06-.09.16-.14.25.06-.03.11-.07.16-.13,0-.03-.01-.08-.02-.12Z"/>
    <path class="cls-1" d="m89.18,314.54c.1-.39.4-.68.55-.24.26-.26.33-1.57.29-2.31-.04.17-.06.33-.31.52.03.24.37.57.13.9-.32.16-.2-.18-.3-.41.02.51-.49.63-.58,1.35l.3-.2c-.02.11-.14.27-.09.39Z"/>
    <path class="cls-1" d="m90.4,312.09l.09-.04c-.08-.08-.12-.25-.19-.57-.17.17-.22.31-.25.44l.39.11-.04.05Z"/>
    <path class="cls-1" d="m90.85,312.1c-.12.42-.35.57-.29,1.05.26,0,.23-.33.4-.5-.41.05.14-.22-.11-.5.09-.06.16-.07.22-.08-.06-.06-.12-.14-.17-.22v.03s0,0,0,0h0c0,.06.01.1,0,.06,0,0,0,0,0,0-.01.06-.02.11-.04.16-.1-.1,0-.11.04-.16v-.06s.01,0,.01,0l-.42.18c.07.07.18.07.37.05Z"/>
    <path class="cls-1" d="m92.72,314.44s-.01-.07,0-.1c-.03.05-.04.09,0,.1Z"/>
    <path class="cls-1" d="m92.55,314.17c.03-.06.07-.23.17-.18.08.14,0,.21,0,.35.07-.11.22-.29.04-.52l-.03.06c-.17-.16-.35-.71-.31-.77.03.39.05.67.15,1.06Z"/>
    <path class="cls-1" d="m91.64,313.27c-.12.06-.24.13-.36.18l.14.39v-.22c.2.1.19-.18.23-.35Z"/>
    <polygon class="cls-1" points="90.02 311.7 90.14 311.26 89.85 311.85 90.02 311.7"/>
    <polygon class="cls-1" points="89.6 311.66 89.69 311.28 89.54 311.49 89.6 311.66"/>
    <path class="cls-1" d="m66.83,299.37l-.15-.05c.06.03.1.05.15.05Z"/>
    <path class="cls-1" d="m67.19,300.1l.18-.08c-.11.02-.19.04-.18.08Z"/>
    <path class="cls-1" d="m80.07,307.49c.1-.38.31-.93.06-.56l-.22.38c.13,0,.16.08.16.19Z"/>
    <path class="cls-1" d="m72.76,304.21l-.07.12c.14-.07.27-.13.39-.19-.1.02-.2.04-.31.07Z"/>
    <path class="cls-1" d="m71.31,305.28l.08-.34c-.04.1-.07.21-.08.34Z"/>
    <path class="cls-1" d="m64.56,295.45l-.46.03c.08.2.25.03.46-.03Z"/>
    <path class="cls-1" d="m85.39,310.57c-.05-.2-.11-.31-.18-.36.04.29,0,.69.18.36Z"/>
    <path class="cls-1" d="m71.04,297.49c-.1-.02-.19,0-.27.05.09.02.18.01.27-.05Z"/>
    <path class="cls-1" d="m84.89,310.06s.01.08.02.12c.11-.03.21-.05.3.02-.03-.22-.09-.37-.32-.14Z"/>
    <path class="cls-1" d="m62.31,279.35s.03-.02.05-.03c-.06,0-.06,0-.05.03Z"/>
    <path class="cls-1" d="m67.23,275.48s0,.11,0,.17c.04-.02.04-.07,0-.17Z"/>
    <path class="cls-1" d="m88,311.08c.09,0,.03-.04,0,0h0Z"/>
    <path class="cls-1" d="m87.99,312.87s-.06.1-.09.19c.03-.1.06-.16.09-.19Z"/>
    <path class="cls-1" d="m82.9,312.13h0c0,.08,0,.07,0,0Z"/>
    <path class="cls-1" d="m88.08,311.31c-.02-.06-.04-.11-.08-.16,0,.04.03.09.08.16Z"/>
    <path class="cls-1" d="m88.12,311.11s.05.04.06.06c.03-.07.03-.11-.06-.06Z"/>
    <path class="cls-1" d="m87.88,311.07c.05,0,.09.04.13.08,0-.03,0-.06,0-.07-.03,0-.06,0-.13-.01Z"/>
    <path class="cls-1" d="m64.01,287.86s.02-.02.04-.03c-.2-.07-.16-.03-.04.03Z"/>
    <path class="cls-1" d="m75.26,309.47s.02,0,.02,0v-.02s-.02.03-.02.03Z"/>
    <path class="cls-1" d="m74.76,309.46c.48-.3.5-.19.52-.02l.72-1.03-1.24,1.05Z"/>
    <path class="cls-1" d="m65.85,297.65l-.24.41c-.71-.03-.61-.35-1.01.12,1.24-.53.58.92,1.83.35l-.18.29c-.01-.05-.09-.02-.1-.07-.42.6.99-.21,1.02.27-.02.18-.15.37-.34.35l.45.15c.02.1-.2.19-.22.09.11.14.22.28.35.41l-.04.02c.22-.04.6-.05.76-.05-.1.21-.16.01-.29.13l.43.08c-.25.28-.66.24-.72.04-1.04.9.42.04.03.94l-.29-.15c-.58.54-.22.59-.47,1.12.17-.2.72-1.17,1.17-1.07-.04.13-.03.26.29.26-.41.25-.23.34-.09.5l-.55.33c.28.09.55-.09.86-.14.08.24-.3.56-.62.83.14.4.51-.67.88-.33-.02.41.33.47.86.58-.05.32-.34.19-.45.36l.53-.12s-.12.13-.19.16c.27.02.53-.36.83-.24.61-.36-.5,1.05.35.85-.09.18-.34.21-.52.38.7.05.54.09,1.32-.05l-.12.51c.22-.48.86-.61,1.38-.72.13-.21.24-.39.28-.49l.52.08c-.05.1-.24.22-.49.34.06-.02.11-.03.16-.04-.09.26-.42.44-.76.6.07-.12.14-.24.21-.36-.36.17-.76.37-1.03.63.07-.03.16-.03.22,0-.1.05-.18.09-.22.14-.04.05.09,0,.26-.06l-.48.53.23-.16.02.71c.8-.17,1.8-.62,2.43-.4-.48.25-.64.56-1.1.99.36-.57-.55-.15-.66-.49.06.17-.18.35-.29.38.27.02.56.01.84.02-.38.34-.19.35-.24.6.64-.77.78-.15,1.16-.2-.23.25-.51.45-.66.19-.31.76,1.12-.54.88.14-.05-.04-.04-.11-.18,0,.32-.09.44.35.17.5l-.06-.04c.26.4,1.05.96,1.66.37-.07.09-.72.73-.86.84.84-.53,1.65-1.06,2.47-1.64-.53.51-1.43,2.02-2,2.09.02.15.05.33.4.28,0-.13.53-.93.65-.92-.3.8-.13.46-.29,1.21,0-.19.82-1.01.94-.87-.13.12-.69.9-.81.95l1.04-.61c-.21.09-.6.74-.71,1.06.1-.21.29.27.46.24v-.32c.32.43,1.34-.99,1.7-.67-.18.16-.95,1.08-.82,1.35.43-.4,1.99-1.99,2.55-2.14l-.11.32.47-.16c-.62.65-2.1,1.86-2.77,2.24,0,.32-.18.35.08.49-.09.32-.39.3-.47.26.15.18.3.38.45.55.34-.58.81-.29,1.08-.78-.33.07-.67.15-.99.2.35-.57,1.39-1.37,1.71-1.04-.04.29-.71.97-.82,1.16.18-.16.61-.14.56.02l-.36.2c.1.36.82-.54.77.17.07.09-.15.92.07.58.22-.76,1.38-2.83,1.76-3.28,0,.06.1.88.02,1.27-.13.61-.91,1.14-1.03,1.66.09-.16.29-.31.36-.36.03.19-.31.48-.05.52.35-.58.41.28.37-.46.3-.06.16.24.42.35.12-.44.89-1.22,1.17-1.3-.09.15-.14.37-.16.48.4.25.51.63.91.82-.03.17.09.44-.11.67.11-.08.25-.27.38-.23.02.65-.32-.04-.4.7.17-.35.54-.36.82-.53.17-.59-.38-.26-.65-.12.33-.78.97-1.45,1.52-1.68.4-.08-.05.56.05.47.58.37,1.01-1.19,1.31-.44.04.57-.32,1.02-.4,1.4-.35.11-.31-.47-.5-.52l.14.32c-.14.14-.38.2-.42.01,0,.26.27.38.58.51.31.11.67.23.86.52.14-.15.35-.28.33-.51l-.18.03c-.02-.46.46-.49.32-.74.29-.24.63-.62.86-.32l-.09.61c.04-.18-.1-.39-.23-.24.18-.22.26.91.58.16l-.11-.46c.28-.25.67-.84.87-.59.01-.62-.07.05-.1-.67-.04.89-.61-.17-.58.78.01-.84-.23-.4-.28-1.15-.04.2-.02.4-.19.24-.02.05-.07.12-.09.16v-.02s0,.03,0,.03c-.02.03-.02.03,0,0,.02.1.04.21.02.33-.22.42-.55.31-.73.5-.1-.13.12-.21.11-.43l-.27.3c.11-.44-.1-.81.26-.98l-.25-.09c-.07-.28-.24-.44-.42-.31-.08-.13-.46.36-.24.07l-.49.12.04-.11c-.36-.19-1.09.4-1.2-.55-.17.05-.36.11-.52-.1l.12-.37c-.22.05-.32-.56-.56-.24.3-1.03-.65-.6-.84-.91l-.25.44c-.18-.13-.43-.09-.76-.06l-.21.4c-.39.19-.36-.59-.7-.75.11-.13.17-.05.17.08.17-1.07-1.2.12-1.12-.74-.18.08-.2-.01-.2-.14,0,0,.02,0,.03,0,0-.01-.02-.02-.03-.03,0-.09.02-.19.02-.27-.03.11-.05.21-.04.26-.07-.04-.2-.06-.36-.03l.24-.42s-.02,0-.03,0c.01-.21-.21.13-.37.46-.09.03-.2.08-.3.15.39-.67-.41.03,0-.71-.31.27-.64-.12-1.22.5.07-.09.07-.15.13-.12-.04-.16-.09-.32-.33-.21l.34-.51-.75.45c.1-.4.19-.6.62-.86-.79.29-.43-.01-1.17.29l.28-.28c-.1-.07-.61.18-.45-.11.15-.38-.1-.63-.38-.92-.27-.31-.59-.65-.58-1.15-.75.9.15-.6-.53,0,.17-.22.22-.39.47-.47-.46-.08-.03-.7-.77-.38.18-.21.35-.21.45-.34-.06.02-.26.07-.16-.07.1-.14.21-.11.34-.15-.27-.25-.94.28-1.57.77.16-.39.06-.43-.44-.2.16-.22.29-.48.52-.36-.07-.12-.22-.86-.72-.49.1-.13-.08-.18-.16-.16-.15-.27-.12-.32-.35-.52l-.03.13c-.69.36-.29-.1-.51-.23l.07-.04c.12-.76-.36-.04-.14-.85l-.38.29c-.88.53.24-.75-.26-.79l-.17.24c-.4.04.91-1.16.93-1.36.06-.08.15-.03.24-.02.28-.68-.57.29-.86.08.26-.23.77-.38.72-.6.18-.23-1.27,0-.86-.58-.19.19-.39.37-.64.34-.2-.17.54-1.02-.27-.83.05-.06.1-.1.16-.13-.27-.06-.58-.36-1.03-.26,1.41-.88-1.25-.67.15-1.33l-.3-.48.15-.05c-.05-.37-.44-.33-.82-.31.06-.12.22-.12.29-.14.07-.6,0-.61-.87-.75l.45-.22c-.31-.01.46-.98-.26-1.26.05-.01.15-.04.23-.02-.75-.37.9-1.71-.89-1.38l-.54-.24c.02.52-.77.15-1,.43-.17-.16.38-.65.53-.44l-.08.06c.92-.17.16-.7.79-.85-.14-.47-.15-.96-.13-1.44.03-.49.08-.97.01-1.41l-.7.24-.02-.32c.15-.11.54-.21.56.02.39-.19-.42-.31-.57-.29.23-.49.87.03.86-.11l-.08-.17-.08.05c-.32-.1-.63-.06-.63-.33.12-.19.43-.16.45-.23.05,0,.07-.03,0-.1v-.4s-.54.24-.54.24c-.31-.14-.02-.38-.65-.11.94-.4.19-1.53.49-1.73-.44-.21-.46-.46-.43-.77-.11.08-.76.17-.7-.1,1.34.02.57-.52,1.52-.77-.63.21-.18-.73-1.08-.41.1-.22.5-.03.81-.2-.55-.51.35-1.13.18-1.76-.18-.02-.45.08-.7-.07l.89-.3c-.08-.13-1.02-.17-.39-.36-.15.02-.38.06-.43-.03.49-.6.35-1.24.35-1.89.03-.64.11-1.3,1.03-1.74-.37.1-.38-.02-.36-.15-.1.07-.43-.09-.66-.12l.76-.38c-.62-.24.08-.56-.53-.76l.07.19c-.68-.4-1.68-.07-2.61-.31.77.44-1.39.46-.3,1.15-.21.06-.29-.14-.51-.13.38.19.45.34.23.56l-.1-.05c0,.74-.47.98-.83,1.78h.48c-.08.16-.23.18-.35.25.7.28.08-.49.86-.22-.98.13-.12,1.22-1.23,1.29-.03.27.55-.04.52.23l-.3.05.38.09c-.08.17-.44.24-.7.24.03-.04-.07-.13-.09-.18-.36.22.1.67-.02.74l.19-.26c.26.75-.17,1.67.47,2.37l.22-.06c.43.53-.23.44-.02,1.03l-.05-.02c.23.11.34.26.33.42-.27-.13-.48.31-.79.14.49.56.37.27,1.24.59l-.36.12c.35.1.52.1.64.38-.34-.21-.55.24-.99.01-.75.71.9.83-.23,1.25,1.06.15.49-.6.73-.47.31-.17.79.14.72.34,0,.19-1.25.5-1.16,1,0-.05-.08-.04-.08-.09-.23.23.4.31.02.61.63.03,0,.3.8.21l-.25-.42c.24.23,1.19.3.83.79-.16,0-.39-.09-.53-.15-.21.16.2.21-.01.38-.78.11-.29-.51-.92-.69-.32.19.66.42-.21.44,1.11,0-.04.52.85.69l-.47.07c.08.04.33.1.33.2l-.64-.05c.57.17-.34.62,0,.83-.13-.55.53-.25.83-.55.76.53-1.15.66-.73,1.36-.09-.09.18-.45.43-.34-.06.16-.19.4-.41.55.22.48.45-.2.79-.05-.52.31.29.18.52.35l-.47.13c-.15.64,1.01-.12.78.48l-.7-.03.23.22-.54.1c.47.18.4.29.34.61.31-.16.85-.22.94.02-.22.25-.47.04-.29.37-.31.01-.7.04-.32-.24-.16.03-.31.01-.47.04-.26.28.07.48.12.61,0-.05,0-.12.06-.17l.79.3c-.15.14-.3.12-.46.1.08.09.31.09.4.22-.38.09-.76.23-1.01.07.19.12.37.23.57.34-.15.09-.35.4-.51.39-.12.35.96.39.81.85.08,0,.16,0,.24.06.04.36-.3.84.37,1.01l-.55.49c.28.24.69-.64,1.15-.25.36.26-.49.37-.62.57.4.04,1.19.03.81.6-.17-.05-.11-.18-.2-.26Zm2.14,3.4c-.13-.01-.47,0-.26-.18.52-.2.33-.01.26.18Zm4.43,4.19c-.16.06-.15-.06-.08-.25.08.03.11.1.08.25Zm14.52,5.94v.02c-.1-.22-.07-.13,0-.02Zm.23.29c.05-.06.07-.12.08-.19-.06.11-.13.1-.19.04-.02.13,0,.22.12.14Zm-20.13-25.18l-.12.08c-.16-.12-.03-.1.12-.08Z"/>
    <path class="cls-1" d="m71.48,305.15c.05-.07.11-.13.18-.19-.08.03-.15.09-.18.19Z"/>
    <path class="cls-1" d="m64.65,295.44s0,0,0-.01c-.03,0-.06.01-.09.02h.08Z"/>
    <path class="cls-1" d="m80.8,313.19c-.03-.1-.03-.19,0-.29-.06.1-.08.2,0,.29Z"/>
    <path class="cls-1" d="m88.94,311.1l-.22.08c.1,0,.1.11.13.19.02-.11.02-.28.08-.27Z"/>
    <path class="cls-1" d="m90.1,314.37c.04-.05.07,0,.11-.05l.03-.22c-.13,0-.26.16-.13.27Z"/>
    <path class="cls-1" d="m88.76,312.7c-.07.4.08.29.24.25,0,0-.02,0-.02,0,.16-.55-.03-.39-.22-.24Z"/>
    <path class="cls-1" d="m89.03,312.95s.09,0,.13.02c.06-.22-.04-.06-.13-.02Z"/>
    <path class="cls-1" d="m87.63,311.32c.03.12.18-.49.17-.32.22-.48-.59.48-.17.32Z"/>
    <polygon class="cls-1" points="88.58 314.03 88.64 313.53 88.47 313.91 88.58 314.03"/>
    <path class="cls-1" d="m87.52,313.39l.19.2c.02-.08.06-.12.1-.15-.14-.06-.26-.2-.3-.05Z"/>
    <path class="cls-1" d="m87.82,313.45c.07.03.14.04.21-.03-.04,0-.13-.01-.21.03Z"/>
    <polygon class="cls-1" points="88.22 314.11 88.18 313.99 88.02 313.92 88.22 314.11"/>
    <path class="cls-1" d="m85.12,312.5l-.3.04c-.09.15-.06.27.06.24.1-.09.22-.12.24-.29Z"/>
    <path class="cls-1" d="m85.4,314.07c-.03-.12,0-.23.01-.4l-.22.58.2-.18Z"/>
    <path class="cls-1" d="m84.6,313.93c-.09.15-.56.32-.21.41.09-.15.4-.19.21-.41Z"/>
    <polygon class="cls-1" points="81.25 311.5 81.31 311.52 81.8 310.63 81.25 311.5"/>
    <path class="cls-1" d="m76.84,311.57c.14.39.43-.46.51-.04.2-.15-.06-.35.13-.47-.31.09-.32-.09-.63.51Z"/>
    <path class="cls-1" d="m77.47,311.06s.11-.03.17-.07c-.08.02-.14.04-.17.07Z"/>
    <polygon class="cls-1" points="67.91 274.94 68.16 274.81 67.8 274.85 67.91 274.94"/>
    <path class="cls-1" d="m67.26,274.41l.64.12-.55-.25s.06.14-.09.14Z"/>
    <path class="cls-1" d="m67.17,302.26l.14-.07c.13-.12.11-.17.08-.27l-.22.34Z"/>
    <polygon class="cls-1" points="66.14 299.41 66.15 299.47 66.63 299.11 66.14 299.41"/>
    <path class="cls-1" d="m64.39,297.47c.02.1.19.16.21.27-.19-.16.45-.59-.21-.27Z"/>
  </g>
</svg>