<?xml version="1.0" encoding="UTF-8"?>
<svg id="logo" xmlns="http://www.w3.org/2000/svg" viewBox="0 0 469 382">
  <defs>
    <style>
      .cls-1 {
        fill: #231f20;
      }
    </style>
  </defs>
  <g>
    <path class="cls-1" d="m318.65,259.32c.34.18.37-.26.46-.3-.63-.16-.48.41-.46.3Z"/>
    <polygon class="cls-1" points="312.45 257.74 312.62 257.63 311.6 257.66 312.45 257.74"/>
    <path class="cls-1" d="m307,255.45c.24.87,2.02.72,2.89,1.37l.1.22.66-.35c-1.22-.41-2.9-.7-3.65-1.24Z"/>
    <path class="cls-1" d="m304.69,252.8c.07.33-.72-.04.64.36-.05-.06-.07-.08-.1-.12-.12-.05-.28-.11-.55-.25Z"/>
    <path class="cls-1" d="m305.24,253.05c.58.22-.29-.37,0,0h0Z"/>
    <path class="cls-1" d="m302.52,252.08l.85.09c-.09-.22-.75-.53-.46-.54-.83-.2-.73.02-.4.45Z"/>
    <path class="cls-1" d="m301.61,252.26l.43.07c-.04-.09-.14-.16-.43-.07Z"/>
    <path class="cls-1" d="m302.96,252.48l-.92-.14c.06.15-.01.37.41.09-.15.17.09.05.5.06Z"/>
    <path class="cls-1" d="m303.38,252.77c.36.32.87.64.02.55,1.49.52,1.47-.04-.02-.55Z"/>
    <path class="cls-1" d="m306.43,256.01l.49.43h.58c-.29,0-1.02-.65-1.07-.43Z"/>
    <path class="cls-1" d="m297.96,249.77c-.11.12.1.48.08.68l.63.07c-.25-.22-.75-.53-.71-.76Z"/>
    <path class="cls-1" d="m298.03,250.45l-.94-.11c.73.34.92.28.94.11Z"/>
    <polygon class="cls-1" points="301.16 252.94 302.75 253.01 300.9 252.83 301.16 252.94"/>
    <polygon class="cls-1" points="294.77 248.41 295.38 248.28 294.33 248.42 294.77 248.41"/>
    <path class="cls-1" d="m292.63,247.57c.46-.12-.29-.66.15-.67-.6-.19-1.18-.17-1.71-.15.52.08,1.01.32,1.56.81Z"/>
    <path class="cls-1" d="m290.2,246.75c.26.03.55.02.87,0-.28-.04-.56-.06-.87,0Z"/>
    <path class="cls-1" d="m295.7,249.67c-.03-.11-.06-.39-.49-.68l.16.53c.1.04.21.09.33.14Z"/>
    <path class="cls-1" d="m295.38,249.54v-.02c-.36-.16-.6-.27-.71-.32.09.04.3.14.71.34Z"/>
    <path class="cls-1" d="m295.79,249.71s-.05-.02-.08-.04c.02.05.03.07.08.04Z"/>
    <path class="cls-1" d="m299.12,251.66c-.58.01-1.71-.18-.86.57.47-.12-.02-.55.86-.57Z"/>
    <path class="cls-1" d="m295.99,250.37l.85.46c.03-.11-.07-.33.22-.34l-1.07-.13Z"/>
    <polygon class="cls-1" points="295.5 250.31 295.99 250.37 295.67 250.2 295.5 250.31"/>
    <path class="cls-1" d="m291.56,247.76c-.46.01-.88-.15-1.37-.32.48.29.98.55,1.48.76.12-.09.43-.22-.12-.44Z"/>
    <path class="cls-1" d="m293.4,248.66s-.07-.01-.09-.01c.04.06.08.08.09.01Z"/>
    <path class="cls-1" d="m285.53,245.47s.03.07.04.1c.02-.02.03-.04.05-.06l-.09-.04Z"/>
    <path class="cls-1" d="m291.73,248.31c.35.24.62.24.89.21-.3-.08-.62-.18-.94-.31-.06.04-.08.08.05.11Z"/>
    <path class="cls-1" d="m288.82,246.39c.16.17.36.33.57.49-.14-.21-.46-.57-.57-.49Z"/>
    <path class="cls-1" d="m293.23,248.48s.04,0,.06,0c-.09-.14-.09-.09-.06,0Z"/>
    <path class="cls-1" d="m293.23,248.48c-.22-.03-.42,0-.61.03.25.07.48.11.69.14-.04-.05-.07-.11-.08-.16Z"/>
    <path class="cls-1" d="m283.06,247.41c.22-.34,1.37-.25,2.07.5.97.08.91-1.35.45-2.34-.09.15-.16.3-1.12.14.22.33,1.75,1.28.87,1.3-1.24-.3-.9-.53-1.38-.96.29.66-1.76.04-1.78.82l1.12.19c-.02.11-.46.12-.22.34Z"/>
    <path class="cls-1" d="m287.23,246.32l.38.11c-.38-.24-.62-.51-1.04-1.02-.68-.07-.86,0-.95.11l1.76.8h-.15Z"/>
    <path class="cls-1" d="m289.23,247.1c-.45.28-1.39.08-1.04.74,1.07.42.88-.02,1.59.07-1.75-.62.58-.01-.56-.76.36.07.68.18.97.28-.29-.18-.56-.36-.81-.55.01.02.02.03.03.04h0s0,0,0,0c.05.08.06.12,0,.06,0,0-.03,0-.04,0-.03.05-.09.09-.14.12-.46-.29-.03-.14.14-.12.01-.02.04-.03.05-.05,0,0,0,0,0,0l-1.8-.5c.34.21.8.39,1.62.68Z"/>
    <path class="cls-1" d="m296.99,252.7c-.04-.06-.02-.08-.02-.12-.13,0-.19.02.02.12Z"/>
    <path class="cls-1" d="m296.39,252.17c.15,0,.32-.12.71.09.3.27-.08.19-.12.33.29,0,.97.07.29-.44h-.14c-.63-.42-1.31-1.29-1.17-1.29.05.44.12.77.43,1.31Z"/>
    <path class="cls-1" d="m292.72,249.72l-1.51-.4.58.65.05-.22c.78.42.71.09.88-.02Z"/>
    <polygon class="cls-1" points="285.45 245.21 285.82 244.87 284.74 245.11 285.45 245.21"/>
    <polygon class="cls-1" points="283.58 244.48 283.8 244.14 283.22 244.16 283.58 244.48"/>
    <path class="cls-1" d="m177.08,205.08l-.46-.07c.21.05.35.07.46.07Z"/>
    <path class="cls-1" d="m180.11,206.38l.15-.15c-.18.04-.27.09-.15.15Z"/>
    <path class="cls-1" d="m238.04,225.4c-.47-.6-.93-1.41-1.03-.97l.02.48c.46.11.76.29,1.01.49Z"/>
    <path class="cls-1" d="m205.86,214.7c.04.06.08.13.13.2.21-.07.4-.14.57-.21-.21,0-.45.01-.7.01Z"/>
    <path class="cls-1" d="m204.74,216.18l-.7-.6c.14.17.37.36.7.6Z"/>
    <path class="cls-1" d="m160.34,198.55l-.66.2c.77.32.52-.03.66-.2Z"/>
    <path class="cls-1" d="m264.53,236.66c-.46-.38-.85-.62-1.21-.79.54.5.91,1.06,1.21.79Z"/>
    <path class="cls-1" d="m180.06,201.34c-.29-.04-.43,0-.46.09.29.04.47.03.46-.09Z"/>
    <path class="cls-1" d="m261.8,235.22c.08.08.16.14.24.21.41.09.82.2,1.28.43-.4-.37-.89-.7-1.52-.64Z"/>
    <path class="cls-1" d="m100.38,172.98s-.09-.07-.12-.1c-.04.05.02.08.12.1Z"/>
    <path class="cls-1" d="m84.56,161.59c.18.05.46.17.73.27-.12-.08-.34-.17-.73-.27Z"/>
    <path class="cls-1" d="m276.19,241.17c.4.14.08-.02,0,0h0Z"/>
    <path class="cls-1" d="m277.44,243.56c-.1,0-.19.04-.24.13.07-.08.15-.12.24-.13Z"/>
    <path class="cls-1" d="m256.84,236.07s-.02-.01-.03-.02c.08.13.07.1.03.02Z"/>
    <path class="cls-1" d="m276.71,241.6c-.13-.11-.28-.22-.45-.33.07.07.2.17.45.33Z"/>
    <path class="cls-1" d="m276.71,241.38c.13.07.23.13.33.18.08-.05.05-.11-.33-.18Z"/>
    <path class="cls-1" d="m275.64,240.97c.23.09.43.2.62.31-.07-.06-.09-.1-.06-.1-.12-.04-.28-.1-.56-.21Z"/>
    <path class="cls-1" d="m133.03,185.43s-.05-.04-.07-.07c-.47,0-.28.05.07.07Z"/>
    <path class="cls-1" d="m226.06,225.26s.03,0,.05,0c-.02-.01-.04-.03-.05-.04v.04Z"/>
    <path class="cls-1" d="m224.53,224.97c.81-.25,1.13-.04,1.54.26l.02-1.35-1.55,1.09Z"/>
    <path class="cls-1" d="m169.77,202.15l.84.78c-1.45.09-2.23-.48-1.51.42.67-1.19,3.91,1.49,4.57.3l.54.54c-.18-.09-.24-.03-.42-.12,1.02,1.13,1.32-.51,2.89.36.53.34.85.68.4.67l1.4.22c.36.18.18.36-.18.18l1.98.71-.03.03c.36-.08,1.11-.12,1.47-.12.42.39-.3.03-.24.24l1.2.15c.3.51-.72.45-1.44.09.48,1.67,1.02.06,2.88,1.7l-1.08-.27c.36.98,1.26,1.06,2.22,1.98-.17-.35-1.83-2.08-.53-1.9.29.23.7.46,1.44.47-.18.45.48.6,1.26.89l-.3.57c.9.18.96-.15,1.56-.21.9.45.9.98.96,1.46,1.44.72-.72-1.16,1.09-.54,1.14.74,2.11.87,3.73,1.13.78.57-.3.3-.06.6l.96-.15c.18.09.06.21,0,.27.72.09.3-.57,1.38-.3.55-.53,1.68,1.82,3.25,1.61.24.3-.3.3-.3.57,1.92.24,1.62.27,3.31.21l1.04.89c-.7-.81.65-.86,1.82-.88-.22-.35-.41-.65-.56-.81l1.71.35c.15.18-.09.31-.46.45.13,0,.25,0,.35-.02.47.46.04.67-.51.83-.14-.2-.28-.4-.42-.6-.54.19-1.07.44-1.14.82.13-.02.35,0,.58.06-.14.05-.24.11-.22.19.03.08.25.02.57-.02l.08.81.2-.22,1.89,1.28c1.76-.04,3.45-.47,5.91.24-.78.24-.46.73-.73,1.29-.39-.87-1.93-.51-3.09-1.14.61.33.35.54.15.57l2.4.36c-.25.45.31.54.8.97-.04-1.1,1.88.06,2.88.15-.08.33-.42.56-1.47.03.9,1.19,1.99-.44,2.91.64-.27-.1-.39-.21-.56-.1.73-.02,2.14.83,1.67.95l-.26-.1c1.7.84,5.31,2.24,5.9,1.56-.03.11-.63.85-.8.96l4.22-1.33c-.56.56-.18,2.6-1.79,2.38.38.27.84.6,1.82.73-.24-.21-.3-1.27.12-1.17.75,1.2.57.71,1.61,1.9-.36-.32.55-1.18,1.21-.87-.17.11-.38,1.07-.67,1.07l2.11-.33c-.5.01-.44.85-.19,1.3-.09-.28,1.44.63,1.93.71l-.61-.54c1.82.95,2.48-.68,4.33.17-.32.12-1.11,1.08-.22,1.61.66-.35,3.01-1.74,4.83-1.46l.19.44,1.42.19c-1.13.47-4.05,1.22-5.54,1.36.61.54.05.44,1.12.86.25.44-.76.19-1.08.08l2.39,1.22c.15-.67,2.14.17,2.27-.39l-2.94-.48c.15-.66,2.29-1.11,3.98-.27.34.43-.8.96-.85,1.19.32-.12,1.83.29,1.92.51l-.88.02c.87.64,1.93-.16,2.85.93.39.21.87,1.3,1.09.97-.36-.98.43-3.23,1.09-3.57.12.11,1.83,1.56,2.15,2.11.43.83-1.55.9-1.19,1.62.1-.16.55-.21.73-.22.36.32-.4.45.56.76.42-.56,1.85.84.66-.35.97.2.9.53,1.97.95-.17-.55,1.53-.98,2.5-.78-.12.14,0,.43.05.57,1.82.83,2.69,1.53,4.41,2.26.09.22.85.75.38.87.29,0,.61-.12,1.15.08.8.97-1.22-.41-.71.57.22-.34,1.58.07,2.43.16,0-.66-1.7-.84-2.55-.93.32-.78,1.98-1.04,3.93-.65,1.51.41.41.76.7.76,2.63,1.26,2.86-.4,4.85,1.1.68.87-.37,1-.33,1.44-1.24-.3-1.65-1.06-2.45-1.38l.87.64c-.44,0-1.27-.19-1.63-.51.55.76,4.5,1.99,6.39,3.27.44-.01,1.14.08.93-.24l-.68-.21c-.43-.65,1.46-.04.71-.57,1,.09,2.17.06,3.31.8v.66c.04-.18-.67-.68-1.09-.65.62-.03,1.57,1.56,2.45,1.06l-.7-.76c1,.09,2.34-.06,3.36.58-.26-.77-.28-.04-.78-1.02.33,1.1-2.79-1.21-2.06.1-.48-1.09-1.25-.9-2.02-1.99-.05.2.22.51-.66.03-.06.04-.19.07-.27.08-.03-.02-.03-.02-.06-.04.02.01.03.03.04.04-.05.01-.06.02.02.02.18.17.32.35.35.48-.64.24-2.09-.39-2.68-.38-.51-.32.32-.12.1-.44l-.88.02c.1-.45-1.16-1.3.23-1l-1.15-.5c-.58-.52-1.48-1-2.13-1.07-.51-.32-1.57-.12-.96-.25l-1.92-.51.03-.11c-1.77-.8-3.98-.86-5.71-2.47-.65-.15-1.32-.28-2.28-.82l-.05-.44c-.83-.2-2.17-1.33-2.66-1.1-.43-1.31-3.67-1.79-4.96-2.53l-.25.45c-.93-.42-1.88-.66-3.12-.97l-.1.44c-1.15-.08-2.46-1.38-4.06-2,.17-.11.56.1.8.31-1.5-1.73-4.28-1-5.72-2.4-.49-.03-.78-.21-1.04-.44.04.02.08.02.12.02-.04-.02-.11-.05-.17-.08-.16-.15-.32-.32-.5-.47.14.18.27.33.41.43-.33-.13-.86-.29-1.39-.39l-.02-.53s-.07-.03-.12-.04c-.41-.37-.48.05-.36.49-.28-.03-.54-.04-.76,0-.09-.88-1.39-.3-1.6-1.29-.49.23-2.59-.76-3.18-.08.03-.11-.1-.22.17-.11-.51-.32-1.02-.64-1.6-.62v-.66s-1.51.26-1.51.26c-.58-.65-.8-.98.1-1.11-2.02-.06-1.52-.34-3.28-.3l.23-.33c-.54-.21-1.59-.07-1.78-.51-.89-1.19-5.82-2.56-8.59-4.48.14,1.32-1.21-1.08-1.68-.29-.07-.33-.43-.65.15-.66-1.66-.4-2.16-1.38-3.53-1.13-.07-.33.49-.23.39-.45-.15,0-.59.01-.68-.21-.09-.22.32-.12.61-.13-1.6-.62-2.09.09-2.52.78-.66-.69-1.08-.8-1.86-.57-.18-.36-.54-.81.48-.48-.54-.27-3.24-1.77-3.54-1.21-.11-.22-.76-.37-.93-.36-1.23-.56-1.32-.66-2.56-1.11l.3.24c-.78.51-1.08-.27-2.1-.6l.06-.06c-2.04-1.46-1.08-.16-3.06-1.68l-.06.49c-.61.86-1.74-1.39-3.18-1.57l.36.45c-.84.03-1.43-2.12-2.09-2.54-.12-.15.3-.03.54,0-1.62-1.34-.48.48-1.92.03-.12-.42.66-.66-.24-1.11-.36-.45-3.12-.12-4.14-1.25.18.36.36.72-.36.63-1.02-.33-2.28-2.03-3.49-1.64-.1-.12-.12-.2-.1-.26-.83-.12-2.58-.7-3.21-.48-.05-1.82-4.99-1.22-4.38-2.62l-2.35-.9.12-.12c-1.44-.71-2.1-.6-2.77-.48-.3-.24,0-.27.06-.33-2.04-1.19-2.28-1.22-4.39-1.28v-.54c-.6.06-2.82-2.03-5.16-2.39.04-.04.12-.11.32-.11-2.61-.47-5.18-3.67-6.75-2.37l-1.75-.25c1.98.98-.61.59.11,1.22-.84-.24-1.86-1.37-.84-1.04l.12.15c.73-.72-2.4-1.37-2.1-1.94-4.02-1.64-7.73-3.76-11.47-5.37l.15.86-1.29-.59c-.28-.3-.24-.72.68-.3-.33-.59-1.7-.34-1.79-.2-1.71-1.04,1.04-.49.49-.74l-.78-.27.14.15c-.73.02-.91.29-2.02-.22-.65-.43-.19-.57-.46-.71.02-.05-.06-.11-.42-.2l-1.63-.75.44.81c-.84-.04-1.54-.68-1.03.24-.73-1.4-6.01-2.92-6.58-3.49-1.19-.04-2.19-.47-3.43-1.05.26.24.2.92-.85.39.91-1.07-1.75-1.37-2.25-2.62.53.92-3.13-1.14-2.26.21-.86-.48.14-.49-.42-1.06-2.35-.42-4.6-2.3-7.31-3.25-.11.14.23.58-.44.58l-1.06-1.4c-.56-.14-.88.73-1.6-.23.08.19.19.48-.18.39-4.86-2.97-10.88-3.81-15.53-7.51.58.61.09.45-.46.23.32.22-.18.4-.2.65l-1.95-1.54c-.66.44-2.38-.95-2.86-.47l.74.19c-1.22.3.66,2.08.15,2.9,1.37-.35,2.26,2.31,4.44,1.91.3.34-.44.15-.33.44.59-.2,1.15-.06,2.05.52l-.15.05c2.76,1.05,3.77,1.91,6.73,3.45l-.04-.53c.63.33.71.53.98.77,1.03-.35-1.83-.81-.84-1.25.5,1.25,4.63,1.96,4.79,3.22,1.01.43-.08-.63.92-.2l.15.39.4-.24c.64.34.83.82.76,1.06-.15-.1-.48-.13-.67-.18.72.68,2.47.91,2.72,1.14l-.9-.58c2.87.9,6.08,2.68,8.98,3.24l-.12-.29c2.2.47,1.54.91,3.84,1.67l-.1.02c.53-.02,1.17.13,1.78.41-.67,0,.86.92.01.87,2.38.52,1.23.14,3.01-.02l.19.48c.63-.1.74-.25,1.89.13-1.04-.09.49.82-.69.78,2.03,1.73,3.79.71,4.41,2.25,1.47-.49-1.81-1.38-1.12-1.33-.37-.52,1.18-.33,1.88.07.74.34.76,1.74,2.65,2.52-.19-.08-.23-.02-.41-.1.6.54,1.52.25,2.22,1.01.72-.37,1.11.5,1.55-.17l-1.8-.56c1.06.22,2.34-.25,3.77.84-.19.09-.75.09-1.12.06.38.41.97.24,1.36.66-.45.67-2.17-.72-3.45-.61.38.52,2.21.3,1.35.87,1.18-.69,1.8.91,3.4.67l-.27.4c.23.02.74-.02,1.1.15l-.91.29c1.24-.05,1.81,1.26,2.91,1.41-2.08-.86-.24-.72-.99-1.41,2.8.49.99,1.76,3.94,2.75-.41-.1-1.34-.87-.65-.82.51.32,1.16.79,1.39,1.16,1.93.71-.1-.57.82-.5.42.8,1.02.17,1.93.35l-.18.45c2.04,1.19.96-.69,2.76.48l-1.08.27,1.08.27-.42.42c1.26.09,1.56.33,2.58.93-.12-.42.48-.75,1.44-.36.54.54-.54.27.84.78-.42.15-.91.36-1.32-.3-.12.12-.42.15-.54.27.58.6,1.74.81,2.23,1.01-.18-.1-.4-.21-.49-.33l2.23.21c.24.3-.06.33-.36.36.42.12.78.03,1.38.24-.3.3-.42.69-1.32.51l2.04.39c.06.21.78.84.48.87.95.65,2.84.37,4.1,1.23.1-.04.27-.05.59.02,1.26.63,2.22,1.55,3.96,1.7l.6,1.01c1.26.36-.84-1.31,1.27-.72,1.5.39.3.77.72,1.16.84-.03,2.35-.18,3.43.89-.48-.06-.78-.3-1.2-.42Zm14.94,5.94c-.33-.03-1.02.02-1.12-.33.54-.37.69-.02,1.12.33Zm22.97,8.39c-.28.06-.57-.15-.88-.48.29.08.58.22.88.48Zm64.05,23.25s-.03,0-.04,0c-.57-.44-.37-.28.04,0Zm1.25.75c.16,0,.18-.07.15-.16-.14.07-.44-.04-.77-.22.05.16.18.31.62.38Zm-142.9-59.8l.21.23c-.64-.12-.43-.16-.21-.23Z"/>
    <path class="cls-1" d="m204.87,216.01c-.05-.11-.04-.2-.02-.29-.14.03-.18.11.02.29Z"/>
    <path class="cls-1" d="m160.46,198.51s-.03-.01-.04-.02c-.04.02-.06.04-.08.06l.12-.04Z"/>
    <path class="cls-1" d="m250.8,235.6c-.25-.18-.37-.32-.43-.45-.06.1.03.25.43.45Z"/>
    <path class="cls-1" d="m280.35,242.68l-.9-.24c.42.15.53.31.71.47.02-.11-.07-.33.19-.23Z"/>
    <path class="cls-1" d="m286.58,248.54c.15,0,.27.1.41.1l.05-.22c-.54-.21-.98-.2-.47.12Z"/>
    <path class="cls-1" d="m280.51,244.49c-.09.4.5.5,1.12.68-.04-.01-.07-.02-.11-.04.4-.45-.31-.54-1.02-.64Z"/>
    <path class="cls-1" d="m281.78,245.22c.19.06.38.13.56.22.16-.18-.21-.14-.56-.22Z"/>
    <path class="cls-1" d="m274.77,240.94c.24.22.38-.4.47-.18.52-.34-2.13-.22-.47.18Z"/>
    <polygon class="cls-1" points="280.48 245.93 280.46 245.37 279.97 245.61 280.48 245.93"/>
    <path class="cls-1" d="m275.91,243.61l.9.53c.02-.08.16-.08.32-.05-.58-.26-1.19-.62-1.22-.48Z"/>
    <path class="cls-1" d="m277.13,244.09c.3.14.6.25.8.25-.17-.06-.53-.2-.8-.25Z"/>
    <polygon class="cls-1" points="279.12 245.52 278.88 245.3 278.22 244.99 279.12 245.52"/>
    <path class="cls-1" d="m265.7,239.21l-1.1-.3c-.17.11.07.33.48.43.3,0,.71.1.61-.12Z"/>
    <path class="cls-1" d="m268.31,241.8c-.24-.21-.22-.33-.31-.54l-.27.56.58-.02Z"/>
    <path class="cls-1" d="m265.22,240.66c-.17.12-1.7-.18-.37.34.17-.11,1.27.19.37-.34Z"/>
    <polygon class="cls-1" points="249.85 233.35 250.11 233.46 250.47 232.5 249.85 233.35"/>
    <path class="cls-1" d="m235.08,229.79c1.14.74.54-.46,1.53.29.38-.1-.81-.61-.44-.68-.84-.08-1.18-.37-1.1.39Z"/>
    <path class="cls-1" d="m236.18,229.41c.13.01.28.02.44.02-.24-.03-.36-.03-.44-.02Z"/>
    <polygon class="cls-1" points="81.87 159.87 81.16 159.34 81.54 159.87 81.87 159.87"/>
    <path class="cls-1" d="m80.06,159.93l.06-.68-.7.34c.19.05.56.14.64.34Z"/>
    <path class="cls-1" d="m186.41,210.22l.12-.12c-.06-.21-.24-.3-.6-.48l.48.6Z"/>
    <polygon class="cls-1" points="175.84 205.25 176.02 205.34 175.9 204.65 175.84 205.25"/>
    <path class="cls-1" d="m166.52,202.15c.36.18.84.24,1.2.42-.84-.24-1.02-1.13-1.2-.42Z"/>
  </g>
  <g>
    <path class="cls-1" d="m371.9,230.95c.38.2.4-.25.49-.29-.7-.19-.51.4-.49.29Z"/>
    <polygon class="cls-1" points="364.98 229.11 365.16 229 364.03 228.99 364.98 229.11"/>
    <path class="cls-1" d="m358.85,226.57c.31.9,2.27.81,3.26,1.5l.12.22.71-.33c-1.36-.46-3.23-.83-4.09-1.4Z"/>
    <path class="cls-1" d="m356.17,223.79c.1.34-.8-.07.73.4-.06-.06-.08-.08-.11-.12-.13-.05-.32-.13-.62-.27Z"/>
    <path class="cls-1" d="m356.78,224.07c.65.25-.33-.39,0,0h0Z"/>
    <path class="cls-1" d="m353.74,222.98l.95.12c-.12-.23-.86-.57-.53-.57-.92-.24-.81-.01-.41.44Z"/>
    <path class="cls-1" d="m352.73,223.13l.48.09c-.05-.1-.16-.17-.48-.09Z"/>
    <path class="cls-1" d="m354.23,223.4l-1.02-.18c.08.16,0,.38.46.1-.16.16.11.05.56.08Z"/>
    <path class="cls-1" d="m354.72,223.72c.42.34,1,.69.05.56,1.67.58,1.62.02-.05-.56Z"/>
    <path class="cls-1" d="m358.25,227.13l.56.46h.64c-.32,0-1.16-.68-1.2-.46Z"/>
    <path class="cls-1" d="m348.58,220.45c-.11.12.13.49.12.7l.7.1c-.28-.23-.86-.57-.82-.8Z"/>
    <path class="cls-1" d="m348.7,221.15l-1.04-.15c.83.38,1.03.32,1.04.15Z"/>
    <polygon class="cls-1" points="352.28 223.8 354.03 223.93 351.98 223.68 352.28 223.8"/>
    <polygon class="cls-1" points="344.99 218.95 345.66 218.84 344.51 218.94 344.99 218.95"/>
    <path class="cls-1" d="m342.59,218.02c.51-.11-.35-.68.13-.67-.67-.22-1.32-.22-1.9-.21.58.1,1.13.37,1.77.89Z"/>
    <path class="cls-1" d="m339.86,217.09c.29.04.61.04.96.04-.31-.05-.62-.08-.96-.04Z"/>
    <path class="cls-1" d="m346.09,220.27c-.04-.11-.09-.39-.57-.71l.21.55c.11.05.24.1.37.16Z"/>
    <path class="cls-1" d="m345.73,220.13v-.02c-.41-.17-.68-.3-.8-.35.1.05.34.16.8.37Z"/>
    <path class="cls-1" d="m346.18,220.31s-.06-.03-.09-.04c.02.05.04.08.09.04Z"/>
    <path class="cls-1" d="m349.96,222.42c-.64,0-1.89-.25-.92.55.51-.11-.05-.56.92-.55Z"/>
    <path class="cls-1" d="m346.43,220.99l.96.5c.02-.11-.09-.34.23-.34l-1.19-.17Z"/>
    <polygon class="cls-1" points="345.89 220.92 346.43 220.99 346.08 220.81 345.89 220.92"/>
    <path class="cls-1" d="m341.42,218.17c-.5,0-.98-.19-1.53-.38.54.31,1.11.6,1.67.83.13-.09.47-.21-.15-.45Z"/>
    <path class="cls-1" d="m343.5,219.16s-.07-.01-.11-.02c.05.06.09.09.11.02Z"/>
    <path class="cls-1" d="m334.65,215.62s.03.07.05.11c.02-.02.03-.04.05-.06l-.1-.05Z"/>
    <path class="cls-1" d="m341.63,218.73c.4.25.69.26.99.24-.34-.09-.69-.21-1.06-.36-.06.04-.08.08.07.11Z"/>
    <path class="cls-1" d="m338.32,216.67c.19.18.41.35.65.52-.17-.22-.53-.59-.65-.52Z"/>
    <path class="cls-1" d="m343.29,218.97s.05,0,.07,0c-.11-.14-.11-.09-.07,0Z"/>
    <path class="cls-1" d="m343.29,218.97c-.24-.03-.46,0-.67,0,.27.08.53.13.77.16-.04-.05-.08-.11-.1-.17Z"/>
    <path class="cls-1" d="m332.01,217.5c.23-.33,1.5-.21,2.31.59,1.07.12.94-1.34.38-2.36-.1.15-.16.3-1.23.1.26.34,2,1.37,1.03,1.36-1.39-.35-1.02-.57-1.57-1.03.35.68-1.94-.02-1.93.76l1.24.24c-.02.11-.51.11-.23.33Z"/>
    <path class="cls-1" d="m336.57,216.54l.42.12c-.44-.26-.71-.54-1.2-1.08-.75-.1-.95-.02-1.04.08l1.98.88h-.16Z"/>
    <path class="cls-1" d="m338.82,217.41c-.48.27-1.53.03-1.11.71,1.2.46.97.01,1.76.13-1.96-.7.64,0-.65-.79.41.09.75.21,1.08.32-.33-.19-.64-.39-.92-.59.01.02.02.03.03.04h0s0,0,0,0c.06.08.08.13,0,.06,0,0-.03,0-.04,0-.04.05-.09.08-.15.11-.52-.31-.04-.14.15-.11.01-.02.04-.03.05-.05,0,0,0,0,0,0l-2.02-.58c.39.22.9.42,1.82.75Z"/>
    <path class="cls-1" d="m347.66,223.41c-.05-.06-.03-.09-.02-.12-.14,0-.21.01.02.12Z"/>
    <path class="cls-1" d="m346.97,222.84c.16,0,.35-.11.78.12.35.28-.08.19-.11.33.32,0,1.08.11.3-.44h-.16c-.72-.46-1.51-1.37-1.35-1.37.08.45.17.79.54,1.35Z"/>
    <path class="cls-1" d="m342.79,220.2l-1.69-.47.67.68.04-.22c.88.46.79.12.97,0Z"/>
    <polygon class="cls-1" points="334.54 215.34 334.93 215.01 333.76 215.22 334.54 215.34"/>
    <polygon class="cls-1" points="332.44 214.53 332.67 214.2 332.03 214.19 332.44 214.53"/>
    <path class="cls-1" d="m212.88,170.45l-.51-.09c.24.06.39.08.51.09Z"/>
    <path class="cls-1" d="m216.29,171.89l.16-.15c-.2.03-.29.08-.16.15Z"/>
    <path class="cls-1" d="m281.2,193.41c-.55-.63-1.09-1.47-1.18-1.03l.05.49c.51.13.86.32,1.14.54Z"/>
    <path class="cls-1" d="m245.14,181.32c.05.07.1.14.15.2.22-.07.43-.13.62-.19-.23,0-.5,0-.77-.01Z"/>
    <path class="cls-1" d="m243.97,182.78l-.8-.63c.17.17.42.38.8.63Z"/>
    <path class="cls-1" d="m194.06,163.18l-.72.18c.86.35.57,0,.72-.18Z"/>
    <path class="cls-1" d="m311.02,205.86c-.53-.4-.97-.66-1.38-.85.62.53,1.05,1.11,1.38.85Z"/>
    <path class="cls-1" d="m215.98,166.75c-.32-.05-.48-.02-.5.08.33.05.52.05.5-.08Z"/>
    <path class="cls-1" d="m307.93,204.3c.09.08.18.15.27.22.46.11.92.24,1.44.48-.46-.39-1.02-.74-1.71-.71Z"/>
    <path class="cls-1" d="m126.58,134.91s-.1-.07-.13-.11c-.04.05.03.08.13.11Z"/>
    <path class="cls-1" d="m108.55,122.72c.2.06.52.19.82.3-.13-.09-.38-.19-.82-.3Z"/>
    <path class="cls-1" d="m324.12,210.89c.45.16.09-.02,0,0h0Z"/>
    <path class="cls-1" d="m325.62,213.37c-.11,0-.21.03-.26.12.08-.08.16-.12.26-.12Z"/>
    <path class="cls-1" d="m302.49,204.97s-.02-.01-.04-.02c.1.13.08.11.04.02Z"/>
    <path class="cls-1" d="m324.71,211.35c-.15-.12-.32-.24-.52-.35.08.07.23.18.52.35Z"/>
    <path class="cls-1" d="m324.7,211.12c.15.08.26.14.37.2.08-.04.05-.11-.37-.2Z"/>
    <path class="cls-1" d="m323.49,210.66c.26.1.48.21.7.34-.08-.06-.1-.1-.07-.1-.13-.05-.32-.11-.62-.23Z"/>
    <path class="cls-1" d="m163.25,148.8s-.05-.05-.08-.08c-.51-.02-.31.04.08.08Z"/>
    <path class="cls-1" d="m267.97,192.82s.04,0,.06,0c-.02-.01-.04-.03-.06-.04v.04Z"/>
    <path class="cls-1" d="m266.26,192.47c.88-.22,1.24,0,1.71.32l-.05-1.37-1.66,1.06Z"/>
    <path class="cls-1" d="m204.66,167.19l.97.82c-1.59.04-2.48-.57-1.64.37.68-1.19,4.39,1.66,5.06.47l.63.57c-.21-.1-.27-.04-.47-.14,1.18,1.19,1.44-.47,3.21.47.6.36.98.73.48.7l1.56.28c.41.2.21.37-.19.18l2.22.8-.03.03c.39-.07,1.22-.08,1.62-.07.48.41-.33.02-.26.23l1.33.2c.36.53-.77.43-1.59.04.61,1.72,1.13.1,3.27,1.84l-1.21-.31c.44,1.02,1.44,1.13,2.55,2.1-.21-.36-2.12-2.19-.68-1.96.33.25.8.49,1.61.53-.18.45.56.62,1.43.96l-.3.57c1.01.22,1.06-.12,1.72-.16,1.02.49,1.04,1.04,1.13,1.52,1.63.78-.85-1.21,1.17-.51,1.29.8,2.37.96,4.17,1.29.89.6-.32.29-.04.6l1.06-.12c.21.1.08.22.01.27.8.12.3-.57,1.51-.26.58-.52,1.95,1.92,3.66,1.76.28.31-.32.29-.31.57,2.14.31,1.81.33,3.67.34l1.19.95c-.81-.86.68-.86,1.97-.83-.26-.36-.49-.67-.65-.85l1.91.42c.17.19-.09.31-.48.44.14,0,.28,0,.38,0,.55.48.07.69-.52.83-.17-.21-.33-.42-.49-.63-.59.18-1.16.41-1.21.79.14-.02.39.01.65.08-.16.05-.26.11-.24.19.03.09.27.03.63,0l.13.83.21-.22,2.15,1.37c1.94.02,3.79-.35,6.54.46-.85.21-.47.73-.74,1.29-.47-.9-2.15-.59-3.47-1.28.69.36.42.57.2.59l2.67.46c-.25.45.37.57.93,1.02-.1-1.12,2.07.14,3.18.26-.07.34-.44.56-1.62-.02,1.05,1.25,2.18-.37,3.24.76-.3-.11-.44-.23-.62-.12.81,0,2.4.93,1.89,1.03l-.3-.12c1.92.92,5.98,2.48,6.59,1.81-.02.11-.65.84-.83.95l4.6-1.2c-.59.55-.07,2.65-1.85,2.35.43.29.96.64,2.04.81-.28-.23-.39-1.3.07-1.19.89,1.25.66.75,1.88,2-.42-.34.55-1.18,1.29-.84-.18.11-.37,1.07-.69,1.07l2.31-.26c-.55,0-.45.85-.15,1.31-.11-.28,1.62.69,2.16.79l-.7-.57c2.06,1.03,2.7-.59,4.79.33-.34.11-1.18,1.06-.16,1.63.71-.33,3.23-1.66,5.27-1.3l.23.45,1.57.24c-1.22.43-4.42,1.09-6.05,1.18.7.57.07.45,1.27.91.3.46-.83.16-1.18.04l2.7,1.33c.13-.67,2.38.25,2.48-.31l-3.28-.6c.13-.67,2.47-1.04,4.39-.12.4.45-.83.95-.88,1.18.34-.11,2.03.36,2.15.59h-.97c1,.67,2.12-.1,3.19,1.04.44.23,1.02,1.36,1.25,1.02-.45-1.01.31-3.27,1.03-3.6.14.11,2.1,1.66,2.47,2.23.52.86-1.67.86-1.23,1.6.1-.16.6-.2.8-.19.42.34-.41.44.65.8.43-.56,2.08.92.71-.33,1.09.24,1.02.57,2.22,1.04-.21-.56,1.64-.94,2.73-.71-.13.14.02.44.09.58,2.05.91,3.05,1.66,4.98,2.46.12.23.97.8.46.9.32,0,.67-.1,1.27.13.93,1.02-1.37-.46-.76.55.23-.33,1.75.13,2.7.25-.03-.67-1.92-.92-2.86-1.04.32-.78,2.14-.99,4.31-.51,1.69.47.49.79.81.8,2.96,1.38,3.13-.3,5.41,1.3.79.91-.36,1.01-.29,1.46-1.39-.35-1.88-1.15-2.77-1.49l1,.69c-.48,0-1.41-.24-1.83-.58.65.79,5.06,2.19,7.22,3.57.48,0,1.27.13,1.01-.21l-.77-.23c-.51-.68,1.62.02.76-.55,1.1.13,2.4.14,3.69.94l.03.67c.04-.18-.77-.71-1.23-.7.68-.01,1.82,1.65,2.76,1.17l-.81-.8c1.11.13,2.59.03,3.74.72-.33-.79-.31-.05-.92-1.07.42,1.13-3.14-1.34-2.27.02-.58-1.13-1.42-.97-2.33-2.1-.04.2.27.53-.73,0-.07.04-.21.06-.3.07-.03-.02-.04-.03-.06-.04.02.02.03.03.05.05-.06,0-.06.01.02.02.21.18.37.36.41.5-.69.22-2.33-.48-2.98-.48-.58-.34.35-.11.09-.45h-.97c.09-.46-1.35-1.38.2-1.02l-1.29-.56c-.67-.55-1.69-1.08-2.41-1.17-.58-.34-1.74-.18-1.07-.29l-2.15-.59.02-.11c-1.99-.88-4.43-1.03-6.43-2.73-.72-.18-1.48-.34-2.56-.92l-.07-.45c-.92-.23-2.47-1.44-3-1.22-.54-1.35-4.14-1.96-5.6-2.76l-.25.44c-1.04-.46-2.11-.75-3.5-1.1l-.09.45c-1.27-.13-2.78-1.49-4.58-2.19.19-.11.62.12.9.35-1.75-1.82-4.78-1.18-6.43-2.66-.54-.05-.87-.24-1.17-.49.05.02.09.03.13.03-.05-.03-.12-.06-.2-.09-.18-.16-.37-.33-.58-.5.16.18.32.35.47.45-.38-.14-.96-.33-1.56-.45l-.05-.54s-.08-.03-.13-.04c-.47-.39-.52.03-.37.48-.31-.04-.6-.06-.84-.03-.14-.9-1.55-.36-1.83-1.37-.53.22-2.89-.87-3.51-.2.02-.11-.12-.23.18-.11-.58-.34-1.16-.69-1.8-.69l-.03-.67-1.66.21c-.67-.68-.93-1.02.06-1.12-2.24-.14-1.69-.4-3.63-.43l.23-.33c-.6-.23-1.76-.14-1.99-.59-1.05-1.25-6.55-2.82-9.71-4.88.22,1.35-1.39-1.14-1.87-.36-.09-.34-.51-.68.13-.67-1.85-.47-2.46-1.49-3.95-1.28-.09-.34.53-.22.41-.44-.16,0-.65,0-.76-.23-.11-.23.34-.11.67-.11-1.8-.69-2.31.02-2.74.7-.76-.72-1.23-.86-2.08-.65-.22-.37-.64-.84.51-.47-.61-.29-3.66-1.93-3.97-1.36-.13-.23-.85-.4-1.05-.4-1.38-.61-1.48-.72-2.88-1.23l.34.25c-.84.49-1.21-.31-2.35-.68l.06-.06c-2.33-1.56-1.2-.21-3.46-1.83l-.05.5c-.63.86-1.99-1.48-3.59-1.71l.42.47c-.93,0-1.68-2.21-2.43-2.66-.14-.15.33-.02.6.02-1.85-1.42-.51.47-2.12-.04-.16-.43.7-.64-.32-1.13-.42-.47-3.46-.24-4.64-1.43.22.37.43.74-.37.62-1.14-.37-2.62-2.15-3.93-1.8-.11-.12-.14-.21-.12-.27-.93-.15-2.89-.81-3.57-.61-.15-1.85-5.57-1.43-4.97-2.83l-2.64-1,.13-.12c-1.63-.78-2.35-.69-3.08-.59-.34-.26,0-.27.05-.33-2.31-1.29-2.58-1.33-4.91-1.47l-.02-.55c-.66.04-3.22-2.17-5.82-2.62.04-.04.13-.11.35-.1-2.91-.57-5.9-3.92-7.57-2.66l-1.94-.32c2.24,1.08-.64.58.19,1.25-.94-.27-2.12-1.47-.98-1.09l.14.16c.77-.7-2.72-1.48-2.41-2.05-4.53-1.82-8.72-4.12-12.93-5.9l.21.88-1.46-.65c-.32-.32-.3-.74.74-.28-.39-.61-1.89-.41-1.99-.27-1.94-1.12,1.13-.46.51-.73l-.88-.3.16.16c-.81-.01-.99.26-2.24-.3-.74-.47-.24-.59-.54-.74.02-.05-.08-.11-.47-.22l-1.83-.82.52.84c-.93-.08-1.73-.75-1.13.21-.87-1.45-6.78-3.19-7.44-3.8-1.31-.09-2.45-.56-3.84-1.19.3.26.27.94-.92.37.96-1.05-2-1.46-2.62-2.75.63.95-3.51-1.28-2.48.13-.97-.52.13-.49-.52-1.1-2.61-.52-5.19-2.51-8.24-3.58-.11.14.28.6-.46.58l-1.24-1.46c-.62-.16-.93.71-1.77-.29.1.2.24.5-.18.39-5.52-3.21-12.21-4.28-17.53-8.22.67.65.12.46-.49.22.37.24-.17.4-.19.65l-2.23-1.64c-.71.42-2.68-1.06-3.18-.58l.83.22c-1.33.26.83,2.14.31,2.96,1.5-.3,2.61,2.44,4.99,2.11.35.36-.48.14-.34.43.64-.18,1.26-.01,2.28.61l-.16.04c3.1,1.17,4.26,2.09,7.6,3.76l-.07-.54c.72.36.81.57,1.11.82,1.12-.31-2.06-.9-.99-1.31.61,1.3,5.21,2.17,5.45,3.45,1.14.48-.12-.64,1.01-.17l.19.4.43-.23c.72.37.96.86.89,1.11-.17-.1-.54-.15-.74-.21.83.72,2.77,1.02,3.06,1.26l-1.02-.62c3.21,1.03,6.85,2.95,10.08,3.63l-.14-.3c2.45.56,1.74.98,4.33,1.85h-.11c.59.01,1.3.19,1.98.5-.74-.02,1,.96.06.89,2.65.62,1.36.19,3.32.1l.24.5c.69-.08.8-.22,2.09.21-1.15-.13.59.85-.73.77,2.33,1.84,4.23.86,4.98,2.46,1.6-.45-2.06-1.47-1.3-1.39-.44-.54,1.29-.3,2.08.14.83.37.93,1.8,3.06,2.66-.21-.09-.25-.03-.46-.12.69.57,1.69.31,2.5,1.11.78-.35,1.25.55,1.71-.11l-2.01-.63c1.18.26,2.57-.17,4.21,1-.2.09-.82.06-1.24.02.44.43,1.08.28,1.54.73-.46.67-2.43-.82-3.84-.75.44.54,2.45.39,1.53.94,1.27-.66,2.03.99,3.79.81l-.28.4c.26.02.81.01,1.22.2l-.99.26c1.36,0,2.06,1.35,3.29,1.55-2.34-.95-.31-.74-1.16-1.47,3.12.6,1.18,1.83,4.49,2.95-.46-.12-1.53-.94-.76-.86.58.34,1.32.85,1.6,1.23,2.17.79-.14-.59.88-.48.51.83,1.14.22,2.14.43l-.18.45c2.31,1.29,1.03-.66,3.07.59l-1.18.24,1.21.31-.44.41c1.4.14,1.74.39,2.9,1.04-.15-.43.49-.74,1.58-.31.62.57-.59.25.97.82-.46.14-.98.33-1.48-.35-.13.12-.46.14-.58.25.67.63,1.96.89,2.51,1.11-.21-.1-.45-.23-.55-.35l2.47.3c.28.31-.05.33-.38.35.47.14.86.06,1.54.29-.32.29-.43.68-1.44.47l2.27.47c.08.22.9.88.57.9,1.08.7,3.16.48,4.59,1.4.11-.04.3-.04.65.05,1.42.68,2.53,1.66,4.46,1.88l.71,1.05c1.41.41-.99-1.37,1.36-.68,1.68.45.37.8.85,1.21.93,0,2.58-.1,3.83,1.04-.54-.08-.88-.33-1.35-.47Zm16.79,6.6c-.36-.04-1.12-.02-1.25-.38.58-.36.76,0,1.25.38Zm25.79,9.4c-.3.05-.64-.18-.99-.52.32.09.66.25.99.52Zm71.88,26.06s-.03,0-.04,0c-.65-.47-.42-.3.04,0Zm1.42.81c.18,0,.19-.07.15-.15-.15.07-.49-.06-.86-.25.06.16.22.32.71.41Zm-160.77-66.21l.24.24c-.71-.14-.48-.18-.24-.24Z"/>
    <path class="cls-1" d="m244.11,182.61c-.06-.11-.05-.21-.04-.3-.16.02-.2.11.04.3Z"/>
    <path class="cls-1" d="m194.19,163.14s-.03-.02-.05-.03c-.04.02-.06.04-.08.06l.13-.03Z"/>
    <path class="cls-1" d="m295.8,204.27c-.28-.19-.42-.34-.5-.48-.06.1.04.25.5.48Z"/>
    <path class="cls-1" d="m328.78,212.58l-1.01-.28c.47.17.6.34.8.5.02-.11-.1-.34.2-.22Z"/>
    <path class="cls-1" d="m335.96,218.78c.16,0,.3.12.46.12l.05-.22c-.6-.23-1.09-.24-.51.1Z"/>
    <path class="cls-1" d="m329.06,214.43c-.08.41.57.53,1.27.74-.04-.02-.08-.03-.12-.05.41-.44-.37-.56-1.16-.69Z"/>
    <path class="cls-1" d="m330.49,215.22c.21.07.43.15.62.25.17-.18-.23-.15-.62-.25Z"/>
    <path class="cls-1" d="m322.54,210.6c.28.23.4-.4.51-.17.55-.33-2.36-.3-.51.17Z"/>
    <polygon class="cls-1" points="329.09 215.89 329.04 215.33 328.51 215.55 329.09 215.89"/>
    <path class="cls-1" d="m323.93,213.36l1.02.57c.02-.08.17-.07.35-.04-.65-.29-1.34-.68-1.37-.53Z"/>
    <path class="cls-1" d="m325.3,213.89c.34.15.67.28.9.28-.19-.07-.6-.22-.9-.28Z"/>
    <polygon class="cls-1" points="327.57 215.42 327.29 215.2 326.54 214.85 327.57 215.42"/>
    <path class="cls-1" d="m312.43,208.51l-1.23-.35c-.19.11.09.34.56.46.33,0,.79.12.67-.1Z"/>
    <path class="cls-1" d="m315.45,211.24c-.28-.23-.26-.34-.37-.57l-.27.56h.64Z"/>
    <path class="cls-1" d="m311.98,209.96c-.18.11-1.89-.24-.39.33.18-.11,1.41.24.39-.33Z"/>
    <polygon class="cls-1" points="294.64 201.95 294.94 202.06 295.28 201.1 294.64 201.95"/>
    <path class="cls-1" d="m278.16,197.77c1.29.8.57-.44,1.71.35.42-.09-.93-.65-.52-.71-.93-.11-1.32-.43-1.19.35Z"/>
    <path class="cls-1" d="m279.35,197.42c.15.02.31.03.49.03-.27-.04-.4-.04-.49-.03Z"/>
    <polygon class="cls-1" points="105.49 120.87 104.68 120.3 105.13 120.86 105.49 120.87"/>
    <path class="cls-1" d="m103.49,120.86l.04-.69-.76.32c.21.06.63.17.72.37Z"/>
    <path class="cls-1" d="m223.43,176.02l.13-.12c-.07-.21-.28-.31-.69-.51l.56.62Z"/>
    <polygon class="cls-1" points="211.52 170.58 211.72 170.67 211.55 169.97 211.52 170.58"/>
    <path class="cls-1" d="m201.07,167.07c.41.19.94.27,1.35.47-.94-.28-1.18-1.19-1.35-.47Z"/>
  </g>
  <g>
    <path class="cls-1" d="m104.53,125.77c.03-.07-.38.02-.46.02.1.09.56-.04.46-.02Z"/>
    <polygon class="cls-1" points="105.58 126.74 105.41 126.74 105.84 126.86 105.58 126.74"/>
    <path class="cls-1" d="m105.68,127.79c.7-.15-.16-.37.08-.58l.16-.05-.58-.03c.11.21.53.48.34.65Z"/>
    <path class="cls-1" d="m104.18,128.41c.28-.04.24.1.09-.13-.03.01-.05.02-.07.03,0,.02,0,.05-.02.1Z"/>
    <path class="cls-1" d="m104.2,128.31c-.02-.1-.23.08,0,0h0Z"/>
    <path class="cls-1" d="m104.35,128.79l-.25-.13c-.16.03-.2.16-.32.11.13.14.3.1.57.02Z"/>
    <path class="cls-1" d="m104.88,128.91l-.1-.07c-.07.01-.09.03.1.07Z"/>
    <path class="cls-1" d="m104.55,128.69l.22.15c.12-.02.35-.03-.08-.07.21,0,0-.02-.14-.08Z"/>
    <path class="cls-1" d="m104.66,128.6c.16-.08.25-.19.5-.06-.1-.27-.6-.21-.5.06Z"/>
    <path class="cls-1" d="m106.43,127.79l.2-.13-.25-.08c.12.04-.17.23.05.21Z"/>
    <path class="cls-1" d="m103.98,129.65c.15,0,.41-.04.6-.05l-.17-.1c-.1.05-.2.15-.43.16Z"/>
    <path class="cls-1" d="m104.58,129.6l.26.16c.03-.14-.09-.17-.26-.16Z"/>
    <polygon class="cls-1" points="105.67 128.92 105.12 128.67 105.67 128.97 105.67 128.92"/>
    <polygon class="cls-1" points="103.96 130.23 103.61 130.13 104.14 130.3 103.96 130.23"/>
    <path class="cls-1" d="m104.03,130.61c-.29-.08-.49.06-.67-.01.06.1.29.2.51.3-.12-.09-.07-.18.16-.29Z"/>
    <path class="cls-1" d="m104.18,131.06c-.07-.05-.19-.1-.31-.16.06.05.15.1.31.16Z"/>
    <path class="cls-1" d="m104.77,130.02c-.09.01-.33.03-.43.11l.43-.05s0-.04,0-.06Z"/>
    <path class="cls-1" d="m104.77,130.08h-.01c-.01.07-.02.11-.02.13,0-.02.02-.06.04-.13Z"/>
    <path class="cls-1" d="m104.77,130.01v.02s.05,0,0-.02Z"/>
    <path class="cls-1" d="m105.28,129.34c.24.09.49.29.86.1-.29-.07-.5.04-.86-.1Z"/>
    <path class="cls-1" d="m105.3,129.94l.1-.17c-.11,0-.28.03-.4-.02l.3.19Z"/>
    <polygon class="cls-1" points="105.44 130.03 105.3 129.94 105.27 130 105.44 130.03"/>
    <path class="cls-1" d="m104.61,130.8c.18.08.19.16.21.25.09-.09.15-.19.16-.28-.14-.02-.37-.07-.36.03Z"/>
    <path class="cls-1" d="m104.73,130.45l.02.02s.05-.02-.02-.02Z"/>
    <path class="cls-1" d="m104.72,131.93s.05,0,.08,0h-.07s0,0,0,0Z"/>
    <path class="cls-1" d="m105.05,130.76c.08-.07-.02-.12-.15-.16.04.06.07.11.07.18.06,0,.1.01.08-.01Z"/>
    <path class="cls-1" d="m104.35,131.31c.09-.03.17-.07.25-.11-.14.03-.36.09-.25.11Z"/>
    <path class="cls-1" d="m104.63,130.49h-.02c-.09,0-.05,0,.02,0Z"/>
    <path class="cls-1" d="m104.63,130.49c.06.04.17.07.26.11-.03-.05-.08-.09-.14-.12-.03,0-.08.01-.12.02Z"/>
    <path class="cls-1" d="m107.42,132.47c-.39-.06-.74-.29-.3-.43-.28-.2-1.59-.2-2.33-.12.17.02.33.03.55.23.22-.04.54-.33.88-.15.18.25-.16.18-.38.26.5-.05.69.37,1.41.4l-.23-.24c.11,0,.28.1.39.05Z"/>
    <path class="cls-1" d="m104.87,131.61l-.04-.07c-.08.07-.24.11-.56.19.18.13.32.17.46.19l.09-.33.06.03Z"/>
    <path class="cls-1" d="m104.86,131.23c.42.08.59.26,1.07.19,0-.21-.34-.17-.52-.3.07.33-.23-.11-.5.11-.07-.07-.08-.13-.1-.18-.06.05-.13.11-.21.15h.03s0,0,0,0h0c.05,0,.09-.01.06,0,0,0,0,0,0,0,.06,0,.11.02.16.03-.1.09-.11,0-.16-.03h-.06s0,0,0,0l.2.34c.07-.06.06-.15.03-.31Z"/>
    <path class="cls-1" d="m107.06,129.63s-.07,0-.1.01c.05.02.09.03.1-.01Z"/>
    <path class="cls-1" d="m106.8,129.77c-.06-.03-.23-.05-.19-.13.13-.07.21,0,.35,0-.11-.05-.31-.17-.52-.02l.06.02c-.15.14-.69.3-.75.28.39-.03.66-.06,1.04-.15Z"/>
    <path class="cls-1" d="m105.96,130.54l.21.29.37-.13h-.22c.09-.16-.19-.14-.36-.16Z"/>
    <polygon class="cls-1" points="104.5 131.94 104.05 131.86 104.68 132.07 104.5 131.94"/>
    <polygon class="cls-1" points="104.52 132.29 104.13 132.23 104.36 132.35 104.52 132.29"/>
    <path class="cls-1" d="m100.6,153.46l.03.14c0-.06-.01-.1-.03-.14Z"/>
    <path class="cls-1" d="m101.02,152.96l-.15-.13c.07.09.12.15.15.13Z"/>
    <path class="cls-1" d="m102.45,140.65c-.38-.03-.96-.12-.54.03l.41.13c-.04-.11.02-.15.13-.16Z"/>
    <path class="cls-1" d="m102.04,147.34s.09.02.13.03c-.11-.1-.22-.2-.32-.28.06.08.12.16.18.25Z"/>
    <path class="cls-1" d="m103.54,148.34h-.32c.1.02.21.02.32,0Z"/>
    <path class="cls-1" d="m98.64,156.51l.26.38c.11-.13-.1-.22-.26-.38Z"/>
    <path class="cls-1" d="m104.1,135.85c-.18.06-.27.12-.3.18.27-.06.65-.07.3-.18Z"/>
    <path class="cls-1" d="m97.11,150.45c.03.09.09.16.17.22-.03-.09-.08-.16-.17-.22Z"/>
    <path class="cls-1" d="m103.71,136.31s.07-.02.11-.03c-.05-.09-.09-.17-.03-.25-.21.04-.34.11-.08.28Z"/>
    <path class="cls-1" d="m88.37,164.53s-.03-.01-.05-.03c.03.05.04.05.05.03Z"/>
    <path class="cls-1" d="m83.11,162.41s.07-.06.11-.09c-.04-.02-.07,0-.11.09Z"/>
    <path class="cls-1" d="m104.17,133.65c-.01-.08-.04-.02,0,0h0Z"/>
    <path class="cls-1" d="m105.93,133.54s.11.05.21.06c-.1-.02-.17-.04-.21-.06Z"/>
    <path class="cls-1" d="m106.11,137.74h0c.09,0,.07,0,0,0Z"/>
    <path class="cls-1" d="m104.39,133.57c-.06.02-.11.04-.15.07.04,0,.08-.03.15-.07Z"/>
    <path class="cls-1" d="m104.18,133.55s.04-.04.05-.06c-.07-.02-.12-.02-.05.06Z"/>
    <path class="cls-1" d="m104.17,133.75s.03-.08.07-.11c-.03,0-.06.01-.07,0,0,.02,0,.05,0,.1Z"/>
    <path class="cls-1" d="m93.28,159.56s-.02-.01-.04-.02c.05.19.06.15.04.02Z"/>
    <polygon class="cls-1" points="105.76 144.33 105.75 144.31 105.73 144.32 105.76 144.33"/>
    <path class="cls-1" d="m105.93,144.74c-.43-.35-.34-.38-.2-.42l-1.18-.43,1.38.86Z"/>
    <path class="cls-1" d="m99.72,154.77l.44.09c.32.61.02.61.58.81-1.01-.88.44-.74-.6-1.63l.31.07s.02.08-.01.1c.68.19-.64-.78-.28-.93.16-.03.36.02.44.19l-.1-.42c.07-.05.24.11.18.16l.17-.4.03.03c-.13-.18-.32-.48-.39-.62.22.03.08.13.24.21l-.12-.38c.34.14.5.49.36.59,1.22.64-.16-.36.76-.26v.28c.71.34.59.04,1.14.12-.24-.1-1.29-.31-1.41-.71.13,0,.22-.04.08-.31.39.28.38.11.45-.05l.52.38c-.05-.26-.32-.43-.5-.69.16-.13.59.12.96.31.26-.21-.78-.27-.67-.65.35-.08.24-.39.09-.86.29-.03.31.24.5.29l-.34-.42s.16.07.22.12c-.09-.22-.53-.36-.56-.63-.56-.43,1.11.19.58-.47.19.04.31.23.54.35-.25-.59-.14-.46-.59-1.09h.48c-.5-.09-.87-.59-1.18-1-.23-.06-.43-.12-.53-.14l-.14-.45c.11.02.28.16.49.34-.04-.04-.07-.09-.1-.13.26.02.55.26.82.51-.13-.03-.26-.06-.4-.1.3.27.63.55.96.73-.05-.06-.09-.13-.1-.18.08.07.15.13.21.16.06.02-.04-.08-.16-.21l.65.29-.24-.16.6-.16c-.47-.63-1.26-1.38-1.28-1.94.4.35.74.43,1.28.73-.64-.2.06.47-.19.63.13-.08.37.08.44.17l-.3-.69c.44.25.38.1.63.09-.93-.39-.42-.62-.6-.92.3.15.59.34.4.51.79.13-.88-.83-.2-.75-.02.05-.08.05.06.15-.2-.25.14-.43.37-.23l-.02.05c.26-.28.49-1.03-.26-1.44.1.04.91.48,1.05.58-.77-.61-1.54-1.21-2.32-1.79.64.36,2.32.87,2.56,1.32.13-.04.29-.09.13-.36-.12.01-1.03-.3-1.05-.4.84.13.46.04,1.21.06-.18.02-1.19-.53-1.1-.64.15.09,1.04.44,1.13.53l-.88-.76c.15.16.87.39,1.2.44-.21-.05.13-.28.06-.42l-.29.04c.3-.32-1.32-.97-1.13-1.3.2.13,1.29.63,1.49.5-.5-.3-2.44-1.38-2.75-1.83l.33.05-.26-.36c.76.43,2.31,1.49,2.88,2,.3-.05.38.1.43-.13.32.03.39.28.39.35l.38-.44c-.64-.21-.49-.62-1.02-.78l.45.78c-.64-.22-1.67-.97-1.44-1.27.29,0,1.1.46,1.32.53-.2-.12-.29-.48-.13-.46l.28.27c.31-.12-.72-.61-.03-.64.06-.07.9.02.52-.12-.77-.1-3.03-.82-3.56-1.08.06,0,.81-.18,1.2-.16.61.04,1.31.62,1.84.66-.17-.06-.37-.2-.43-.25.17-.04.53.2.51-.01-.64-.23.17-.37-.53-.26-.13-.24.19-.15.22-.38-.44-.06-1.39-.6-1.52-.83.16.06.39.08.5.09.16-.35.52-.47.62-.81.17,0,.41-.11.68.03-.1-.08-.31-.18-.31-.29.62-.08.04.27.76.27-.38-.11-.48-.41-.69-.62-.61-.09-.18.33.02.54-.82-.2-1.63-.67-1.94-1.1-.15-.32.56,0,.45-.08.25-.5-1.36-.74-.68-1.04.56-.07,1.05.19,1.44.22.15.27-.4.29-.41.45l.29-.14c.16.11.26.29.09.34.5-.05.27-.89.79-1.24-.16-.1-.32-.26-.55-.23l.05.14c-.45.05-.54-.34-.78-.21-.27-.22-.7-.48-.44-.68l.61.04c-.18-.02-.38.11-.2.2-.26-.14.86-.26.07-.48l-.44.11c-.29-.21-.91-.5-.7-.68-.61.02.06.06-.65.12.89-.02-.09.52.85.43-.83.04-.37.22-1.09.31.2.02.4-.01.26.14.06.02.13.05.17.06h-.02s.03,0,.03,0c.03.01.03.01,0,0,.1-.03.21-.04.32-.04.44.16.37.43.59.57-.12.09-.22-.08-.44-.06l.33.2c-.45-.06-.79.14-1-.14l-.06.21c-.27.08-.4.23-.24.38-.11.08.44.35.11.19l.21.39-.11-.02c-.13.31.61.86-.29,1.05.08.14.18.29,0,.44l-.39-.06c.09.18-.5.32-.12.49-1.05-.13-.41.61-.66.81l.48.16c-.08.16.02.37.15.65l.43.13c.28.3-.48.37-.54.67-.15-.08-.08-.13.03-.15-1.08,0,.42.98-.39,1.03.12.14.05.17-.08.19,0,0,0-.02-.01-.03,0,0-.01.02-.02.03-.08,0-.18,0-.26.02.11,0,.21.01.26,0-.01.06,0,.17.07.3l-.46-.14s0,.01,0,.03c-.2.02.19.16.54.24.06.07.13.15.22.23-.75-.22.15.34-.65.11.35.22.08.55.84.94-.1-.04-.16-.04-.15-.09-.14.06-.27.12-.09.3l-.58-.21.65.55c-.4-.02-.62-.06-.99-.38.51.61.13.36.66.93l-.35-.18c-.03.1.38.48.05.4-.77-.12-.58,1.01-1.51,1.19,1.08.45-.59,0,.19.44-.26-.1-.44-.11-.6-.3.09.4-.6.18-.04.74-.26-.11-.32-.26-.48-.31.04.05.16.2,0,.15-.16-.06-.18-.15-.26-.25-.11.29.61.74,1.29,1.16-.4-.05-.4.04,0,.41-.25-.08-.53-.14-.52-.36-.08.08-.65.38-.12.72-.16-.06-.12.1-.08.17-.17.19-.23.17-.31.41h.13c.6.49.03.26,0,.48l-.06-.05c-.71.07.11.31-.66.33l.41.25c.83.61-.72,0-.54.42l.28.08c.21.32-1.37-.47-1.55-.43-.09-.03-.09-.12-.12-.2-.7-.05.49.41.45.71-.31-.16-.66-.55-.82-.45-.27-.09.57,1.06-.1.87.24.11.49.23.57.44-.05.21-1.1-.18-.56.46-.07-.02-.13-.06-.18-.1.08.25-.01.6.28.95-1.37-.93.06,1.25-1.13.27l-.24.39-.11-.11c-.27.15-.06.47.15.78-.12-.02-.2-.15-.25-.2-.52.12-.49.19-.16.97l-.39-.3c.15.27-.98-.07-.83.64-.04-.04-.1-.11-.13-.19.08.74-1.77-.19-.61,1.21l.09.54c.39-.19.51.6.84.7-.04.19-.68-.1-.6-.3l.09.04c-.6-.72-.59.12-1.03-.36-.52.61-1.46.71-2.04,1.15l.54.5-.23.14c-.16-.09-.44-.38-.28-.47-.34-.25,0,.46.09.59-.46,0-.44-.74-.54-.69l-.08.14.08.04c.1.31.29.56.1.67-.2-.02-.34-.3-.4-.29-.03-.04-.06-.05-.08.04l-.28.16.46.37c.07.32-.25.17.27.59-.78-.63-1.2.44-1.5.28.09.46-.08.57-.31.67.12.06.53.57.31.63-.72-1.14-.66-.24-1.35-.93.49.44-.4.48.31,1.09-.21.02-.29-.41-.58-.59-.05.68-.97.21-1.3.63.09.15.3.34.35.62l-.69-.61c-.04.13.45.92-.03.49.1.11.25.28.22.37-.66-.11-.99.34-1.43.64-.43.31-.91.54-1.72.04.27.24.21.32.12.37.1.04.19.39.31.6l-.68-.4c.21.63-.39.25-.17.84l.08-.17c.15.76.93,1.39,1.32,2.26-.17-.86,1.07.87.86-.39.16.14.08.31.21.49-.1-.41-.04-.53.23-.46l.03.1c.47-.35.89-.1,1.6-.17l-.27-.39c.15-.02.25.1.36.17-.22-.71-.36.17-.62-.6.63.74.84-.5,1.51.38.19-.11-.33-.44-.15-.55l.2.22-.15-.36c.15-.02.41.26.54.47-.05,0-.05.11-.07.15.34.2.39-.38.5-.31l-.28-.05c.35-.56,1.21-.58,1.33-1.43l-.16-.16c.12-.59.42,0,.7-.44l.02.05c-.05-.24-.01-.4.11-.46.06.28.48.28.52.61.12-.64-.01-.42-.26-1.27l.28.26c-.11-.33-.21-.48-.08-.69.04.37.46.36.54.83.9.34.1-1.07,1.01-.29-.46-.95-.69-.18-.73-.43-.29-.2-.32-.71-.14-.73.13-.08,1.02.86,1.32.58-.03.02.01.08-.02.11.28.1,0-.46.41-.26-.32-.54.21-.13-.28-.75l-.16.38c.03-.29-.42-1.13.12-1,.08.14.14.36.17.5.23.11.05-.24.28-.13.49.62-.23.42-.01,1.03.3.19-.04-.71.42.01-.58-.94.4-.15.06-.96l.3.37c-.02-.08-.09-.31-.03-.35l.29.56c-.18-.54.63.07.61-.29-.33.3-.46-.36-.83-.5-.02-.83,1.08.74,1.38.13-.02.11-.42.01-.47-.24.15,0,.38.02.61.15.23-.36-.38-.31-.45-.65.49.33-.02-.31-.02-.57l.33.35c.55-.1-.61-.81-.05-.83l.34.6.04-.28.35.43c-.11-.46.01-.43.29-.49-.28-.2-.6-.64-.46-.79.3.1.27.38.43.13.17.26.38.58-.02.35.1.12.17.26.27.38.34.13.33-.22.4-.29-.04.02-.1.03-.16,0l-.18-.76c.18.08.24.22.31.35.02-.1-.09-.29-.03-.41.26.29.56.57.56.82l-.02-.59c.14.1.48.17.55.3.32-.01-.19-.93.23-.95-.05-.06-.08-.14-.08-.22.25-.15.78-.02.59-.62l.66.32c.05-.3-.84-.39-.75-.89.03-.37.53.3.75.35-.17-.35-.55-1.01.08-.85.04.15-.09.14-.11.24Zm1.72-2.71c.04.11.22.39-.04.26-.4-.38-.16-.27.04-.26Zm1.62-4.65c.12.12.01.14-.18.12,0-.07.04-.12.18-.12Zm1.34-12.9s.01,0,.02.01c-.21.08-.13.06-.02-.01Zm.26-.21c-.06-.04-.13-.05-.2-.05.12.04.11.1.07.15.13,0,.22-.01.13-.11Zm-14.1,23.31l.12.07c0,.18-.05.06-.12-.07Z"/>
    <path class="cls-1" d="m103.37,148.22c-.08-.03-.16-.07-.24-.11.06.06.14.11.24.11Z"/>
    <path class="cls-1" d="m98.59,156.44s-.01,0-.01,0l.06.07-.05-.07Z"/>
    <path class="cls-1" d="m107.63,139.35c-.08.04-.18.04-.27.04.11.04.21.04.27-.04Z"/>
    <path class="cls-1" d="m104.06,132.87l.11.17c-.02-.08.09-.09.17-.12-.11-.01-.28,0-.28-.05Z"/>
    <path class="cls-1" d="m107.17,131.75c-.06-.03,0-.05-.06-.08h-.22c0,.1.18.19.28.08Z"/>
    <path class="cls-1" d="m105.66,132.92c.4.04.28-.09.21-.21,0,0,0,.01,0,.02-.56-.1-.39.04-.21.19Z"/>
    <path class="cls-1" d="m105.86,132.68s-.02-.08,0-.11c-.22-.04-.05.04,0,.11Z"/>
    <path class="cls-1" d="m104.45,133.94c.11-.04-.51-.12-.34-.12-.5-.14.55.45.34.12Z"/>
    <polygon class="cls-1" points="107 132.99 106.5 132.97 106.89 133.09 107 132.99"/>
    <path class="cls-1" d="m106.52,133.89l.17-.17c-.08,0-.13-.04-.16-.08-.03.12-.16.23,0,.25Z"/>
    <path class="cls-1" d="m106.53,133.65c.02-.06.01-.12-.07-.17,0,.03.01.11.07.17Z"/>
    <polygon class="cls-1" points="107.12 133.27 107.01 133.32 106.96 133.45 107.12 133.27"/>
    <path class="cls-1" d="m106.03,135.91l.1.24c.16.06.28.03.23-.07-.11-.08-.16-.17-.33-.17Z"/>
    <path class="cls-1" d="m107.49,135.55c-.11.04-.22.02-.39.02l.61.13-.22-.15Z"/>
    <path class="cls-1" d="m107.51,136.21c.16.06.42.42.44.14-.16-.06-.26-.31-.44-.14Z"/>
    <polygon class="cls-1" points="105.91 139.17 105.92 139.11 104.95 138.81 105.91 139.17"/>
    <path class="cls-1" d="m107.2,142.76c.32-.16-.56-.29-.19-.41-.2-.15-.3.09-.47-.04.18.24.02.27.66.45Z"/>
    <path class="cls-1" d="m106.54,142.31s-.06-.08-.11-.13c.04.07.08.11.11.13Z"/>
    <polygon class="cls-1" points="82.37 162.17 82.15 162.05 82.38 162.32 82.37 162.17"/>
    <path class="cls-1" d="m82.43,162.99l-.3-.57.16.58s.06-.12.14,0Z"/>
    <path class="cls-1" d="m102.79,152.44l-.12-.1c-.15-.07-.19-.05-.26,0l.38.1Z"/>
    <polygon class="cls-1" points="100.97 154.03 101 154 100.49 153.7 100.97 154.03"/>
    <path class="cls-1" d="m100.28,156.04c.07-.05.04-.2.11-.25-.04.2-.68-.21-.11.25Z"/>
  </g>
  <g>
    <path class="cls-1" d="m43.54,131.59c-.03-.08-.3.24-.37.28.15.02.44-.36.37-.28Z"/>
    <polygon class="cls-1" points="45.08 131.78 44.94 131.88 45.37 131.72 45.08 131.78"/>
    <path class="cls-1" d="m45.88,132.59c.43-.58-.37-.21-.34-.54l.09-.14-.47.34c.24.11.74.07.72.33Z"/>
    <path class="cls-1" d="m45.22,134.12c.17-.22.26-.08-.04-.16-.01.03-.02.05-.03.07.02.01.04.04.07.09Z"/>
    <path class="cls-1" d="m45.15,134.02c-.1-.07-.11.22,0,0h0Z"/>
    <path class="cls-1" d="m45.66,134.3l-.29.06c-.09.14-.02.27-.14.31.21.02.3-.12.43-.38Z"/>
    <path class="cls-1" d="m46.13,134.04l-.13.02c-.04.06-.04.09.13-.02Z"/>
    <path class="cls-1" d="m45.72,134.09l.28-.03c.07-.1.23-.26-.11,0,.16-.14,0-.02-.17.03Z"/>
    <path class="cls-1" d="m45.73,133.94c.05-.17.03-.32.32-.38-.28-.15-.61.24-.32.38Z"/>
    <path class="cls-1" d="m46.45,132.11l.06-.23-.24.1c.12-.05.03.3.18.14Z"/>
    <path class="cls-1" d="m46.09,135.26c.11-.1.25-.32.38-.47l-.21.04c-.03.12-.02.26-.17.43Z"/>
    <path class="cls-1" d="m46.47,134.8l.31-.06c-.09-.13-.2-.07-.31.06Z"/>
    <polygon class="cls-1" points="46.71 133.5 46.12 133.69 46.76 133.54 46.71 133.5"/>
    <polygon class="cls-1" points="46.55 135.75 46.23 135.93 46.73 135.68 46.55 135.75"/>
    <path class="cls-1" d="m46.91,136.02c-.26.15-.28.42-.46.49.12.05.37-.06.6-.15-.16.02-.21-.08-.14-.34Z"/>
    <path class="cls-1" d="m47.39,136.24c-.08.01-.21.07-.34.12.08-.01.19-.04.34-.12Z"/>
    <path class="cls-1" d="m46.94,135c-.06.07-.21.26-.21.4l.25-.35s-.03-.03-.04-.05Z"/>
    <path class="cls-1" d="m46.99,135.04h0c.05.07.08.11.09.13-.01-.02-.04-.06-.08-.13Z"/>
    <path class="cls-1" d="m46.93,134.99s0,0,.01.01c.02-.03.03-.05-.01-.01Z"/>
    <path class="cls-1" d="m46.76,134.1c.24-.1.57-.12.69-.53-.26.15-.32.39-.69.53Z"/>
    <path class="cls-1" d="m47.24,134.55l-.06-.2c-.08.08-.17.22-.29.27l.35-.07Z"/>
    <polygon class="cls-1" points="47.4 134.52 47.24 134.55 47.27 134.62 47.4 134.52"/>
    <path class="cls-1" d="m47.45,135.74c.19-.07.26-.02.35.03-.02-.13-.06-.24-.14-.32-.11.08-.31.22-.22.29Z"/>
    <path class="cls-1" d="m47.25,135.37s.02,0,.03,0c.02-.03.02-.05-.03,0Z"/>
    <path class="cls-1" d="m48.49,136.46s.03-.04.04-.07c-.02.02-.04.03-.05.05v.02Z"/>
    <path class="cls-1" d="m47.71,135.37c0-.11-.11-.07-.23-.01.07.01.14.04.19.08.05-.04.08-.07.04-.07Z"/>
    <path class="cls-1" d="m47.72,136.3c.03-.09.05-.18.07-.26-.07.12-.16.33-.07.26Z"/>
    <path class="cls-1" d="m47.22,135.47s-.02,0-.02,0c-.05.08-.02.05.02,0Z"/>
    <path class="cls-1" d="m47.22,135.47c.07-.01.17-.07.26-.11-.06-.01-.12-.01-.19,0-.01.03-.04.07-.06.1Z"/>
    <path class="cls-1" d="m50.64,134.73c-.29.27-.7.38-.53-.05-.34.08-1.18,1.09-1.58,1.71.13-.12.24-.23.53-.27.11-.2.07-.65.43-.79.32.03.04.24-.02.47.28-.42.73-.29,1.2-.84l-.33.03c.08-.08.26-.15.29-.27Z"/>
    <path class="cls-1" d="m48.31,136.11l-.09-.02c.01.11-.06.27-.2.57.23-.05.35-.13.45-.22l-.22-.3.06-.02Z"/>
    <path class="cls-1" d="m47.98,135.86c.35-.26.6-.26.86-.67-.18-.14-.36.14-.59.18.33.18-.24.1-.23.45-.1,0-.16-.03-.22-.06,0,.08,0,.17,0,.27,0,0,0-.02.01-.02h0s0,0,0,0c.03-.05.05-.08.04-.04,0,0,0,0,.01,0,.04-.04.09-.07.13-.1.01.14-.07.09-.13.1-.02.01-.03.03-.05.04,0,0,0,0,0,0l.42.09c-.01-.1-.09-.15-.24-.24Z"/>
    <path class="cls-1" d="m48.24,133.05s-.04.06-.06.08c.05-.02.09-.04.06-.08Z"/>
    <path class="cls-1" d="m48.16,133.34c-.06.02-.2.13-.23.04.04-.14.15-.15.24-.25-.12.04-.35.09-.38.35l.06-.02c0,.21-.25.72-.31.74.24-.3.41-.53.61-.86Z"/>
    <path class="cls-1" d="m48.16,134.53l.36.06.16-.37-.15.16c-.06-.18-.23.04-.36.15Z"/>
    <polygon class="cls-1" points="48.36 136.63 48.01 136.93 48.59 136.59 48.36 136.63"/>
    <polygon class="cls-1" points="48.68 136.87 48.38 137.14 48.63 137.04 48.68 136.87"/>
    <path class="cls-1" d="m67.65,148.92l.14-.02c-.05,0-.1,0-.14.02Z"/>
    <path class="cls-1" d="m67.22,148.45l-.15.13c.1-.06.16-.1.15-.13Z"/>
    <path class="cls-1" d="m55.45,143.59c-.17.35-.48.86-.17.53l.28-.33c-.12,0-.13-.09-.11-.2Z"/>
    <path class="cls-1" d="m61.91,146.39s.04-.08.07-.12c-.13.08-.25.16-.35.23.09-.04.19-.07.29-.11Z"/>
    <path class="cls-1" d="m63.24,145.19l-.08.32c.04-.1.07-.2.08-.32Z"/>
    <path class="cls-1" d="m70.43,151.06l.39-.24c-.12-.11-.22.1-.39.24Z"/>
    <path class="cls-1" d="m51.6,139.57c-.04.2-.03.31,0,.38.08-.27.27-.61,0-.38Z"/>
    <path class="cls-1" d="m64.22,152c.09-.02.17-.06.24-.13-.09.01-.17.05-.24.13Z"/>
    <path class="cls-1" d="m51.84,140.18s.02-.07.03-.11c-.11,0-.21-.02-.26-.11-.06.2-.06.36.23.22Z"/>
    <path class="cls-1" d="m79.09,160.23s0,.03-.02.06c.04-.04.04-.05.02-.06Z"/>
    <path class="cls-1" d="m78.58,165.93s-.09-.05-.13-.08c0,.04.03.07.13.08Z"/>
    <path class="cls-1" d="m49.65,138.11c-.08-.04-.04.02,0,0h0Z"/>
    <path class="cls-1" d="m50.58,136.61s.1-.06.17-.13c-.08.07-.13.11-.17.13Z"/>
    <path class="cls-1" d="m54.33,138.85s0,0,0,0c.04-.08.03-.06,0,0Z"/>
    <path class="cls-1" d="m49.7,137.88c-.02.06-.02.12-.02.17.01-.04.02-.09.02-.17Z"/>
    <path class="cls-1" d="m49.56,138.04s-.01-.06-.02-.08c-.06.04-.08.08.02.08Z"/>
    <path class="cls-1" d="m49.74,138.17s-.05-.07-.06-.13c0,.03-.02.05-.04.06.02.01.05.03.1.06Z"/>
    <path class="cls-1" d="m73.49,156.27s0,.02-.02.04c.19-.07.14-.07.02-.04Z"/>
    <path class="cls-1" d="m60.16,141.93s-.02,0-.02,0c0,0,0,.01,0,.02l.02-.03Z"/>
    <path class="cls-1" d="m60.6,141.91c-.47.29-.48.19-.46.05l-.82.95,1.28-1Z"/>
    <path class="cls-1" d="m68.82,149.91l.13-.42c.63-.28.6,0,.85-.52-.98.94-.67-.47-1.65.46l.11-.3s.08-.01.1.02c.27-.65-.83.55-.94.17-.01-.16.07-.36.24-.41l-.43.05c-.04-.07.14-.23.18-.15l-.36-.21.03-.03c-.19.11-.52.25-.66.3.06-.21.14-.07.24-.2l-.39.07c.18-.31.56-.42.63-.28.81-1.11-.37.11-.13-.77l.27.03c.45-.64.13-.56.3-1.07-.14.22-.52,1.2-.93,1.26.02-.12,0-.22-.29-.12.34-.34.17-.35.03-.44l.46-.44c-.25,0-.47.25-.75.38-.09-.18.23-.56.49-.89-.15-.29-.41.71-.76.54,0-.36-.32-.3-.81-.25.03-.28.3-.25.38-.43l-.47.25s.1-.14.16-.19c-.24.04-.46.44-.73.42-.54.46.42-1.04-.33-.66.08-.17.3-.25.46-.44-.63.12-.49.05-1.2.34l.12-.48c-.21.47-.78.7-1.26.89-.12.21-.22.39-.26.49h-.48c.05-.09.23-.23.45-.38-.05.02-.11.04-.15.07.08-.25.39-.47.7-.66-.06.12-.13.24-.19.36.33-.22.69-.47.94-.74-.07.04-.14.05-.2.05.09-.06.17-.12.2-.17.04-.06-.08.02-.24.1l.45-.56-.21.19v-.62c-.72.29-1.66.84-2.21.7.46-.28.62-.58,1.07-1.02-.37.56.47.07.55.35-.05-.14.18-.33.28-.38l-.74.1c.37-.35.2-.34.26-.57-.65.77-.71.23-1.06.32.23-.25.5-.46.61-.24.36-.71-1.06.6-.78-.02.04.03.03.09.17-.01-.3.12-.36-.27-.1-.42l.04.03c-.17-.34-.78-.79-1.42-.23.08-.08.76-.69.9-.8l-2.49,1.56c.56-.48,1.63-1.86,2.14-1.94.01-.14.02-.3-.29-.25-.03.12-.64.85-.75.84.42-.73.2-.42.49-1.1-.05.17-.93.91-1,.79.14-.11.79-.81.91-.86l-1.04.55c.21-.08.69-.66.85-.94-.13.18-.2-.23-.34-.22l-.08.29c-.16-.4-1.4.84-1.63.52.2-.13,1.09-.93,1.05-1.17-.47.34-2.25,1.67-2.81,1.74l.19-.28-.45.08c.73-.49,2.35-1.45,3.03-1.78.08-.29.25-.3.07-.44.16-.27.42-.25.48-.21l-.22-.51c-.46.49-.76.2-1.14.61l.89-.1c-.46.49-1.58,1.12-1.75.78.12-.25.9-.8,1.05-.96-.2.13-.56.07-.47-.07l.36-.14c.03-.32-.87.39-.58-.23-.03-.09.43-.79.14-.52-.45.64-2.11,2.34-2.58,2.68.02-.06.21-.83.41-1.17.33-.52,1.16-.87,1.44-1.31-.13.13-.35.23-.42.26.05-.17.43-.38.23-.45-.51.46-.24-.32-.47.34-.27,0-.04-.24-.22-.38-.26.36-1.2.92-1.47.92.13-.11.26-.3.32-.39-.23-.32-.16-.68-.41-.94.09-.14.11-.4.37-.56-.12.05-.32.18-.41.11.26-.57.24.11.63-.51-.29.27-.59.18-.88.25-.4.47.18.34.46.28-.6.6-1.42,1.03-1.96,1.03-.36-.06.29-.48.17-.43-.29-.5-1.38.7-1.28-.06.25-.51.75-.76,1-1.06.32.03.02.51.16.61l.04-.32c.18-.07.39-.05.34.12.23-.45-.61-.74-.6-1.36-.18.07-.41.11-.52.31l.15.04c-.22.4-.61.24-.63.51-.35.09-.83.28-.84-.08l.4-.47c-.12.13-.14.38.05.3-.27.12.31-.87-.35-.38l-.17.43c-.35.09-.97.38-1,.09-.35.5.09-.01-.3.6.52-.72.39.44.88-.37-.46.7-.04.45-.38,1.1.14-.15.22-.33.28-.12.05-.04.12-.07.16-.1,0,0,0,.01,0,.02,0,0,0-.02,0-.02.03-.02.03-.02,0,0,.03-.1.08-.2.15-.29.4-.26.6-.03.85-.13.01.15-.2.13-.31.33l.36-.14c-.31.33-.31.74-.69.74l.16.19c-.08.28,0,.49.21.44.01.15.56-.15.24.03l.47.07-.08.08c.23.31,1.07.02.8.9.17,0,.36,0,.42.24l-.25.3c.21.02.07.62.41.38-.62.86.4.72.47,1.05l.37-.35c.12.16.35.19.67.22l.31-.33c.41-.11.16.61.42.81-.14.11-.17.01-.13-.1-.44,1,1.11.07.85.85.18-.05.19.03.15.16,0,0-.02,0-.03,0,0,.01.01.02.02.03-.03.08-.06.17-.08.26.05-.1.09-.19.1-.24.06.04.17.08.32.07l-.31.37s.01,0,.03,0c-.05.2.22-.1.44-.4.09-.02.19-.05.3-.11-.49.61.38,0-.13.67.34-.24.58.15,1.22-.41-.08.08-.09.14-.14.11.01.15.03.3.27.2l-.4.47.76-.4c-.16.37-.27.57-.71.8.77-.25.4.02,1.13-.27l-.29.27c.09.07.59-.18.41.1-.36.71.79.94.75,1.89.74-.91-.16.58.5-.04-.17.22-.22.39-.46.49.42.04.04.65.73.28-.17.22-.34.24-.43.38.06-.02.24-.1.15.04-.09.14-.2.13-.32.18.27.2.89-.37,1.47-.92-.15.39-.05.41.41.12-.14.23-.27.49-.48.41.06.11.23.77.69.33-.09.14.08.15.16.12.16.21.13.27.36.41l.02-.12c.62-.47.27.03.48.11l-.06.05c-.06.73.33-.04.21.74l.32-.36c.76-.7-.14.72.33.64l.12-.26c.35-.14-.7,1.28-.69,1.48-.04.09-.14.07-.22.08-.16.71.48-.41.79-.31-.2.28-.66.56-.57.74-.13.26,1.18-.38.91.27.14-.23.29-.45.52-.49.21.08-.3,1.09.41.64-.03.07-.07.12-.12.17.26-.04.61.11,1-.13-1.07,1.27,1.26.12.18,1.2l.4.29-.12.1c.15.29.48.11.82-.07-.02.12-.16.19-.22.24.1.54.18.52.99.26l-.32.38c.28-.13-.09,1.01.64.92-.04.04-.12.1-.19.12.77-.06-.13,1.82,1.28.67l.55-.08c-.2-.4.6-.51.69-.84.19.04-.08.69-.29.61l.04-.09c-.72.61.14.61-.32,1.06.63.56.84,1.51,1.36,2.1l.45-.58.16.22c-.07.17-.34.47-.45.31-.22.37.48-.01.59-.12.06.48-.71.5-.64.59l.15.07.03-.09c.3-.12.54-.34.68-.14,0,.21-.27.37-.24.43-.04.04-.04.07.05.08l.2.29.31-.51c.31-.09.21.25.56-.32-.55.88.66,1.17.54,1.49.45-.15.59,0,.74.23.04-.13.47-.62.57-.4-1.01.89-.12.7-.67,1.52.34-.57.57.34,1.03-.48.06.21-.35.36-.47.69.69-.05.46.94.98,1.21.13-.12.26-.37.52-.47l-.41.83c.14.02.79-.65.5-.07.08-.12.21-.31.3-.3.16,1.38,2.07,1.08,1.71,3,.14-.35.23-.3.32-.23,0-.11.31-.31.47-.48l-.14.8c.53-.41.38.32.86-.09l-.18-.02c.67-.39.98-1.37,1.68-2.02-.75.45.48-1.3-.63-.69.08-.19.27-.17.39-.36-.35.23-.49.21-.51-.07l.09-.06c-.47-.33-.36-.79-.62-1.44l-.3.37c-.05-.14.03-.27.07-.4-.62.4.24.3-.42.76.55-.81-.68-.7.01-1.56-.15-.15-.34.43-.49.28l.17-.25-.31.23c-.05-.14.16-.45.33-.64,0,.04.12.02.16.03.12-.37-.44-.28-.41-.4v.27c-.59-.21-.81-.99-1.64-.96l-.13.19c-.59,0-.07-.42-.53-.61l.05-.03c-.22.09-.39.08-.46-.03.27-.1.2-.52.52-.61-.64-.01-.41.08-1.21.45l.21-.31c-.31.16-.44.28-.68.18.36-.09.29-.5.74-.65.23-.92-1.09.06-.42-.94-.89.57-.1.7-.35.77-.16.31-.67.41-.71.23-.09-.13.74-1.12.45-1.38.02.03.08-.02.11,0,.08-.29-.46.05-.28-.38-.51.37-.14-.19-.72.35l.39.13c-.29,0-1.08.52-1-.04.13-.09.35-.17.48-.21.1-.23-.24-.03-.15-.27.58-.54.43.19,1.02-.08.16-.31-.7.11-.01-.42-.88.66-.18-.37-.96.03l.35-.32c-.08.02-.3.12-.35.06l.54-.34c-.52.22.03-.62-.32-.56.32.3-.34.47-.45.85-.83.07.66-1.1.08-1.36.1.01.01.42-.23.48-.01-.15.01-.39.14-.61-.35-.21-.3.39-.63.47.31-.5-.3.03-.56.04l.34-.34c-.1-.54-.8.63-.82.07l.6-.35-.27-.03.42-.36c-.45.12-.43,0-.48-.27-.2.28-.64.6-.79.47.11-.3.38-.27.13-.42.26-.17.58-.39.35.02.12-.1.26-.17.38-.27.13-.34-.21-.32-.28-.39.02.04.03.09,0,.16l-.76.18c.08-.17.22-.24.36-.3-.1-.02-.29.09-.41.04.3-.25.58-.55.83-.55l-.59.03c.1-.14.19-.47.33-.54,0-.32-.92.16-.91-.26-.06.04-.14.07-.22.07-.13-.25.04-.76-.57-.61l.37-.63c-.29-.07-.45.8-.94.69-.37-.05.35-.5.41-.71-.36.15-1.05.47-.83-.12.16-.03.13.09.23.12Zm-2.42-1.98c.11-.03.42-.16.25.07-.44.34-.29.12-.25-.07Zm-4.16-2.52c.14-.08.14.02.06.21-.07-.01-.1-.07-.06-.21Zm-11.68-6.94s.01,0,.02-.01c-.04.23-.02.14-.02.01Zm-.05-.35c-.07.03-.11.08-.15.13.1-.07.15-.03.18.04.08-.1.11-.19-.02-.17Zm21.3,21.07l.05-.13c.18-.01.07.05-.05.13Z"/>
    <path class="cls-1" d="m63.09,145.32c-.05.07-.11.14-.17.2.07-.04.14-.11.17-.2Z"/>
    <path class="cls-1" d="m70.36,151.1s0,0,0,.01c.02-.02.05-.04.07-.05l-.07.04Z"/>
    <path class="cls-1" d="m56.46,138.29c0,.09-.05.17-.1.25.09-.08.14-.17.1-.25Z"/>
    <path class="cls-1" d="m48.89,137.66l.22.04c-.08-.04-.03-.14,0-.23-.08.08-.17.22-.21.19Z"/>
    <path class="cls-1" d="m49.91,134.45c-.06.02-.04-.03-.1-.01l-.15.16c.09.07.27,0,.26-.15Z"/>
    <path class="cls-1" d="m49.91,136.41c.28-.3.1-.28-.04-.31,0,0,.01,0,.02.02-.43.38-.2.34.03.3Z"/>
    <path class="cls-1" d="m49.84,136.08s-.08-.03-.09-.07c-.17.15,0,.07.09.07Z"/>
    <path class="cls-1" d="m50.07,138.07c.03-.12-.39.34-.3.2-.41.32.72-.16.3-.2Z"/>
    <polygon class="cls-1" points="50.78 135.39 50.46 135.78 50.79 135.54 50.78 135.39"/>
    <path class="cls-1" d="m51.22,136.35l-.04-.24c-.06.06-.11.08-.16.08.08.1.1.26.2.16Z"/>
    <path class="cls-1" d="m51.02,136.2c-.04-.05-.09-.09-.17-.06.03.02.09.06.17.06Z"/>
    <polygon class="cls-1" points="51.08 135.48 51.05 135.6 51.12 135.72 51.08 135.48"/>
    <path class="cls-1" d="m52.67,137.94l.26.05c.14-.11.17-.22.06-.23-.12.05-.23.04-.32.18Z"/>
    <path class="cls-1" d="m53.17,136.51c-.03.12-.11.2-.2.34l.44-.43-.24.1Z"/>
    <path class="cls-1" d="m53.73,136.85c.14-.11.57-.13.35-.29-.14.11-.39.05-.35.29Z"/>
    <polygon class="cls-1" points="55.5 139.74 55.45 139.7 54.74 140.43 55.5 139.74"/>
    <path class="cls-1" d="m59.27,140.07c-.01-.36-.49.4-.44.02-.21.13-.04.31-.23.41.29-.07.25.09.67-.43Z"/>
    <path class="cls-1" d="m58.6,140.5s-.1.03-.17.05c.08-.01.13-.03.17-.05Z"/>
    <polygon class="cls-1" points="78.63 166.74 78.59 167.01 78.76 166.69 78.63 166.74"/>
    <path class="cls-1" d="m79.39,166.44l-.43.49.49-.34s-.14-.02-.05-.14Z"/>
    <path class="cls-1" d="m67,146.68l-.12.1c-.1.14-.08.17-.05.25l.17-.35Z"/>
    <polygon class="cls-1" points="68.25 148.62 68.23 148.59 67.87 149.05 68.25 148.62"/>
    <path class="cls-1" d="m70.12,149.43c-.04-.07-.19-.04-.23-.12.19.04-.27.65.23.12Z"/>
  </g>
  <g>
    <path class="cls-1" d="m102.32,120.94c.09.03.05-.38.06-.46-.14.1-.05.57-.06.46Z"/>
    <polygon class="cls-1" points="100.9 121.92 100.92 121.75 100.71 122.17 100.9 121.92"/>
    <path class="cls-1" d="m99.54,121.94c.14.71.49-.13.74.12l.04.16.1-.58c-.29.1-.66.49-.88.29Z"/>
    <path class="cls-1" d="m98.78,120.42c.05.28-.15.24.17.08-.02-.03-.02-.05-.03-.07-.03,0-.07,0-.14-.01Z"/>
    <path class="cls-1" d="m98.92,120.43c.14-.02-.1-.23,0,0h0Z"/>
    <path class="cls-1" d="m98.27,120.6l.18-.25c-.04-.16-.21-.2-.15-.32-.19.14-.15.3-.03.57Z"/>
    <path class="cls-1" d="m98.1,121.13l.1-.11c-.02-.07-.04-.09-.1.11Z"/>
    <path class="cls-1" d="m98.4,120.79l-.2.23c.03.11.04.35.09-.08-.01.21.02,0,.11-.14Z"/>
    <path class="cls-1" d="m98.52,120.9c.11.15.25.25.06.5.36-.11.29-.61-.06-.5Z"/>
    <path class="cls-1" d="m99.49,122.68l.15.21.12-.24c-.06.12-.28-.19-.26.04Z"/>
    <path class="cls-1" d="m97.09,120.26c0,.15.07.4.09.6l.13-.18c-.07-.1-.21-.2-.23-.42Z"/>
    <path class="cls-1" d="m97.18,120.86l-.2.27c.19.03.22-.1.2-.27Z"/>
    <polygon class="cls-1" points="98.08 121.92 98.41 121.37 98.02 121.93 98.08 121.92"/>
    <polygon class="cls-1" points="96.29 120.26 96.4 119.9 96.21 120.44 96.29 120.26"/>
    <path class="cls-1" d="m95.77,120.33c.08-.29-.13-.49-.04-.67-.14.06-.26.31-.36.54.11-.13.24-.1.41.14Z"/>
    <path class="cls-1" d="m95.19,120.53c.06-.07.11-.2.18-.33-.06.07-.12.17-.18.33Z"/>
    <path class="cls-1" d="m96.62,121.05c-.02-.09-.05-.33-.17-.43l.09.43s.05,0,.08,0Z"/>
    <path class="cls-1" d="m96.54,121.06h0c-.09-.02-.15-.03-.18-.03.02,0,.08.01.18.03Z"/>
    <path class="cls-1" d="m96.64,121.06s-.01,0-.02,0c0,.04.01.06.02,0Z"/>
    <path class="cls-1" d="m97.53,121.55c-.12.24-.37.5-.11.86.08-.29-.06-.5.11-.86Z"/>
    <path class="cls-1" d="m96.76,121.59l.22.09c0-.11-.05-.28,0-.4l-.23.3Z"/>
    <polygon class="cls-1" points="96.65 121.73 96.76 121.59 96.67 121.55 96.65 121.73"/>
    <path class="cls-1" d="m95.57,120.92c-.09.19-.2.21-.31.24.13.08.26.12.38.12.01-.13.06-.38-.07-.36Z"/>
    <path class="cls-1" d="m96.05,121.03s-.01.01-.02.02c.01.04.02.05.02-.02Z"/>
    <path class="cls-1" d="m94.1,121.18s.01.05.02.08c0-.03,0-.05,0-.07h-.02Z"/>
    <path class="cls-1" d="m95.67,121.36c.1.08.15-.03.2-.16-.07.04-.14.07-.23.08,0,.06,0,.1.02.08Z"/>
    <path class="cls-1" d="m94.87,120.73c.05.09.11.16.17.23-.05-.13-.15-.34-.17-.23Z"/>
    <path class="cls-1" d="m95.99,120.93s0-.01.01-.02c-.03-.09-.03-.05-.01.02Z"/>
    <path class="cls-1" d="m95.99,120.93c-.05.06-.08.17-.12.26.06-.03.11-.08.15-.15-.01-.03-.03-.08-.03-.12Z"/>
    <path class="cls-1" d="m93.81,123.93c0-.4.25-.77.47-.35.21-.3.04-1.6-.16-2.33,0,.17,0,.33-.21.57.08.21.5.49.32.86-.28.21-.24-.13-.38-.34.13.49-.35.73-.27,1.45l.25-.26c0,.11-.08.29,0,.4Z"/>
    <path class="cls-1" d="m94.54,121.29l.09-.05c-.1-.07-.18-.22-.32-.53-.15.2-.17.34-.18.48l.44.05-.03.06Z"/>
    <path class="cls-1" d="m95.03,121.23c-.06.43-.27.62-.13,1.08.26-.04.18-.36.33-.55-.42.12.12-.24-.2-.48.08-.08.16-.1.23-.12-.08-.05-.15-.11-.22-.19,0,0,0,.02.01.03h0s0,0,0,0c.02.05.03.09,0,.06,0,0,0,0,0,0,0,.06,0,.11-.02.16-.12-.09-.02-.11.02-.16,0-.02,0-.04,0-.06,0,0,0,0,0,0l-.42.25c.09.06.2.04.4-.01Z"/>
    <path class="cls-1" d="m97.21,123.34s-.01-.07-.02-.1c-.03.05-.04.09.02.1Z"/>
    <path class="cls-1" d="m97.03,123.08c.03-.06.05-.23.15-.19.09.13,0,.21.01.35.06-.12.21-.31.01-.52l-.03.06c-.17-.14-.41-.68-.38-.74.06.39.11.66.23,1.04Z"/>
    <path class="cls-1" d="m96.02,122.26l-.35.22.19.37v-.22c.19.08.14-.19.16-.36Z"/>
    <polygon class="cls-1" points="94.06 120.97 94.09 120.51 93.9 121.16 94.06 120.97"/>
    <polygon class="cls-1" points="93.6 121.03 93.61 120.63 93.49 120.88 93.6 121.03"/>
    <path class="cls-1" d="m67.72,126.52l-.1.11s.08-.07.1-.11Z"/>
    <path class="cls-1" d="m68.47,126.53v-.2c-.02.11-.03.19,0,.2Z"/>
    <path class="cls-1" d="m82.29,121.33c-.16-.37-.34-.94-.31-.49l.06.43c.1-.08.19-.03.26.06Z"/>
    <path class="cls-1" d="m74.6,124.09s.03.09.05.13c.03-.15.07-.29.09-.42-.04.09-.09.19-.14.29Z"/>
    <path class="cls-1" d="m74.53,125.89l-.21-.28c.05.1.11.19.21.28Z"/>
    <path class="cls-1" d="m63.61,127.07l-.11.44c.19,0,.1-.23.11-.44Z"/>
    <path class="cls-1" d="m88.88,121.29c-.13-.17-.24-.24-.33-.25.16.25.3.62.33.25Z"/>
    <path class="cls-1" d="m67.91,121.91c-.06.08-.09.17-.08.27.06-.08.1-.16.08-.27Z"/>
    <path class="cls-1" d="m88.17,121.05s.05.06.07.1c.09-.07.19-.14.31-.11-.12-.18-.26-.29-.38,0Z"/>
    <path class="cls-1" d="m48.67,127.04s-.02-.03-.03-.05c0,.06.01.06.03.05Z"/>
    <path class="cls-1" d="m44.22,122.76s.11-.03.18-.04c-.03-.03-.09-.02-.18.04Z"/>
    <path class="cls-1" d="m91.74,120.88c.1-.03.01-.05,0,0h0Z"/>
    <path class="cls-1" d="m92.25,122.59s-.03.11-.03.21c0-.1.02-.17.03-.21Z"/>
    <path class="cls-1" d="m87.26,123.77s0,0,0,0c.03.08.03.07,0,0Z"/>
    <path class="cls-1" d="m91.89,121.08c-.04-.05-.08-.1-.13-.13.02.03.06.07.13.13Z"/>
    <path class="cls-1" d="m91.87,120.87s.06.03.09.04c.01-.07,0-.12-.09-.04Z"/>
    <path class="cls-1" d="m91.6,120.91c.06,0,.11.01.16.04-.02-.03-.03-.05-.02-.07-.03,0-.07.02-.14.03Z"/>
    <path class="cls-1" d="m56.65,125.7s-.01-.02-.02-.04c-.09.18-.05.15.02.04Z"/>
    <path class="cls-1" d="m79.85,125.89s0-.02.01-.02c0,0-.01-.01-.01-.01v.04Z"/>
    <path class="cls-1" d="m79.5,126.22c.14-.54.22-.48.34-.37l-.14-1.25-.2,1.62Z"/>
    <path class="cls-1" d="m65.92,126.68l.26.38c-.28.65-.5.43-.26.97,0-1.36.95-.16.96-1.52l.17.28s-.05.07-.1.06c.33.64.21-.99.62-.8.14.1.25.3.15.46l.31-.34c.09.02.08.26-.02.24l.48-.12v.04c.06-.21.21-.55.28-.69.13.19-.06.15-.02.31l.26-.33c.12.35-.1.7-.28.65.28,1.35.21-.35.77.43l-.25.18c.18.77.37.48.67.96-.07-.25-.6-1.2-.32-1.54.08.1.19.15.34-.13.01.48.16.36.35.33v.64c.2-.19.18-.51.29-.81.23.06.29.55.35.97.37.09-.27-.79.16-.92.31.24.52-.03.88-.42.22.22-.03.39.05.57l.18-.51s.04.17.03.25c.16-.2,0-.64.25-.82.05-.71.54,1.02.83.21.08.18-.03.39,0,.64.42-.53.36-.39.69-1.1l.31.41c-.23-.48.04-1.05.27-1.52-.08-.23-.15-.43-.2-.53l.38-.35c.05.1.02.32-.04.59.03-.05.05-.11.07-.15.15.23.08.6-.01.96-.05-.12-.1-.26-.15-.39-.09.39-.17.82-.14,1.2.02-.07.07-.14.12-.18-.02.11-.04.2-.02.26.01.07.05-.08.11-.24l.1.71.02-.28.52.43c.35-.73.65-1.79,1.22-2.1-.13.53-.01.85,0,1.47-.17-.65-.45.29-.75.16.16.07.13.36.09.47l.53-.61c0,.51.12.38.27.58-.13-1,.39-.68.6-.99.02.34-.02.68-.29.61.31.75.36-1.18.66-.55-.07,0-.1-.04-.12.13.15-.3.52-.07.44.22h-.06c.44.12,1.32-.01,1.37-.87,0,.11-.03,1.03-.06,1.2l.71-2.88c-.05.73.25,2.47-.1,2.89.11.1.24.22.45-.04-.07-.1-.2-1.05-.1-1.12.28.81.19.43.53,1.12-.11-.15-.02-1.3.15-1.27-.02.17.04,1.13-.02,1.25l.39-1.13c-.1.2,0,.95.1,1.27-.05-.22.36.01.47-.1l-.18-.26c.47.16.43-1.59.89-1.54-.05.23-.11,1.43.13,1.57.1-.58.42-2.78.82-3.23l.09.33.31-.38c-.18.87-.69,2.71-.97,3.42.18.26.06.39.32.35.1.31-.13.47-.21.49l.62.19c-.04-.67.45-.68.42-1.24l-.65.71c-.04-.67.34-1.92.78-1.81.12.26-.06,1.2-.04,1.42.05-.23.4-.45.45-.29l-.18.36c.25.25.37-.9.68-.26.1.04.32.86.33.46-.18-.76-.26-3.14-.17-3.71.04.05.54.72.66,1.1.18.6-.22,1.44-.06,1.95,0-.18.09-.41.12-.49.11.15-.03.57.2.48.02-.68.47.05.1-.58.22-.2.24.13.5.1-.09-.44.2-1.5.42-1.7,0,.17.05.4.07.5.46.05.71.36,1.14.35.04.16.25.36.17.65.06-.12.11-.35.24-.37.27.58-.29.1-.08.8,0-.4.33-.55.51-.81-.07-.61-.44-.11-.62.14-.02-.84.29-1.73.73-2.13.35-.22.17.54.22.42.67.13.54-1.49,1.1-.89.23.53.03,1.07.09,1.46-.28.21-.45-.33-.65-.31l.25.25c-.09.18-.28.32-.39.17.19.48,1.13.07,1.65.5.09-.18.24-.37.16-.59l-.16.08c-.16-.43.29-.61.08-.8.21-.31.45-.79.76-.56l.07.61c-.01-.18-.21-.36-.29-.17.12-.27.49.82.61.01l-.22-.42c.21-.31.47-.97.75-.78-.14-.6-.06.07-.27-.63.19.88-.7-.02-.41.9-.22-.82-.35-.34-.63-1.04.01.2.1.38-.13.29,0,.06-.03.13-.05.18,0,0,0,0-.02-.01,0,0,0,.02.01.02,0,.03-.01.04,0,0,.06.09.1.19.12.3-.1.47-.47.46-.58.7-.14-.09.05-.23-.03-.45l-.18.36c-.03-.45-.38-.74-.06-1.01h-.29c-.17-.26-.41-.36-.55-.16-.14-.09-.33.5-.22.15l-.44.29v-.11c-.45-.05-.91.76-1.43-.04-.15.12-.3.26-.55.14l-.06-.39c-.19.14-.59-.38-.66.03-.23-1.04-.94-.21-1.28-.39v.51c-.24-.02-.46.13-.74.34l.03.45c-.24.37-.65-.3-1.04-.25.02-.17.12-.13.2-.03-.49-1-.98.76-1.42.03-.1.17-.18.11-.26,0,0,0,.02,0,.03-.02-.01,0-.03,0-.04,0-.05-.08-.1-.16-.15-.24.05.11.09.2.13.24-.08.01-.21.07-.32.18l-.06-.48s-.02,0-.03.01c-.12-.17-.09.23-.02.59-.06.08-.11.18-.16.29-.11-.77-.31.27-.47-.56-.07.41-.61.32-.65,1.17,0-.11-.04-.16.02-.17-.14-.09-.28-.19-.39.05l-.07-.61-.28.83c-.19-.37-.27-.58-.1-1.06-.42.73-.34.28-.7,1.01v-.4c-.12.02-.32.55-.41.23-.31-.75-1.46-.07-2.23-.75.17,1.16-.36-.51-.37.39-.05-.27-.16-.43-.04-.67-.38.28-.59-.42-.84.34-.05-.28.07-.41.03-.57-.03.06-.12.24-.16.08-.04-.16.05-.23.11-.35-.39.06-.41.91-.42,1.7-.21-.37-.31-.32-.44.21-.08-.26-.2-.53.05-.63-.14-.04-.85-.36-.85.28-.05-.16-.19-.04-.23.03-.31-.03-.34-.09-.64-.02l.09.1c-.1.77-.25.18-.49.28v-.08c-.57-.54-.23.27-.8-.35l.04.48c-.03,1.03-.5-.6-.82-.2l.12.27c-.17.36-.52-1.39-.7-1.52-.04-.09.06-.15.11-.21-.47-.6-.05.63-.39.78-.07-.34.06-.86-.17-.92-.12-.27-.65,1.11-.98.47.08.26.15.52,0,.72-.24.1-.68-.97-.89-.14-.03-.07-.05-.14-.05-.2-.18.22-.6.37-.7.82-.21-1.65-1.14.83-1.17-.7l-.57.09v-.16c-.36-.09-.48.28-.6.65-.09-.1-.03-.25-.02-.33-.54-.3-.6-.23-1.03.54l-.06-.49c-.12.29-.79-.76-1.31-.17,0-.06.01-.15.05-.22-.58.59-1.45-1.34-1.63.47l-.38.45c.51.13-.06.78.16,1.08-.2.11-.53-.53-.28-.63l.04.09c.07-.94-.64-.32-.64-.96-.99.07-1.98-.43-2.91-.45l.12.73-.33-.03c-.09-.17-.13-.57.11-.54-.13-.41-.38.36-.38.51-.46-.29.16-.86.02-.87l-.19.06.04.08c-.15.3-.15.62-.43.59-.18-.14-.1-.45-.17-.48,0-.05-.02-.08-.11-.02l-.41-.05.18.57c-.18.29-.39-.02-.18.63-.3-1-1.54-.33-1.71-.64-.25.43-.5.42-.81.38.08.12.14.77-.13.69.07-1.34-.5-.57-.74-1.53.21.63-.76.17-.44,1.08-.23-.1-.02-.5-.2-.81-.52.53-1.18-.31-1.84-.12,0,.18.11.44-.03.71l-.37-.87c-.13.09-.1,1.02-.35.41.04.15.09.37,0,.43-1.31-.83-2.62.76-3.97-.82.19.34.07.37-.07.39.09.08,0,.43.03.67l-.56-.65c-.09.66-.59.06-.63.69l.17-.12c-.21.75.36,1.65.35,2.61.24-.85.71,1.24,1.11.02.1.19-.07.31-.02.53.1-.41.23-.5.47-.32l-.02.1c.67-.12.97.28,1.74.54l-.07-.47c.16.06.2.21.28.32.17-.72-.46-.03-.31-.83.24.96,1.15-.01,1.32,1.08.25,0-.09-.55.17-.55l.07.29.05-.38c.17.06.26.43.27.68-.04-.03-.11.07-.15.1.22.34.6-.13.68-.02l-.25-.18c.68-.29,1.53.08,2.17-.54l-.06-.22c.5-.42.41.24.96.03l-.02.05c.11-.23.25-.34.4-.32-.13.26.28.5.1.8.54-.46.26-.35.61-1.19l.09.37c.12-.34.12-.52.4-.62-.22.32.19.56-.06.99.6.8.85-.84,1.14.34.24-1.03-.52-.56-.37-.78-.13-.33.2-.77.39-.67.19.02.35,1.31.81,1.28-.05,0-.05.07-.09.07.18.26.34-.36.56.06.11-.62.28.03.3-.76l-.43.19c.24-.21.45-1.14.86-.7-.03.16-.14.37-.22.49.12.23.22-.16.35.08-.02.79-.52.18-.76.79.13.33.48-.58.37.28.16-1.09.46.13.76-.71v.47c.04-.08.14-.3.23-.29l-.15.62c.24-.53.5.45.74.16-.51.03-.13-.57-.35-.91.62-.65.39,1.23,1.1.99-.09.07-.37-.28-.22-.5.14.09.32.27.41.52.47-.11-.08-.49.11-.78.17.57.23-.24.43-.43v.48c.56.3.13-1.01.62-.65l-.19.67.25-.18-.04.55c.27-.41.35-.31.62-.16-.07-.34.02-.88.25-.9.17.28-.08.46.25.38-.07.3-.14.68-.3.24-.01.16-.07.3-.08.46.18.33.44.07.56.06-.05-.02-.1-.04-.13-.11l.47-.68c.08.18.02.33-.03.47.1-.05.16-.28.31-.32-.03.39-.01.8-.21.99l.46-.45c.03.17.25.46.19.61.26.22.62-.77.97-.48.02-.08.05-.15.12-.21.32.08.62.56.99.01l.23.7c.29-.17-.31-.88.18-1.16.35-.23.14.6.27.79.17-.36.46-1.09.79-.52-.1.13-.19.03-.29.09Zm3.68-.39c-.07.1-.2.42-.26.13.07-.55.14-.29.26-.13Zm5.57-1.29c-.05.16-.13.08-.23-.1.07-.04.14-.02.23.1Zm15.52-3.7s0,.01,0,.02c-.16-.18-.11-.11,0-.02Zm.33.2c.03-.07.03-.13.01-.2-.02.12-.09.13-.18.1.03.13.07.21.17.1Zm-35.48.98l.07.12c-.14.14-.1.02-.07-.12Z"/>
    <path class="cls-1" d="m74.54,125.68c-.02-.08-.03-.17-.04-.26-.03.08-.02.18.04.26Z"/>
    <path class="cls-1" d="m63.63,126.99s0,0-.01,0c0,.03,0,.06,0,.09l.02-.08Z"/>
    <path class="cls-1" d="m85.99,125.7c-.07-.07-.11-.16-.14-.25,0,.12.03.22.14.25Z"/>
    <path class="cls-1" d="m92.75,120.64l-.21.13c.1-.03.14.08.19.15,0-.11-.05-.27.01-.28Z"/>
    <path class="cls-1" d="m94.65,123.59c.03-.06.07,0,.09-.07v-.22c-.14.02-.23.2-.09.29Z"/>
    <path class="cls-1" d="m92.98,122.24c.03.41.16.26.3.19,0,0-.02,0-.03,0,.03-.57-.12-.38-.28-.19Z"/>
    <path class="cls-1" d="m93.31,122.41s.09-.03.14-.01c.01-.23-.06-.05-.14.01Z"/>
    <path class="cls-1" d="m91.43,121.22c.07.1.03-.52.08-.36.07-.52-.45.64-.08.36Z"/>
    <polygon class="cls-1" points="93.13 123.57 93.06 123.07 92.99 123.48 93.13 123.57"/>
    <path class="cls-1" d="m91.95,123.23l.24.13c0-.08.02-.13.06-.17-.15-.01-.31-.11-.3.04Z"/>
    <path class="cls-1" d="m92.25,123.19c.08,0,.15,0,.19-.09-.04,0-.13.02-.19.09Z"/>
    <polygon class="cls-1" points="92.81 123.73 92.74 123.63 92.57 123.6 92.81 123.73"/>
    <path class="cls-1" d="m89.4,123.19l-.26.15c-.02.17.05.28.15.21.06-.12.15-.19.11-.35Z"/>
    <path class="cls-1" d="m90.21,124.55c-.07-.1-.08-.21-.12-.38v.62s.12-.24.12-.24Z"/>
    <path class="cls-1" d="m89.46,124.71c-.02.17-.36.5-.04.46.02-.17.28-.32.04-.46Z"/>
    <polygon class="cls-1" points="85.55 124.01 85.61 124 85.58 122.98 85.55 124.01"/>
    <path class="cls-1" d="m82.17,126.52c.31.24.06-.63.34-.33.07-.24-.23-.24-.16-.45-.18.26-.28.12-.18.78Z"/>
    <path class="cls-1" d="m82.35,125.74s.06-.09.09-.16c-.05.06-.08.11-.09.16Z"/>
    <polygon class="cls-1" points="43.49 122.23 43.29 122.02 43.42 122.36 43.49 122.23"/>
    <path class="cls-1" d="m43.13,122.99l-.06-.65-.11.59s.13-.09.17.06Z"/>
    <path class="cls-1" d="m70.17,127.58v-.16c-.02-.17-.07-.18-.16-.2l.16.36Z"/>
    <polygon class="cls-1" points="67.48 127.16 67.53 127.17 67.43 126.58 67.48 127.16"/>
    <path class="cls-1" d="m65.26,127.96c.09.02.2-.11.29-.09-.2.11-.33-.64-.29.09Z"/>
  </g>
  <g>
    <path class="cls-1" d="m63.68,124.15s-.28-.26-.34-.31c.05.08.42.38.34.31Z"/>
    <polygon class="cls-1" points="64.21 125 64.08 124.88 64.37 125.19 64.21 125"/>
    <path class="cls-1" d="m64.02,125.2c.56.45-.02-.15.2-.02l.13.1-.42-.39c.03.1.27.41.09.31Z"/>
    <path class="cls-1" d="m62.75,124.3c.22.18.16.18.09.03-.03-.02-.04-.03-.06-.04,0,0,0,.01-.03.01Z"/>
    <path class="cls-1" d="m62.79,124.29s-.19-.14,0,0h0Z"/>
    <path class="cls-1" d="m62.82,124.49l-.16-.19c-.13-.1-.18-.1-.26-.19.08.12.21.22.42.38Z"/>
    <path class="cls-1" d="m63.19,124.86l-.07-.08c-.05-.04-.08-.05.07.08Z"/>
    <path class="cls-1" d="m62.98,124.6l.14.18c.09.07.27.22-.05-.07.16.14,0,0-.09-.11Z"/>
    <path class="cls-1" d="m63.08,124.66c.13.09.22.13.38.32-.03-.12-.41-.44-.38-.32Z"/>
    <path class="cls-1" d="m64.57,125.69l.18.12-.16-.18c.08.09-.18-.08-.01.06Z"/>
    <path class="cls-1" d="m62.38,124.43c.11.1.31.26.46.38l-.11-.14c-.09-.06-.18-.1-.35-.25Z"/>
    <path class="cls-1" d="m62.84,124.81l.17.2s-.04-.1-.17-.2Z"/>
    <polygon class="cls-1" points="63.78 125.39 63.41 124.98 63.78 125.4 63.78 125.39"/>
    <polygon class="cls-1" points="62.26 124.54 62.01 124.29 62.38 124.67 62.26 124.54"/>
    <path class="cls-1" d="m62.24,124.66c-.21-.2-.39-.3-.51-.44.02.06.19.24.35.4-.08-.1-.04-.1.16.03Z"/>
    <path class="cls-1" d="m62.3,124.87c-.04-.05-.13-.15-.22-.24.04.05.11.13.22.24Z"/>
    <path class="cls-1" d="m62.91,125.02c-.07-.06-.26-.21-.35-.26l.33.27s.01,0,.02,0Z"/>
    <path class="cls-1" d="m62.9,125.04h-.01s-.03,0-.04,0c0,0,.02,0,.05,0Z"/>
    <path class="cls-1" d="m62.91,125.02s0,0,0,0c.03.03.04.03,0,0Z"/>
    <path class="cls-1" d="m63.42,125.22c.16.18.32.38.63.58-.21-.21-.38-.32-.63-.58Z"/>
    <path class="cls-1" d="m63.33,125.35l.1.03c-.09-.07-.22-.18-.3-.26l.19.23Z"/>
    <polygon class="cls-1" points="63.42 125.46 63.33 125.35 63.29 125.34 63.42 125.46"/>
    <path class="cls-1" d="m62.65,125.08c.13.14.13.16.13.2.08.04.13.05.15.03-.1-.09-.27-.26-.28-.23Z"/>
    <path class="cls-1" d="m62.8,125.08s0,.01.02.02c.03.02.04.03-.02-.02Z"/>
    <path class="cls-1" d="m62.62,125.46s.04.03.06.05c-.02-.02-.04-.03-.05-.05h0Z"/>
    <path class="cls-1" d="m62.99,125.35c.08.04,0-.04-.09-.13.02.04.03.07.03.08.04.04.07.07.06.05Z"/>
    <path class="cls-1" d="m62.4,125.06c.07.05.14.09.2.13-.11-.08-.28-.2-.2-.13Z"/>
    <path class="cls-1" d="m62.72,125.03s0-.01-.01-.01c-.07-.06-.04-.03.01.01Z"/>
    <path class="cls-1" d="m62.72,125.03s.11.12.18.19c-.02-.03-.04-.07-.09-.12-.02-.02-.06-.05-.09-.07Z"/>
    <path class="cls-1" d="m64.65,127.31c-.3-.26-.54-.54-.19-.3-.2-.23-1.2-1.06-1.77-1.51.13.11.25.22.4.41.17.13.45.26.69.52.12.18-.14-.06-.31-.17.39.31.49.53,1.05.99l-.16-.21c.09.07.21.21.3.26Z"/>
    <path class="cls-1" d="m62.77,125.47l-.02-.05c-.07-.03-.2-.12-.45-.3.13.15.23.25.33.34l.1-.03.04.04Z"/>
    <path class="cls-1" d="m62.8,125.36c.32.29.43.45.8.73.01-.06-.25-.26-.37-.41.02.14-.16-.18-.39-.29-.04-.06-.05-.09-.06-.11-.05-.02-.11-.05-.18-.1,0,0,.01.01.02.02h0s0,0,0,0c.04.03.07.05.04.04,0,0,0,0,0,0,.04.04.08.08.12.11-.08-.04-.09-.07-.12-.11-.02-.01-.03-.03-.05-.04,0,0,0,0,0,0l.12.22c.06.03.06,0,.05-.06Z"/>
    <path class="cls-1" d="m64.72,126.44s-.05-.04-.08-.06c.04.04.06.06.08.06Z"/>
    <path class="cls-1" d="m64.5,126.3s-.17-.16-.12-.15c.11.07.16.14.26.23-.08-.08-.2-.24-.39-.34l.04.04c-.13-.07-.57-.39-.61-.43.3.25.51.42.82.65Z"/>
    <path class="cls-1" d="m63.73,125.9l.11.19.31.22-.17-.15c.09.03-.12-.15-.25-.26Z"/>
    <polygon class="cls-1" points="62.46 125.32 62.12 125.02 62.58 125.47 62.46 125.32"/>
    <polygon class="cls-1" points="62.44 125.43 62.14 125.17 62.3 125.34 62.44 125.43"/>
    <path class="cls-1" d="m62.66,132.66l.07.09s-.04-.06-.07-.09Z"/>
    <path class="cls-1" d="m62.78,132.56l-.14-.13c.08.08.13.13.14.13Z"/>
    <path class="cls-1" d="m60.95,127.2c-.3-.22-.75-.57-.42-.28l.33.28c-.04-.07,0-.05.08,0Z"/>
    <path class="cls-1" d="m61.87,130.1s.07.05.11.08c-.11-.1-.21-.2-.3-.29.06.07.13.13.19.21Z"/>
    <path class="cls-1" d="m63.21,131.29l-.24-.15c.08.06.16.11.24.15Z"/>
    <path class="cls-1" d="m62.46,133.6l.32.31s-.16-.16-.32-.31Z"/>
    <path class="cls-1" d="m61.92,126.26c-.15-.09-.21-.12-.24-.12.21.14.51.36.24.12Z"/>
    <path class="cls-1" d="m59.22,129.6c.05.06.11.12.19.19-.05-.06-.1-.12-.19-.19Z"/>
    <path class="cls-1" d="m61.63,126.2s.06.04.09.06c-.04-.06-.07-.12-.04-.12-.16-.1-.26-.16-.05.06Z"/>
    <path class="cls-1" d="m60.18,135.67s-.02-.02-.04-.03c.04.04.05.04.04.03Z"/>
    <path class="cls-1" d="m56.29,133.47s0-.04,0-.05c-.03-.01-.03,0,0,.05Z"/>
    <path class="cls-1" d="m62.04,125.59s-.03-.03,0,0h0Z"/>
    <path class="cls-1" d="m63.4,126.64s.08.08.15.14c-.08-.07-.13-.12-.15-.14Z"/>
    <path class="cls-1" d="m63.54,128.12s0,0,0,0c.07.05.06.04,0,0Z"/>
    <path class="cls-1" d="m62.21,125.7s-.08-.05-.11-.07c.03.02.06.04.11.07Z"/>
    <path class="cls-1" d="m62.06,125.57s.03.01.04.01c-.05-.05-.09-.08-.04-.01Z"/>
    <path class="cls-1" d="m62.04,125.63s.02,0,.06,0c-.02-.02-.04-.03-.05-.04,0,0,0,.02,0,.04Z"/>
    <path class="cls-1" d="m60.38,133.67s-.02-.01-.03-.02c.12.13.11.11.03.02Z"/>
    <path class="cls-1" d="m64.02,130.55s-.01-.01-.01-.02c0,0,0,0-.01,0l.03.02Z"/>
    <path class="cls-1" d="m64.21,130.82c-.39-.38-.33-.35-.22-.29l-.96-.8,1.19,1.09Z"/>
    <path class="cls-1" d="m62.51,133.02l.33.22c.44.47.25.35.69.68-1.02-.9.02-.24-1-1.13l.24.16s.04.05.03.05c.53.38-.71-.68-.51-.62.1.05.26.16.37.28l-.21-.27s.21.16.18.16l-.02-.15.03.03c-.15-.15-.38-.39-.48-.49.16.11.1.1.23.21l-.21-.26c.28.21.51.47.45.47,1.06.85-.23-.26.44.18l.1.15c.6.48.42.27.82.54-.2-.15-.99-.71-1.21-.97.09.05.14.07-.05-.13.36.32.3.22.3.17l.48.42c-.11-.15-.36-.36-.56-.57.08,0,.46.32.78.59.13,0-.63-.48-.67-.63.23.11.06-.09-.18-.4.2.11.29.26.44.37l-.36-.36s.13.11.19.16c-.13-.15-.48-.42-.58-.57-.52-.47.85.6.28.02.15.11.29.26.48.42-.34-.41-.24-.31-.73-.82l.36.23c-.39-.28-.78-.7-1.1-1.04-.19-.14-.35-.26-.43-.32l-.21-.29c.09.06.25.21.44.4-.04-.04-.07-.08-.11-.11.2.13.47.39.72.64-.1-.08-.21-.16-.32-.24.28.27.59.57.88.81-.05-.05-.09-.1-.11-.13.08.07.15.14.2.18.05.04-.05-.06-.16-.17l.55.45-.21-.19.41.21c-.49-.53-1.25-1.27-1.39-1.55.38.37.64.56,1.11.97-.52-.41.15.25,0,.21.07.02.29.22.36.29l-.38-.47c.38.33.3.23.48.35-.77-.64-.45-.5-.65-.73.26.22.51.45.41.44.61.45-.84-.83-.31-.45,0,.02-.05-.01.08.1-.21-.22.02-.12.23.08h0c.15.03.18-.18-.45-.75.08.07.77.68.89.8l-2.06-2c.54.49,1.89,1.59,2.15,1.92.09.05.2.11.04-.09-.09-.06-.82-.67-.86-.72.65.49.35.26.92.66-.13-.09-.98-.86-.93-.86.13.12.86.74.94.83l-.79-.8c.14.15.72.63.97.82-.17-.14.06-.04,0-.13l-.22-.14c.19.04-1.13-1.11-1.03-1.14.17.16,1.06.96,1.2,1.01-.42-.39-2.03-1.89-2.31-2.24l.26.2-.24-.29c.63.6,1.93,1.88,2.43,2.39.22.14.3.25.31.19.25.19.33.33.34.35l.23.04c-.51-.44-.45-.51-.87-.88l.44.56c-.51-.44-1.39-1.31-1.24-1.3.22.16.89.8,1.06.94-.17-.16-.28-.35-.15-.25l.25.26c.22.13-.62-.64-.1-.27.05.01.69.52.4.26-.6-.48-2.4-2.03-2.82-2.42.04.03.62.4.93.63.48.37,1.05.98,1.46,1.29-.14-.12-.3-.28-.35-.34.13.09.42.38.39.29-.51-.45.11-.03-.42-.39-.12-.16.14.06.15,0-.34-.28-1.1-1.02-1.22-1.18.13.12.31.26.39.32.11-.03.37.13.44.07.13.1.31.2.52.41-.08-.09-.25-.25-.24-.28.48.35.03.11.59.54-.3-.26-.37-.41-.53-.6-.47-.39-.15,0,.01.18-.64-.55-1.26-1.18-1.5-1.51-.11-.19.43.33.35.25.2,0-1.04-1.05-.5-.74.44.32.81.7,1.11.95.11.18-.32-.16-.33-.11l.22.13c.12.13.2.25.07.16.39.29.22-.11.63.1-.12-.13-.24-.28-.42-.41l.03.07c-.35-.26-.41-.44-.59-.54-.2-.23-.53-.59-.3-.47l.47.39c-.14-.12-.3-.21-.17-.07-.19-.2.69.47.1-.08l-.35-.25c-.2-.24-.66-.7-.48-.62-.47-.38.04.06-.52-.38.69.55-.12.08.61.65-.65-.51-.31-.18-.87-.6.15.13.3.24.2.21.04.04.1.09.13.12,0,0,0,0-.01,0,0,0,.01,0,.02.01.02.02.03.03,0,0,.07.05.16.11.25.18.34.32.28.37.44.54-.09-.04-.17-.16-.34-.29l.25.26c-.34-.29-.61-.43-.77-.66l-.05.03c-.21-.14-.32-.17-.2-.02-.09-.04.33.38.08.13l.15.25-.09-.07c-.1.03.44.63-.24.18.07.1.15.21.02.17l-.3-.25c.08.12-.37-.17-.08.11-.82-.65-.3,0-.48-.07l.38.33c-.05.02.03.15.14.32l.34.29c.24.28-.33-.11-.34-.02-.13-.12-.08-.1,0-.05-.83-.59.42.64-.19.22.11.12.06.1-.04.04,0,0,0,0-.01-.02,0,0,0,0-.01,0-.06-.04-.14-.09-.2-.13.09.06.16.12.2.14,0,.02.02.07.09.17l-.37-.31s0,0,0,.01c-.15-.1.16.16.44.39.05.06.12.13.2.22-.6-.49.15.22-.49-.3.29.28.15.29.78.86-.08-.07-.13-.1-.13-.12-.09-.04-.18-.09-.02.09l-.47-.39.58.59c-.31-.22-.48-.35-.81-.68.49.54.16.23.65.76l-.3-.26s.37.41.11.21c-.61-.45-.27.16-.9-.19.9.74-.44-.29.24.31-.21-.17-.35-.26-.51-.44.15.24-.41-.2.13.34-.21-.17-.29-.28-.42-.38.04.04.16.18.03.07-.13-.1-.17-.16-.25-.25-.02.09.62.65,1.22,1.18-.31-.22-.28-.17.09.2-.21-.16-.43-.32-.47-.42-.05,0-.4-.12.08.3-.13-.1-.06,0-.01.05-.07.02-.12-.01-.11.08l.09.06c.57.52.1.15.13.25l-.06-.05c-.5-.28.17.21-.38-.12l.37.31c.77.68-.53-.32-.27-.02l.22.16c.24.26-1.12-.84-1.25-.9-.07-.05-.1-.1-.14-.16-.52-.33.47.42.53.57-.26-.21-.64-.58-.72-.58-.22-.16.74.82.21.45.21.16.41.32.54.47.04.1-.83-.55-.24.03-.06-.04-.11-.08-.16-.13.14.17.19.33.51.64-1.27-1.06.45.71-.7-.29l-.02.14-.12-.1c-.13,0,.13.25.39.51-.09-.06-.19-.16-.25-.21-.3-.12-.26-.07.25.5l-.38-.32c.2.21-.69-.39-.32.07-.04-.04-.11-.1-.16-.15.36.47-1.23-.68.11.53l.28.35c.17.01.58.53.84.69.05.1-.48-.28-.52-.38l.07.05c-.7-.63-.34-.12-.82-.54-.1.18-.62,0-.78.11l.57.46-.08.02c-.14-.1-.45-.36-.39-.37-.33-.25.21.29.33.39-.28-.12-.62-.59-.65-.58l.02.07.07.05c.21.22.44.43.38.45-.13-.07-.35-.28-.38-.29-.04-.03-.06-.05-.03,0l-.1.02.46.35c.19.21-.07.04.44.44-.8-.62-.48,0-.74-.18.28.32.24.35.16.36.1.07.6.49.5.47-1-.89-.51-.31-1.26-.9.51.39.02.22.74.77-.11-.04-.38-.33-.64-.51.32.42-.41-.04-.37.18.13.12.35.28.53.47l-.71-.52c.05.08.75.68.26.32.12.09.29.23.32.28-.82-.36.18.87-1.21.01.28.2.29.24.28.27.07.04.33.29.51.44l-.57-.35c.49.45-.04.12.42.54l-.06-.1c.53.53,1.3,1.04,2.02,1.67-.61-.6,1.04.72.18-.14.16.11.22.21.4.35-.3-.29-.34-.36-.17-.28l.07.07c.02-.17.36.05.67.11l-.37-.3c.07.02.19.11.29.17-.52-.5-.09.04-.67-.5.76.6.17-.17,1.01.53.04-.03-.42-.35-.39-.38l.23.18-.28-.26c.07.02.36.25.55.41-.03-.01.04.06.05.08.29.2,0-.17.09-.11l-.17-.08c-.12-.29.29-.16-.08-.66l-.18-.14c-.24-.35.24.1.17-.11l.04.04c-.15-.16-.22-.26-.18-.27.18.19.42.29.61.51-.26-.38-.23-.27-.81-.87l.29.23c-.24-.24-.37-.36-.4-.46.21.24.45.34.73.66.69.44-.5-.67.43.07-.74-.71-.5-.3-.64-.46-.27-.2-.55-.54-.45-.5.04-.01,1.03.81,1.08.73-.01,0,.05.06.04.06.22.14-.22-.29.13-.04-.45-.43.06-.02-.53-.54l.08.19c-.12-.17-.79-.82-.4-.58.12.11.26.27.34.36.19.13-.09-.14.11,0,.59.52.06.19.48.63.27.2-.37-.45.26.13-.8-.74.17.02-.42-.58l.36.31c-.05-.06-.21-.22-.18-.23l.44.43c-.36-.38.41.22.23,0-.06.09-.45-.36-.74-.55-.39-.51.99.76.91.5.04.06-.26-.13-.41-.3.09.04.25.13.45.29-.01-.14-.38-.31-.57-.53.46.35-.15-.19-.26-.34l.36.32c.31.12-.74-.68-.39-.51l.48.47-.1-.15.41.37c-.27-.31-.18-.25-.03-.19-.27-.21-.66-.58-.64-.63.24.16.33.31.33.22.22.21.49.47.14.2.12.11.22.21.33.31.27.19.12-.02.13-.04-.02,0-.05-.01-.1-.05l-.44-.51c.15.11.25.21.35.31-.03-.05-.18-.21-.2-.26.29.26.6.53.71.68l-.27-.36c.13.11.39.27.49.37.21.11-.49-.6-.21-.45-.06-.05-.11-.11-.14-.15.11,0,.51.28.16-.13l.56.43c-.08-.15-.71-.54-.84-.79-.12-.2.47.37.63.48-.24-.26-.75-.78-.27-.45.09.1,0,.05.02.1Zm.26-.77c.07.08.28.3.06.13-.41-.37-.2-.21-.06-.13Zm-.13-1.63c.11.11.04.07-.11-.03-.02-.04,0-.04.11.03Zm-.45-4.61s0,0,.02.02c-.16-.1-.1-.06-.02-.02Zm.2.09s-.1-.09-.15-.13c.09.08.09.1.05.09.1.08.17.13.1.04Zm-4.61,5.6l.1.07c.09.11,0,.02-.1-.07Z"/>
    <path class="cls-1" d="m63.06,131.15c-.06-.05-.13-.11-.2-.17.06.06.13.12.2.17Z"/>
    <path class="cls-1" d="m62.4,133.54s0,0,0,0c.02.02.04.04.06.06l-.06-.06Z"/>
    <path class="cls-1" d="m64.8,129.57c-.06-.04-.13-.09-.21-.14.09.08.17.14.21.14Z"/>
    <path class="cls-1" d="m62.02,125.29l.07.11s.08.03.15.07c-.09-.07-.21-.17-.21-.19Z"/>
    <path class="cls-1" d="m64.52,126.97s0-.01-.04-.06l-.17-.15s.12.16.21.2Z"/>
    <path class="cls-1" d="m63.25,126.31c.31.26.22.15.19.08,0,0,0,0,0,0-.42-.38-.3-.23-.18-.08Z"/>
    <path class="cls-1" d="m63.43,126.38s-.01-.03.01-.03c-.17-.15-.04-.02-.01.03Z"/>
    <path class="cls-1" d="m62.25,125.86c.09.06-.39-.35-.26-.24-.38-.35.41.48.26.24Z"/>
    <polygon class="cls-1" points="64.28 127.17 63.89 126.85 64.19 127.13 64.28 127.17"/>
    <path class="cls-1" d="m63.84,127.11l.14.05c-.06-.05-.1-.09-.12-.12-.03.01-.13-.03-.02.07Z"/>
    <path class="cls-1" d="m63.86,127.04s.02-.02-.04-.08c0,0,0,.03.04.08Z"/>
    <polygon class="cls-1" points="64.35 127.32 64.26 127.26 64.21 127.26 64.35 127.32"/>
    <path class="cls-1" d="m63.43,127.44l.07.13c.13.12.22.17.18.11-.08-.09-.12-.15-.25-.25Z"/>
    <path class="cls-1" d="m64.57,128.22c-.09-.06-.17-.13-.3-.23l.47.41-.17-.18Z"/>
    <path class="cls-1" d="m64.58,128.43c.13.12.32.38.34.31-.13-.12-.2-.25-.34-.31Z"/>
    <polygon class="cls-1" points="63.46 128.52 63.47 128.5 62.7 127.84 63.46 128.52"/>
    <path class="cls-1" d="m64.84,130.64c.23.11-.46-.42-.2-.27-.17-.17-.22-.13-.37-.28.17.19.05.12.56.54Z"/>
    <path class="cls-1" d="m64.28,130.1s-.06-.07-.1-.12c.04.05.07.09.1.12Z"/>
    <polygon class="cls-1" points="55.78 133.22 55.6 133.11 55.87 133.32 55.78 133.22"/>
    <path class="cls-1" d="m56.3,133.78l-.5-.42.43.4s-.05-.08.07.01Z"/>
    <path class="cls-1" d="m63.83,133.02l-.12-.1c-.13-.11-.15-.11-.18-.11l.3.22Z"/>
    <polygon class="cls-1" points="63.11 133.12 63.12 133.12 62.67 132.75 63.11 133.12"/>
    <path class="cls-1" d="m63.37,133.95s-.05-.1-.02-.1c.05.1-.53-.38.02.1Z"/>
  </g>
  <g>
    <path class="cls-1" d="m355.86,226.41c0-.09-.36.14-.43.16.14.08.52-.22.43-.16Z"/>
    <polygon class="cls-1" points="357.32 227.23 357.16 227.28 357.63 227.3 357.32 227.23"/>
    <path class="cls-1" d="m357.81,228.48c.62-.37-.28-.41-.13-.72l.14-.1-.57.12c.19.23.68.44.57.7Z"/>
    <path class="cls-1" d="m356.58,229.63c.25-.13.27.06.04-.18-.03.02-.04.03-.06.05.01.02.02.06.02.13Z"/>
    <path class="cls-1" d="m356.56,229.5c-.06-.12-.2.16,0,0h0Z"/>
    <path class="cls-1" d="m356.88,230.03l-.29-.09c-.15.08-.14.24-.27.22.18.13.33.05.56-.13Z"/>
    <path class="cls-1" d="m357.43,230.04l-.13-.06c-.06.03-.08.06.13.06Z"/>
    <path class="cls-1" d="m357.03,229.86l.27.12c.1-.06.32-.13-.1-.06.21-.05,0-.02-.17-.06Z"/>
    <path class="cls-1" d="m357.11,229.73c.12-.14.18-.3.46-.2-.19-.3-.65-.09-.46.2Z"/>
    <path class="cls-1" d="m358.53,228.29l.14-.21-.27-.03c.13.02-.08.32.13.24Z"/>
    <path class="cls-1" d="m356.81,231.16c.15-.02.38-.15.57-.21l-.2-.09c-.09.09-.15.24-.37.3Z"/>
    <path class="cls-1" d="m357.38,230.95l.29.13c0-.18-.13-.18-.29-.13Z"/>
    <polygon class="cls-1" points="358.2 229.86 357.58 229.69 358.22 229.92 358.2 229.86"/>
    <polygon class="cls-1" points="356.94 231.87 356.57 231.84 357.13 231.92 356.94 231.87"/>
    <path class="cls-1" d="m357.1,232.33c-.3-.03-.46.19-.66.14.07.12.33.18.56.25-.14-.09-.12-.2.09-.39Z"/>
    <path class="cls-1" d="m357.36,232.84c-.08-.04-.21-.08-.35-.12.07.05.18.09.35.12Z"/>
    <path class="cls-1" d="m357.67,231.43c-.09.03-.32.11-.39.24l.4-.16s0-.05-.01-.08Z"/>
    <path class="cls-1" d="m357.69,231.5h-.01c0,.09.01.15.01.17,0-.02,0-.07,0-.17Z"/>
    <path class="cls-1" d="m357.66,231.41v.02s.05-.02,0-.02Z"/>
    <path class="cls-1" d="m357.98,230.47c.27.05.56.24.87-.09-.3-.01-.47.17-.87.09Z"/>
    <path class="cls-1" d="m358.17,231.2l.05-.23c-.11.03-.26.1-.39.07l.34.16Z"/>
    <polygon class="cls-1" points="358.32 231.27 358.17 231.2 358.15 231.28 358.32 231.27"/>
    <path class="cls-1" d="m357.71,232.42c.2.06.22.16.27.26.07-.13.1-.26.08-.38-.13,0-.38,0-.35.12Z"/>
    <path class="cls-1" d="m357.74,231.97l.03.02s.04-.03-.03-.02Z"/>
    <path class="cls-1" d="m358.12,233.79s.05-.02.07-.03h-.07s0,.03,0,.03Z"/>
    <path class="cls-1" d="m358.13,232.27c.07-.11-.05-.14-.19-.17.06.06.1.12.11.2.06,0,.1,0,.08-.03Z"/>
    <path class="cls-1" d="m357.6,233.11c.08-.06.15-.12.21-.19-.13.06-.32.18-.21.19Z"/>
    <path class="cls-1" d="m357.66,232.03h-.02c-.08.04-.04.02.02,0Z"/>
    <path class="cls-1" d="m357.66,232.03c.07.03.18.05.28.07-.04-.05-.1-.09-.17-.12-.03.02-.07.04-.11.05Z"/>
    <path class="cls-1" d="m360.88,233.89c-.4.01-.77-.21-.38-.48-.33-.19-1.6.11-2.3.35.17-.01.34-.03.58.16.22-.09.45-.53.83-.38.24.27-.12.26-.31.41.48-.17.74.31,1.46.2l-.27-.25c.11-.02.3.07.4-.02Z"/>
    <path class="cls-1" d="m358.18,233.36l-.06-.08c-.06.11-.2.19-.49.35.21.12.36.13.49.13v-.43s.06.02.06.02Z"/>
    <path class="cls-1" d="m358.07,232.9c.44,0,.65.19,1.09,0-.07-.26-.38-.13-.59-.26.16.4-.25-.08-.46.25-.08-.07-.11-.14-.14-.2-.04.08-.1.16-.17.24h.03s0-.01,0-.01h0c.05-.03.08-.04.05-.01,0,0,.01,0,.01,0,.06,0,.11,0,.16,0-.07.13-.11.03-.16,0h-.06s0,0,0,0l.29.37c.05-.09.02-.2-.05-.38Z"/>
    <path class="cls-1" d="m359.79,230.38s-.06.03-.09.04c.06.02.09.02.09-.04Z"/>
    <path class="cls-1" d="m359.58,230.62c-.07-.02-.24,0-.22-.12.11-.12.2-.05.34-.09-.12-.04-.35-.14-.51.1l.06.02c-.11.21-.59.54-.65.53.37-.13.63-.24.97-.44Z"/>
    <path class="cls-1" d="m358.97,231.79c.09.1.19.21.28.31l.34-.25-.22.05c.04-.22-.22-.12-.39-.12Z"/>
    <polygon class="cls-1" points="357.91 233.85 357.45 233.85 358.11 233.98 357.91 233.85"/>
    <polygon class="cls-1" points="358 234.28 357.6 234.29 357.84 234.39 358 234.28"/>
    <path class="cls-1" d="m352.08,260.47v.16c0-.06,0-.11,0-.16Z"/>
    <path class="cls-1" d="m352.71,259.89l-.12-.15c.05.1.09.17.12.15Z"/>
    <path class="cls-1" d="m356.54,245.03c-.4.02-.99-.03-.56.11l.42.11c-.04-.12.03-.18.14-.21Z"/>
    <path class="cls-1" d="m355.27,253.22s.09.02.14.03c-.1-.12-.2-.22-.28-.32.05.09.1.19.15.29Z"/>
    <path class="cls-1" d="m356.69,254.33l-.35.03c.11.01.22,0,.35-.03Z"/>
    <path class="cls-1" d="m348.82,263.83l.15.44c.17-.13-.04-.25-.15-.44Z"/>
    <path class="cls-1" d="m358.09,238.81c-.18.11-.27.2-.3.28.27-.12.66-.2.3-.28Z"/>
    <path class="cls-1" d="m349.12,256.93c0,.1.05.18.12.25,0-.1-.03-.18-.12-.25Z"/>
    <path class="cls-1" d="m357.74,239.46s.07-.04.11-.05c-.06-.1-.1-.2-.06-.31-.2.09-.33.2-.05.36Z"/>
    <path class="cls-1" d="m333.44,270.67s-.03-.02-.05-.04c0,.06.03.06.05.04Z"/>
    <path class="cls-1" d="m328.2,267.02s.11-.03.17-.04c-.03-.03-.09-.02-.17.04Z"/>
    <path class="cls-1" d="m357.88,236.05c-.03-.09-.05-.01,0,0h0Z"/>
    <path class="cls-1" d="m359.6,235.56s.11.03.21.04c-.1,0-.17-.02-.21-.04Z"/>
    <path class="cls-1" d="m360.27,240.84h0c.09,0,.07,0,0,0Z"/>
    <path class="cls-1" d="m358.08,235.91c-.05.04-.1.08-.13.12.03-.02.08-.06.13-.12Z"/>
    <path class="cls-1" d="m357.87,235.93s.03-.06.04-.08c-.07-.01-.12,0-.04.08Z"/>
    <path class="cls-1" d="m357.9,236.18c0-.05.01-.1.05-.15-.03.02-.05.03-.07.02,0,.03.01.07.02.13Z"/>
    <path class="cls-1" d="m341.45,266.59s-.02-.02-.04-.03c-.02.21.01.16.04.03Z"/>
    <path class="cls-1" d="m359.73,249.19s-.01-.01-.01-.02h-.02s.03.02.03.02Z"/>
    <path class="cls-1" d="m359.85,249.69c-.42-.38-.31-.43-.16-.5l-1.19-.4,1.35.91Z"/>
    <path class="cls-1" d="m350.65,261.93l.47.12c.16.7-.18.7.38.94-.85-1.04.75-.84-.14-1.88l.33.09s0,.09-.05.12c.7.23-.47-.9,0-1.07.19-.03.41.03.44.23l.03-.48c.09-.05.24.13.15.19.11-.15.21-.3.31-.46l.03.03c-.1-.21-.21-.56-.25-.72.23.04.06.15.2.24l-.03-.44c.34.16.41.57.23.69,1.16.75-.07-.42.92-.31l-.07.33c.69.4.64.04,1.22.13-.24-.11-1.34-.35-1.36-.82.14,0,.26-.05.18-.36.35.32.39.13.51-.06l.47.44c.02-.3-.24-.51-.36-.8.22-.16.62.13.98.35.35-.26-.79-.3-.56-.76.41-.1.37-.46.34-1.02.33-.04.28.28.47.33l-.26-.49s.15.08.21.13c-.05-.27-.49-.41-.46-.74-.51-.49,1.16.17.74-.59.2.04.29.27.5.39-.13-.7-.06-.56-.4-1.28l.53-.03c-.53-.07-.82-.66-1.07-1.14-.24-.06-.44-.12-.55-.13l-.06-.53c.11.02.27.17.46.38-.03-.05-.06-.1-.09-.15.28,0,.54.27.78.56-.13-.03-.27-.06-.41-.09.27.3.56.63.89.82-.05-.07-.07-.15-.06-.22.07.08.14.15.2.18.06.03-.03-.09-.12-.24l.65.31-.22-.18.69-.24c-.37-.74-1.08-1.58-1.03-2.27.37.4.72.46,1.25.78-.66-.19,0,.58-.3.8.16-.11.39.08.45.17l-.2-.83c.43.27.39.08.65.05-.92-.4-.35-.72-.5-1.08.3.15.57.37.35.59.82.08-.82-.94-.1-.91-.03.07-.09.08.04.18-.17-.29.23-.54.44-.32l-.03.07c.32-.38.66-1.32-.08-1.74.1.04.9.5,1.04.6-.74-.67-1.47-1.32-2.24-1.95.64.37,2.34.81,2.56,1.35.14-.06.31-.15.17-.48-.13.03-1.04-.24-1.06-.37.86.06.48,0,1.26-.08-.19.05-1.2-.52-1.09-.67.15.09,1.05.41,1.14.52l-.87-.85c.14.18.88.37,1.21.39-.22-.04.18-.37.11-.53l-.31.09c.33-.44-1.31-1.03-1.1-1.48.2.13,1.3.62,1.52.41-.5-.31-2.45-1.38-2.75-1.9l.34.02-.27-.42c.79.43,2.36,1.53,2.91,2.09.31-.1.39.07.46-.22.33,0,.39.3.38.39.14-.2.29-.4.41-.61-.65-.17-.5-.71-1.05-.84.15.3.32.62.46.92-.64-.18-1.7-.98-1.46-1.39.29-.04,1.13.41,1.34.47-.21-.13-.3-.56-.13-.56l.29.29c.32-.2-.74-.66-.04-.81.07-.1.93-.12.54-.24-.79,0-3.1-.54-3.63-.78.06-.02.82-.35,1.22-.4.62-.05,1.34.57,1.88.54-.18-.05-.38-.2-.44-.25.18-.08.55.17.52-.1-.66-.18.16-.49-.54-.24-.14-.28.19-.23.22-.52-.45,0-1.41-.53-1.57-.79.17.04.4.03.5.02.13-.47.47-.69.54-1.14.17-.02.4-.22.68-.09-.11-.08-.33-.17-.33-.31.63-.21.05.33.78.2-.38-.06-.5-.44-.73-.66-.61,0-.15.45.06.69-.83-.1-1.66-.55-2.03-1.03-.18-.38.56-.11.44-.18.2-.68-1.42-.67-.78-1.18.54-.2,1.07.03,1.46,0,.2.31-.37.45-.36.65l.27-.24c.17.1.29.32.13.42.25-.08.3-.38.34-.72.02-.34.04-.73.26-1.01-.18-.1-.36-.27-.58-.19l.07.17c-.43.15-.6-.32-.8-.1-.31-.22-.77-.46-.54-.77l.61-.08c-.18.01-.35.21-.17.3-.27-.12.8-.51,0-.62l-.41.24c-.32-.21-.99-.43-.81-.71-.6.16.07.06-.62.29.87-.21,0,.66.91.36-.81.22-.32.35-1.03.61.2-.01.39-.09.29.13.06,0,.13.03.18.05h-.02s.02,0,.02,0c.03,0,.04,0,0,0,.09-.05.2-.1.31-.12.46.1.45.47.68.59-.1.13-.23-.06-.45.01l.36.19c-.45.01-.75.34-1.01.02l-.02.27c-.25.15-.35.37-.18.51-.11.12.47.36.13.22l.24.45h-.11c-.09.41.68.97-.21,1.36.09.16.21.33.05.55h-.39c.11.19-.46.47-.08.62-1.07,0-.41.82-.66,1.11l.49.12c-.08.21.03.46.15.78l.44.09c.29.33-.48.53-.54.91-.16-.07-.09-.15.03-.19-1.08.15.44,1.16-.42,1.33.12.15.04.21-.09.24,0,0,0-.02-.01-.03,0,0-.01.02-.02.04-.09.02-.19.03-.27.06.12,0,.22-.01.27-.04-.02.08,0,.21.06.37l-.47-.12s0,.02,0,.03c-.2.05.18.17.54.23.05.08.13.17.22.25-.76-.18.14.4-.69.22.34.22.05.67.81,1.06-.1-.04-.17-.03-.15-.09-.14.09-.28.18-.11.39l-.58-.19.64.61c-.41.02-.64,0-1-.36.49.7.1.43.59,1.07l-.35-.19c-.04.12.34.55,0,.48-.4-.03-.59.28-.79.65-.23.36-.48.77-.97.92,1.08.46-.62.04.14.53-.26-.1-.44-.09-.59-.32.05.48-.68.24-.17.88-.26-.11-.3-.29-.45-.34.03.06.14.23-.02.17-.16-.06-.16-.17-.23-.29-.17.34.52.84,1.16,1.31-.43-.04-.44.07-.09.49-.25-.09-.54-.15-.48-.4-.1.1-.79.48-.29.86-.16-.06-.16.13-.12.2-.22.23-.28.22-.42.5h.13c.54.56-.02.31-.1.56l-.06-.05c-.78.11.05.37-.8.4l.39.28c.76.7-.8,0-.7.5l.28.09c.15.37-1.38-.54-1.58-.5-.09-.03-.07-.14-.08-.23-.75-.07.43.47.31.82-.29-.18-.58-.64-.78-.52-.27-.11.34,1.23-.35,1.01.23.13.47.26.5.52-.11.25-1.15-.22-.74.52-.07-.03-.13-.07-.17-.12.01.28-.21.67.01,1.08-1.24-1.11-.33,1.42-1.35.25l-.39.43-.09-.13c-.35.16-.22.52-.09.89-.13-.03-.17-.18-.22-.24-.61.11-.6.19-.51,1.06l-.34-.37c.07.31-1.09-.16-1.18.62-.03-.05-.07-.13-.08-.22-.16.83-1.94-.36-1.13,1.28l-.09.6c.51-.17.35.71.69.84-.12.21-.74-.17-.58-.38l.08.05c-.41-.84-.74.05-1.05-.51-.43.27-.91.43-1.4.56-.5.11-.98.2-1.41.4l.42.6-.31.11c-.15-.11-.35-.46-.13-.54-.29-.32-.19.49-.13.64-.55-.08-.21-.84-.34-.8l-.15.13.08.06c-.01.33.11.62-.16.71-.22-.06-.27-.37-.35-.37-.02-.05-.05-.06-.11.02l-.4.11.38.46c-.05.34-.37.13.07.65-.65-.79-1.58.27-1.86.03-.09.49-.34.57-.65.64.11.08.38.68.09.7-.35-1.3-.67-.4-1.18-1.24.38.55-.68.38-.12,1.16-.25-.03-.16-.47-.42-.72-.36.68-1.22,0-1.81.33.03.17.2.41.13.7l-.54-.77c-.1.11.11,1.03-.26.48.06.14.16.35.09.42-.73-.3-1.33.01-1.98.19-.64.15-1.33.26-2.03-.51.2.33.09.37-.04.39.09.08.03.43.07.67l-.59-.63c-.06.67-.58.08-.61.72l.17-.12c-.21.76.4,1.64.43,2.6.22-.86.85,1.21,1.23-.03.12.19-.06.31.02.53.08-.42.21-.52.5-.37l-.02.1c.73-.2,1.11.19,2,.31l-.14-.46c.19.03.25.17.36.27.08-.75-.51.06-.46-.76.4.9,1.25-.22,1.63.82.28-.05-.19-.52.08-.57l.14.28v-.39c.18.03.35.36.42.6-.05-.02-.11.1-.15.13.31.28.64-.29.74-.19l-.31-.11c.68-.46,1.71-.3,2.23-1.13l-.12-.2c.41-.56.5.1,1.03-.27v.06c.04-.25.16-.4.33-.44-.06.3.44.37.35.72.42-.64.17-.44.25-1.36l.22.31c0-.36-.05-.53.2-.73-.12.39.39.46.28.95.91.52.58-1.1,1.31-.14-.14-1.06-.73-.3-.67-.57-.25-.25-.08-.81.14-.79.19-.06.84,1.06,1.31.83-.05.02-.02.09-.07.11.29.16.2-.48.6-.19-.14-.62.3-.09-.01-.83l-.35.36c.16-.29-.02-1.23.56-1.03.04.16.02.41,0,.55.22.15.15-.25.38-.1.32.72-.43.43-.43,1.09.28.25.24-.76.49.08-.3-1.07.52-.11.46-1.02l.2.43c.02-.09.02-.34.11-.38l.12.63c.01-.6.71.15.83-.23-.51.28-.39-.44-.77-.64.32-.88.96.91,1.55.3-.06.11-.49-.04-.45-.32.18,0,.44.06.65.23.41-.36-.32-.38-.27-.75.45.41.11-.33.21-.61l.25.41c.68-.04-.38-.94.27-.89l.16.68.15-.29.24.5c.04-.51.18-.48.51-.51-.24-.25-.44-.76-.23-.91.31.14.17.44.44.17.1.3.23.67-.15.39.07.14.1.3.17.44.35.17.46-.21.57-.29-.05.01-.12.03-.19-.01l.08-.86c.17.1.2.26.22.41.06-.1,0-.33.11-.45.19.35.43.67.34.95.07-.22.13-.43.19-.66.13.12.49.22.52.38.38,0,.13-1.05.62-1.03-.03-.07-.04-.15,0-.25.34-.14.91.04.9-.66l.63.39c.16-.34-.81-.48-.55-1.04.16-.42.5.37.73.43-.07-.4-.28-1.16.37-.96,0,.18-.15.16-.2.27Zm2.78-3.09c.02.13.13.46-.11.3-.34-.45-.1-.31.11-.3Zm2.93-5.59c.1.14-.01.17-.22.15,0-.08.07-.14.22-.15Zm1.9-16.16s.01,0,.02,0c-.19.15-.11.09-.02,0Zm.21-.31c-.07-.03-.13-.03-.2-.02.12.03.13.1.1.18.13-.02.21-.06.11-.16Zm-19.41,27.35l.11.09c-.08.19-.09.06-.11-.09Z"/>
    <path class="cls-1" d="m356.53,254.2c-.08-.03-.16-.07-.24-.12.05.07.13.13.24.12Z"/>
    <path class="cls-1" d="m348.79,263.75h-.01s.03.06.04.08l-.03-.08Z"/>
    <path class="cls-1" d="m361.86,242.62c-.08.06-.18.08-.27.09.11.03.22.02.27-.09Z"/>
    <path class="cls-1" d="m357.64,235.1l.14.19c-.03-.1.07-.13.15-.19-.11,0-.27.05-.28,0Z"/>
    <path class="cls-1" d="m360.46,233.02c-.06-.03-.02-.07-.08-.09l-.22.04c.03.13.23.21.3.06Z"/>
    <path class="cls-1" d="m359.23,234.83c.4-.04.26-.17.17-.31,0,0,0,.02,0,.03-.57,0-.37.14-.18.28Z"/>
    <path class="cls-1" d="m359.39,234.49s-.04-.09-.02-.14c-.23,0-.04.06.02.14Z"/>
    <path class="cls-1" d="m358.21,236.36c.1-.07-.52-.05-.35-.08-.52-.08.62.46.35.08Z"/>
    <polygon class="cls-1" points="360.55 234.63 360.06 234.72 360.47 234.78 360.55 234.63"/>
    <path class="cls-1" d="m360.23,235.88l.14-.25c-.08,0-.13-.03-.17-.06-.02.15-.12.32.03.31Z"/>
    <path class="cls-1" d="m360.2,235.56c.01-.08,0-.16-.09-.2.01.04.03.13.09.2Z"/>
    <polygon class="cls-1" points="360.73 234.97 360.63 235.05 360.6 235.23 360.73 234.97"/>
    <path class="cls-1" d="m360.03,238.53l.12.28c.17.04.28-.02.22-.13-.11-.08-.17-.18-.34-.16Z"/>
    <path class="cls-1" d="m361.46,237.79c-.11.07-.22.07-.39.1l.62.05-.23-.15Z"/>
    <path class="cls-1" d="m361.54,238.63c.17.04.46.46.45.09-.17-.05-.29-.34-.45-.09Z"/>
    <polygon class="cls-1" points="360.1 242.67 360.11 242.6 359.12 242.38 360.1 242.67"/>
    <path class="cls-1" d="m361.34,247.02c.35-.25-.56-.29-.17-.49-.2-.16-.32.16-.49.01.17.28,0,.34.66.48Z"/>
    <path class="cls-1" d="m360.68,246.54s-.06-.09-.11-.15c.04.08.08.12.11.15Z"/>
    <polygon class="cls-1" points="327.47 266.52 327.27 266.32 327.4 266.65 327.47 266.52"/>
    <path class="cls-1" d="m327.12,267.3l-.06-.65-.1.59s.13-.09.17.05Z"/>
    <path class="cls-1" d="m354.83,259.27l-.1-.12c-.15-.09-.2-.06-.29,0l.39.12Z"/>
    <polygon class="cls-1" points="352.31 261.12 352.35 261.09 351.88 260.73 352.31 261.12"/>
    <path class="cls-1" d="m350.86,263.39c.1-.05.11-.23.21-.28-.11.23-.7-.27-.21.28Z"/>
  </g>
</svg>