<?xml version="1.0" encoding="UTF-8"?>
<svg id="logo" xmlns="http://www.w3.org/2000/svg" viewBox="0 0 468.87 393.88">
  <defs>
    <style>
      .cls-1 {
        fill: #231f20;
      }
    </style>
  </defs>
  <g>
    <path class="cls-1" d="m115.51,309.84c-.14.32.29.33.35.4.09-.58-.46-.42-.35-.4Z"/>
    <polygon class="cls-1" points="116.37 304.13 116.51 304.28 116.37 303.35 116.37 304.13"/>
    <path class="cls-1" d="m118.04,299.07c-.83.26-.49,1.87-1.03,2.69l-.2.1.41.59c.27-1.12.38-2.67.82-3.38Z"/>
    <path class="cls-1" d="m120.39,296.85c-.32.08-.04-.66-.29.6.05-.05.07-.06.1-.09.03-.11.08-.26.18-.51Z"/>
    <path class="cls-1" d="m120.2,297.36c-.16.54.34-.28,0,0h0Z"/>
    <path class="cls-1" d="m120.86,294.85v.78c.21-.1.45-.71.49-.44.11-.76-.1-.66-.49-.34Z"/>
    <path class="cls-1" d="m120.58,294.02l-.02.4c.09-.04.14-.13.02-.4Z"/>
    <path class="cls-1" d="m120.52,295.26l.04-.84c-.14.07-.37,0-.04.38-.18-.13-.04.09,0,.46Z"/>
    <path class="cls-1" d="m120.27,295.66c-.28.35-.54.82-.54.04-.35,1.37.2,1.33.54-.04Z"/>
    <path class="cls-1" d="m117.42,298.58l-.37.46.08.53c-.04-.26.52-.95.29-.99Z"/>
    <path class="cls-1" d="m122.64,290.59c-.13-.09-.46.11-.66.1v.57c.18-.23.44-.71.66-.67Z"/>
    <path class="cls-1" d="m121.98,290.69v-.86c-.25.68-.17.85,0,.86Z"/>
    <polygon class="cls-1" points="119.87 293.65 119.97 295.1 119.94 293.4 119.87 293.65"/>
    <polygon class="cls-1" points="123.63 287.63 123.82 288.18 123.57 287.24 123.63 287.63"/>
    <path class="cls-1" d="m124.22,285.65c.17.42.61-.29.67.11.12-.55.04-1.08-.04-1.56-.02.48-.21.93-.63,1.46Z"/>
    <path class="cls-1" d="m124.76,283.4c0,.24.04.5.09.79.01-.25,0-.51-.09-.79Z"/>
    <path class="cls-1" d="m122.49,288.54c.11-.03.37-.07.61-.48l-.51.17c-.03.09-.07.2-.11.3Z"/>
    <path class="cls-1" d="m122.58,288.24h.02c.12-.33.2-.56.24-.66-.03.08-.11.28-.26.66Z"/>
    <path class="cls-1" d="m122.46,288.62s.02-.05.03-.08c-.05.02-.07.03-.03.08Z"/>
    <path class="cls-1" d="m120.9,291.74c-.08-.53-.01-1.56-.66-.75.17.42.54-.04.66.75Z"/>
    <path class="cls-1" d="m121.83,288.83l-.36.79c.11.02.32-.08.36.18v-.98Z"/>
    <polygon class="cls-1" points="121.83 288.38 121.83 288.83 121.96 288.53 121.83 288.38"/>
    <path class="cls-1" d="m123.92,284.69c-.06-.41.05-.81.17-1.26-.23.45-.44.92-.59,1.38.11.11.27.39.42-.12Z"/>
    <path class="cls-1" d="m123.23,286.4s0-.06,0-.09c-.05.04-.07.07,0,.09Z"/>
    <path class="cls-1" d="m125.51,279.1s-.06.03-.1.05c.02.01.04.02.06.04l.03-.08Z"/>
    <path class="cls-1" d="m123.4,284.87c-.19.33-.16.57-.11.82.05-.28.11-.57.21-.87-.05-.05-.08-.07-.1.05Z"/>
    <path class="cls-1" d="m124.96,282.13c-.15.16-.29.34-.42.54.19-.14.51-.44.42-.54Z"/>
    <path class="cls-1" d="m123.38,286.23s0,.04,0,.06c.13-.09.08-.09,0-.06Z"/>
    <path class="cls-1" d="m123.38,286.23c0-.2-.05-.38-.09-.55-.04.23-.06.44-.06.63.04-.03.1-.06.15-.08Z"/>
    <path class="cls-1" d="m123.33,276.94c.36.19.4,1.23-.27,1.9.02.88,1.43.77,2.35.31-.16-.08-.31-.13-.26-1.02-.3.22-1.07,1.65-1.19.85.16-1.14.42-.84.79-1.3-.61.29-.23-1.6-1-1.59l-.07,1.03c-.11-.02-.17-.42-.36-.19Z"/>
    <path class="cls-1" d="m124.86,280.69l-.06.35c.19-.36.43-.58.89-.99,0-.62-.1-.78-.22-.86l-.59,1.63-.02-.13Z"/>
    <path class="cls-1" d="m124.31,282.54c-.32-.4-.23-1.26-.84-.91-.29.99.12.8.1,1.45.42-1.62.08.53.69-.54-.03.33-.1.62-.17.89.14-.27.29-.52.46-.76-.01.01-.02.02-.04.03h0s0,0,0,0c-.07.05-.11.06-.06,0,0,0,0-.03,0-.04-.05-.03-.09-.08-.13-.12.23-.43.13-.04.13.12.02.01.03.03.05.04,0,0,0,0,0,0l.3-1.66c-.17.32-.29.74-.49,1.51Z"/>
    <path class="cls-1" d="m119.64,289.85c.05-.04.08-.03.11-.02-.02-.12-.04-.17-.11.02Z"/>
    <path class="cls-1" d="m120.1,289.27c.02.13.15.28-.01.65-.23.29-.2-.07-.34-.09.03.26.03.89.47.24l-.02-.13c.35-.59,1.13-1.25,1.15-1.12-.43.07-.75.14-1.25.45Z"/>
    <path class="cls-1" d="m122.12,285.83l.23-1.39-.58.56.22.04c-.33.73-.01.65.12.8Z"/>
    <polygon class="cls-1" points="125.76 279.02 126.13 279.33 125.77 278.37 125.76 279.02"/>
    <polygon class="cls-1" points="126.27 277.28 126.63 277.47 126.55 276.94 126.27 277.28"/>
    <path class="cls-1" d="m153.38,178.67l.02-.42c-.03.19-.03.32-.02.42Z"/>
    <path class="cls-1" d="m152.43,181.48l.16.13c-.06-.16-.12-.24-.16-.13Z"/>
    <path class="cls-1" d="m140.06,235.02c.54-.45,1.29-.91.84-.98l-.47.04c-.06.42-.2.71-.37.94Z"/>
    <path class="cls-1" d="m147.07,205.27c-.06.04-.12.08-.18.12.1.18.18.36.27.51-.03-.19-.06-.41-.09-.64Z"/>
    <path class="cls-1" d="m145.49,204.32l.51-.66c-.15.14-.31.35-.51.66Z"/>
    <path class="cls-1" d="m157.98,163.15l-.27-.59c-.23.71.08.47.27.59Z"/>
    <path class="cls-1" d="m131.89,259.61c.32-.44.52-.8.65-1.14-.43.51-.94.87-.65,1.14Z"/>
    <path class="cls-1" d="m157.39,181.21c0-.26-.05-.39-.14-.41,0,.27.02.43.14.41Z"/>
    <path class="cls-1" d="m132.99,257.06c-.07.07-.12.15-.18.23-.05.38-.11.76-.28,1.19.32-.38.59-.84.46-1.41Z"/>
    <path class="cls-1" d="m176.58,107.48s.06-.08.09-.11c-.05-.03-.07.02-.09.11Z"/>
    <path class="cls-1" d="m186.06,92.59c-.03.17-.11.43-.19.68.07-.11.13-.31.19-.68Z"/>
    <path class="cls-1" d="m128.72,270.42c-.09.37.03.07,0,0h0Z"/>
    <path class="cls-1" d="m126.5,271.66c-.02-.09-.06-.17-.15-.21.09.06.14.13.15.21Z"/>
    <path class="cls-1" d="m131.62,252.59s0-.02.01-.03c-.12.08-.09.07-.01.03Z"/>
    <path class="cls-1" d="m128.35,270.9c.1-.12.19-.26.28-.43-.06.06-.14.19-.28.43Z"/>
    <path class="cls-1" d="m128.57,270.89c-.06.12-.1.22-.14.31.05.07.11.04.14-.31Z"/>
    <path class="cls-1" d="m128.86,269.9c-.06.21-.15.4-.24.58.05-.06.08-.08.09-.06.03-.11.07-.26.14-.52Z"/>
    <path class="cls-1" d="m167.9,137.73s.04-.04.06-.07c-.05-.42-.08-.25-.06.07Z"/>
    <path class="cls-1" d="m138.88,224.12s0,.03,0,.05c0-.02.02-.04.03-.05h-.04Z"/>
    <path class="cls-1" d="m139.01,222.71c.33.73.16,1.02-.08,1.41l1.33-.04-1.25-1.37Z"/>
    <path class="cls-1" d="m155.47,171.89l-.67.8c-.25-1.31.23-2.05-.58-1.35,1.25.55-1.04,3.62.21,4.17l-.47.52c.07-.17,0-.22.07-.39-1,.98.65,1.18-.04,2.64-.27.5-.58.81-.62.39l-.07,1.28c-.14.34-.33.18-.2-.16l-.49,1.83-.03-.03c.12.32.24,1.01.28,1.34-.33.4-.06-.27-.26-.21v1.1c-.48.3-.54-.64-.26-1.31-1.59.51.05.93-1.36,2.7l.14-.99c-.93.37-.91,1.19-1.71,2.1.32-.17,1.85-1.75,1.82-.57-.2.27-.38.66-.31,1.33-.46-.14-.53.46-.74,1.18l-.59-.25c-.08.83.25.87.38,1.41-.34.84-.87.86-1.33.94-.55,1.34,1.07-.7.65.96-.61,1.07-.62,1.95-.71,3.44-.47.73-.33-.26-.59-.03l.25.87c-.07.17-.2.07-.27.01,0,.66.59.25.45,1.24.59.47-1.61,1.61-1.23,3.02-.27.23-.33-.26-.59-.25-.02,1.76-.09,1.49.16,3.02l-.76.99c.73-.67.92.55,1.07,1.62.32-.22.59-.4.74-.54l-.15,1.57c-.16.14-.32-.07-.49-.39.02.12.04.23.06.32-.4.45-.66.06-.87-.42.18-.14.36-.27.55-.41-.25-.48-.55-.96-.93-1,.04.12.04.32,0,.53-.07-.13-.14-.22-.21-.19-.08.03,0,.23.08.52l-.79.11.24.17-1.05,1.78c.23,1.6.85,3.12.41,5.39-.32-.7-.77-.38-1.35-.6.82-.39.29-1.77.78-2.86-.26.57-.5.35-.55.16l-.09,2.2c-.47-.2-.5.31-.87.77,1.08-.09.14,1.71.17,2.62-.34-.05-.6-.36-.19-1.33-1.08.87.65,1.79-.31,2.67.07-.25.16-.36.03-.51.1.66-.58,1.98-.75,1.56l.07-.25c-.64,1.58-1.62,4.93-.89,5.44-.11-.02-.9-.53-1.04-.68l1.77,3.78c-.61-.48-2.58-.05-2.54-1.52-.23.35-.5.79-.52,1.69.19-.23,1.22-.33,1.16.05-1.1.73-.64.55-1.7,1.55.28-.35,1.22.45.98,1.06-.13-.15-1.09-.3-1.13-.56l.56,1.9c-.07-.45-.88-.36-1.3-.12.26-.09-.46,1.34-.49,1.78l.46-.58c-.73,1.7.94,2.22.31,3.94-.15-.28-1.19-.96-1.61-.12.42.58,2.05,2.66,1.96,4.33l-.41.19-.03,1.3c-.58-1-1.64-3.63-1.95-4.98-.46.57-.43.06-.72,1.05-.41.25-.27-.68-.19-.98l-.94,2.22c.67.11.07,1.96.63,2.04l.15-2.7c.67.11,1.34,2.03.7,3.61-.39.33-1.04-.68-1.26-.72.15.28-.08,1.67-.29,1.77l-.12-.8c-.54.82.37,1.75-.6,2.63-.16.36-1.19.85-.83,1.04.93-.37,3.22.25,3.64.83-.09.11-1.34,1.74-1.84,2.04-.77.43-1.06-1.37-1.72-1.01.17.08.27.49.29.65-.28.34-.49-.34-.69.54.6.35-.62,1.72.42.58-.09.9-.42.84-.72,1.83.52-.18,1.14,1.35,1.05,2.24-.15-.1-.42.01-.55.07-.62,1.69-1.21,2.51-1.74,4.11-.21.1-.65.8-.82.38.04.27.19.55.04,1.05-.87.77.27-1.13-.64-.62.36.19.1,1.44.11,2.22.65-.03.64-1.58.64-2.36.8.26,1.24,1.76,1.07,3.55-.23,1.39-.71.4-.67.67-.96,2.44.71,2.58-.55,4.46-.78.65-1.03-.3-1.46-.23.16-1.14.87-1.55,1.09-2.29l-.54.82c-.06-.4.05-1.16.33-1.51-.68.54-1.47,4.18-2.52,5.96.06.4.04,1.04.34.83l.13-.63c.59-.42.2,1.33.64.62.02.91.18,1.97-.43,3.04l-.65.02c.18.03.59-.64.52-1.02.1.56-1.36,1.5-.77,2.28l.67-.67c.02.91.31,2.13-.2,3.09.73-.27.01-.26.92-.76-1.04.35.89-2.59-.32-1.87,1.02-.49.75-1.18,1.74-1.93-.2-.03-.48.22-.11-.6-.04-.06-.09-.17-.11-.24.01-.02.02-.03.03-.05-.01.01-.03.02-.04.04-.02-.05-.02-.05-.01.01-.15.18-.31.31-.43.34-.3-.57.16-1.92.08-2.46.26-.48.15.28.45.07l-.12-.8c.45.07,1.15-1.11,1.01.16l.37-1.07c.45-.55.83-1.39.82-1.99.26-.48-.05-1.43.14-.88l.29-1.77.11.02c.6-1.64.41-3.65,1.81-5.3.08-.6.13-1.22.56-2.11l.43-.06c.11-.76,1.08-2.04.79-2.47,1.25-.45,1.36-3.42,1.95-4.62l-.47-.21c.31-.86.45-1.74.61-2.88l-.45-.07c-.05-1.05,1.09-2.29,1.52-3.78.13.15-.03.51-.22.75,1.54-1.44.51-3.94,1.74-5.31-.02-.45.12-.72.32-.96-.01.04-.01.07-.01.11.02-.04.04-.1.06-.16.13-.15.28-.3.41-.48-.16.13-.3.26-.38.39.09-.31.19-.79.23-1.28l.52-.04s.02-.07.02-.11c.32-.39-.1-.43-.52-.3,0-.25-.02-.49-.08-.69.86-.12.14-1.28,1.09-1.52-.28-.43.46-2.39-.27-2.89.11.02.2-.1.13.15.26-.48.52-.96.44-1.49l.65-.03-.42-1.37c.58-.56.87-.77,1.1.05-.16-1.84.17-1.4-.06-2.99l.35.19c.15-.5-.1-1.45.31-1.64,1.07-.87,1.88-5.41,3.47-8.01-1.29.18.93-1.15.1-1.54.32-.08.59-.42.67.11.21-1.52,1.12-2.03.73-3.26.32-.08.28.43.49.34-.02-.13-.08-.53.13-.63.2-.1.15.28.19.55.44-1.49-.32-1.9-1.04-2.25.6-.63.67-1.02.35-1.72.33-.18.73-.53.52.42.2-.5,1.39-3.02.8-3.27.21-.11.28-.7.25-.86.41-1.14.5-1.23.82-2.38l-.2.28c-.59-.69.14-1,.36-1.94l.07.05c1.21-1.92.04-.99,1.32-2.86l-.49-.04c-.92-.51,1.18-1.64,1.2-2.96l-.4.35c-.12-.76,1.93-1.39,2.27-2.01.13-.12.06.27.06.49,1.14-1.53-.52-.42-.24-1.75.4-.13.72.57,1.06-.27.4-.34-.23-2.85.78-3.82-.33.18-.67.36-.66-.3.21-.94,1.75-2.16,1.23-3.24.11-.09.19-.12.25-.1.03-.76.41-2.38.12-2.94,1.79-.13.66-4.59,2.1-4.1l.62-2.17.13.1c.55-1.34.36-1.94.17-2.54.2-.29.26,0,.33.04.95-1.91.95-2.13.78-4.05l.53-.02c-.12-.55,1.69-2.66,1.78-4.81.05.04.13.11.14.29.17-2.39,3.04-4.87,1.59-6.24l.06-1.6c-.75,1.85-.65-.53-1.19.16.14-.78,1.15-1.75.94-.81l-.13.11c.78.63,1.09-2.24,1.68-1.99,1.17-3.73,2.85-7.2,4.03-10.67l-.83.17.44-1.2c.27-.27.68-.25.37.61.54-.33.15-1.56,0-1.64.84-1.61.59.93.78.41l.18-.72-.13.13c-.1-.67-.38-.82,0-1.85.35-.61.54-.2.65-.45.05.02.1-.06.15-.39l.56-1.51-.75.43c-.05-.77.5-1.43-.35-.93,1.3-.72,2.21-5.6,2.72-6.14-.09-1.08.22-2.02.65-3.16-.21.25-.88.22-.48-.76,1.15.78,1.15-1.65,2.33-2.16-.84.53.78-2.9-.45-2.04.38-.8.49.11,1-.43.16-2.15,1.76-4.28,2.4-6.8-.15-.09-.54.24-.62-.37l1.26-1.03c.08-.51-.82-.76.05-1.46-.18.08-.45.2-.4-.15,2.39-4.55,2.56-10.07,5.69-14.46-.54.56-.43.1-.27-.41-.19.3-.41-.14-.66-.15l1.3-1.84c-.51-.58.68-2.21.15-2.62l-.1.68c-.43-1.1-1.97.69-2.84.27.49,1.23-2.03,2.16-1.39,4.12-.3.29-.2-.39-.47-.28.26.53.18,1.04-.29,1.88l-.06-.13c-.73,2.56-1.47,3.52-2.66,6.27l.52-.06c-.26.59-.44.67-.65.92.45.92.6-1.7,1.14-.82-1.18.51-1.42,4.3-2.64,4.5-.31.94.61-.1.3.83l-.36.16.29.36c-.26.6-.72.79-.96.74.08-.14.07-.45.1-.61-.59.69-.62,2.29-.82,2.53l.47-.84c-.57,2.65-1.97,5.65-2.21,8.31l.27-.12c-.23,2.02-.73,1.44-1.23,3.57l-.03-.09c.08.48,0,1.07-.21,1.63-.08-.61-.81.83-.86.05-.25,2.19,0,1.12.35,2.73l-.45.2c.17.57.32.66.08,1.73-.02-.95-.75.49-.84-.6-1.48,1.92-.28,3.48-1.73,4.11.65,1.32,1.16-1.7,1.18-1.08.47-.36.46,1.06.14,1.71-.25.69-1.63.77-2.19,2.53.06-.17,0-.21.05-.38-.46.57-.08,1.39-.75,2.06.44.64-.37,1.03.34,1.41l.35-1.66c-.1.97.5,2.11-.42,3.47-.11-.17-.17-.68-.18-1.02-.36.37-.13.89-.51,1.27-.71-.38.47-2,.22-3.16-.47.37-.06,2.02-.71,1.26.81,1.04-.69,1.68-.29,3.12l-.43-.23c0,.21.1.67-.03,1.01l-.38-.82c.19,1.12-1.04,1.7-1.07,2.71.62-1.93.68-.25,1.28-.96-.17,2.57-1.63.98-2.28,3.71.05-.38.71-1.26.74-.63-.26.48-.65,1.09-.99,1.32-.48,1.79.55-.12.58.72-.75.42-.06.94-.14,1.77l-.46-.14c-.95,1.91.78.84-.17,2.53l-.39-.97-.14,1-.46-.36c.05,1.15-.15,1.44-.63,2.39.4-.13.79.4.51,1.3-.47.52-.32-.48-.67.8-.19-.38-.45-.81.15-1.22-.13-.11-.2-.37-.32-.48-.53.55-.61,1.62-.75,2.07.07-.17.17-.37.27-.46l.04,2.03c-.27.23-.33-.04-.39-.31-.07.39.06.71-.08,1.27-.33-.26-.72-.35-.65-1.18l-.16,1.87c-.2.06-.74.75-.8.48-.53.89-.05,2.6-.76,3.79.05.09.08.25.04.54-.48,1.17-1.28,2.09-1.24,3.68l-.93.59c-.21,1.16,1.2-.82.84,1.12-.22,1.38-.73.3-1.07.7.12.76.44,2.13-.5,3.15,0-.44.21-.72.28-1.11Zm-4.21,13.85c0-.3-.13-.93.2-1.03.43.48.1.63-.2,1.03Zm-5.74,21.27c-.09-.25.09-.53.38-.82-.04.26-.15.54-.38.82Zm-15.87,59.29s0-.02-.01-.04c.37-.54.23-.35.01.04Zm-.6,1.17c.02.14.09.16.17.13-.09-.12,0-.4.13-.71-.15.05-.28.18-.3.58Zm43.21-132.62l-.2.2c.05-.59.12-.39.2-.2Z"/>
    <path class="cls-1" d="m145.67,204.43c.1-.05.19-.04.29-.03-.04-.13-.13-.16-.29.03Z"/>
    <path class="cls-1" d="m158.03,163.26s.01-.03.02-.04c-.02-.03-.04-.05-.07-.07l.05.11Z"/>
    <path class="cls-1" d="m131.42,247.07c.15-.23.28-.35.4-.41-.11-.05-.24.03-.4.41Z"/>
    <path class="cls-1" d="m127.69,274.26l.14-.83c-.1.39-.25.49-.38.66.11.02.32-.08.24.17Z"/>
    <path class="cls-1" d="m122.6,280.2c.02.13-.07.25-.05.38l.22.04c.15-.5.09-.9-.17-.42Z"/>
    <path class="cls-1" d="m125.92,274.49c-.41-.06-.44.48-.55,1.05,0-.03.02-.07.03-.1.49.34.5-.31.52-.95Z"/>
    <path class="cls-1" d="m125.35,275.68c-.04.18-.08.35-.16.52.2.14.11-.19.16-.52Z"/>
    <path class="cls-1" d="m128.79,269.11c-.19.23.44.33.23.42.4.45-.02-1.95-.23-.42Z"/>
    <polygon class="cls-1" points="124.51 274.53 125.05 274.48 124.76 274.05 124.51 274.53"/>
    <path class="cls-1" d="m126.29,270.27l-.42.84c.08.01.09.14.08.29.19-.54.48-1.11.34-1.13Z"/>
    <path class="cls-1" d="m125.95,271.4c-.1.28-.18.55-.15.74.05-.16.14-.49.15-.74Z"/>
    <polygon class="cls-1" points="124.76 273.27 124.94 273.04 125.18 272.43 124.76 273.27"/>
    <path class="cls-1" d="m129.49,260.78l.18-1.01c-.13-.15-.32.08-.37.46.04.27-.02.65.19.55Z"/>
    <path class="cls-1" d="m127.23,263.28c.18-.23.3-.21.5-.31l-.58-.22.08.53Z"/>
    <path class="cls-1" d="m128.02,260.42c-.13-.15-.01-1.56-.38-.32.13.15-.05,1.16.38.32Z"/>
    <polygon class="cls-1" points="133.53 246.11 133.45 246.36 134.43 246.64 133.53 246.11"/>
    <path class="cls-1" d="m135.41,232.52c-.61,1.07.51.47-.12,1.41.14.34.51-.77.62-.43-.02-.77.24-1.09-.5-.98Z"/>
    <path class="cls-1" d="m135.91,233.5c0,.12.01.26.03.4,0-.22-.01-.33-.03-.4Z"/>
    <polygon class="cls-1" points="187.46 90.07 187.91 89.4 187.42 89.77 187.46 90.07"/>
    <path class="cls-1" d="m187.21,88.42l.67.03-.41-.62c-.03.18-.08.52-.26.6Z"/>
    <path class="cls-1" d="m149.35,187.38l.13.1c.2-.06.27-.23.4-.57l-.53.46Z"/>
    <polygon class="cls-1" points="153.08 177.55 153.01 177.72 153.68 177.58 153.08 177.55"/>
    <path class="cls-1" d="m155.11,168.94c-.14.33-.14.78-.28,1.11.14-.78,1-.98.28-1.11Z"/>
  </g>
  <g>
    <path class="cls-1" d="m147.06,351.16c-.15.36.29.35.34.43.11-.64-.45-.45-.34-.43Z"/>
    <polygon class="cls-1" points="148.11 344.79 148.24 344.95 148.12 343.92 148.11 344.79"/>
    <path class="cls-1" d="m149.94,339.1c-.85.32-.55,2.1-1.12,3.03l-.21.12.4.63c.31-1.26.46-2.98.93-3.78Z"/>
    <path class="cls-1" d="m152.38,336.54c-.32.1-.02-.73-.31.68.05-.06.07-.07.11-.11.04-.12.09-.29.2-.57Z"/>
    <path class="cls-1" d="m152.18,337.11c-.17.61.35-.32,0,0h0Z"/>
    <path class="cls-1" d="m152.92,334.3l-.02.86c.21-.11.47-.81.5-.51.13-.85-.08-.73-.48-.36Z"/>
    <path class="cls-1" d="m152.66,333.39l-.03.44c.09-.05.15-.15.03-.44Z"/>
    <path class="cls-1" d="m152.56,334.77l.07-.93c-.15.08-.37.02-.05.42-.18-.14-.04.1-.02.51Z"/>
    <path class="cls-1" d="m152.3,335.23c-.29.4-.57.94-.55.07-.39,1.54.16,1.47.55-.07Z"/>
    <path class="cls-1" d="m149.33,338.59l-.39.53.06.58c-.03-.29.55-1.08.33-1.11Z"/>
    <path class="cls-1" d="m154.85,329.5c-.13-.1-.47.14-.67.14l-.02.64c.2-.27.47-.81.7-.78Z"/>
    <path class="cls-1" d="m154.17,329.64l.03-.95c-.28.77-.21.95-.03.95Z"/>
    <polygon class="cls-1" points="151.95 333.01 152.01 334.61 152.03 332.73 151.95 333.01"/>
    <polygon class="cls-1" points="155.93 326.17 156.11 326.78 155.88 325.73 155.93 326.17"/>
    <path class="cls-1" d="m156.58,323.95c.16.45.63-.35.68.09.14-.62.07-1.2,0-1.73-.04.53-.24,1.04-.68,1.64Z"/>
    <path class="cls-1" d="m157.2,321.43c-.01.27.03.56.06.87.02-.28,0-.57-.06-.87Z"/>
    <path class="cls-1" d="m154.75,327.23c.11-.04.38-.1.63-.55l-.52.21c-.04.1-.08.22-.12.34Z"/>
    <path class="cls-1" d="m154.85,326.89h.02c.13-.38.22-.63.26-.74-.03.09-.12.32-.28.74Z"/>
    <path class="cls-1" d="m154.72,327.31s.02-.05.03-.09c-.05.02-.07.04-.03.09Z"/>
    <path class="cls-1" d="m153.05,330.84c-.06-.59.04-1.73-.64-.81.16.46.55-.07.64.81Z"/>
    <path class="cls-1" d="m154.08,327.57l-.39.9c.11.02.32-.1.35.19l.04-1.09Z"/>
    <polygon class="cls-1" points="154.09 327.08 154.08 327.57 154.22 327.24 154.09 327.08"/>
    <path class="cls-1" d="m156.31,322.89c-.05-.46.08-.9.21-1.4-.25.5-.47,1.04-.63,1.56.1.11.26.42.43-.16Z"/>
    <path class="cls-1" d="m155.56,324.82s0-.07,0-.1c-.05.04-.08.08,0,.1Z"/>
    <path class="cls-1" d="m158.08,316.62s-.07.03-.1.05c.02.01.04.03.06.04l.03-.1Z"/>
    <path class="cls-1" d="m155.78,323.11c-.21.37-.18.64-.13.91.05-.31.13-.63.23-.97-.05-.05-.08-.07-.1.06Z"/>
    <path class="cls-1" d="m157.44,320.01c-.15.18-.3.39-.44.62.19-.16.53-.51.44-.62Z"/>
    <path class="cls-1" d="m155.72,324.63s0,.04,0,.07c.13-.1.08-.1,0-.07Z"/>
    <path class="cls-1" d="m155.72,324.63c0-.22-.04-.42-.08-.61-.05.25-.07.49-.08.71.04-.04.1-.08.16-.1Z"/>
    <path class="cls-1" d="m155.94,314.31c.35.19.37,1.35-.33,2.12,0,.98,1.42.8,2.37.24-.16-.08-.31-.13-.24-1.12-.31.25-1.13,1.88-1.23.99.19-1.27.45-.95.84-1.48-.63.35-.19-1.76-.96-1.72l-.1,1.14c-.11-.01-.16-.46-.35-.19Z"/>
    <path class="cls-1" d="m157.38,318.41l-.07.39c.2-.41.45-.67.93-1.14.02-.69-.08-.86-.19-.94l-.65,1.84v-.15Z"/>
    <path class="cls-1" d="m156.77,320.49c-.32-.43-.2-1.39-.82-.97-.33,1.11.09.88.06,1.6.47-1.82.06.59.71-.63-.04.37-.12.7-.2,1,.15-.31.31-.6.48-.86-.01.01-.03.02-.04.03h0s0,0,0,0c-.08.06-.12.08-.06,0,0,0,0-.03,0-.04-.05-.03-.09-.08-.13-.13.25-.49.13-.05.13.13.02.01.03.03.05.04,0,0,0,0,0,0l.35-1.86c-.18.36-.32.84-.54,1.69Z"/>
    <path class="cls-1" d="m151.83,328.8c.05-.04.08-.03.11-.03-.01-.13-.03-.19-.11.03Z"/>
    <path class="cls-1" d="m152.32,328.14c.02.15.15.31-.03.72-.24.33-.2-.06-.34-.09.03.29,0,.99.46.25l-.02-.14c.37-.67,1.18-1.43,1.2-1.29-.44.09-.76.19-1.27.55Z"/>
    <path class="cls-1" d="m154.45,324.23l.28-1.55-.6.64.23.03c-.36.82-.03.72.1.88Z"/>
    <polygon class="cls-1" points="158.34 316.52 158.71 316.85 158.37 315.8 158.34 316.52"/>
    <polygon class="cls-1" points="158.91 314.57 159.26 314.76 159.2 314.18 158.91 314.57"/>
    <path class="cls-1" d="m189.23,203.97l.03-.47c-.03.22-.04.36-.03.47Z"/>
    <path class="cls-1" d="m188.19,207.12l.16.14c-.06-.18-.11-.26-.16-.14Z"/>
    <path class="cls-1" d="m174.1,267.07c.56-.52,1.33-1.06.88-1.12l-.48.06c-.07.47-.22.79-.41,1.06Z"/>
    <path class="cls-1" d="m182.06,233.76c-.06.05-.12.1-.19.15.09.2.18.39.26.56-.03-.21-.05-.45-.07-.7Z"/>
    <path class="cls-1" d="m180.5,232.76l.54-.75c-.15.16-.33.4-.54.75Z"/>
    <path class="cls-1" d="m194.34,186.54l-.26-.65c-.25.8.07.52.26.65Z"/>
    <path class="cls-1" d="m165.11,294.72c.34-.5.55-.91.69-1.29-.45.59-.98,1.01-.69,1.29Z"/>
    <path class="cls-1" d="m193.22,206.62c.01-.29-.04-.43-.13-.45-.02.3.01.48.13.45Z"/>
    <path class="cls-1" d="m166.3,291.84c-.07.08-.12.17-.19.26-.06.42-.13.85-.32,1.33.33-.43.62-.96.51-1.59Z"/>
    <path class="cls-1" d="m214.79,123.96s.06-.09.09-.13c-.05-.03-.07.03-.09.13Z"/>
    <path class="cls-1" d="m224.82,107.04c-.03.19-.13.48-.21.76.07-.13.14-.35.21-.76Z"/>
    <path class="cls-1" d="m161.58,306.85c-.1.42.02.08,0,0h0Z"/>
    <path class="cls-1" d="m159.31,308.32c-.02-.1-.06-.19-.15-.23.09.07.13.14.15.23Z"/>
    <path class="cls-1" d="m165.04,286.93s0-.02.01-.04c-.12.1-.1.08-.01.04Z"/>
    <path class="cls-1" d="m161.2,307.4c.1-.14.2-.3.29-.49-.06.07-.15.22-.29.49Z"/>
    <path class="cls-1" d="m161.42,307.38c-.06.14-.11.24-.16.35.05.07.11.04.16-.35Z"/>
    <path class="cls-1" d="m161.74,306.27c-.07.24-.16.45-.26.65.05-.07.09-.1.09-.07.03-.12.08-.29.16-.58Z"/>
    <path class="cls-1" d="m205.12,157.91s.04-.05.07-.08c-.04-.47-.07-.28-.07.08Z"/>
    <path class="cls-1" d="m173.23,255.02s0,.03,0,.05c.01-.02.02-.04.03-.06h-.04Z"/>
    <path class="cls-1" d="m173.39,253.45c.31.79.14,1.13-.13,1.57l1.35-.11-1.22-1.46Z"/>
    <path class="cls-1" d="m191.54,196.35l-.7.92c-.21-1.44.29-2.28-.54-1.48,1.25.56-1.16,4.06.09,4.62l-.49.59c.08-.19,0-.25.08-.44-1.04,1.13.62,1.29-.11,2.93-.29.56-.61.92-.63.46l-.11,1.43c-.15.38-.34.21-.2-.16l-.55,2.06-.03-.03c.11.35.21,1.11.24,1.47-.35.45-.05-.3-.26-.22l-.05,1.22c-.48.35-.51-.68-.21-1.44-1.63.63.03,1.03-1.45,3.05l.18-1.11c-.95.45-.95,1.36-1.79,2.41.33-.21,1.92-2.02,1.85-.71-.21.31-.4.75-.35,1.49-.46-.14-.55.54-.79,1.35l-.59-.25c-.1.92.23.95.34,1.55-.37.95-.91,1-1.38,1.1-.59,1.52,1.1-.83.63,1.04-.65,1.21-.69,2.19-.82,3.85-.5.83-.32-.28-.6,0l.23.95c-.07.19-.2.08-.27.02-.03.73.59.25.42,1.36.58.5-1.68,1.86-1.33,3.41-.28.27-.32-.28-.59-.25-.08,1.96-.13,1.66.07,3.35l-.8,1.13c.75-.78.92.58,1.03,1.75.33-.26.61-.47.76-.63l-.2,1.75c-.16.17-.32-.07-.49-.42.01.13.03.25.05.35-.41.52-.67.1-.87-.43.18-.16.38-.32.57-.47-.24-.53-.53-1.04-.91-1.07.04.13.03.36,0,.59-.07-.14-.13-.24-.21-.21-.08.04,0,.25.07.57l-.8.16.24.18-1.12,2.02c.19,1.76.76,3.43.26,5.96-.3-.77-.77-.39-1.35-.61.84-.47.34-1.98.88-3.21-.28.64-.51.41-.56.21l-.16,2.45c-.47-.21-.52.36-.91.89,1.1-.14.09,1.89.09,2.91-.34-.05-.59-.37-.16-1.47-1.12,1.01.61,1.96-.39,2.98.08-.28.18-.41.05-.57.08.73-.65,2.23-.81,1.77l.08-.28c-.7,1.78-1.79,5.54-1.06,6.07-.11-.02-.9-.55-1.03-.71l1.68,4.12c-.6-.51-2.61.06-2.52-1.58-.24.4-.53.9-.57,1.89.19-.26,1.24-.41,1.18.01-1.13.86-.66.64-1.76,1.79.29-.4,1.22.45.96,1.14-.13-.16-1.1-.29-1.13-.58l.51,2.09c-.05-.5-.88-.37-1.31-.07.27-.11-.5,1.5-.55,2l.49-.66c-.79,1.92.88,2.43.2,4.36-.15-.31-1.17-1.02-1.63-.07.4.63,1.99,2.86,1.86,4.73l-.42.23-.07,1.44c-.56-1.09-1.55-3.96-1.82-5.45-.48.66-.44.09-.76,1.2-.42.3-.25-.74-.17-1.07l-1.01,2.51c.68.09.01,2.17.58,2.24l.23-3c.68.09,1.3,2.2.6,3.98-.4.38-1.03-.71-1.25-.74.14.31-.13,1.86-.34,1.98l-.09-.88c-.57.94.32,1.93-.68,2.95-.18.41-1.23.99-.87,1.18.95-.45,3.25.14,3.66.77-.1.13-1.41,1.98-1.92,2.35-.79.51-1.03-1.48-1.71-1.05.17.08.26.53.28.71-.29.39-.48-.36-.71.63.6.37-.68,1.93.4.63-.12,1-.45.95-.78,2.07.53-.22,1.11,1.45.99,2.45-.15-.11-.43.03-.56.1-.68,1.9-1.3,2.84-1.88,4.63-.21.11-.68.92-.84.46.03.29.18.6.01,1.16-.9.89.31-1.26-.63-.66.35.19.06,1.6.04,2.46.66-.06.7-1.78.71-2.65.8.25,1.21,1.9.98,3.89-.28,1.55-.73.48-.7.77-1.04,2.75.64,2.83-.69,4.97-.81.76-1.03-.29-1.47-.2.2-1.28.92-1.76,1.17-2.59l-.57.93c-.05-.44.08-1.29.37-1.69-.71.63-1.6,4.7-2.72,6.72.05.44.01,1.16.32.91l.15-.71c.61-.5.16,1.47.63.67,0,1.01.12,2.18-.52,3.4l-.66.06c.18.03.62-.73.56-1.15.09.62-1.42,1.72-.85,2.56l.69-.77c0,1.01.25,2.35-.3,3.43.74-.34.02-.28.95-.88-1.07.43.97-2.91-.27-2.06,1.05-.58.79-1.34,1.81-2.21-.2-.03-.49.27-.09-.66-.04-.06-.08-.19-.1-.27.01-.03.02-.04.04-.06-.01.02-.03.03-.04.05-.02-.05-.02-.06-.01.02-.16.2-.32.35-.45.39-.29-.62.21-2.14.15-2.73.27-.54.14.31.45.06l-.09-.88c.45.06,1.2-1.28,1.02.14l.41-1.2c.47-.63.88-1.58.89-2.24.28-.54-.01-1.59.16-.99l.34-1.98.11.02c.65-1.85.53-4.07,1.98-5.96.09-.66.17-1.36.63-2.37l.44-.09c.13-.85,1.15-2.31.87-2.78,1.27-.55,1.47-3.85,2.11-5.21l-.47-.21c.34-.97.5-1.95.7-3.23l-.45-.06c-.01-1.16,1.17-2.59,1.65-4.26.13.16-.05.57-.24.84,1.6-1.67.64-4.4,1.91-5.96-.01-.5.14-.8.35-1.08-.01.04-.02.08-.01.12.02-.04.04-.11.06-.18.14-.17.29-.35.43-.55-.16.15-.31.31-.4.45.1-.35.22-.89.27-1.43l.53-.07s.02-.08.03-.12c.33-.45-.09-.47-.52-.32,0-.28,0-.55-.06-.77.87-.17.18-1.42,1.15-1.73-.27-.47.54-2.67-.19-3.2.11.02.21-.12.13.16.28-.54.55-1.08.49-1.67l.66-.06-.38-1.5c.6-.64.91-.89,1.11,0-.11-2.04.21-1.56.02-3.32l.35.2c.16-.56-.06-1.6.36-1.83,1.11-1.01,2.06-6.08,3.74-9.04-1.31.26.97-1.31.15-1.72.32-.1.61-.49.68.09.26-1.7,1.2-2.3.83-3.65.32-.1.27.47.48.36-.02-.15-.06-.59.15-.71.21-.11.14.31.18.6.49-1.67-.27-2.09-.99-2.46.63-.72.71-1.16.41-1.92.34-.21.76-.62.52.44.22-.57,1.5-3.41.91-3.67.21-.13.3-.79.28-.97.45-1.28.54-1.38.89-2.67l-.21.32c-.57-.74.18-1.11.42-2.17l.07.05c1.28-2.18.07-1.1,1.42-3.23l-.5-.02c-.91-.53,1.24-1.87,1.3-3.34l-.42.4c-.1-.84,2-1.63,2.36-2.33.14-.13.06.3.05.54,1.2-1.75-.52-.44-.19-1.93.41-.16.71.61,1.08-.35.42-.4-.14-3.15.9-4.28-.34.21-.68.42-.66-.31.24-1.06,1.83-2.47,1.34-3.65.11-.11.19-.14.25-.12.05-.85.48-2.66.21-3.27,1.81-.22.8-5.12,2.25-4.64l.7-2.44.13.11c.59-1.51.42-2.17.24-2.82.21-.32.27-.02.33.03,1.02-2.16,1.03-2.4.91-4.53l.53-.05c-.11-.6,1.79-3.02,1.94-5.41.05.04.12.11.13.31.24-2.67,3.22-5.54,1.79-7l.1-1.78c-.81,2.08-.64-.56-1.21.23.17-.87,1.21-1.99.97-.94l-.14.13c.77.66,1.16-2.54,1.76-2.28,1.3-4.19,3.1-8.11,4.39-12.01l-.84.23.48-1.35c.28-.31.7-.31.36.66.56-.39.19-1.74.05-1.82.89-1.82.57,1.01.78.43l.2-.81-.14.15c-.08-.74-.36-.89.05-2.05.38-.7.55-.24.67-.53.05.02.1-.07.16-.44l.61-1.7-.77.51c-.03-.85.55-1.61-.33-1.01,1.33-.86,2.4-6.31,2.93-6.93-.06-1.2.29-2.25.75-3.54-.22.29-.9.28-.46-.82,1.14.82,1.22-1.88,2.43-2.5-.87.62.88-3.25-.4-2.25.4-.91.5.1,1.02-.52.22-2.4,1.9-4.83,2.62-7.65-.15-.1-.56.28-.62-.39l1.31-1.19c.09-.57-.81-.81.1-1.62-.19.1-.47.24-.4-.15,2.55-5.16,2.88-11.28,6.18-16.29-.56.64-.44.13-.27-.44-.2.35-.41-.14-.66-.14l1.37-2.1c-.5-.62.75-2.48.22-2.92l-.13.76c-.4-1.2-2.02.85-2.88.42.46,1.35-2.12,2.48-1.53,4.63-.31.33-.19-.43-.47-.29.25.58.15,1.15-.35,2.1l-.06-.15c-.82,2.87-1.59,3.96-2.87,7.07l.53-.09c-.28.67-.47.77-.68,1.05.43,1.01.66-1.91,1.18-.95-1.21.61-1.56,4.83-2.8,5.11-.34,1.05.62-.14.28.91l-.37.19.28.38c-.28.67-.75.91-.99.86.08-.16.09-.5.12-.68-.62.79-.7,2.56-.9,2.84l.5-.96c-.66,2.96-2.16,6.36-2.48,9.32l.28-.14c-.29,2.25-.78,1.63-1.35,4.02l-.02-.1c.06.53-.03,1.19-.26,1.82-.06-.67-.84.95-.87.09-.32,2.44-.03,1.25.27,3.02l-.47.24c.15.62.31.72.03,1.91,0-1.05-.78.57-.83-.63-1.56,2.2-.38,3.88-1.87,4.64.62,1.44,1.22-1.94,1.23-1.24.49-.42.43,1.16.09,1.9-.27.77-1.68.93-2.29,2.9.07-.19,0-.23.06-.42-.48.65-.12,1.55-.82,2.32.43.69-.41,1.16.3,1.55l.4-1.86c-.13,1.08.44,2.32-.52,3.87-.11-.18-.15-.74-.15-1.12-.38.42-.16.99-.55,1.43-.71-.39.54-2.24.31-3.52-.49.43-.12,2.24-.76,1.43.79,1.12-.75,1.89-.39,3.48l-.42-.23c0,.23.08.74-.06,1.12l-.36-.89c.15,1.24-1.1,1.93-1.16,3.05.68-2.17.7-.31,1.32-1.12-.25,2.86-1.67,1.15-2.42,4.21.07-.42.76-1.43.76-.73-.28.54-.69,1.23-1.04,1.51-.54,2.01.56-.15.57.78-.77.5-.09,1.04-.19,1.97l-.46-.14c-1.02,2.16.77.9-.24,2.82l-.36-1.06-.17,1.11-.45-.39c.02,1.28-.2,1.6-.71,2.68.41-.16.79.41.48,1.42-.49.59-.31-.52-.7.91-.18-.41-.43-.88.19-1.36-.13-.11-.19-.41-.31-.52-.55.63-.66,1.82-.82,2.33.08-.19.18-.42.28-.52l-.02,2.26c-.28.27-.33-.03-.39-.33-.08.43.04.79-.12,1.41-.32-.28-.72-.36-.62-1.28l-.21,2.09c-.2.08-.77.86-.82.56-.57,1.01-.13,2.89-.88,4.23.05.1.07.27.03.59-.52,1.32-1.36,2.37-1.36,4.14l-.96.69c-.25,1.3,1.24-.96.82,1.21-.26,1.55-.75.37-1.1.83.1.84.38,2.34-.6,3.52.02-.49.23-.81.32-1.25Zm-4.66,15.55c0-.33-.11-1.02.24-1.15.42.51.08.69-.24,1.15Zm-6.43,23.85c-.08-.27.11-.59.4-.92-.05.29-.17.61-.4.92Zm-17.8,66.48s0-.03-.01-.04c.39-.61.25-.4.01.04Zm-.64,1.32c.02.16.09.17.17.13-.09-.13,0-.45.15-.79-.15.06-.29.21-.32.66Zm47.61-149.04l-.21.23c.06-.65.13-.44.21-.23Z"/>
    <path class="cls-1" d="m180.68,232.89c.1-.06.2-.06.29-.05-.04-.14-.13-.17-.29.05Z"/>
    <path class="cls-1" d="m194.39,186.66s.01-.03.02-.05c-.02-.03-.04-.06-.07-.07l.05.12Z"/>
    <path class="cls-1" d="m165,280.82c.16-.26.29-.4.41-.47-.11-.05-.24.05-.41.47Z"/>
    <path class="cls-1" d="m160.43,311.16l.17-.93c-.11.44-.26.56-.41.75.11.01.32-.11.24.18Z"/>
    <path class="cls-1" d="m155.11,317.96c.01.15-.08.28-.07.42l.22.03c.16-.56.12-1-.16-.46Z"/>
    <path class="cls-1" d="m158.64,311.49c-.41-.05-.46.55-.58,1.19.01-.04.02-.07.04-.11.48.36.52-.36.55-1.08Z"/>
    <path class="cls-1" d="m158.02,312.83c-.04.2-.1.4-.17.58.19.14.12-.22.17-.58Z"/>
    <path class="cls-1" d="m161.7,305.4c-.19.26.43.34.22.46.39.49.04-2.16-.22-.46Z"/>
    <polygon class="cls-1" points="157.2 311.59 157.75 311.52 157.48 311.04 157.2 311.59"/>
    <path class="cls-1" d="m159.13,306.78l-.45.95c.08.01.09.15.08.32.21-.61.52-1.25.37-1.27Z"/>
    <path class="cls-1" d="m158.76,308.05c-.11.32-.2.62-.18.83.05-.17.15-.55.18-.83Z"/>
    <polygon class="cls-1" points="157.5 310.18 157.69 309.92 157.95 309.23 157.5 310.18"/>
    <path class="cls-1" d="m162.65,296.12l.21-1.13c-.13-.16-.32.1-.39.53.03.3-.04.72.18.6Z"/>
    <path class="cls-1" d="m160.29,298.98c.19-.26.31-.25.52-.36l-.58-.22.06.59Z"/>
    <path class="cls-1" d="m161.17,295.78c-.13-.16.03-1.73-.37-.34.13.16-.08,1.29.37.34Z"/>
    <polygon class="cls-1" points="167.16 279.66 167.08 279.94 168.07 280.21 167.16 279.66"/>
    <path class="cls-1" d="m169.47,264.5c-.65,1.21.5.5-.16,1.57.13.38.54-.87.64-.5,0-.85.27-1.22-.48-1.07Z"/>
    <path class="cls-1" d="m169.95,265.56c0,.14,0,.28.02.44.01-.24,0-.37-.02-.44Z"/>
    <polygon class="cls-1" points="226.31 104.18 226.78 103.41 226.28 103.84 226.31 104.18"/>
    <path class="cls-1" d="m226.1,102.36h.68s-.4-.67-.4-.67c-.03.2-.1.58-.28.67Z"/>
    <path class="cls-1" d="m184.9,213.8l.13.11c.2-.08.28-.27.43-.65l-.55.54Z"/>
    <polygon class="cls-1" points="188.96 202.73 188.89 202.92 189.56 202.74 188.96 202.73"/>
    <path class="cls-1" d="m191.27,193.09c-.15.38-.17.87-.31,1.25.17-.87,1.04-1.13.31-1.25Z"/>
  </g>
  <g>
    <path class="cls-1" d="m221.33,103.51c.07.02-.08-.37-.09-.45-.07.11.13.55.09.45Z"/>
    <polygon class="cls-1" points="220.63 104.68 220.61 104.51 220.57 104.96 220.63 104.68"/>
    <path class="cls-1" d="m219.71,104.92c.25.67.31-.2.53,0l.07.15-.07-.58c-.17.14-.34.58-.53.43Z"/>
    <path class="cls-1" d="m218.89,103.55c.09.26-.05.26.13.06-.02-.03-.02-.04-.03-.06-.02,0-.04.02-.09,0Z"/>
    <path class="cls-1" d="m218.98,103.54c.09-.04-.11-.21,0,0h0Z"/>
    <path class="cls-1" d="m218.58,103.77l.07-.26c-.06-.16-.18-.17-.16-.3-.1.15-.04.31.08.56Z"/>
    <path class="cls-1" d="m218.56,104.3l.05-.11c-.02-.07-.05-.09-.05.11Z"/>
    <path class="cls-1" d="m218.7,103.95l-.09.24c.04.11.09.34.05-.09.03.21.02,0,.05-.15Z"/>
    <path class="cls-1" d="m218.8,104.04c.1.14.22.22.14.48.23-.14.08-.62-.14-.48Z"/>
    <path class="cls-1" d="m219.83,105.65l.15.18.03-.26c-.02.13-.23-.14-.18.08Z"/>
    <path class="cls-1" d="m217.74,103.54c.02.15.11.39.15.58l.06-.19c-.07-.09-.17-.17-.22-.39Z"/>
    <path class="cls-1" d="m217.89,104.12l-.1.28c.13,0,.13-.12.1-.28Z"/>
    <polygon class="cls-1" points="218.69 105.09 218.82 104.51 218.65 105.1 218.69 105.09"/>
    <polygon class="cls-1" points="217.22 103.61 217.24 103.25 217.18 103.8 217.22 103.61"/>
    <path class="cls-1" d="m216.88,103.73c.02-.3-.14-.47-.11-.66-.08.07-.13.33-.17.56.06-.14.14-.12.28.1Z"/>
    <path class="cls-1" d="m216.52,103.97c.03-.07.05-.21.08-.34-.03.07-.06.18-.08.34Z"/>
    <path class="cls-1" d="m217.55,104.37c-.03-.09-.08-.32-.18-.41l.12.41h.06Z"/>
    <path class="cls-1" d="m217.49,104.38h0c-.06-.01-.1-.02-.12-.02.02,0,.05,0,.13.02Z"/>
    <path class="cls-1" d="m217.56,104.37h-.01s.02.05.01,0Z"/>
    <path class="cls-1" d="m218.24,104.77c-.04.25-.18.53.06.86,0-.3-.12-.49-.06-.86Z"/>
    <path class="cls-1" d="m217.71,104.88l.17.07c-.02-.11-.08-.27-.05-.39l-.11.32Z"/>
    <polygon class="cls-1" points="217.66 105.03 217.71 104.88 217.65 104.86 217.66 105.03"/>
    <path class="cls-1" d="m216.82,104.33c-.04.2-.11.22-.18.27.1.07.19.1.27.08,0-.14,0-.38-.09-.35Z"/>
    <path class="cls-1" d="m217.15,104.39v.03s.01.04,0-.03Z"/>
    <path class="cls-1" d="m215.84,104.65s.01.05.02.08v-.07s-.02,0-.02,0Z"/>
    <path class="cls-1" d="m216.94,104.75c.08.07.1-.04.12-.18-.04.05-.09.09-.14.1,0,.06,0,.1.02.08Z"/>
    <path class="cls-1" d="m216.32,104.19c.04.09.09.16.14.23-.05-.13-.14-.34-.14-.23Z"/>
    <path class="cls-1" d="m217.1,104.31v-.02c-.03-.09-.02-.04,0,.02Z"/>
    <path class="cls-1" d="m217.1,104.31c-.02.07-.04.18-.05.27.03-.04.06-.09.09-.16-.01-.03-.02-.07-.04-.11Z"/>
    <path class="cls-1" d="m215.83,107.4c-.02-.4.13-.77.33-.36.13-.31-.11-1.6-.3-2.31.01.17.03.33-.1.58.07.21.39.48.29.84-.19.22-.18-.13-.3-.33.13.49-.21.74-.1,1.46l.17-.27c.01.11-.04.3.02.4Z"/>
    <path class="cls-1" d="m216.15,104.75l.06-.05c-.08-.06-.15-.22-.27-.52-.08.2-.09.35-.08.48l.31.03v.06Z"/>
    <path class="cls-1" d="m216.48,104.67c0,.43-.13.63.01,1.08.19-.04.09-.37.18-.56-.29.13.06-.24-.19-.47.05-.08.1-.1.14-.13-.06-.04-.12-.11-.17-.18v.03s.01,0,.01,0h0c.02.06.03.09,0,.06,0,0,0,0,0,0,0,.06,0,.11,0,.16-.1-.08-.03-.11,0-.16v-.06s0,0,0,0l-.27.26c.07.05.15.04.28-.02Z"/>
    <path class="cls-1" d="m218.3,106.57s-.02-.07-.03-.1c-.01.06-.01.09.03.1Z"/>
    <path class="cls-1" d="m218.13,106.33c.01-.06,0-.24.08-.2.08.12.03.2.06.34.03-.12.1-.33-.07-.51v.06c-.16-.12-.4-.63-.39-.69.1.38.17.64.32,1.01Z"/>
    <path class="cls-1" d="m217.29,105.62l-.22.25.18.35-.04-.22c.16.06.09-.21.08-.38Z"/>
    <polygon class="cls-1" points="215.79 104.44 215.78 103.99 215.7 104.64 215.79 104.44"/>
    <polygon class="cls-1" points="215.48 104.52 215.46 104.12 215.4 104.37 215.48 104.52"/>
    <path class="cls-1" d="m195.83,105.44l-.12.06c.05-.01.09-.04.12-.06Z"/>
    <path class="cls-1" d="m196.35,105.73l.1-.17c-.07.09-.11.15-.1.17Z"/>
    <path class="cls-1" d="m207.68,104.2c-.04-.38-.06-.97-.12-.53l-.04.43c.09-.06.13,0,.17.09Z"/>
    <path class="cls-1" d="m201.63,105.35s0,.09,0,.14c.07-.13.14-.26.2-.37-.06.07-.12.15-.19.24Z"/>
    <path class="cls-1" d="m200.98,107.03l-.06-.31c0,.1.02.21.06.31Z"/>
    <path class="cls-1" d="m192.72,104.3l-.31.33c.13.08.19-.15.31-.33Z"/>
    <path class="cls-1" d="m212.23,104.77c-.09-.17-.16-.24-.22-.26.1.25.18.62.22.26Z"/>
    <path class="cls-1" d="m198.03,101.39c-.07.05-.13.12-.17.21.07-.05.13-.11.17-.21Z"/>
    <path class="cls-1" d="m211.75,104.51s.03.07.04.1c.07-.07.14-.13.22-.1-.07-.19-.16-.3-.26,0Z"/>
    <path class="cls-1" d="m183.7,96.44s0-.03.02-.05c-.05.04-.04.05-.02.05Z"/>
    <path class="cls-1" d="m185.11,91.17s.07.05.1.08c.01-.04-.01-.06-.1-.08Z"/>
    <path class="cls-1" d="m214.21,104.43c.07-.03,0-.05,0,0h0Z"/>
    <path class="cls-1" d="m214.61,106.12s-.02.11-.02.21c0-.1,0-.17.02-.21Z"/>
    <path class="cls-1" d="m210.91,107.15h0c.02.08.01.07,0,0Z"/>
    <path class="cls-1" d="m214.31,104.62c-.03-.05-.06-.09-.09-.12.01.03.04.07.09.12Z"/>
    <path class="cls-1" d="m214.29,104.41s.04.03.06.04c0-.07,0-.12-.06-.04Z"/>
    <path class="cls-1" d="m214.11,104.46s.07,0,.11.04c-.01-.03-.02-.05-.02-.07-.02,0-.05.02-.09.03Z"/>
    <path class="cls-1" d="m189.07,99.96s0-.02.01-.04c-.17.09-.13.09-.01.04Z"/>
    <polygon class="cls-1" points="204.97 108.26 204.98 108.25 204.97 108.23 204.97 108.26"/>
    <path class="cls-1" d="m204.63,108.51c.24-.5.28-.42.35-.29l.19-1.24-.53,1.53Z"/>
    <path class="cls-1" d="m194.49,104.92v.43c-.52.46-.57.19-.66.76.66-1.19.77.22,1.41-.97v.31s-.08.04-.11.01c-.06.69.61-.79.81-.48.05.14.04.36-.1.47l.37-.19c.05.06-.06.26-.12.21l.39.07-.02.03c.14-.17.39-.41.5-.51,0,.22-.1.11-.15.27l.32-.21c-.07.36-.37.59-.48.48-.39,1.31.29-.22.36.66l-.26.08c-.19.75.07.56.09,1.09.05-.25.06-1.28.41-1.5.02.12.08.2.3,0-.19.44-.03.38.12.41l-.26.58c.23-.11.34-.41.54-.64.14.13-.01.6-.13,1,.24.21.11-.81.48-.79.13.32.39.14.8-.11.08.27-.17.35-.18.55l.32-.42s-.04.17-.07.24c.19-.14.24-.59.48-.68.29-.64.01,1.13.52.44,0,.19-.16.36-.23.6.5-.39.4-.27.89-.85l.08.47c0-.51.38-.98.7-1.36.02-.24.03-.45.03-.55l.38-.24c0,.11-.09.31-.22.55.03-.04.07-.09.1-.13.03.26-.14.59-.32.91,0-.13.01-.27.02-.41-.19.35-.39.73-.5,1.09.04-.06.1-.11.15-.13-.05.09-.09.18-.1.24-.01.07.06-.06.16-.2l-.16.7.1-.26.25.55c.49-.59,1.03-1.53,1.53-1.68-.25.47-.26.81-.44,1.41.07-.67-.41.16-.6-.04.1.1-.01.38-.07.47l.57-.44c-.15.48-.02.39.03.63.2-.98.49-.56.73-.82-.08.33-.21.65-.39.52.03.78.6-1.06.65-.39-.05,0-.06-.06-.13.1.19-.26.41.04.27.3h-.05c.3.19,1,.25,1.24-.57-.02.11-.28.99-.33,1.15.41-.88.82-1.76,1.2-2.65-.21.7-.38,2.45-.74,2.79.06.12.13.26.35.05-.03-.12.09-1.07.17-1.11.03.84.04.47.15,1.19-.05-.17.27-1.27.39-1.22-.05.16-.21,1.11-.28,1.22l.53-1.05c-.12.19-.2.93-.18,1.26,0-.22.28.07.38-.03l-.09-.28c.33.23.63-1.5.96-1.38-.08.22-.34,1.39-.18,1.56.18-.55.8-2.67,1.15-3.07v.34s.29-.33.29-.33c-.25.84-.92,2.57-1.27,3.23.1.28-.02.39.19.39.03.32-.18.44-.25.45l.46.28c.08-.67.46-.61.52-1.16l-.61.6c.08-.67.57-1.84.88-1.67.05.28-.22,1.18-.24,1.4.07-.22.38-.4.39-.23l-.19.34c.16.27.42-.86.57-.2.07.05.14.88.2.49-.05-.77.19-3.14.33-3.7.02.05.3.76.35,1.15.07.61-.32,1.41-.27,1.93.02-.18.11-.4.15-.47.07.16-.09.56.1.5.09-.68.36.09.13-.57.19-.18.17.16.38.14-.03-.44.29-1.48.47-1.66-.02.17,0,.4.01.51.34.09.51.43.83.43.02.17.17.37.1.66.05-.12.1-.35.2-.37.18.59-.23.09-.1.8.03-.4.28-.54.43-.79-.03-.61-.32-.12-.48.13.03-.84.3-1.72.63-2.11.26-.21.1.55.15.43.49.15.41-1.47.81-.86.16.54.02,1.07.06,1.46-.21.2-.33-.34-.47-.32l.18.26c-.07.18-.21.31-.29.16.14.48.84.1,1.24.55.06-.18.17-.38.11-.59l-.12.08c-.12-.43.2-.61.05-.81.15-.32.3-.81.53-.58l.07.61c-.02-.18-.16-.35-.22-.16.08-.28.39.8.44,0l-.18-.41c.14-.32.28-.98.48-.81-.13-.6-.04.07-.22-.62.18.87-.48,0-.24.91-.19-.81-.26-.33-.47-1.02.01.2.08.38-.08.29,0,.06-.02.14-.03.18h-.01s0,0,0,0c0,.03,0,.04,0,0,.04.09.08.19.09.3-.06.47-.32.48-.4.71-.1-.1.03-.23-.03-.45l-.12.36c-.03-.45-.27-.75-.05-1.01l-.2-.02c-.12-.25-.28-.36-.38-.17-.09-.1-.24.49-.15.14l-.31.28v-.11c-.3-.06-.66.74-.98-.07-.11.11-.22.26-.39.11v-.39c-.15.12-.38-.42-.47-.03-.07-1.06-.61-.29-.83-.49l-.06.5c-.16-.04-.32.09-.55.27l-.04.45c-.22.34-.42-.34-.69-.35.04-.17.1-.11.14,0-.18-1.06-.79.61-.98-.17-.1.15-.14.08-.18-.04,0,0,.01,0,.02-.02,0,0-.02,0-.03-.01-.02-.08-.04-.17-.06-.25.01.11.03.21.05.25-.06,0-.15.04-.26.14l.05-.48s-.01,0-.02.01c-.05-.19-.11.21-.12.58-.06.07-.11.16-.16.27.07-.78-.27.22-.21-.61-.13.39-.48.23-.7,1.05.02-.11,0-.17.05-.16-.08-.11-.15-.22-.29-.01l.09-.61-.38.75c-.05-.4-.05-.62.17-1.05-.46.63-.3.21-.72.84l.1-.38c-.09,0-.37.47-.35.14-.02-.78-1-.34-1.33-1.16-.23,1.15-.09-.58-.36.28.05-.27.02-.45.17-.65-.34.17-.26-.54-.66.13.05-.27.18-.37.2-.53-.04.05-.15.2-.13.04.02-.16.11-.21.18-.31-.27-.04-.56.76-.83,1.51-.02-.4-.1-.37-.37.09.03-.26.04-.55.24-.58-.08-.07-.45-.55-.67.05.02-.16-.12-.09-.17-.03-.2-.11-.2-.16-.42-.19l.02.12c-.35.69-.23.09-.43.11l.03-.07c-.18-.67-.26.18-.4-.56l-.16.45c-.42.94-.11-.7-.47-.42l-.03.29c-.26.28.21-1.43.15-1.59.01-.09.1-.12.16-.16-.06-.68-.28.56-.57.6.09-.33.39-.77.27-.89.04-.28-.89.84-.81.13-.07.26-.13.52-.31.65-.2,0,0-1.1-.5-.43.01-.07.03-.14.06-.2-.21.13-.54.13-.81.49.64-1.53-1.12.34-.42-1.01l-.41-.11.08-.13c-.18-.22-.43.05-.69.33,0-.12.11-.22.15-.29-.18-.46-.24-.42-.9.07l.22-.45c-.22.2-.08-.95-.7-.64.03-.05.09-.12.15-.17-.69.29-.1-1.68-1.21-.26l-.48.21c.22.33-.48.62-.52.95-.18,0,0-.67.19-.64l-.03.09c.58-.74-.19-.54.19-1.06-.61-.37-.88-1.17-1.35-1.63l-.39.62-.15-.18c.06-.17.29-.5.4-.37.19-.38-.43.1-.53.22-.06-.43.63-.58.57-.66l-.14-.04-.03.09c-.27.16-.48.4-.61.25,0-.19.24-.39.22-.44.03-.04.04-.07-.04-.06l-.18-.23-.28.51c-.28.14-.19-.2-.51.39.25-.45.1-.69-.1-.86-.19-.18-.43-.3-.37-.45-.41.18-.54.05-.67-.14-.04.13-.47.62-.55.43.98-.92.15-.67.71-1.46-.35.55-.5-.26-.99.53-.04-.19.35-.36.49-.66-.66.11-.33-.83-.76-1.05-.14.11-.28.35-.54.45l.5-.77c-.12-.01-.82.61-.47.08-.1.11-.24.29-.32.28.03-.63-.42-.85-.78-1.17-.34-.33-.61-.73-.22-1.56-.21.3-.28.25-.35.18-.03.1-.36.25-.54.4l.31-.69c-.59.32-.28-.31-.83.01l.17.04c-.72.28-1.24,1.12-2.04,1.64.81-.32-.72,1.16.47.72-.11.17-.29.13-.44.29.38-.17.51-.14.47.12l-.09.04c.4.36.19.81.37,1.45l.34-.33c.04.14-.06.25-.11.37.65-.34-.21-.3.5-.7-.64.74.58.68-.18,1.48.13.16.38-.4.5-.25l-.19.23.32-.21c.04.14-.2.43-.38.6,0-.04-.11-.02-.15-.03-.15.36.41.29.36.41v-.27c.57.23.73,1,1.55.93l.13-.18c.58-.02.05.39.5.56l-.05.03c.22-.1.38-.1.45,0-.26.11-.2.51-.5.62.62-.02.4-.1,1.16-.52l-.2.32c.3-.18.42-.31.64-.23-.34.11-.28.51-.7.69-.21.93,1.05-.17.43.86.83-.65.07-.68.3-.77.15-.31.64-.47.67-.31.09.11-.67,1.15-.37,1.37-.03-.03-.08.03-.1,0-.06.29.43-.1.3.33.46-.42.15.17.67-.43l-.37-.07c.28-.04.99-.65.95-.11-.12.11-.32.22-.44.27-.07.24.23-.01.16.24-.51.61-.42-.12-.96.22-.13.32.66-.2.04.4.79-.76.2.34.91-.16l-.3.37c.08-.03.28-.16.33-.1l-.48.4c.48-.29.03.62.37.5-.35-.23.27-.51.34-.89.78-.22-.51,1.16.1,1.31-.1,0-.07-.4.16-.51.03.14.04.37-.05.61.37.14.24-.43.54-.58-.23.54.29-.09.52-.15l-.28.4c.17.5.66-.76.76-.24l-.51.46.26-.03-.34.43c.41-.21.4-.09.49.16.15-.31.51-.71.67-.62-.05.31-.31.34-.05.44-.21.22-.48.5-.33.06-.1.12-.22.22-.31.34-.07.36.25.26.33.32-.02-.04-.04-.08-.03-.15l.69-.36c-.04.18-.16.28-.28.38.1,0,.26-.16.38-.14-.23.32-.44.66-.68.74l.55-.18c-.07.16-.08.5-.2.59.06.3.83-.39.91,0,.05-.06.11-.11.19-.13.17.21.14.74.66.43l-.19.7c.28-.02.23-.89.7-.93.35-.06-.2.58-.21.8.29-.24.85-.78.81-.16-.14.08-.15-.04-.24-.03Zm2.76.99c-.09.07-.32.31-.25.04.29-.48.22-.22.25-.04Zm4.49.45c-.09.14-.12.04-.13-.15.06-.02.11.01.13.15Zm11.74-1.53s0,.01,0,.02c-.11-.19-.07-.11,0-.02Zm.23.21c.02-.07.02-.13,0-.2-.01.12-.07.13-.12.09.02.13.05.21.12.11Zm-23.19-8.09l-.05.13c-.17.04-.07-.04.05-.13Z"/>
    <path class="cls-1" d="m201.06,106.83c.01-.08.04-.17.06-.26-.05.07-.08.16-.06.26Z"/>
    <polygon class="cls-1" points="192.78 104.24 192.77 104.23 192.72 104.3 192.78 104.24"/>
    <path class="cls-1" d="m209.75,108.96c-.05-.07-.07-.16-.08-.26-.01.12,0,.22.08.26Z"/>
    <path class="cls-1" d="m214.88,104.16l-.14.14c.07-.03.1.07.14.15-.01-.11-.05-.27,0-.28Z"/>
    <path class="cls-1" d="m216.43,107.03c.02-.06.05-.01.06-.07l-.03-.22c-.1.02-.15.21-.03.29Z"/>
    <path class="cls-1" d="m215.12,105.75c.04.4.13.26.23.18,0,0-.01,0-.02,0-.01-.57-.11-.37-.21-.18Z"/>
    <path class="cls-1" d="m215.37,105.91s.06-.03.1-.02c0-.23-.04-.04-.1.02Z"/>
    <path class="cls-1" d="m214,104.77c.05.11.01-.52.05-.35.04-.52-.31.62-.05.35Z"/>
    <polygon class="cls-1" points="215.29 107.07 215.22 106.58 215.19 106.99 215.29 107.07"/>
    <path class="cls-1" d="m214.41,106.77l.18.13c0-.08.01-.13.04-.17-.11,0-.23-.1-.22.05Z"/>
    <path class="cls-1" d="m214.63,106.72c.06,0,.11,0,.14-.09-.03,0-.09.03-.14.09Z"/>
    <polygon class="cls-1" points="215.06 107.24 215 107.14 214.88 107.12 215.06 107.24"/>
    <path class="cls-1" d="m212.53,106.68l-.19.14c-.02.17.03.28.1.21.05-.12.12-.19.09-.35Z"/>
    <path class="cls-1" d="m213.1,108.06c-.05-.1-.06-.22-.09-.38v.62s.09-.24.09-.24Z"/>
    <path class="cls-1" d="m212.52,108.2c-.02.17-.3.49-.04.46.02-.17.23-.31.04-.46Z"/>
    <polygon class="cls-1" points="209.61 107.24 209.66 107.24 209.75 106.22 209.61 107.24"/>
    <path class="cls-1" d="m206.63,109.28c.2.28.16-.61.33-.27.1-.23-.14-.27-.04-.47-.19.23-.24.07-.29.74Z"/>
    <path class="cls-1" d="m206.92,108.54s.06-.08.1-.14c-.05.06-.08.1-.1.14Z"/>
    <polygon class="cls-1" points="185.27 90.46 185.37 90.23 185.13 90.49 185.27 90.46"/>
    <path class="cls-1" d="m184.49,90.66l.52-.38-.54.26s.12.03.02.13Z"/>
    <path class="cls-1" d="m197.13,107.28l.07-.14c.04-.16.01-.19-.04-.24l-.03.38Z"/>
    <polygon class="cls-1" points="195.37 105.93 195.4 105.95 195.6 105.4 195.37 105.93"/>
    <path class="cls-1" d="m193.4,105.77c.05.06.19,0,.25.05-.2.02.09-.7-.25-.05Z"/>
  </g>
  <g>
    <path class="cls-1" d="m210.36,51.89c.07-.03-.27-.28-.32-.34,0,.15.4.4.32.34Z"/>
    <polygon class="cls-1" points="210.36 53.38 210.24 53.25 210.45 53.65 210.36 53.38"/>
    <path class="cls-1" d="m209.66,54.2c.61.38.16-.37.48-.36l.15.08-.39-.43c-.08.24.02.71-.24.71Z"/>
    <path class="cls-1" d="m208.11,53.65c.24.15.1.25.15-.05-.03,0-.05-.02-.07-.03-.01.02-.03.04-.08.07Z"/>
    <path class="cls-1" d="m208.19,53.58c.06-.1-.23-.09,0,0h0Z"/>
    <path class="cls-1" d="m207.98,54.08l-.1-.27c-.15-.08-.26,0-.32-.12,0,.2.15.28.41.39Z"/>
    <path class="cls-1" d="m208.29,54.52l-.03-.13c-.06-.03-.09-.03.03.13Z"/>
    <path class="cls-1" d="m208.19,54.13l.07.27c.1.06.28.2-.01-.11.15.15.02,0-.05-.16Z"/>
    <path class="cls-1" d="m208.34,54.13c.17.04.32.01.41.29.11-.28-.31-.57-.41-.29Z"/>
    <path class="cls-1" d="m210.2,54.71l.23.05-.12-.23c.06.11-.29.04-.11.18Z"/>
    <path class="cls-1" d="m207.1,54.56c.11.1.34.22.5.34l-.06-.2c-.12-.02-.26,0-.44-.14Z"/>
    <path class="cls-1" d="m207.6,54.89l.09.29c.12-.09.04-.19-.09-.29Z"/>
    <polygon class="cls-1" points="208.88 55.05 208.64 54.49 208.86 55.1 208.88 55.05"/>
    <polygon class="cls-1" points="206.69 55.03 206.48 54.73 206.78 55.2 206.69 55.03"/>
    <path class="cls-1" d="m206.47,55.39c-.18-.24-.44-.24-.53-.41-.03.12.1.35.21.57-.04-.15.05-.21.32-.15Z"/>
    <path class="cls-1" d="m206.31,55.86c-.02-.08-.09-.2-.16-.32.02.08.06.18.16.32Z"/>
    <path class="cls-1" d="m207.46,55.36c-.08-.05-.28-.18-.42-.18l.37.22s.03-.03.05-.05Z"/>
    <path class="cls-1" d="m207.43,55.41h-.01c-.05.04-.09.07-.11.09.01-.01.05-.04.12-.09Z"/>
    <path class="cls-1" d="m207.47,55.34s0,0-.01.01c.04.02.05.03.01-.01Z"/>
    <path class="cls-1" d="m208.31,55.14c.12.23.19.55.59.63-.18-.24-.41-.29-.59-.63Z"/>
    <path class="cls-1" d="m207.93,55.62l.19-.07c-.09-.07-.24-.15-.3-.26l.11.34Z"/>
    <polygon class="cls-1" points="207.98 55.78 207.93 55.62 207.86 55.65 207.98 55.78"/>
    <path class="cls-1" d="m206.81,55.89c.09.18.05.25.02.34.13-.02.23-.07.29-.15-.09-.1-.25-.28-.31-.19Z"/>
    <path class="cls-1" d="m207.14,55.68s0,.02,0,.03c.03.02.05.02,0-.03Z"/>
    <path class="cls-1" d="m206.23,56.93s.05.03.07.04c-.02-.02-.04-.03-.05-.05h-.01Z"/>
    <path class="cls-1" d="m207.19,56.12c.11,0,.06-.11-.01-.22,0,.07-.02.13-.06.19.04.04.07.07.07.04Z"/>
    <path class="cls-1" d="m206.3,56.19c.09.03.18.04.26.05-.13-.06-.34-.13-.26-.05Z"/>
    <path class="cls-1" d="m207.04,55.65s0-.01,0-.02c-.09-.04-.05-.01,0,.02Z"/>
    <path class="cls-1" d="m207.04,55.65c.02.07.08.16.14.24,0-.06,0-.12-.03-.19-.03-.01-.07-.03-.11-.06Z"/>
    <path class="cls-1" d="m208.16,58.9c-.3-.26-.45-.65-.01-.51-.12-.32-1.19-1.07-1.85-1.42.13.11.25.22.32.5.21.09.63.03.82.37.01.31-.23.05-.46,0,.44.24.37.68.95,1.11l-.07-.32c.09.07.18.24.3.26Z"/>
    <path class="cls-1" d="m206.54,56.75v-.09c-.1.02-.26-.04-.56-.16.07.21.17.33.27.42l.27-.23.03.06Z"/>
    <path class="cls-1" d="m206.76,56.41c.3.32.33.57.75.79.11-.18-.18-.34-.25-.56-.13.33-.12-.23-.47-.2-.01-.1,0-.16.03-.21-.08.01-.17.02-.26,0,0,0,.02,0,.03.01h0s0,0,0,0c.05.02.08.04.04.03,0,0,0,0,0,.01.04.04.08.08.12.12-.13.02-.1-.06-.12-.12-.02-.01-.03-.03-.05-.04,0,0,0,0,0,0l-.03.41c.09-.02.14-.09.2-.25Z"/>
    <path class="cls-1" d="m209.5,56.5s-.06-.04-.08-.06c.03.05.05.08.08.06Z"/>
    <path class="cls-1" d="m209.21,56.44c-.03-.06-.15-.18-.06-.22.14.03.16.13.27.22-.06-.11-.13-.33-.39-.35l.03.06c-.2,0-.73-.2-.76-.26.32.22.56.37.91.54Z"/>
    <path class="cls-1" d="m208.06,56.5l-.02.35.38.13-.18-.14c.17-.07-.06-.22-.18-.34Z"/>
    <polygon class="cls-1" points="206.05 56.82 205.72 56.5 206.11 57.04 206.05 56.82"/>
    <polygon class="cls-1" points="205.86 57.14 205.56 56.87 205.68 57.1 205.86 57.14"/>
    <path class="cls-1" d="m196.44,76.11l.03.14c0-.05-.01-.1-.03-.14Z"/>
    <path class="cls-1" d="m196.84,75.67l-.14-.14c.06.09.12.15.14.14Z"/>
    <path class="cls-1" d="m200.15,64.05c-.36-.14-.89-.41-.54-.13l.36.25c0-.11.07-.13.18-.12Z"/>
    <path class="cls-1" d="m198.21,70.43s.08.04.12.06c-.1-.12-.18-.23-.27-.33.05.08.09.17.14.27Z"/>
    <path class="cls-1" d="m199.53,71.65l-.32-.06c.1.04.2.06.32.06Z"/>
    <path class="cls-1" d="m194.7,78.91l.28.36c.09-.12-.12-.21-.28-.36Z"/>
    <path class="cls-1" d="m203.59,60.11c-.2-.03-.3-.01-.37.03.27.06.62.23.37-.03Z"/>
    <path class="cls-1" d="m193.05,72.98c.03.09.08.16.16.22-.02-.09-.07-.16-.16-.22Z"/>
    <path class="cls-1" d="m203.03,60.38s.07.01.11.02c0-.1,0-.2.08-.25-.2-.05-.36-.04-.19.23Z"/>
    <path class="cls-1" d="m186.84,87.78s-.03,0-.06-.01c.04.04.05.03.06.01Z"/>
    <path class="cls-1" d="m181.27,87.62s.04-.09.07-.13c-.04,0-.06.04-.07.13Z"/>
    <path class="cls-1" d="m204.77,58.14c.03-.08-.03-.04,0,0h0Z"/>
    <path class="cls-1" d="m206.33,58.95s.07.09.14.16c-.08-.07-.12-.12-.14-.16Z"/>
    <path class="cls-1" d="m204.61,62.7s0,0,0,0c.08.04.06.03,0,0Z"/>
    <path class="cls-1" d="m205,58.18c-.06-.01-.11-.01-.16,0,.04,0,.09.01.16,0Z"/>
    <path class="cls-1" d="m204.83,58.06s.05-.02.08-.03c-.05-.05-.09-.08-.08.03Z"/>
    <path class="cls-1" d="m204.72,58.24s.07-.06.11-.07c-.03,0-.06-.02-.06-.03,0,.02-.02.05-.05.1Z"/>
    <path class="cls-1" d="m190.01,82.16s-.02,0-.04-.01c.09.18.09.13.04.01Z"/>
    <path class="cls-1" d="m202.32,68.49s0-.01-.01-.02c0,0-.01,0-.02,0l.03.02Z"/>
    <path class="cls-1" d="m202.39,68.91c-.34-.44-.24-.45-.1-.44l-1.02-.73,1.12,1.17Z"/>
    <path class="cls-1" d="m195.62,77.29l.42.1c.34.59.06.58.6.79-1.03-.89.38-.67-.65-1.56l.3.08s.02.08,0,.09c.66.22-.64-.77-.28-.9.15-.02.35.05.43.21l-.1-.41c.07-.04.24.13.17.16l.16-.36.03.03c-.13-.18-.3-.48-.37-.62.21.05.08.13.23.22l-.12-.37c.33.16.48.51.34.59,1.17.72-.15-.35.73-.17v.26c.68.39.56.1,1.08.23-.23-.12-1.22-.43-1.33-.82.12.02.21-.02.08-.29.37.31.36.14.43,0l.48.42c-.04-.24-.3-.44-.46-.7.17-.1.57.19.92.42.26-.16-.74-.35-.61-.7.34-.03.25-.33.14-.8.28.01.28.27.46.34l-.3-.44s.15.09.2.14c-.07-.22-.48-.42-.49-.68-.51-.49,1.05.34.6-.36.18.07.28.27.48.42-.19-.6-.11-.47-.47-1.13l.47.09c-.48-.17-.77-.71-1.01-1.16-.22-.1-.41-.19-.5-.23l-.06-.46c.1.04.25.2.43.41-.03-.05-.05-.1-.08-.14.25.07.5.35.72.64-.12-.05-.25-.11-.38-.17.25.31.53.64.83.87-.04-.06-.07-.13-.07-.19.07.08.13.15.19.19.06.04-.03-.08-.12-.22l.59.4-.21-.19.6-.03c-.36-.68-1.01-1.55-.94-2.1.33.42.64.57,1.11.97-.58-.32-.01.45-.27.55.13-.05.34.16.4.25l-.18-.71c.38.33.35.17.58.22-.82-.58-.31-.67-.43-1,.27.21.5.46.3.57.73.3-.71-.99-.07-.75-.03.05-.08.03.03.16-.15-.28.22-.36.4-.12l-.03.04c.31-.19.68-.8.06-1.38.09.07.76.69.88.82l-1.81-2.3c.53.51,2,1.46,2.13,1.95.13,0,.29,0,.2-.29-.12-.02-.9-.57-.9-.67.76.36.43.17,1.13.41-.17-.04-.99-.84-.88-.92.12.13.88.72.94.83l-.65-.97c.1.19.72.62,1.01.77-.19-.11.2-.21.17-.34l-.29-.06c.37-.18-.98-1.29-.7-1.54.15.18,1.03,1,1.26.95-.39-.43-1.88-2.07-2.02-2.6l.29.16-.13-.43c.57.67,1.69,2.18,2.08,2.82.29.06.32.22.43.04.28.14.29.39.26.45l.46-.25c-.53-.41-.28-.72-.72-1.06l.2.85c-.53-.41-1.27-1.46-.96-1.64.26.1.88.82,1.05.95-.15-.18-.13-.53.02-.45l.18.34c.32.01-.48-.81.16-.58.08-.03.82.37.52.11-.67-.39-2.51-1.89-2.9-2.33.06.01.83.15,1.18.32.55.28.98,1.07,1.44,1.31-.14-.12-.27-.32-.3-.39.17.04.41.39.47.2-.5-.46.28-.25-.39-.43-.04-.26.23-.05.34-.23-.38-.23-1.03-1.1-1.07-1.36.13.12.33.23.42.28.28-.24.64-.19.86-.45.15.08.4.08.59.33-.06-.11-.21-.3-.16-.39.58.22-.08.24.56.57-.3-.26-.25-.56-.34-.83-.5-.36-.31.19-.22.46-.65-.54-1.16-1.3-1.23-1.83.02-.35.5.26.44.14.45-.31-.84-1.29-.1-1.24.52.21.83.68,1.15.9,0,.31-.49.05-.57.18l.32.02c.09.17.1.37-.08.34.46.2.64-.63,1.25-.65-.09-.17-.16-.39-.36-.48l-.02.15c-.41-.19-.31-.57-.57-.57-.12-.33-.37-.78-.02-.81l.5.36c-.14-.11-.38-.11-.28.06-.14-.25.88.24.33-.36l-.44-.14c-.13-.33-.49-.91-.2-.95-.53-.31.02.08-.62-.25.76.46-.38.4.47.83-.73-.41-.44-.01-1.11-.3.16.12.34.19.15.27.04.04.09.11.11.14,0,0-.01,0-.02,0,0,0,.02,0,.02,0,.02.03.02.03,0,0,.1.02.2.06.3.13.3.37.1.58.23.81-.14.02-.15-.18-.35-.28l.18.34c-.35-.28-.76-.26-.8-.62l-.16.16c-.28-.06-.47.02-.4.23-.14.02.21.53,0,.23l-.02.45-.09-.07c-.27.23.11,1.03-.77.83.01.16.04.35-.19.42l-.32-.22c0,.2-.59.1-.32.41-.91-.54-.65.42-.96.51l.38.33c-.14.12-.14.35-.13.66l.35.28c.16.39-.57.19-.74.46-.12-.13-.03-.16.08-.14-1.02-.36.06,1.08-.72.86.07.17-.01.18-.14.15,0,0,0-.02,0-.03,0,0-.02.01-.03.02-.08-.02-.18-.05-.26-.06.11.04.2.07.25.08-.03.06-.05.17-.03.31l-.4-.28s0,.01,0,.03c-.2-.04.13.2.44.4.03.09.07.18.14.28-.65-.44.04.36-.67-.09.27.31-.08.57.54,1.15-.09-.07-.15-.08-.12-.12-.14.02-.29.04-.16.27l-.5-.36.48.71c-.38-.13-.58-.22-.85-.63.34.73.03.39.4,1.07l-.29-.26c-.06.09.25.56-.05.4-.73-.3-.82.82-1.74.83.97.66-.58-.12.1.48-.23-.15-.41-.19-.53-.41.01.41-.63.07-.18.72-.24-.15-.27-.31-.41-.39.03.06.12.23-.02.15-.15-.08-.15-.18-.21-.3-.16.27.47.84,1.07,1.37-.39-.12-.4-.03-.07.4-.24-.12-.5-.23-.45-.44-.1.06-.72.27-.24.69-.15-.08-.13.09-.1.16-.19.16-.24.14-.35.37l.12.02c.53.57,0,.26-.05.47l-.06-.05c-.71-.01.08.32-.69.25l.38.29c.77.69-.72-.09-.58.36l.27.1c.18.33-1.33-.6-1.51-.57-.09-.03-.08-.13-.1-.2-.7-.11.45.44.39.74-.29-.18-.62-.6-.79-.5-.27-.11.5,1.11-.15.89.24.12.47.25.54.47-.05.21-1.09-.23-.57.43-.07-.03-.13-.06-.18-.1.07.25-.04.6.25.95-1.36-.96.03,1.22-1.14.24l-.23.4-.11-.11c-.26.16-.05.47.17.79-.12-.01-.2-.14-.26-.2-.51.13-.49.2-.13.97l-.4-.29c.16.26-.99-.02-.81.67-.04-.04-.11-.11-.14-.18.15.73-1.78-.02-.5,1.27l.14.52c.36-.22.56.55.9.61-.02.19-.68-.04-.63-.24l.09.03c-.68-.66-.58.17-1.06-.25-.47.64-1.36.89-1.87,1.44l.62.4-.2.17c-.17-.06-.5-.3-.36-.42-.38-.19.07.46.19.57-.46.09-.57-.65-.65-.58l-.05.15.09.03c.15.28.39.5.22.64-.2.01-.39-.23-.45-.21-.04-.03-.07-.03-.07.05l-.26.21.53.27c.13.29-.22.22.38.52-.92-.48-1.05.7-1.38.6.19.42.06.57-.14.73.13.03.65.42.46.53-.98-.92-.7-.07-1.55-.56.59.29-.27.57.59.96-.2.07-.39-.31-.72-.41.13.66-.86.5-1.05,1.01.13.12.39.22.52.48l-.85-.35c0,.13.72.72.13.48.13.07.33.19.33.28-1.31.24-.8,2.06-2.7,1.82.35.11.32.2.26.29.11,0,.33.28.52.42l-.79-.09c.46.48-.26.39.19.83v-.18c.46.62,1.44.87,2.16,1.5-.52-.7,1.31.39.59-.65.2.07.2.25.39.36-.26-.33-.26-.46,0-.49l.06.08c.27-.48.72-.39,1.32-.68l-.39-.27c.13-.06.26.02.39.04-.46-.57-.26.25-.79-.36.85.49.6-.69,1.51-.08.13-.15-.46-.31-.33-.46l.26.15-.26-.28c.13-.06.46.13.65.28-.04,0,0,.11,0,.15.38.09.21-.44.34-.41l-.26.03c.14-.6.86-.86.73-1.65l-.2-.11c-.06-.57.39-.09.53-.55l.03.05c-.11-.21-.13-.37-.03-.45.13.25.52.17.65.46-.06-.62-.13-.39-.58-1.14l.33.19c-.19-.29-.33-.41-.26-.64.13.34.52.25.72.68.92.16-.19-1.05.86-.45-.65-.82-.69-.06-.79-.29-.32-.14-.48-.63-.31-.67.11-.1,1.17.65,1.39.35-.03.03.03.08,0,.1.29.06-.1-.44.34-.29-.42-.47.17-.15-.42-.67l-.08.38c-.04-.28-.63-1.01-.08-.97.11.12.21.33.26.45.24.08,0-.24.24-.16.59.53-.13.43.2.97.32.14-.19-.67.4-.04-.74-.81.34-.19-.14-.92l.35.32c-.03-.08-.15-.29-.1-.33l.39.5c-.27-.49.6,0,.51-.34-.25.32-.5-.3-.87-.38-.17-.79,1.14.57,1.32,0,0,.1-.4.04-.49-.19.14-.02.37-.01.61.1.16-.35-.41-.27-.53-.58.53.27-.06-.29-.1-.54l.37.31c.51-.13-.7-.73-.17-.79l.41.55v-.26s.39.38.39.38c-.17-.43-.05-.41.21-.48-.29-.18-.65-.58-.55-.74.3.08.31.35.42.1.19.24.44.53.03.34.11.11.19.24.31.35.34.1.28-.22.34-.3-.04.02-.09.03-.15,0l-.27-.73c.18.07.26.2.34.33.01-.09-.13-.28-.08-.39.28.27.6.53.63.77l-.1-.56c.15.09.48.15.56.28.31,0-.26-.87.14-.89-.05-.06-.09-.13-.09-.21.23-.14.75,0,.53-.58l.65.32c.03-.28-.83-.39-.78-.86,0-.36.53.3.74.35-.18-.33-.58-.98.02-.81.05.15-.08.13-.09.23Zm1.63-2.44c.04.11.21.39-.04.24-.38-.4-.15-.27.04-.24Zm1.95-4.15c.1.13,0,.13-.19.07,0-.07.06-.1.19-.07Zm5.33-11.65s0,.01.01.02c-.23-.02-.14-.01-.01-.02Zm.33-.07c-.03-.06-.09-.1-.15-.14.08.09.05.14-.02.17.11.07.2.1.16-.03Zm-17.87,21.74l.13.04c.03.18-.04.07-.13-.04Z"/>
    <path class="cls-1" d="m199.38,71.5c-.07-.04-.14-.09-.22-.15.05.07.12.13.22.15Z"/>
    <path class="cls-1" d="m194.65,78.85s0,0,0,0c.02.02.04.04.06.06l-.05-.07Z"/>
    <path class="cls-1" d="m205.4,64.72c-.09,0-.18-.04-.26-.08.09.08.18.12.26.08Z"/>
    <path class="cls-1" d="m205.12,57.39v.21c.02-.08.12-.03.21-.01-.09-.07-.23-.15-.21-.19Z"/>
    <path class="cls-1" d="m208.34,58.18c-.03-.06.03-.04,0-.1l-.18-.14c-.06.09.04.26.18.24Z"/>
    <path class="cls-1" d="m206.45,58.3c.32.25.28.08.3-.06,0,0,0,.01-.01.02-.41-.39-.35-.17-.29.04Z"/>
    <path class="cls-1" d="m206.75,58.21s.02-.08.06-.09c-.17-.16-.06,0-.06.09Z"/>
    <path class="cls-1" d="m204.86,58.55c.12.02-.38-.36-.23-.28-.36-.38.24.69.23.28Z"/>
    <polygon class="cls-1" points="207.54 59.08 207.12 58.79 207.39 59.1 207.54 59.08"/>
    <path class="cls-1" d="m206.66,59.56l.23-.06c-.07-.05-.09-.1-.1-.15-.09.08-.24.11-.13.2Z"/>
    <path class="cls-1" d="m206.79,59.35s.07-.09.03-.17c-.02.03-.05.09-.03.17Z"/>
    <polygon class="cls-1" points="207.49 59.37 207.37 59.35 207.26 59.43 207.49 59.37"/>
    <path class="cls-1" d="m205.29,61.05l-.02.25c.12.13.24.15.23.05-.06-.11-.06-.22-.21-.3Z"/>
    <path class="cls-1" d="m206.74,61.45c-.12-.02-.2-.09-.35-.17l.47.4-.12-.23Z"/>
    <path class="cls-1" d="m206.47,62c.12.13.19.55.33.32-.12-.13-.1-.37-.33-.32Z"/>
    <polygon class="cls-1" points="203.89 63.87 203.92 63.83 203.13 63.18 203.89 63.87"/>
    <path class="cls-1" d="m204.02,67.52c.34-.03-.45-.45-.07-.42-.15-.2-.31-.02-.43-.2.1.28-.06.24.5.62Z"/>
    <path class="cls-1" d="m203.52,66.9s-.04-.09-.07-.16c.02.07.05.12.07.16Z"/>
    <polygon class="cls-1" points="180.49 87.71 180.22 87.7 180.55 87.84 180.49 87.71"/>
    <path class="cls-1" d="m180.87,88.43l-.52-.39.39.45s0-.13.13-.06Z"/>
    <path class="cls-1" d="m198.53,75.35l-.11-.11c-.15-.09-.18-.07-.25-.03l.36.14Z"/>
    <polygon class="cls-1" points="196.8 76.67 196.83 76.65 196.34 76.32 196.8 76.67"/>
    <path class="cls-1" d="m196.24,78.51c.07-.04.02-.19.09-.23-.02.19-.66-.22-.09.23Z"/>
  </g>
  <g>
    <path class="cls-1" d="m225.97,101.27c-.03.08.39,0,.46,0-.11-.11-.57.02-.46,0Z"/>
    <polygon class="cls-1" points="224.86 100.15 225.04 100.15 224.6 100.02 224.86 100.15"/>
    <path class="cls-1" d="m224.72,98.99c-.69.2.17.41-.06.65l-.16.06.58.02c-.12-.24-.54-.52-.37-.72Z"/>
    <path class="cls-1" d="m226.17,98.17c-.27.07-.25-.1-.07.16.03-.02.05-.02.07-.04,0-.02-.01-.06,0-.12Z"/>
    <path class="cls-1" d="m226.17,98.29c.04.12.22-.11,0,0h0Z"/>
    <path class="cls-1" d="m225.94,97.75l.27.13c.16-.05.18-.2.3-.17-.16-.15-.31-.09-.57.04Z"/>
    <path class="cls-1" d="m225.4,97.66l.11.07c.07-.02.09-.05-.11-.07Z"/>
    <path class="cls-1" d="m225.76,97.88l-.24-.15c-.11.04-.34.07.09.07-.21.01,0,.02.15.08Z"/>
    <path class="cls-1" d="m225.66,97.99c-.14.11-.22.24-.49.11.14.3.63.19.49-.11Z"/>
    <path class="cls-1" d="m223.98,99.03l-.19.15.25.07c-.12-.04.16-.26-.06-.22Z"/>
    <path class="cls-1" d="m226.17,96.7c-.15,0-.39.11-.59.14l.19.1c.1-.07.17-.2.4-.24Z"/>
    <path class="cls-1" d="m225.59,96.84l-.28-.14c0,.16.12.18.28.14Z"/>
    <polygon class="cls-1" points="224.61 97.74 225.19 97.96 224.6 97.68 224.61 97.74"/>
    <polygon class="cls-1" points="226.1 96.01 226.46 96.07 225.91 95.96 226.1 96.01"/>
    <path class="cls-1" d="m225.98,95.57c.3.04.48-.17.66-.11-.07-.12-.33-.19-.56-.25.14.08.12.19-.1.36Z"/>
    <path class="cls-1" d="m225.74,95.09c.08.04.21.08.35.12-.07-.04-.18-.08-.35-.12Z"/>
    <path class="cls-1" d="m225.34,96.38c.09-.03.32-.08.41-.2l-.41.13s0,.05,0,.07Z"/>
    <path class="cls-1" d="m225.32,96.32h.01c0-.08,0-.14,0-.16,0,.02,0,.07-.02.16Z"/>
    <path class="cls-1" d="m225.34,96.4s0-.01,0-.02c-.04.01-.05.02,0,.02Z"/>
    <path class="cls-1" d="m224.93,97.22c-.25-.07-.53-.26-.87,0,.3.04.49-.11.87,0Z"/>
    <path class="cls-1" d="m224.82,96.56l-.07.2c.11-.02.27-.07.39-.04l-.32-.16Z"/>
    <polygon class="cls-1" points="224.68 96.48 224.82 96.56 224.85 96.48 224.68 96.48"/>
    <path class="cls-1" d="m225.38,95.47c-.2-.06-.22-.14-.26-.24-.07.12-.1.24-.08.34.14,0,.38.01.35-.1Z"/>
    <path class="cls-1" d="m225.32,95.88s-.02-.01-.03-.02c-.03.02-.04.03.03.02Z"/>
    <path class="cls-1" d="m224.99,94.23s-.05.02-.07.03c.02,0,.05,0,.07,0v-.02Z"/>
    <path class="cls-1" d="m224.95,95.6c-.07.09.04.13.18.16-.05-.06-.09-.12-.1-.18-.06,0-.1,0-.08.03Z"/>
    <path class="cls-1" d="m225.5,94.84c-.08.05-.15.11-.21.17.13-.06.33-.17.21-.17Z"/>
    <path class="cls-1" d="m225.4,95.83s.02,0,.02,0c.09-.04.04-.03-.02,0Z"/>
    <path class="cls-1" d="m225.4,95.83c-.07-.03-.18-.05-.27-.07.04.05.09.09.16.12.03-.01.07-.03.11-.04Z"/>
    <path class="cls-1" d="m222.23,94.28c.39-.04.79.13.39.37.32.14,1.59-.14,2.3-.4-.17.02-.33.04-.59-.12-.21.09-.45.48-.82.37-.23-.22.11-.22.3-.37-.48.17-.75-.22-1.47-.07l.28.18c-.11.02-.3-.04-.39.04Z"/>
    <path class="cls-1" d="m224.92,94.62l.06.07c.06-.1.21-.18.5-.34-.21-.1-.36-.11-.49-.1v.39s-.07-.02-.07-.02Z"/>
    <path class="cls-1" d="m225.03,95.03c-.44,0-.64-.17-1.09,0,.06.22.38.11.58.22-.15-.35.25.07.46-.22.08.06.11.12.14.18.04-.07.1-.14.17-.21,0,0-.02,0-.03.01h0s0,0,0,0c-.05.02-.08.03-.05.01,0,0,0,0,0,0-.06,0-.11,0-.16,0,.07-.12.11-.03.16,0,.02,0,.04,0,.06,0,0,0,0,0,0,0l-.28-.33c-.05.08-.02.18.05.35Z"/>
    <path class="cls-1" d="m223.12,97.14s.07-.02.1-.02c-.06-.02-.09-.02-.1.02Z"/>
    <path class="cls-1" d="m223.36,96.96c.06.02.24.02.2.11-.12.09-.2.03-.34.05.12.04.33.14.52-.05l-.06-.02c.13-.17.64-.42.7-.41-.38.09-.65.17-1.01.31Z"/>
    <path class="cls-1" d="m224.08,96l-.25-.28-.35.2.22-.04c-.06.18.2.11.38.11Z"/>
    <polygon class="cls-1" points="225.2 94.17 225.65 94.15 224.99 94.06 225.2 94.17"/>
    <polygon class="cls-1" points="225.09 93.78 225.49 93.74 225.24 93.67 225.09 93.78"/>
    <path class="cls-1" d="m217.31,72.13l-.12-.07s.08.06.12.07Z"/>
    <path class="cls-1" d="m217.36,72.78h.2c-.11-.03-.19-.03-.2,0Z"/>
    <path class="cls-1" d="m223.78,84.09c.35-.18.9-.4.46-.32l-.42.1c.09.08.05.16-.03.23Z"/>
    <path class="cls-1" d="m220.34,77.78s-.08.04-.13.06c.15.01.29.02.42.03-.09-.03-.19-.06-.3-.09Z"/>
    <path class="cls-1" d="m218.55,77.92l.26-.21c-.09.05-.18.12-.26.21Z"/>
    <path class="cls-1" d="m216.39,68.66l-.45-.05c.02.16.24.06.45.05Z"/>
    <path class="cls-1" d="m224.4,89.75c.15-.13.21-.23.22-.31-.23.17-.59.33-.22.31Z"/>
    <path class="cls-1" d="m221.91,71.79c-.08-.04-.18-.06-.27-.04.08.05.17.07.27.04Z"/>
    <path class="cls-1" d="m224.58,89.12s-.06.05-.09.07c.08.07.15.15.14.25.17-.12.27-.25-.04-.32Z"/>
    <path class="cls-1" d="m215.07,55.81s.03-.02.05-.04c-.06,0-.06.02-.05.04Z"/>
    <path class="cls-1" d="m218.92,51.51s.04.09.05.15c.03-.03.02-.08-.05-.15Z"/>
    <path class="cls-1" d="m225.07,92.17c.04.08.05,0,0,0h0Z"/>
    <path class="cls-1" d="m223.42,92.8c-.05-.01-.11-.02-.21,0,.1,0,.17,0,.21,0Z"/>
    <path class="cls-1" d="m221.8,88.63s0,0,0,0c-.08.04-.07.03,0,0Z"/>
    <path class="cls-1" d="m224.89,92.32s.09-.08.11-.12c-.03.02-.07.06-.11.12Z"/>
    <path class="cls-1" d="m225.09,92.27s-.02.06-.03.08c.07,0,.12-.01.03-.08Z"/>
    <path class="cls-1" d="m225.03,92.05s0,.09-.03.14c.03-.02.05-.03.07-.03-.01-.02-.02-.06-.04-.11Z"/>
    <path class="cls-1" d="m217.12,62.52s.02-.01.04-.02c-.19-.06-.16-.03-.04.02Z"/>
    <path class="cls-1" d="m219.03,82.49s.02,0,.02,0c0,0,0-.01.01-.01h-.04Z"/>
    <path class="cls-1" d="m218.67,82.23c.55.06.5.14.4.25l1.23-.26h-1.62Z"/>
    <path class="cls-1" d="m216.98,70.6l-.36.26c-.67-.17-.47-.38-.99-.12,1.35-.15.25.8,1.59.66l-.27.18s-.07-.04-.06-.08c-.61.36,1,.07.85.45-.09.14-.27.25-.44.18l.37.23c-.02.08-.25.09-.24.01l.16.4h-.04c.22.03.56.12.71.17-.18.13-.15-.03-.31.01l.36.19c-.34.14-.7,0-.67-.17-1.32.39.36.15-.36.71l-.2-.19c-.75.24-.45.37-.89.68.24-.09,1.14-.65,1.5-.44-.09.08-.13.18.16.28-.48.06-.34.18-.3.34l-.64.07c.21.15.53.1.83.16-.04.21-.52.31-.93.41-.06.33.76-.32.93.04-.21.29.07.45.5.71-.19.21-.39.02-.56.11l.53.1s-.16.05-.24.05c.21.11.64-.07.84.12.71-.03-.96.58-.13.74-.17.09-.39.02-.64.07.57.3.42.26,1.16.47l-.38.31c.45-.25,1.05-.08,1.54.07.22-.1.42-.18.51-.23l.38.29c-.1.05-.32.05-.59.03.06.02.11.03.16.04-.22.15-.59.14-.96.1.12-.06.25-.12.38-.17-.4-.03-.83-.05-1.2.01.08.01.14.05.19.09-.11,0-.2,0-.26,0-.07.02.08.04.25.07l-.7.17.28-.02-.38.5c.75.22,1.84.36,2.19.82-.53-.06-.85.08-1.47.16.63-.22-.33-.35-.23-.63-.05.14-.35.15-.45.13l.65.38c-.5.06-.36.15-.56.3.98-.22.71.26,1.04.41-.33.06-.68.05-.63-.19-.71.35,1.21.17.61.51-.02-.05.03-.09-.14-.09.31.09.12.44-.18.41v-.06c-.08.39.13,1.13.98,1.08-.11.02-1.02.08-1.2.08l2.92.29c-.73.04-2.43.49-2.88.23-.09.1-.2.23.08.38.1-.07,1.03-.29,1.1-.21-.78.33-.41.21-1.06.58.14-.11,1.29-.16,1.27-.01-.17,0-1.12.16-1.24.12l1.16.21c-.21-.06-.95.11-1.25.23.21-.07.02.31.14.39l.24-.18c-.12.42,1.62.19,1.61.6-.24-.02-1.43.07-1.55.29.58.02,2.8.05,3.29.35l-.32.11.41.22c-.88-.06-2.75-.29-3.49-.46-.24.18-.38.09-.32.31-.3.12-.48-.06-.51-.13l-.13.55c.66-.11.72.31,1.27.22l-.77-.48c.66-.11,1.94.08,1.87.47-.25.13-1.2.08-1.42.12.24.02.48.3.33.35l-.38-.11c-.22.24.93.22.32.55-.03.09-.82.37-.43.33.74-.24,3.09-.57,3.68-.56-.05.04-.67.55-1.03.69-.58.22-1.45-.03-1.95.16.18-.02.42.03.49.05-.14.11-.57.04-.46.22.68-.06,0,.41.58.02.22.17-.11.22-.05.44.43-.13,1.51,0,1.73.17-.17.01-.39.08-.49.12,0,.4-.29.65-.25,1.02-.16.06-.33.26-.64.22.13.04.36.06.39.17-.56.3-.12-.24-.8.02.39-.04.58.22.85.35.6-.13.07-.39-.2-.52.84-.11,1.75.06,2.19.39.25.28-.52.2-.4.24-.07.59,1.52.3.98.85-.51.26-1.06.15-1.44.24-.23-.22.29-.42.25-.59l-.23.24c-.19-.06-.34-.2-.2-.31-.46.22.03.98-.35,1.48.19.05.39.17.6.07l-.09-.13c.41-.18.63.18.81-.02.33.15.83.3.62.59l-.6.13c.18-.03.34-.22.14-.27.28.07-.77.51.04.53l.4-.24c.33.15,1.01.3.84.55.59-.18-.08-.04.61-.3-.86.26-.04-.6-.93-.25.79-.28.31-.34.97-.65-.2.03-.37.13-.3-.08-.06,0-.14-.01-.18-.02,0,0,0,0,.01-.02,0,0-.02,0-.02.01-.03,0-.04,0,0,0-.08.06-.18.11-.29.14-.47-.04-.5-.35-.75-.42.08-.13.24.02.44-.07l-.38-.11c.44-.07.7-.41,1-.17v-.25c.22-.18.29-.39.09-.49.08-.13-.53-.23-.17-.17l-.33-.35.11-.02c0-.39-.84-.69-.09-1.23-.13-.11-.28-.23-.19-.46l.38-.09c-.16-.15.32-.55-.09-.56,1.01-.31.12-.83.27-1.14l-.5.05c0-.2-.17-.38-.4-.6l-.44.07c-.39-.17.24-.59.15-.92.17,0,.14.09.04.17.95-.54-.84-.76-.16-1.22-.17-.07-.13-.14-.02-.22,0,0,.01.01.03.02,0-.01,0-.02,0-.04.07-.05.15-.1.22-.16-.1.05-.19.1-.22.14-.02-.07-.09-.17-.21-.26l.47-.11s0-.01-.02-.02c.16-.13-.24-.05-.59.05-.09-.04-.19-.08-.31-.1.76-.18-.3-.24.51-.46-.41-.02-.37-.49-1.22-.43.11-.02.16-.06.17,0,.08-.13.16-.26-.09-.33l.6-.13-.85-.15c.35-.2.56-.3,1.04-.2-.77-.28-.31-.27-1.06-.49l.39-.04c-.03-.11-.58-.22-.26-.33.71-.35-.06-1.26.55-2-1.14.28.48-.37-.42-.28.27-.07.41-.18.66-.11-.31-.3.37-.55-.42-.68.27-.07.41.02.57-.04-.06-.02-.25-.07-.09-.13.16-.05.24.02.36.06-.09-.33-.94-.26-1.73-.18.35-.22.29-.3-.25-.35.25-.09.51-.23.63-.03.02-.12.28-.77-.35-.7.16-.06.03-.17-.05-.19,0-.27.06-.3-.04-.55l-.09.09c-.78,0-.2-.19-.32-.39h.08c.49-.56-.29-.18.28-.73l-.47.09c-1.03.09.55-.5.12-.72l-.26.13c-.37-.1,1.34-.6,1.44-.77.08-.04.15.03.22.07.55-.47-.63.03-.81-.25.33-.1.86-.04.9-.25.26-.13-1.17-.43-.56-.79-.25.09-.5.19-.71.08-.12-.2.9-.7.06-.78.07-.04.13-.05.2-.06-.23-.13-.42-.48-.87-.51,1.62-.36-.93-.89.59-1.09l-.15-.48h.16c.06-.34-.32-.4-.7-.46.09-.09.24-.05.32-.06.25-.5.18-.54-.63-.83l.49-.1c-.3-.07.68-.77.05-1.14.06,0,.15,0,.23.02-.64-.43,1.2-1.39-.61-1.35l-.48-.28c-.08.45-.79.04-1.06.25-.13-.16.48-.51.6-.31l-.09.04c.94-.05.26-.58.9-.65-.16-.85.25-1.75.19-2.55l-.71.19v-.28c.16-.1.56-.17.56.03.4-.16-.39-.29-.55-.27.24-.43.87.04.87-.08l-.08-.16-.08.05c-.31-.09-.63-.06-.62-.31.13-.17.44-.14.46-.2.05,0,.07-.03,0-.09l.02-.36-.55.22c-.3-.12-.01-.33-.64-.09.97-.37.19-1.36.48-1.54-.45-.16-.47-.38-.45-.65-.11.08-.75.21-.7-.03,1.34-.09.52-.5,1.45-.81-.61.25-.24-.63-1.11-.26.08-.21.5-.08.79-.26-.57-.39.2-1.05-.04-1.59-.18.01-.43.14-.71.06l.83-.41c-.1-.1-1.02.03-.44-.25-.14.05-.36.12-.42.05.71-1.22-.99-2.17.46-3.5-.32.2-.36.1-.39-.02-.07.09-.43.05-.67.1l.59-.56c-.67,0-.11-.5-.74-.47l.13.13c-.77-.1-1.61.49-2.56.59.87.11-1.17.75.08.95-.18.11-.31-.03-.53.04.42.04.52.14.36.37h-.1c.18.56-.19.86-.38,1.54l.46-.11c-.04.15-.19.2-.3.28.73.07-.01-.4.79-.35-.93.31.11.99-.95,1.26.02.22.54-.13.56.08l-.29.1h.39c-.04.15-.4.27-.65.31.02-.04-.08-.09-.11-.12-.32.23.19.5.08.58l.15-.23c.35.55.06,1.32.73,1.81l.22-.07c.47.38-.2.38.05.83h-.06c.23.06.36.17.35.3-.28-.09-.47.29-.78.17.5.41.38.19,1.24.39l-.36.12c.35.06.52.05.65.27-.34-.15-.54.23-.99.06-.74.6.91.63-.24,1.02,1.05.1.51-.51.74-.41.32-.15.79.09.7.26,0,.16-1.27.44-1.19.84,0-.04-.08-.03-.08-.07-.24.18.39.25,0,.49.63.02,0,.24.78.17l-.23-.34c.23.18,1.18.26.78.66-.16,0-.38-.08-.51-.14-.22.13.18.17-.05.31-.79.07-.23-.42-.86-.57-.32.15.62.35-.24.35,1.1.02-.08.41.78.58l-.47.04c.08.03.31.09.31.17l-.63-.06c.55.15-.4.48-.09.66-.07-.44.55-.17.87-.4.7.46-1.19.47-.88,1.05-.08-.07.24-.35.48-.25-.08.13-.24.31-.48.41.15.39.48-.13.79,0-.56.21.26.17.47.32l-.48.06c-.25.5,1.01,0,.7.45l-.69-.09.2.19-.55.03c.43.18.34.27.22.52.33-.1.87-.08.91.12-.27.18-.46-.02-.36.26-.31-.03-.69-.05-.27-.23-.16,0-.31-.03-.46-.02-.31.19-.03.39,0,.49.01-.04.03-.09.1-.13l.72.33c-.17.09-.32.06-.47.02.06.08.29.11.35.23-.39.02-.79.08-1-.07l.48.34c-.17.05-.44.27-.59.23-.2.25.83.44.56.78.08,0,.15.03.22.08-.05.29-.5.59.08.85l-.67.28c.19.24.85-.37,1.16.03.26.27-.58.19-.76.32.37.1,1.12.27.59.62-.14-.07-.05-.16-.11-.24Zm.72,3.12c-.11-.05-.43-.13-.16-.21.56,0,.3.09.16.21Zm1.78,4.65c-.16-.02-.09-.11.08-.21.05.05.04.12-.08.21Zm5.08,12.93s-.01,0-.02,0c.17-.16.1-.1.02,0Zm-.17.31c.07.02.14,0,.2-.01-.12,0-.14-.07-.12-.14-.12.04-.2.08-.09.16Zm-4.17-30.41l-.12.07c-.15-.11-.02-.09.12-.07Z"/>
    <path class="cls-1" d="m218.76,77.91c.08-.03.17-.04.26-.06-.08-.01-.18,0-.26.06Z"/>
    <path class="cls-1" d="m216.47,68.67s0,0,0-.01c-.03,0-.06,0-.09,0h.08Z"/>
    <path class="cls-1" d="m219.76,87.75c.06-.07.14-.11.23-.14-.12.01-.21.05-.23.14Z"/>
    <path class="cls-1" d="m225.4,93l-.15-.17c.04.08-.07.13-.14.18.11-.02.27-.07.28-.02Z"/>
    <path class="cls-1" d="m222.65,94.97c.06.02.01.06.08.07l.22-.04c-.03-.11-.22-.17-.3-.04Z"/>
    <path class="cls-1" d="m223.83,93.38c-.4.07-.25.16-.16.28,0,0,0-.01,0-.02.57-.04.36-.15.16-.26Z"/>
    <path class="cls-1" d="m223.69,93.69s.04.08.03.12c.23-.01.04-.05-.03-.12Z"/>
    <path class="cls-1" d="m224.7,91.93c-.1.07.52-.03.36.03.52,0-.67-.32-.36-.03Z"/>
    <polygon class="cls-1" points="222.52 93.66 223.01 93.55 222.6 93.53 222.52 93.66"/>
    <path class="cls-1" d="m222.75,92.6l-.11.22c.08-.01.14,0,.18.03,0-.13.08-.28-.07-.25Z"/>
    <path class="cls-1" d="m222.82,92.86c0,.07.02.13.1.15-.01-.03-.04-.11-.1-.15Z"/>
    <polygon class="cls-1" points="222.34 93.4 222.43 93.32 222.45 93.18 222.34 93.4"/>
    <path class="cls-1" d="m222.56,90.41l-.17-.2c-.17,0-.27.07-.19.15.13.04.2.11.36.06Z"/>
    <path class="cls-1" d="m221.29,91.26c.1-.07.21-.09.36-.15l-.62.07.25.07Z"/>
    <path class="cls-1" d="m221.06,90.63c-.17,0-.53-.26-.46.02.17,0,.34.2.46-.02Z"/>
    <polygon class="cls-1" points="221.4 87.19 221.42 87.24 222.43 87.1 221.4 87.19"/>
    <path class="cls-1" d="m218.6,84.56c-.21.29.63-.02.36.26.25.03.22-.23.44-.19-.27-.13-.14-.23-.8-.07Z"/>
    <path class="cls-1" d="m219.4,84.62s.09.04.16.06c-.07-.04-.12-.05-.16-.06Z"/>
    <polygon class="cls-1" points="219.38 50.82 219.57 50.62 219.25 50.77 219.38 50.82"/>
    <path class="cls-1" d="m218.59,50.59l.64-.12-.6-.03s.1.1-.04.15Z"/>
    <path class="cls-1" d="m216.47,74.35h.16c.16-.06.17-.1.19-.18l-.34.18Z"/>
    <polygon class="cls-1" points="216.65 72 216.64 72.04 217.21 71.89 216.65 72"/>
    <path class="cls-1" d="m215.66,70.17c-.01.08.13.16.11.24-.13-.16.61-.36-.11-.24Z"/>
  </g>
  <g>
    <path class="cls-1" d="m219.17,68.12s.2-.33.24-.39c-.07.07-.29.48-.24.39Z"/>
    <polygon class="cls-1" points="218.47 68.81 218.56 68.67 218.32 69.01 218.47 68.81"/>
    <path class="cls-1" d="m218.26,68.68c-.34.63.13-.06.05.19l-.07.14.3-.49c-.09.05-.34.35-.27.16Z"/>
    <path class="cls-1" d="m218.92,67.28c-.13.24-.14.19-.02.09.01-.03.02-.04.03-.06,0,0-.01,0-.01-.03Z"/>
    <path class="cls-1" d="m218.93,67.31s.1-.21,0,0h0Z"/>
    <path class="cls-1" d="m218.75,67.38l.15-.2c.08-.15.07-.19.14-.29-.1.1-.17.24-.29.49Z"/>
    <path class="cls-1" d="m218.46,67.82l.07-.08c.03-.06.04-.08-.07.08Z"/>
    <path class="cls-1" d="m218.67,67.56l-.14.17c-.05.1-.17.3.05-.06-.11.18,0,0,.09-.11Z"/>
    <path class="cls-1" d="m218.64,67.67c-.06.14-.09.24-.24.44.11-.05.35-.49.24-.44Z"/>
    <path class="cls-1" d="m217.88,69.32l-.08.19.14-.2c-.07.1.05-.19-.06,0Z"/>
    <path class="cls-1" d="m218.75,66.96c-.08.13-.19.36-.29.53l.11-.14c.04-.1.07-.19.18-.39Z"/>
    <path class="cls-1" d="m218.46,67.48l-.16.21s.08-.06.16-.21Z"/>
    <polygon class="cls-1" points="218.06 68.5 218.39 68.06 218.05 68.5 218.06 68.5"/>
    <polygon class="cls-1" points="218.63 66.87 218.83 66.58 218.53 67.02 218.63 66.87"/>
    <path class="cls-1" d="m218.52,66.88c.16-.24.23-.44.33-.58-.05.03-.19.24-.32.42.08-.1.08-.06,0,.16Z"/>
    <path class="cls-1" d="m218.34,66.98c.04-.06.12-.16.19-.27-.04.05-.1.13-.19.27Z"/>
    <path class="cls-1" d="m218.28,67.59c.04-.08.16-.29.19-.39l-.2.38s0,0,0,.01Z"/>
    <path class="cls-1" d="m218.27,67.59h0s-.01-.04-.02-.05c0,0,0,.02,0,.05Z"/>
    <path class="cls-1" d="m218.28,67.6s0,0,0,0c-.02.04-.03.05,0,0Z"/>
    <path class="cls-1" d="m218.17,68.12c-.14.2-.31.39-.45.73.16-.25.24-.44.45-.73Z"/>
    <path class="cls-1" d="m218.03,68.07v.1c.04-.1.12-.24.19-.34l-.19.24Z"/>
    <polygon class="cls-1" points="217.95 68.18 218.03 68.07 218.04 68.03 217.95 68.18"/>
    <path class="cls-1" d="m218.2,67.36c-.11.15-.13.16-.17.17-.02.08-.02.14,0,.15.07-.11.2-.32.17-.32Z"/>
    <path class="cls-1" d="m218.21,67.51s0,.01-.02.02c-.02.03-.02.04.02-.02Z"/>
    <path class="cls-1" d="m217.85,67.42s-.02.05-.04.07c.01-.02.02-.04.04-.06h0Z"/>
    <path class="cls-1" d="m217.99,67.75c-.03.08.03,0,.11-.11-.03.03-.06.05-.07.04-.03.05-.05.09-.04.07Z"/>
    <path class="cls-1" d="m218.19,67.12c-.04.08-.07.15-.09.22.06-.12.15-.31.09-.22Z"/>
    <path class="cls-1" d="m218.25,67.42s0-.01.01-.02c.04-.08.02-.04-.01.02Z"/>
    <path class="cls-1" d="m218.25,67.42s-.1.14-.15.21c.03-.02.06-.06.1-.11.01-.03.03-.07.05-.11Z"/>
    <path class="cls-1" d="m216.43,69.77c.2-.34.42-.64.24-.25.18-.24.81-1.38,1.14-2.03-.09.15-.17.29-.32.47-.1.19-.18.48-.38.78-.15.15.03-.14.11-.34-.23.44-.42.59-.77,1.22l.17-.2c-.06.1-.16.25-.2.34Z"/>
    <path class="cls-1" d="m217.86,67.57l.04-.03c.02-.07.09-.21.22-.49-.12.15-.2.28-.27.39l.04.09-.03.05Z"/>
    <path class="cls-1" d="m217.96,67.57c-.23.37-.35.51-.56.92.06,0,.21-.3.33-.44-.12.05.14-.2.21-.44.05-.06.07-.07.09-.08.01-.05.03-.12.06-.19,0,0,0,.02-.01.02h0s0,0,0,0c-.02.05-.04.08-.03.05,0,0,0,0,0,0-.03.05-.06.1-.08.14.03-.09.05-.1.08-.14.01-.02.02-.04.03-.05,0,0,0,0,0,0l-.18.17c-.02.06,0,.06.06.03Z"/>
    <path class="cls-1" d="m217.22,69.63s.03-.06.05-.09c-.03.04-.05.07-.05.09Z"/>
    <path class="cls-1" d="m217.32,69.39s.12-.2.12-.15c-.05.12-.1.18-.17.3.07-.09.19-.25.26-.45l-.03.05c.05-.14.28-.63.31-.68-.19.34-.32.58-.49.92Z"/>
    <path class="cls-1" d="m217.59,68.57l-.16.15-.16.34.11-.2c-.01.09.12-.15.21-.3Z"/>
    <polygon class="cls-1" points="217.95 67.24 218.19 66.85 217.83 67.38 217.95 67.24"/>
    <polygon class="cls-1" points="217.85 67.24 218.05 66.9 217.91 67.1 217.85 67.24"/>
    <path class="cls-1" d="m211.31,69.14l-.07.09s.05-.06.07-.09Z"/>
    <path class="cls-1" d="m211.41,69.23l.1-.17c-.06.09-.1.16-.1.17Z"/>
    <path class="cls-1" d="m216.05,66.25c.16-.33.42-.85.2-.46l-.21.38c.06-.06.04,0,0,.08Z"/>
    <path class="cls-1" d="m213.53,67.79s-.04.08-.06.12c.08-.13.15-.24.22-.35-.05.07-.11.15-.16.23Z"/>
    <path class="cls-1" d="m212.62,69.34l.11-.26c-.04.09-.08.18-.11.26Z"/>
    <path class="cls-1" d="m210.43,69.16l-.24.37s.13-.19.24-.37Z"/>
    <path class="cls-1" d="m217.03,66.95c.06-.16.08-.23.08-.26-.1.23-.27.57-.08.26Z"/>
    <path class="cls-1" d="m213.65,65.18c-.05.06-.1.14-.15.22.05-.06.09-.13.15-.22Z"/>
    <path class="cls-1" d="m217.05,66.66s-.03.06-.04.09c.05-.05.1-.1.1-.06.07-.17.11-.28-.06-.03Z"/>
    <path class="cls-1" d="m208.26,67.5s.01-.03.02-.05c-.03.05-.03.05-.02.05Z"/>
    <path class="cls-1" d="m209.76,63.31s.03-.01.04-.01c0-.03,0-.03-.04.01Z"/>
    <path class="cls-1" d="m217.65,66.91s.03-.04,0,0h0Z"/>
    <path class="cls-1" d="m216.87,68.44s-.06.09-.11.18c.05-.09.09-.15.11-.18Z"/>
    <path class="cls-1" d="m215.55,68.91s0,0,0,0c-.04.08-.03.06,0,0Z"/>
    <path class="cls-1" d="m217.58,67.09s.04-.09.04-.12c-.01.03-.03.07-.04.12Z"/>
    <path class="cls-1" d="m217.68,66.91s0,.03,0,.04c.04-.06.06-.1,0-.04Z"/>
    <path class="cls-1" d="m217.62,66.92s.01.02,0,.05c.01-.03.02-.05.03-.06,0,0-.02,0-.03,0Z"/>
    <path class="cls-1" d="m210.1,67.22s0-.02.02-.04c-.11.15-.08.13-.02.04Z"/>
    <path class="cls-1" d="m213.4,69.93s0-.01.01-.02c0,0,0,0,0-.01l-.02.03Z"/>
    <path class="cls-1" d="m213.18,70.17c.29-.45.27-.39.23-.28l.61-1.09-.84,1.37Z"/>
    <path class="cls-1" d="m210.96,69.08l-.16.36c-.37.53-.29.32-.53.81.68-1.17.22-.03.9-1.21l-.12.26s-.04.05-.04.04c-.27.59.53-.83.49-.63-.03.1-.11.28-.21.41l.22-.26s-.12.23-.12.2l.13-.05-.02.03c.12-.18.31-.45.39-.56-.08.18-.08.12-.16.27l.21-.26c-.16.31-.36.59-.37.53-.64,1.2.21-.28-.11.46l-.13.13c-.36.68-.19.46-.38.9.11-.22.51-1.1.73-1.37-.04.1-.05.15.12-.07-.24.42-.16.33-.11.32l-.32.55c.12-.14.28-.42.45-.66,0,.08-.24.51-.44.88,0,.12.36-.71.49-.78-.07.24.09.03.34-.27-.08.21-.2.34-.28.5l.28-.42s-.08.15-.12.22c.12-.16.32-.55.45-.68.36-.6-.43.94.02.27-.08.16-.2.34-.32.55.33-.42.25-.3.66-.88l-.16.39c.21-.44.53-.9.81-1.29.1-.21.19-.39.24-.48l.23-.26c-.04.1-.16.28-.3.51.03-.04.06-.09.09-.13-.1.22-.29.53-.49.83.06-.11.12-.23.17-.35-.21.33-.44.69-.62,1.02.04-.06.08-.11.11-.14-.06.09-.11.17-.14.23-.03.06.05-.06.14-.19l-.34.63.14-.24-.14.43c.42-.59.99-1.48,1.23-1.68-.28.44-.43.74-.74,1.27.3-.58-.21.2-.19.06,0,.07-.16.33-.22.41l.38-.47c-.25.44-.17.34-.25.53.48-.88.4-.54.58-.79-.17.29-.35.59-.35.49-.33.68.65-.98.37-.4-.01,0,0-.05-.08.1.17-.25.11,0-.05.24h-.01c0,.14.2.13.64-.6-.05.1-.52.88-.61,1.03l1.55-2.41c-.38.63-1.2,2.16-1.47,2.48-.04.1-.08.22.09.01.04-.1.5-.93.55-.98-.36.73-.19.39-.48,1.02.06-.15.65-1.13.66-1.08-.09.15-.56.98-.63,1.08l.63-.94c-.12.17-.48.82-.62,1.11.1-.19.05.05.12-.04l.1-.24c-.01.19.86-1.33.91-1.23-.12.2-.74,1.23-.77,1.37.3-.49,1.46-2.36,1.74-2.7l-.15.29.24-.3c-.46.73-1.46,2.26-1.86,2.85-.1.24-.19.34-.13.34-.14.28-.26.39-.28.4v.23c.33-.59.41-.54.68-1.03l-.45.54c.33-.58,1.01-1.62,1.02-1.48-.12.24-.61,1.03-.72,1.22.12-.2.29-.35.21-.2l-.21.29c-.09.24.51-.74.23-.15,0,.05-.39.78-.18.43.36-.68,1.54-2.74,1.84-3.23-.02.05-.28.68-.45,1.02-.27.54-.75,1.22-.99,1.68.09-.16.22-.35.26-.41-.06.15-.29.49-.21.44.35-.59.04.09.3-.49.13-.15-.03.14.02.14.21-.39.79-1.28.92-1.43-.09.15-.19.35-.24.44.04.09-.07.39-.01.43-.08.15-.14.34-.3.58.07-.1.19-.29.22-.3-.25.53-.09.05-.42.68.2-.34.33-.44.48-.64.3-.54,0-.14-.16.06.42-.73.91-1.47,1.18-1.76.16-.15-.25.49-.18.39.03.19.83-1.23.61-.65-.23.49-.53.93-.72,1.27-.15.15.1-.34.06-.34l-.09.24c-.1.15-.2.25-.14.1-.21.44.13.18-.01.62.1-.15.22-.3.32-.49l-.06.05c.19-.39.35-.49.42-.69.19-.24.46-.64.39-.4l-.3.54c.09-.16.15-.33.04-.18.16-.22-.34.76.08.08l.18-.39c.19-.25.56-.79.5-.59.28-.54-.04.05.28-.58-.41.78-.09-.1-.51.73.38-.73.12-.33.43-.96-.1.18-.18.34-.16.24-.03.05-.07.11-.1.15,0,0,0,0,0-.01,0,0,0,.02-.01.02-.02.03-.02.03,0,0-.04.08-.08.18-.14.28-.25.39-.3.35-.44.54.03-.1.12-.2.22-.39l-.21.29c.22-.39.32-.68.5-.88l-.04-.04c.1-.23.11-.34,0-.19.03-.1-.3.4-.11.11l-.21.2.06-.1c-.04-.09-.52.56-.19-.19-.08.08-.17.19-.15.06l.19-.34c-.1.1.1-.39-.11-.05.49-.92-.03-.28,0-.47l-.26.44s-.13.06-.28.21l-.22.39c-.22.3.06-.33-.03-.33.09-.15.08-.1.04,0,.43-.92-.52.55-.22-.13-.1.13-.08.08-.04-.03,0,0,0,0,.02-.02,0,0,0,0,0,0,.03-.07.07-.15.1-.22-.05.1-.09.18-.1.22-.02,0-.06.04-.14.12l.23-.42s0,0-.01,0c.07-.16-.13.19-.3.51-.05.06-.11.14-.17.24.37-.68-.18.2.21-.53-.21.34-.25.21-.68.94.05-.1.08-.15.09-.15.03-.1.05-.19-.09,0l.3-.54-.46.69c.16-.34.25-.53.52-.93-.43.59-.19.2-.61.79l.2-.34s-.33.44-.18.15c.33-.68-.18-.22.05-.9-.56,1.02.21-.48-.25.3.13-.24.19-.39.33-.58-.2.2.13-.43-.3.2.13-.24.21-.34.29-.49-.03.05-.14.2-.06.05.08-.15.12-.2.19-.29-.09,0-.52.74-.92,1.43.16-.35.11-.31-.17.13.12-.23.24-.48.32-.54,0-.05.06-.41-.26.14.07-.14,0-.06-.05,0-.03-.06,0-.11-.08-.09l-.04.1c-.4.66-.13.13-.21.18l.04-.07c.19-.53-.17.21.06-.39l-.23.42c-.52.89.23-.57-.02-.26l-.12.25c-.2.29.62-1.26.66-1.39.04-.08.08-.12.12-.17.23-.57-.32.54-.45.63.16-.3.44-.74.44-.81.12-.25-.65.89-.38.3-.12.23-.24.46-.36.62-.09.06.39-.92-.06-.22.03-.06.06-.12.1-.18-.14.17-.27.25-.51.63.8-1.45-.59.59.18-.73l-.13.02.08-.13c0-.12-.21.18-.41.49.04-.1.12-.22.16-.28.07-.32.03-.26-.42.35l.24-.43c-.16.24.27-.74-.11-.29.03-.05.08-.13.12-.19-.38.45.46-1.32-.47.22l-.28.35c0,.17-.4.67-.52.95-.08.07.19-.52.28-.58l-.04.08c.48-.81.07-.35.39-.9-.18-.05-.07-.59-.2-.71l-.35.64-.03-.07c.07-.16.27-.51.29-.46.19-.37-.23.27-.31.4.08-.3.45-.72.44-.75l-.06.03-.04.08c-.17.24-.33.52-.36.46.05-.14.21-.4.21-.43.03-.04.03-.07,0-.03l-.03-.09-.26.52c-.17.23-.05-.06-.34.52.46-.9-.06-.45.07-.74-.25.34-.29.31-.31.24-.05.11-.36.68-.37.58.68-1.15.21-.55.66-1.4-.29.57-.2.07-.6.88.02-.11.25-.44.38-.72-.34.4-.02-.4-.21-.31-.09.15-.21.39-.36.61l.38-.79c-.06.06-.53.87-.26.32-.07.13-.17.33-.21.37.22-.86-.77.37-.17-1.15-.14.31-.18.33-.21.33-.03.08-.22.38-.33.58l.24-.62c-.35.56-.11-.01-.44.53l.08-.08c-.41.63-.78,1.47-1.26,2.29.46-.71-.52,1.15.15.14-.08.18-.17.26-.27.46.22-.35.29-.41.23-.23l-.05.09c.16-.03,0,.35-.01.65l.23-.42c0,.07-.07.2-.12.31.39-.61-.05-.08.37-.75-.45.85.17.12-.35,1.08.04.03.26-.48.3-.45l-.14.26.2-.33c0,.07-.18.4-.3.62,0-.03-.05.05-.07.07-.14.32.15-.05.11.06l.05-.18c.25-.18.18.24.59-.23l.1-.2c.29-.31-.06.25.12.13l-.03.04c.13-.18.21-.27.22-.23-.15.21-.21.46-.39.7.31-.33.22-.28.69-.96l-.17.33c.19-.28.28-.43.37-.49-.19.26-.25.51-.5.85-.31.76.54-.63,0,.42.55-.87.21-.54.34-.72.15-.3.42-.64.4-.54.02.04-.61,1.17-.52,1.19,0,0-.04.06-.05.05-.1.24.23-.28.05.11.33-.53.03.06.43-.63l-.16.12c.14-.16.64-.94.48-.51-.08.14-.21.31-.28.4-.1.21.11-.11.01.11-.4.68-.17.1-.51.6-.15.3.36-.45-.08.28.57-.93,0,.16.47-.53l-.24.41c.05-.06.17-.24.18-.23l-.33.52c.3-.43-.15.44.03.22-.09-.03.27-.51.41-.83.42-.49-.56,1.11-.34.98-.05.05.09-.28.22-.46-.03.1-.09.27-.2.49.12-.04.23-.43.41-.66-.26.52.15-.18.28-.32l-.24.42c-.07.32.52-.86.41-.49l-.37.56.13-.13-.28.47c.25-.33.21-.23.17-.07.16-.3.44-.76.49-.75-.12.26-.24.39-.16.36-.16.25-.36.58-.17.18-.08.13-.16.26-.24.39-.14.3.03.1.05.11,0-.02,0-.05.04-.11l.41-.53c-.08.16-.16.28-.24.4.04-.04.16-.22.21-.24-.2.34-.4.69-.53.83l.29-.33c-.08.15-.2.43-.28.55-.07.22.48-.6.38-.31.04-.06.08-.12.12-.17,0,.11-.19.55.14.12l-.32.63c.13-.11.4-.79.61-.98.17-.16-.28.53-.36.71.2-.29.61-.89.38-.36-.08.11-.04,0-.09.04Zm.74.06c-.06.08-.24.34-.11.09.29-.47.17-.24.11-.09Zm1.46-.5c-.09.13-.06.06.02-.11.03-.03.03,0-.02.11Zm4.13-1.5s0,.01-.01.02c.07-.18.04-.11.01-.02Zm-.05.21c.04-.06.07-.11.1-.17-.06.1-.08.1-.08.07-.06.11-.1.19-.03.11Zm-5.68-3.06l-.05.12c-.09.11-.02,0,.05-.12Z"/>
    <path class="cls-1" d="m212.73,69.16c.04-.07.08-.15.13-.23-.04.07-.09.15-.13.23Z"/>
    <path class="cls-1" d="m210.47,69.09s0,0,0,0c-.02.02-.03.05-.05.07l.04-.07Z"/>
    <path class="cls-1" d="m214.39,70.44c.02-.07.06-.15.1-.23-.06.1-.1.19-.1.23Z"/>
    <path class="cls-1" d="m217.92,66.81l-.1.09s-.02.08-.05.15c.06-.1.13-.24.15-.24Z"/>
    <path class="cls-1" d="m216.72,69.57s.01,0,.05-.05l.11-.2s-.13.15-.16.24Z"/>
    <path class="cls-1" d="m217.15,68.22c-.2.35-.11.25-.05.19,0,0,0,0,0,0,.29-.49.17-.34.05-.19Z"/>
    <path class="cls-1" d="m217.12,68.4s.03-.02.03,0c.12-.2.01-.05-.03,0Z"/>
    <path class="cls-1" d="m217.44,67.17c-.04.1.27-.45.19-.3.27-.44-.39.5-.19.3Z"/>
    <polygon class="cls-1" points="216.5 69.39 216.75 68.95 216.53 69.29 216.5 69.39"/>
    <path class="cls-1" d="m216.5,68.96l-.03.14c.04-.07.07-.11.1-.14-.01-.03,0-.13-.06,0Z"/>
    <path class="cls-1" d="m216.57,68.96s.02.01.07-.05c0,0-.03,0-.07.05Z"/>
    <polygon class="cls-1" points="216.38 69.49 216.42 69.39 216.41 69.35 216.38 69.49"/>
    <path class="cls-1" d="m216.15,68.65l-.11.1c-.09.15-.13.24-.08.19.07-.1.12-.15.19-.29Z"/>
    <path class="cls-1" d="m215.59,69.91c.04-.1.1-.19.17-.34l-.31.54.14-.2Z"/>
    <path class="cls-1" d="m215.4,69.97c-.09.15-.31.39-.23.39.09-.15.2-.25.23-.39Z"/>
    <polygon class="cls-1" points="215.18 68.93 215.19 68.93 215.7 68.05 215.18 68.93"/>
    <path class="cls-1" d="m213.42,70.73c-.07.24.33-.54.22-.25.13-.2.09-.24.2-.41-.16.2-.1.07-.42.66Z"/>
    <path class="cls-1" d="m213.84,70.07s.05-.07.09-.13c-.04.05-.07.09-.09.13Z"/>
    <polygon class="cls-1" points="209.92 62.77 209.99 62.57 209.84 62.87 209.92 62.77"/>
    <path class="cls-1" d="m209.48,63.39l.32-.57-.31.5s.06-.06,0,.07Z"/>
    <path class="cls-1" d="m211.13,70.33l.08-.13c.08-.15.08-.16.08-.2l-.16.33Z"/>
    <polygon class="cls-1" points="210.95 69.67 210.95 69.68 211.23 69.16 210.95 69.67"/>
    <path class="cls-1" d="m210.22,70.11s.08-.07.09-.04c-.08.07.27-.59-.09.04Z"/>
  </g>
  <g>
    <path class="cls-1" d="m149.64,335.98c.08-.01-.18-.34-.21-.41-.05.14.28.49.21.41Z"/>
    <polygon class="cls-1" points="149.1 337.46 149.03 337.31 149.09 337.77 149.1 337.46"/>
    <path class="cls-1" d="m148.04,338.05c.44.57.33-.31.64-.19l.11.12-.2-.54c-.18.2-.3.7-.55.61Z"/>
    <path class="cls-1" d="m146.79,336.97c.16.23-.01.27.16.02-.02-.02-.04-.03-.05-.05-.02.02-.05.03-.11.04Z"/>
    <path class="cls-1" d="m146.9,336.94c.09-.08-.17-.17,0,0h0Z"/>
    <path class="cls-1" d="m146.47,337.31l.04-.29c-.1-.13-.24-.11-.25-.24-.09.19.01.32.21.53Z"/>
    <path class="cls-1" d="m146.55,337.85l.03-.13c-.04-.06-.07-.07-.03.13Z"/>
    <path class="cls-1" d="m146.65,337.44l-.07.27c.07.09.17.3.04-.11.08.2.02,0,.03-.17Z"/>
    <path class="cls-1" d="m146.79,337.5c.15.1.3.14.26.43.24-.22-.02-.65-.26-.43Z"/>
    <path class="cls-1" d="m148.34,338.73l.21.12v-.26c0,.13-.33-.05-.21.14Z"/>
    <path class="cls-1" d="m145.43,337.38c.05.14.2.35.29.53l.04-.21c-.1-.07-.24-.11-.33-.32Z"/>
    <path class="cls-1" d="m145.72,337.91l-.07.31c.16-.03.14-.16.07-.31Z"/>
    <polygon class="cls-1" points="146.85 338.58 146.9 337.96 146.8 338.61 146.85 338.58"/>
    <polygon class="cls-1" points="144.8 337.59 144.77 337.23 144.8 337.79 144.8 337.59"/>
    <path class="cls-1" d="m144.41,337.8c-.03-.3-.26-.43-.25-.63-.09.09-.1.36-.12.61.05-.15.16-.16.36.02Z"/>
    <path class="cls-1" d="m144.01,338.14c.03-.08.04-.21.04-.36-.03.08-.04.19-.04.36Z"/>
    <path class="cls-1" d="m145.34,338.25c-.05-.08-.16-.3-.29-.36l.22.37s.04-.01.07-.02Z"/>
    <path class="cls-1" d="m145.28,338.28h0c-.08,0-.13.01-.15.02.02,0,.07,0,.16-.02Z"/>
    <path class="cls-1" d="m145.36,338.25h-.02s.03.05.02,0Z"/>
    <path class="cls-1" d="m146.26,338.43c0,.26-.11.6.23.84-.04-.3-.24-.44-.23-.84Z"/>
    <path class="cls-1" d="m145.63,338.71l.22.02c-.05-.1-.14-.24-.14-.37l-.08.35Z"/>
    <polygon class="cls-1" points="145.59 338.87 145.63 338.71 145.55 338.7 145.59 338.87"/>
    <path class="cls-1" d="m144.44,338.41c-.02.2-.09.25-.18.31.13.05.25.05.35,0-.03-.13-.07-.38-.17-.32Z"/>
    <path class="cls-1" d="m144.86,338.38v.03s.03.04,0-.03Z"/>
    <path class="cls-1" d="m143.29,339.01s.03.05.04.07l-.02-.07h-.02Z"/>
    <path class="cls-1" d="m144.65,338.8c.1.05.12-.07.12-.21-.04.06-.1.11-.16.14.01.06.03.1.04.07Z"/>
    <path class="cls-1" d="m143.81,338.41c.07.07.14.13.21.18-.08-.12-.23-.29-.21-.18Z"/>
    <path class="cls-1" d="m144.78,338.31v-.02c-.05-.08-.03-.04,0,.02Z"/>
    <path class="cls-1" d="m144.78,338.31c-.02.07-.01.18-.01.28.04-.05.06-.11.08-.18-.02-.02-.05-.06-.07-.1Z"/>
    <path class="cls-1" d="m143.72,341.75c-.09-.39.04-.81.35-.46.11-.34-.39-1.55-.74-2.21.04.17.09.32-.04.6.12.19.56.36.5.75-.2.27-.25-.07-.43-.24.24.44-.14.79.1,1.48l.17-.32c.03.11,0,.31.09.39Z"/>
    <path class="cls-1" d="m143.69,339.02l.06-.07c-.11-.04-.21-.17-.41-.44-.07.22-.05.37-.03.5l.38-.06v.06Z"/>
    <path class="cls-1" d="m144.08,338.85c.07.43-.06.66.2,1.07.22-.1.05-.39.13-.61-.33.21.03-.26-.31-.41.05-.09.1-.13.16-.16-.08-.03-.16-.07-.24-.13l.02.02h0s0,0,0,0c.03.05.05.08.02.05,0,0,0,.01,0,.01.02.06.03.11.03.16-.13-.05-.05-.1-.03-.16l-.02-.06h0s-.28.33-.28.33c.09.03.18,0,.34-.1Z"/>
    <path class="cls-1" d="m146.66,340.21s-.04-.06-.05-.09c0,.06,0,.1.05.09Z"/>
    <path class="cls-1" d="m146.4,340.03c0-.07-.04-.23.07-.23.12.09.08.19.14.32,0-.13.06-.37-.18-.49v.07c-.21-.08-.6-.51-.59-.57.19.34.33.59.57.9Z"/>
    <path class="cls-1" d="m145.24,339.56l-.23.31.28.29-.08-.21c.2.02.07-.23.04-.4Z"/>
    <polygon class="cls-1" points="143.2 338.81 143.11 338.37 143.12 339.03 143.2 338.81"/>
    <polygon class="cls-1" points="142.83 338.98 142.74 338.6 142.71 338.86 142.83 338.98"/>
    <path class="cls-1" d="m118.36,339.38l-.15.03c.06,0,.11-.01.15-.03Z"/>
    <path class="cls-1" d="m119,339.82l.12-.15c-.09.07-.14.13-.12.15Z"/>
    <path class="cls-1" d="m133.03,339.7c-.09-.39-.16-.98-.2-.53v.44c.09-.06.15,0,.2.1Z"/>
    <path class="cls-1" d="m125.52,340.53s0,.09,0,.14c.08-.13.16-.24.24-.35-.07.07-.15.14-.23.21Z"/>
    <path class="cls-1" d="m124.79,342.17l-.09-.34c0,.11.03.22.09.34Z"/>
    <path class="cls-1" d="m114.69,337.15l-.39.25c.16.13.23-.1.39-.25Z"/>
    <path class="cls-1" d="m138.81,339.86c-.13-.16-.23-.22-.31-.23.16.23.31.6.31.23Z"/>
    <path class="cls-1" d="m121.14,335.69c-.09.04-.16.1-.21.18.09-.03.16-.08.21-.18Z"/>
    <path class="cls-1" d="m138.18,339.66s.04.06.07.1c.08-.08.16-.15.26-.13-.12-.17-.24-.28-.33.03Z"/>
    <path class="cls-1" d="m106.06,324.34s.02-.03.04-.05c-.06.02-.05.03-.04.05Z"/>
    <path class="cls-1" d="m109.12,319.11s.04.09.06.15c.02-.03.01-.08-.06-.15Z"/>
    <path class="cls-1" d="m141.23,339.16c.08-.05,0-.05,0,0h0Z"/>
    <path class="cls-1" d="m141.99,340.74c0,.05,0,.12,0,.21-.01-.1-.02-.17,0-.21Z"/>
    <path class="cls-1" d="m137.45,342.4h0c.03.08.03.07,0,0Z"/>
    <path class="cls-1" d="m141.39,339.32s-.09-.08-.13-.1c.02.03.06.06.13.1Z"/>
    <path class="cls-1" d="m141.34,339.13s.06.02.08.02c0-.07-.02-.12-.08-.02Z"/>
    <path class="cls-1" d="m141.12,339.2s.09,0,.14.02c-.02-.03-.03-.05-.03-.06-.02.01-.05.03-.11.05Z"/>
    <path class="cls-1" d="m111,330.93s.01-.02.02-.04c-.2.03-.15.05-.02.04Z"/>
    <path class="cls-1" d="m129.96,343.77s.01-.01.02-.02v-.02s-.02.04-.02.04Z"/>
    <path class="cls-1" d="m129.54,344.01c.26-.5.33-.42.42-.28l.13-1.25-.55,1.53Z"/>
    <path class="cls-1" d="m116.77,338.4l-.03.47c-.63.33-.69.01-.82.6.84-1.07.91.5,1.72-.59l-.03.33s-.08.02-.11-.02c-.11.73.76-.67.99-.28.06.16.04.39-.13.46l.46-.1c.06.07-.08.26-.15.19l.47.18-.02.03c.17-.14.48-.33.62-.41,0,.23-.13.09-.19.25l.4-.13c-.09.36-.46.53-.59.38-.49,1.29.36-.16.44.79l-.32.02c-.25.75.08.61.1,1.18.06-.26.08-1.34.52-1.49.02.13.09.23.37.07-.24.42-.04.4.14.47l-.32.55c.28-.05.42-.35.67-.54.18.17-.01.63-.16,1.03.3.27.13-.82.59-.72.17.36.5.22,1,.04.1.29-.2.34-.21.54l.4-.38s-.04.17-.08.23c.23-.11.29-.57.59-.62.35-.61.05,1.17.67.55,0,.2-.19.35-.26.58.61-.32.5-.21,1.09-.73l.12.5c-.03-.53.44-.95.82-1.3.01-.25.03-.46.02-.56l.46-.18c0,.11-.11.31-.26.54.04-.04.08-.08.12-.12.04.26-.15.59-.36.89,0-.14,0-.28.01-.42-.22.33-.46.7-.58,1.05.05-.06.12-.1.18-.11-.06.09-.11.17-.12.24-.01.07.08-.05.19-.18l-.17.7.12-.26.34.59c.6-.56,1.23-1.46,1.84-1.56-.29.46-.28.81-.47,1.4.04-.68-.51.12-.77-.1.13.12,0,.39-.07.47l.7-.39c-.16.48,0,.4.07.65.19-.98.58-.53.88-.77-.08.33-.22.64-.46.5.09.8.69-1.03.8-.34-.07,0-.09-.07-.16.09.23-.25.52.08.37.34h-.07c.39.23,1.3.31,1.54-.51-.02.11-.27.99-.33,1.15.46-.88.9-1.76,1.31-2.65-.21.7-.27,2.47-.71,2.8.08.12.19.27.45.06-.05-.12.02-1.07.12-1.12.11.85.1.47.31,1.2-.08-.17.23-1.28.38-1.22-.05.17-.17,1.12-.25,1.23l.59-1.05c-.13.19-.16.94-.11,1.27-.01-.22.36.07.49-.02l-.14-.28c.45.23.66-1.5,1.09-1.39-.08.23-.29,1.41-.07,1.57.18-.56.75-2.72,1.15-3.13l.05.33.31-.35c-.22.85-.9,2.63-1.28,3.31.15.27.01.39.29.38.07.32-.19.45-.27.47l.62.25c.02-.67.53-.63.54-1.19l-.73.64c.03-.67.53-1.87.94-1.72.09.28-.15,1.19-.15,1.41.07-.22.44-.42.47-.26l-.2.35c.24.26.44-.88.71-.23.1.05.29.87.31.47-.16-.77-.12-3.14-.01-3.72.03.05.47.74.58,1.13.16.6-.24,1.43-.11,1.95,0-.18.1-.41.14-.48.11.16-.04.57.19.49.03-.68.47.04.1-.58.22-.2.24.13.5.09-.09-.44.19-1.51.39-1.71,0,.17.05.4.08.5.44.04.7.36,1.11.31.05.16.27.34.21.64.05-.13.09-.36.21-.39.31.56-.28.12-.02.81-.02-.4.29-.58.44-.84-.12-.6-.43-.07-.6.19-.07-.84.16-1.75.52-2.18.3-.24.21.53.25.4.64.08.31-1.53.89-1,.28.5.18,1.05.28,1.43-.24.25-.47-.27-.64-.22l.26.22c-.06.19-.22.35-.34.22.24.45,1.07-.08,1.64.28.05-.19.17-.41.05-.6l-.14.1c-.22-.4.17-.64-.06-.8.14-.34.25-.86.58-.69l.19.59c-.05-.17-.26-.32-.3-.11.05-.29.61.71.56-.1l-.29-.37c.13-.35.2-1.03.48-.89-.26-.56-.04.08-.37-.57.35.82-.6.1-.16.95-.35-.76-.37-.27-.74-.91.05.2.16.36-.06.31,0,.06,0,.14,0,.18h-.02s.02,0,.02,0c0,.03,0,.04,0,0,.06.08.12.17.16.28,0,.48-.32.53-.39.78-.14-.07,0-.24-.1-.44l-.1.38c-.1-.44-.44-.68-.21-.99l-.25.02c-.19-.23-.4-.29-.49-.09-.13-.08-.22.54-.17.18-.12.11-.23.23-.35.33l-.02-.11c-.39-.02-.73.82-1.25.06-.12.13-.25.28-.48.16l-.07-.39c-.16.14-.52-.37-.57.04-.21-1.04-.8-.19-1.1-.39v.51c-.22-.03-.41.11-.67.3v.45c-.23.36-.56-.31-.91-.31.03-.17.12-.12.18,0-.34-1.04-.94.66-1.26-.1-.11.15-.17.09-.23-.02,0,0,.02,0,.03-.02,0,0-.02,0-.04,0-.03-.08-.07-.17-.1-.25.03.11.05.21.08.25-.07,0-.19.04-.31.14v-.48s0,0-.01.01c-.08-.19-.11.21-.1.58-.06.07-.13.16-.18.27.02-.78-.32.22-.32-.62-.13.39-.59.22-.78,1.05.01-.11,0-.17.05-.16-.11-.11-.21-.22-.36-.01l.06-.61-.42.76c-.09-.4-.11-.63.13-1.06-.52.63-.36.21-.84.84l.1-.38c-.12,0-.43.47-.42.14-.09-.78-1.27-.44-1.73-1.29-.22,1.16-.14-.6-.44.25.05-.28,0-.45.18-.65-.41.15-.34-.58-.81.07.05-.27.2-.36.22-.52-.04.05-.18.19-.16.03.02-.17.12-.2.21-.3-.34-.06-.66.72-.96,1.46-.04-.41-.14-.4-.45.04.03-.27.04-.56.27-.57-.1-.08-.56-.64-.81-.06.03-.16-.14-.11-.2-.05-.25-.14-.25-.2-.53-.26l.03.13c-.42.66-.28.06-.52.04l.04-.07c-.22-.73-.32.14-.5-.65l-.19.44c-.51.9-.14-.74-.57-.52l-.03.3c-.31.23.27-1.46.2-1.65.01-.1.12-.1.19-.13-.05-.73-.35.52-.69.5.12-.32.49-.72.34-.87.06-.29-1.08.67-.98-.04-.09.26-.17.51-.39.6-.24-.05.03-1.16-.58-.57.02-.07.04-.14.08-.19-.26.09-.65,0-.99.31.82-1.44-1.33.02-.43-1.21l-.47-.24.11-.12c-.21-.27-.51-.07-.84.14,0-.13.14-.21.19-.26-.18-.55-.25-.52-1.06-.21l.29-.4c-.29.15-.01-1.03-.74-.94.04-.04.11-.1.19-.13-.8.05.06-1.84-1.35-.72l-.57.05c.22.44-.62.49-.7.84-.21-.07.06-.73.29-.62l-.04.09c.74-.58-.16-.65.33-1.07-.63-.66-.81-1.64-1.25-2.34l-.53.52-.14-.26c.09-.16.4-.42.5-.24.27-.33-.49-.07-.62.01,0-.5.79-.37.72-.48l-.14-.1-.05.08c-.32.07-.59.24-.71.01.03-.21.32-.32.31-.39.04-.03.05-.06-.03-.09l-.15-.34-.4.44c-.33.02-.17-.31-.62.2.7-.77-.46-1.36-.25-1.67-.48.01-.58-.19-.68-.47-.07.12-.62.47-.67.21,1.22-.56.28-.67,1.07-1.29-.49.45-.44-.54-1.13.11,0-.23.44-.23.66-.51-.69-.21-.15-1.08-.51-1.55-.17.06-.38.25-.67.23l.7-.61c-.12-.07-.99.26-.5-.15-.13.08-.32.2-.4.15.21-.69-.13-1.19-.39-1.73-.21-.55-.37-1.15.31-1.86-.31.22-.36.13-.39.01-.07.09-.43.08-.66.14l.57-.6c-.67.02-.13-.5-.77-.46l.14.14c-.78-.1-1.59.55-2.54.68.88.1-1.12.92.15,1.11-.17.13-.32-.01-.53.08.43.02.54.13.42.41h-.11c.28.64-.08,1.04-.09,1.87l.43-.19c0,.18-.14.26-.23.37.74-.03-.11-.46.7-.53-.85.5.35,1.11-.64,1.62.08.25.49-.26.57-.01l-.25.17.38-.07c0,.18-.31.39-.54.49.01-.05-.11-.09-.15-.12-.24.33.35.54.27.65l.07-.3c.26.28.38.65.54,1.01.18.35.4.68.82.85l.18-.14c.6.27-.05.48.39.9h-.06c.25,0,.42.08.48.22-.3,0-.31.48-.66.46.66.27.44.08,1.34-.02l-.28.26c.35-.06.51-.14.72.04-.38-.03-.4.45-.88.44-.38.94,1.16.3.31,1.17,1.01-.34.2-.74.47-.73.22-.28.77-.23.78-.03.08.16-.93.99-.65,1.38-.02-.04-.09,0-.11-.04-.12.3.49.08.27.5.58-.26.14.25.8-.19l-.4-.24c.32.08,1.2-.29,1.07.29-.15.07-.38.1-.53.11-.12.23.26.09.14.33-.65.45-.45-.32-1.1-.18-.19.3.76.07,0,.47.99-.5.17.47,1.03.22l-.39.27c.09,0,.33-.06.38.03l-.59.24c.57-.11-.04.68.35.71-.36-.4.37-.45.49-.84.9.09-.72,1.07-.07,1.5-.12-.03-.02-.47.24-.5.01.17,0,.43-.14.66.39.31.32-.38.67-.41-.33.51.33.03.61.06l-.36.32c.15.61.84-.57.9.04l-.63.3.3.07-.44.34c.49-.07.47.06.55.37.2-.28.65-.58.83-.42-.09.32-.39.26-.1.45-.27.16-.6.36-.38-.06-.12.1-.27.16-.39.25-.11.36.26.38.36.46-.02-.05-.05-.1-.02-.17l.83-.13c-.07.18-.21.25-.36.31.11.03.32-.08.45,0-.3.26-.57.56-.85.54l.65.02c-.09.15-.14.51-.28.58.05.36.99-.1,1.06.35.06-.05.14-.08.23-.07.2.28.12.84.76.68l-.27.69c.34.07.32-.89.88-.76.42.04-.26.55-.28.79.37-.17,1.05-.56.97.1-.17.04-.18-.09-.29-.11Zm3.33,1.84c-.11.05-.4.25-.3-.02.35-.43.27-.18.3.02Zm5.6,1.34c-.1.13-.15.03-.18-.17.08-.02.14.02.18.17Zm14.68-1.88s0,.01,0,.02c-.17-.16-.11-.1,0-.02Zm.32.16c.02-.07,0-.14-.02-.2,0,.12-.06.14-.14.12.04.12.09.2.16.08Zm-27.64-11.61l-.07.12c-.19-.03-.06-.07.07-.12Z"/>
    <path class="cls-1" d="m124.88,341.98c.01-.08.04-.17.07-.26-.05.07-.09.15-.07.26Z"/>
    <path class="cls-1" d="m114.76,337.1s0-.01,0-.01c-.02.02-.05.04-.07.06l.07-.05Z"/>
    <path class="cls-1" d="m136.19,344.34c-.07-.07-.11-.16-.13-.25,0,.12.03.22.13.25Z"/>
    <path class="cls-1" d="m142.03,338.75l-.15.16c.08-.04.13.05.2.12-.03-.11-.1-.26-.05-.28Z"/>
    <path class="cls-1" d="m144.41,341.2c.01-.06.06-.02.07-.09l-.07-.21c-.11.05-.15.25,0,.3Z"/>
    <path class="cls-1" d="m142.57,340.27c.11.39.2.23.31.13,0,0-.01,0-.02,0-.1-.56-.19-.35-.29-.13Z"/>
    <path class="cls-1" d="m142.91,340.38s.07-.05.12-.04c-.04-.22-.06-.03-.12.04Z"/>
    <path class="cls-1" d="m141.02,339.53c.08.09-.06-.52,0-.36-.03-.52-.29.68,0,.36Z"/>
    <polygon class="cls-1" points="142.99 341.55 142.83 341.07 142.85 341.48 142.99 341.55"/>
    <path class="cls-1" d="m141.83,341.44l.25.09c-.02-.08,0-.14.02-.18-.14.01-.3-.05-.27.09Z"/>
    <path class="cls-1" d="m142.1,341.34c.07,0,.14-.03.16-.12-.04.01-.11.05-.16.12Z"/>
    <polygon class="cls-1" points="142.73 341.76 142.64 341.68 142.47 341.68 142.73 341.76"/>
    <path class="cls-1" d="m139.44,341.71l-.23.17c0,.17.07.27.16.19.05-.12.13-.2.07-.36Z"/>
    <path class="cls-1" d="m140.36,342.98c-.08-.09-.1-.2-.16-.36l.08.62.09-.26Z"/>
    <path class="cls-1" d="m139.64,343.21c0,.17-.32.53,0,.46,0-.17.25-.34,0-.46Z"/>
    <polygon class="cls-1" points="135.8 342.62 135.86 342.62 135.86 341.6 135.8 342.62"/>
    <path class="cls-1" d="m132.2,344.83c.29.29.15-.61.4-.27.1-.23-.2-.27-.1-.47-.22.23-.3.07-.29.75Z"/>
    <path class="cls-1" d="m132.49,344.08s.07-.08.11-.14c-.06.06-.09.1-.11.14Z"/>
    <polygon class="cls-1" points="109.55 318.4 109.73 318.21 109.41 318.36 109.55 318.4"/>
    <path class="cls-1" d="m108.75,318.19l.64-.13-.6-.02s.1.1-.04.15Z"/>
    <path class="cls-1" d="m119.95,341.66l.09-.13c.05-.16.02-.2-.05-.27l-.04.4Z"/>
    <polygon class="cls-1" points="117.79 339.76 117.82 339.8 118.08 339.27 117.79 339.76"/>
    <path class="cls-1" d="m115.42,338.97c.06.08.24.04.3.12-.24-.04.13-.71-.3-.12Z"/>
  </g>
</svg>